<?xml version="1.0" encoding="utf-8"?>
<!-- Generator: Adobe Illustrator 26.1.0, SVG Export Plug-In . SVG Version: 6.00 Build 0)  -->
<svg version="1.1" id="Layer_1" xmlns="http://www.w3.org/2000/svg" xmlns:xlink="http://www.w3.org/1999/xlink" x="0px" y="0px"
	 viewBox="0 0 1500 1500" style="enable-background:new 0 0 1500 1500;" xml:space="preserve">
<style type="text/css">
	.st0{fill:#E03F3F;}
	.st1{fill:#BA3636;}
	.st2{fill:#DB42DB;}
	.st3{fill:#AF3BB2;}
	.st4{fill:#DD7440;}
	.st5{fill:#C1653D;}
	.st6{fill:#67DD40;}
	.st7{fill:#5DB73B;}
	.st8{fill:#4071DD;}
	.st9{fill:#3967B7;}
</style>
<image style="overflow:visible;" width="1200" height="315" xlink:href="CC69B1A7.jpg"  transform="matrix(1 0 0 1 -2904 3987)">
</image>
<g>
	<path class="st0" d="M458.5,431c-25.9,3.3-47.8,20.5-57.4,44.8c-10.1,25.5-20.2,61.3-15.8,94.6c8.1,60.9,28.4,138,40.6,146.1
		c0,0-87.2,83.2-50.7,172.4s113.6,146.1,231.3,142s174.5-4.1,239.4,20.3s243.5,52.7,284-101.4c0,0,20.3-48.7-32.5-170.4
		c0,0,52.7-150.1-8.1-235.3c0,0-8.1-28.4-133.9-28.4s-251.6,24.3-296.2,0c-44.6-24.3-129.8-81.2-166.4-85.2
		C481.2,429,469.3,429.6,458.5,431z"/>
	<g>
		<path class="st1" d="M442.1,586.5c0,0-28.4-77.1,16.2-73c44.6,4.1,44.6,52.7,73,52.7s60.9-48.7,101.4-24.3
			c40.6,24.3,24.3,40.6,64.9,36.5c40.6-4.1,52.7-32.5,77.1-36.5c0,0-89.3-4.1-109.6-16.2s-166.4-105.5-206.9-85.2
			s-56.4,45.8-54.6,71.6s-2.3,82.6,62.7,98.8C466.5,610.9,446.2,602.8,442.1,586.5z"/>
		<path class="st1" d="M395.4,610.9c0,0,25.8,125.8,147.9,119.7c122-6.1,166.7-18.3,203.2,14.2c36.5,32.5,28.4,77.2,28.4,77.2
			s-12.2-44.8-32.5-24.5c-20.3,20.3-4.1,89.3-32.5,109.6s-101.4,73-174.5-89.3L521.3,759C521.3,759,427.8,779.3,395.4,610.9z"/>
		<path class="st1" d="M1010.2,533.8c0,0,73,40.6,60.9,81.2c-12.2,40.6-47.8,97.4-141.6,115.6c0,0,44.2,38.5,44.2,46.7
			c0,8.1-4.1,28.4-32.5,20.3c-28.4-8.1-52.7-28.4-52.7-28.4s4.1,48.7,60.9,56.8c56.8,8.1-20.3,24.3-8.1,73
			c12.2,48.7,52.7,64.9,52.7,85.2s-24.3,73-89.3,69s-101.4-32.5-85.2-105.5c0,0-36.5,44.6-40.6,60.9s52.7,52.7,117.7,56.8
			s178.5,0,206.9-64.9c28.4-64.9,28.4-121.7,8.1-162.3s-24.3-60.9-12.2-97.4c12.2-36.5,40.6-121.7,0-170.4
			S1010.2,533.8,1010.2,533.8z"/>
	</g>
</g>
<g>
	<path class="st2" d="M6065.8-5968.6c-25.9,3.3-47.8,20.5-57.4,44.8c-10.1,25.5-20.2,61.3-15.8,94.6c8.1,60.9,28.4,138,40.6,146.1
		c0,0-87.2,83.2-50.7,172.4c36.5,89.3,113.6,146.1,231.3,142c117.7-4.1,174.5-4.1,239.4,20.3s243.5,52.7,284-101.4
		c0,0,20.3-48.7-32.5-170.4c0,0,52.7-150.1-8.1-235.3c0,0-8.1-28.4-133.9-28.4c-125.8,0-251.6,24.3-296.2,0
		c-44.6-24.3-129.8-81.2-166.4-85.2C6088.4-5970.6,6076.6-5970,6065.8-5968.6z"/>
	<g>
		<path class="st3" d="M6049.4-5813.1c0,0-28.4-77.1,16.2-73c44.6,4.1,44.6,52.7,73,52.7c28.4,0,60.9-48.7,101.4-24.3
			c40.6,24.3,24.3,40.6,64.9,36.5c40.6-4.1,52.7-32.5,77.1-36.5c0,0-89.3-4.1-109.6-16.2c-20.3-12.2-166.4-105.5-206.9-85.2
			c-40.6,20.3-56.4,45.8-54.6,71.6c1.8,25.8-2.3,82.6,62.7,98.8C6073.7-5788.7,6053.5-5796.8,6049.4-5813.1z"/>
		<path class="st3" d="M6002.7-5788.7c0,0,25.8,125.8,147.9,119.7s166.7-18.3,203.2,14.2c36.5,32.5,28.4,77.2,28.4,77.2
			s-12.2-44.8-32.5-24.5c-20.3,20.3-4.1,89.3-32.5,109.6c-28.4,20.3-101.4,73-174.5-89.3l-14.2-58.8
			C6128.5-5640.6,6035.1-5620.3,6002.7-5788.7z"/>
		<path class="st3" d="M6617.5-5865.8c0,0,73,40.6,60.9,81.2c-12.2,40.6-47.8,97.4-141.6,115.6c0,0,44.2,38.5,44.2,46.7
			s-4.1,28.4-32.5,20.3s-52.7-28.4-52.7-28.4s4.1,48.7,60.9,56.8s-20.3,24.3-8.1,73c12.2,48.7,52.7,64.9,52.7,85.2
			c0,20.3-24.3,73-89.3,69c-64.9-4.1-101.4-32.5-85.2-105.5c0,0-36.5,44.6-40.6,60.9c-4.1,16.2,52.7,52.7,117.7,56.8
			c64.9,4.1,178.5,0,206.9-64.9c28.4-64.9,28.4-121.7,8.1-162.3c-20.3-40.6-24.3-60.9-12.2-97.4c12.2-36.5,40.6-121.7,0-170.4
			S6617.5-5865.8,6617.5-5865.8z"/>
	</g>
</g>
<g>
	<path class="st4" d="M2801.3-5774.5c0,0-165-18-177.9,124.9s108.9,252.4,141.3,264.6c32.5,12.2,154.2,4.1,211,24.3
		c56.8,20.3,255.6,89.3,332.7-12.2s52.7-125.8,113.6-158.2c60.9-32.5,48.7-121.7,32.5-146.1S3341-5823.2,3276-5827.3
		c-64.9-4.1-280,12.2-280,12.2s12.2-60.9-16.2-69S2845.9-5920.6,2801.3-5774.5z"/>
	<path class="st5" d="M2758.7-5736c0,0-4.1,121.7,239.4,93.3c0,0-36.5,28.4-28.4,56.8s32.5,48.7,32.5,48.7s-4.1,40.6,12.2,69
		c16.2,28.4,93.3,69,142,28.4c48.7-40.6,10.2-116.8-92.3-139.5c0,0,96.3-39,145,21.9c48.7,60.9,48.7,182.6-28.4,186.6
		s-166.4-36.5-198.8-44.6s-235.3,12.2-271.9-133.9C2710-5549.3,2669.4-5667,2758.7-5736z"/>
	<path class="st5" d="M2953.5-5882c0,0,28.4,28.4,12.2,48.7c-16.2,20.3-77.1,32.5-81.2,52.7c-4.1,20.3,0,52.7,0,52.7
		s117.7-44.6,109.6-101.4C2985.9-5886.1,2953.5-5882,2953.5-5882z"/>
	<path class="st5" d="M3209.1-5825.2c0,0-18.1,54.1,33.6,83.9c51.6,29.8,100.3,54.1,104.4,70.3s-24.3,56.8-56.8,44.6
		c-32.5-12.2-47.6-32-47.6-32s11.1,36.1,55.7,60.4s36.5,56.8,24.3,81.2c-12.2,24.3-24.3,32.5-16.2,69c8.1,36.5,12.2,44.6,12.2,44.6
		s40.6-52.7,44.6-85.2c4.1-32.5,52.7-44.6,81.2-93.3c28.4-48.7-4.1-101.4-4.1-101.4s-89.3-113.6-150.1-138
		C3229.4-5845.5,3209.1-5825.2,3209.1-5825.2z"/>
</g>
<g>
	<path class="st6" d="M3844.1-5665c0,0-93.3-32.5-77.1-117.7c16.2-85.2,170.4-154.2,288.1-146.1s186.6,52.7,231.3,60.9
		c44.6,8.1,129.8-8.1,142-12.2s114.1-4.7,97.6,82.9c-16.5,87.6-48.9,140.3-40.8,156.5c8.1,16.2,36.5,101.4,32.5,129.8
		s8.1,158.2-150.1,162.3s-296.2-48.7-320.5-48.7s-89.3,4.1-121.7,32.5s-158.2,28.4-150.1-73S3823.8-5616.3,3844.1-5665z"/>
	<path class="st7" d="M3834-5796.8c0,0,117.7-56.8,186.6-20.3c69,36.5,125.8,109.6,235.3,81.2c109.6-28.4,138-85.2,60.9-101.4
		s-97.4,28.4-174.5,4.1c-77.1-24.3-89.3-56.8-150.1-52.7C3931.3-5882,3854.2-5833.4,3834-5796.8z"/>
	<path class="st7" d="M3801.5-5699.5c0,0,56.8-73,105.5-64.9c48.7,8.1,109.6,60.9,146.1,81.2s186.6,81.2,312.4,12.2
		c125.8-69,138-101.4,138-125.8c0-24.3-28.4-69-28.4-69s44.6,20.3,40.6,64.9c-4.1,44.6-20.3,89.3-28.4,121.7s-12.2,44.6,4.1,73
		c16.2,28.4,32.5,142,12.2,170.4s-48.7,89.3-170.4,85.2c0,0,107.5-42.6,87.2-95.4s-44.6-113.6-81.2-121.7
		c-36.5-8.1-28.4,32.5-146.1,16.2c-117.7-16.2-174.5-93.3-202.9-93.3c-28.4,0-64.9,12.2-56.8,52.7c8.1,40.6,36.5,77.1,32.5,105.5
		c-4.1,28.4-16.2,85.2-16.2,85.2s-8.1-85.2-20.3-101.4s-64.9-36.5-56.8-121.7C3872.5-5624.4,3884.7-5677.1,3801.5-5699.5z"/>
</g>
<g>
	<path class="st8" d="M4899.1-5717.7c0,0-101.4,60.9-101.4,158.2c0,97.4,97.4,142,158.2,125.8s73-48.7,129.8-20.3
		c56.8,28.4,69,101.4,150.1,109.6s239.4,0,316.5-81.2s93.3-142,93.3-215.1s-4.1-174.5-93.3-190.7c-89.3-16.2-97.4,28.4-170.4,12.2
		s-178.5-97.4-267.8-85.2S4907.2-5884.1,4899.1-5717.7z"/>
	<path class="st9" d="M4941.7-5736c0,0,40.6-117.7,133.9-117.7c93.3,0,117.7,60.9,158.2,77.1c40.6,16.2,129.8,8.1,142-12.2
		c0,0,4.1,105.5-52.7,117.7c-56.8,12.2-121.7,20.3-146.1-32.5C5152.7-5756.3,5020.8-5766.4,4941.7-5736z"/>
	<path class="st9" d="M4899.1-5551.4c0,0,41.9-154.2,158.9-129.8c117,24.3,108.9,97.4,161.6,101.4c52.7,4.1,105.5,8.1,121.7-20.3
		s64.9-24.3,77.1,0s24.3,154.2-105.5,158.2c-129.8,4.1-210.5-120.3-275.7-121C4972.1-5563.5,4899.1-5551.4,4899.1-5551.4z"/>
	<path class="st9" d="M5623.4-5744.1c0,0-64.9,32.5-64.9,77.1c0,44.6,16.2,101.4-28.4,121.7l-12.2,8.1c0,0,16.2,105.5-28.4,158.2
		c0,0,130.6-81.2,144.4-182.6C5647.7-5662.9,5639.6-5740,5623.4-5744.1z"/>
</g>
</svg>
