<?xml version="1.0" encoding="utf-8"?>
<!-- Generator: Adobe Illustrator 26.1.0, SVG Export Plug-In . SVG Version: 6.00 Build 0)  -->
<svg version="1.1" id="Layer_1" xmlns="http://www.w3.org/2000/svg" xmlns:xlink="http://www.w3.org/1999/xlink" x="0px" y="0px"
	 viewBox="0 0 1500 1500" style="enable-background:new 0 0 1500 1500;" xml:space="preserve">
<style type="text/css">
	.st0{fill:#DF3F3F;}
	.st1{fill:#B93636;}
	.st2{fill:#FFFFFF;}
	.st3{fill:#DD7440;}
	.st4{fill:#C1653D;}
	.st5{fill:#A944D8;}
	.st6{fill:#7F38A5;}
	.st7{fill:#4071DD;}
	.st8{fill:#3967B7;}
	.st9{fill:#67DD40;}
	.st10{fill:#5DB73B;}
	.st11{fill:#DB42DB;}
	.st12{fill:#AF3BB2;}
	.st13{fill:#FEFEFE;}
	.st14{fill:#DF4141;}
	.st15{fill:#DE4242;}
</style>
<image style="overflow:visible;" width="1200" height="315" xlink:href="CC69B1AC.jpg"  transform="matrix(1 0 0 1 -2904 3987)">
</image>
<g>
	<path class="st0" d="M1103.5-4821c25.9,3.3,47.8,20.5,57.4,44.8c10.1,25.5,20.2,61.3,15.8,94.6c-8.1,60.9-28.4,138-40.6,146.1
		c0,0,87.2,83.2,50.7,172.4s-113.6,146.1-231.3,142s-174.5-4.1-239.4,20.3c-64.9,24.3-243.5,52.7-284-101.4
		c0,0-20.3-48.7,32.5-170.4c0,0-52.7-150.1,8.1-235.3c0,0,8.1-28.4,133.9-28.4s251.6,24.3,296.2,0c44.6-24.3,129.8-81.2,166.4-85.2
		C1080.8-4823,1092.7-4822.4,1103.5-4821z"/>
	<g>
		<path class="st1" d="M1119.9-4665.5c0,0,28.4-77.1-16.2-73c-44.6,4.1-44.6,52.7-73,52.7c-28.4,0-60.9-48.7-101.4-24.3
			s-24.3,40.6-64.9,36.5s-52.7-32.5-77.1-36.5c0,0,89.3-4.1,109.6-16.2c20.3-12.2,166.4-105.5,206.9-85.2
			c40.6,20.3,56.4,45.8,54.6,71.6s2.3,82.6-62.7,98.8C1095.5-4641.1,1115.8-4649.2,1119.9-4665.5z"/>
		<path class="st1" d="M1166.6-4641.1c0,0-25.8,125.8-147.9,119.7s-166.7-18.3-203.2,14.2c-36.5,32.5-28.4,77.2-28.4,77.2
			s12.2-44.8,32.5-24.5s4.1,89.3,32.5,109.6c28.4,20.3,101.4,73,174.5-89.3l14.2-58.8C1040.7-4493,1134.2-4472.7,1166.6-4641.1z"/>
		<path class="st1" d="M551.8-4718.2c0,0-73,40.6-60.9,81.2c12.2,40.6,47.8,97.4,141.6,115.6c0,0-44.2,38.5-44.2,46.7
			s4.1,28.4,32.5,20.3s52.7-28.4,52.7-28.4s-4.1,48.7-60.9,56.8c-56.8,8.1,20.3,24.3,8.1,73c-12.2,48.7-52.7,64.9-52.7,85.2
			c0,20.3,24.3,73,89.3,69s101.4-32.5,85.2-105.5c0,0,36.5,44.6,40.6,60.9s-52.7,52.7-117.7,56.8s-178.5,0-206.9-64.9
			c-28.4-64.9-28.4-121.7-8.1-162.3c20.3-40.6,24.3-60.9,12.2-97.4c-12.2-36.5-40.6-121.7,0-170.4
			C503.1-4730.4,551.8-4718.2,551.8-4718.2z"/>
	</g>
	<path class="st2" d="M454-4633c0,0,0.7,90,36.3,131C490.3-4502,444-4516,454-4633z"/>
	<path class="st2" d="M756-4518c0,0,42-36,170-35s150,21,202-29c0,0-39,46-164,25S756-4518,756-4518z"/>
	<path class="st2" d="M1002-4780c0,0,76-39,109-20c0,0,22,12,30,23c0,0-27-22-47-21S1069-4798,1002-4780z"/>
	<path class="st2" d="M1132-4526c0,0,37.6,41.4,50,73L1132-4526z"/>
</g>
<g>
	<path class="st3" d="M2570.5-4349c25.9,3.3,47.8,20.5,57.4,44.8c10.1,25.5,20.2,61.3,15.8,94.6c-8.1,60.9-28.4,138-40.6,146.1
		c0,0,87.2,83.2,50.7,172.4c-36.5,89.3-113.6,146.1-231.3,142s-174.5-4.1-239.4,20.3c-64.9,24.3-243.5,52.7-284-101.4
		c0,0-20.3-48.7,32.5-170.4c0,0-52.7-150.1,8.1-235.3c0,0,8.1-28.4,133.9-28.4s251.6,24.3,296.2,0c44.6-24.3,129.8-81.2,166.4-85.2
		C2547.8-4351,2559.7-4350.4,2570.5-4349z"/>
	<g>
		<path class="st4" d="M2586.9-4193.5c0,0,28.4-77.1-16.2-73c-44.6,4.1-44.6,52.7-73,52.7c-28.4,0-60.9-48.7-101.4-24.3
			s-24.3,40.6-64.9,36.5s-52.7-32.5-77.1-36.5c0,0,89.3-4.1,109.6-16.2c20.3-12.2,166.4-105.5,206.9-85.2
			c40.6,20.3,56.4,45.8,54.6,71.6s2.3,82.6-62.7,98.8C2562.5-4169.1,2582.8-4177.2,2586.9-4193.5z"/>
		<path class="st4" d="M2633.6-4169.1c0,0-25.8,125.8-147.9,119.7c-122-6.1-166.7-18.3-203.2,14.2s-28.4,77.2-28.4,77.2
			s12.2-44.8,32.5-24.5c20.3,20.3,4.1,89.3,32.5,109.6c28.4,20.3,101.4,73,174.5-89.3l14.2-58.8
			C2507.7-4021,2601.2-4000.7,2633.6-4169.1z"/>
		<path class="st4" d="M2018.8-4246.2c0,0-73,40.6-60.9,81.2c12.2,40.6,47.8,97.4,141.6,115.6c0,0-44.2,38.5-44.2,46.7
			c0,8.1,4.1,28.4,32.5,20.3s52.7-28.4,52.7-28.4s-4.1,48.7-60.9,56.8c-56.8,8.1,20.3,24.3,8.1,73c-12.2,48.7-52.7,64.9-52.7,85.2
			c0,20.3,24.3,73,89.3,69c64.9-4.1,101.4-32.5,85.2-105.5c0,0,36.5,44.6,40.6,60.9c4.1,16.2-52.7,52.7-117.7,56.8
			c-64.9,4.1-178.5,0-206.9-64.9c-28.4-64.9-28.4-121.7-8.1-162.3s24.3-60.9,12.2-97.4c-12.2-36.5-40.6-121.7,0-170.4
			C1970.1-4258.4,2018.8-4246.2,2018.8-4246.2z"/>
	</g>
	<path class="st2" d="M1921-4161c0,0,0.7,90,36.3,131C1957.3-4030,1911-4044,1921-4161z"/>
	<path class="st2" d="M2223-4046c0,0,42-36,170-35s150,21,202-29c0,0-39,46-164,25S2223-4046,2223-4046z"/>
	<path class="st2" d="M2469-4308c0,0,76-39,109-20c0,0,22,12,30,23c0,0-27-22-47-21S2536-4326,2469-4308z"/>
	<path class="st2" d="M2599-4054c0,0,37.6,41.4,50,73L2599-4054z"/>
</g>
<g>
	<path class="st5" d="M1041.5,431c25.9,3.3,47.8,20.5,57.4,44.8c10.1,25.5,20.2,61.3,15.8,94.6c-8.1,60.9-28.4,138-40.6,146.1
		c0,0,87.2,83.2,50.7,172.4s-113.6,146.1-231.3,142s-174.5-4.1-239.4,20.3s-243.5,52.7-284-101.4c0,0-20.3-48.7,32.5-170.4
		c0,0-52.7-150.1,8.1-235.3c0,0,8.1-28.4,133.9-28.4s251.6,24.3,296.2,0c44.6-24.3,129.8-81.2,166.4-85.2
		C1018.8,429,1030.7,429.6,1041.5,431z"/>
	<g>
		<path class="st6" d="M1057.9,586.5c0,0,28.4-77.1-16.2-73c-44.6,4.1-44.6,52.7-73,52.7s-60.9-48.7-101.4-24.3
			c-40.6,24.3-24.3,40.6-64.9,36.5c-40.6-4.1-52.7-32.5-77.1-36.5c0,0,89.3-4.1,109.6-16.2s166.4-105.5,206.9-85.2
			c40.6,20.3,56.4,45.8,54.6,71.6s2.3,82.6-62.7,98.8C1033.5,610.9,1053.8,602.8,1057.9,586.5z"/>
		<path class="st6" d="M1104.6,610.9c0,0-25.8,125.8-147.9,119.7c-122-6.1-166.7-18.3-203.2,14.2C717,777.2,725.1,822,725.1,822
			s12.2-44.8,32.5-24.5c20.3,20.3,4.1,89.3,32.5,109.6s101.4,73,174.5-89.3l14.2-58.8C978.7,759,1072.2,779.3,1104.6,610.9z"/>
		<path class="st6" d="M489.8,533.8c0,0-73,40.6-60.9,81.2c12.2,40.6,47.8,97.4,141.6,115.6c0,0-44.2,38.5-44.2,46.7
			c0,8.1,4.1,28.4,32.5,20.3c28.4-8.1,52.7-28.4,52.7-28.4s-4.1,48.7-60.9,56.8c-56.8,8.1,20.3,24.3,8.1,73
			c-12.2,48.7-52.7,64.9-52.7,85.2s24.3,73,89.3,69s101.4-32.5,85.2-105.5c0,0,36.5,44.6,40.6,60.9s-52.7,52.7-117.7,56.8
			s-178.5,0-206.9-64.9c-28.4-64.9-28.4-121.7-8.1-162.3s24.3-60.9,12.2-97.4c-12.2-36.5-40.6-121.7,0-170.4
			S489.8,533.8,489.8,533.8z"/>
	</g>
	<path class="st2" d="M392,619c0,0,0.7,90,36.3,131C428.3,750,382,736,392,619z"/>
	<path class="st2" d="M694,734c0,0,42-36,170-35s150,21,202-29c0,0-39,46-164,25S694,734,694,734z"/>
	<path class="st2" d="M940,472c0,0,76-39,109-20c0,0,22,12,30,23c0,0-27-22-47-21S1007,454,940,472z"/>
	<path class="st2" d="M1070,726c0,0,37.6,41.4,50,73L1070,726z"/>
</g>
<g>
	<path class="st7" d="M5473.5-3998c25.9,3.3,47.8,20.5,57.4,44.8c10.1,25.5,20.2,61.3,15.8,94.6c-8.1,60.9-28.4,138-40.6,146.1
		c0,0,87.2,83.2,50.7,172.4c-36.5,89.3-113.6,146.1-231.3,142c-117.7-4.1-174.5-4.1-239.4,20.3c-64.9,24.3-243.5,52.7-284-101.4
		c0,0-20.3-48.7,32.5-170.4c0,0-52.7-150.1,8.1-235.3c0,0,8.1-28.4,133.9-28.4c125.8,0,251.6,24.3,296.2,0
		c44.6-24.3,129.8-81.2,166.4-85.2C5450.8-4000,5462.7-3999.4,5473.5-3998z"/>
	<g>
		<path class="st8" d="M5489.9-3842.5c0,0,28.4-77.1-16.2-73c-44.6,4.1-44.6,52.7-73,52.7c-28.4,0-60.9-48.7-101.4-24.3
			c-40.6,24.3-24.3,40.6-64.9,36.5c-40.6-4.1-52.7-32.5-77.1-36.5c0,0,89.3-4.1,109.6-16.2c20.3-12.2,166.4-105.5,206.9-85.2
			c40.6,20.3,56.4,45.8,54.6,71.6c-1.8,25.8,2.3,82.6-62.7,98.8C5465.5-3818.1,5485.8-3826.2,5489.9-3842.5z"/>
		<path class="st8" d="M5536.6-3818.1c0,0-25.8,125.8-147.9,119.7c-122-6.1-166.7-18.3-203.2,14.2c-36.5,32.5-28.4,77.2-28.4,77.2
			s12.2-44.8,32.5-24.5c20.3,20.3,4.1,89.3,32.5,109.6c28.4,20.3,101.4,73,174.5-89.3l14.2-58.8
			C5410.7-3670,5504.2-3649.7,5536.6-3818.1z"/>
		<path class="st8" d="M4921.8-3895.2c0,0-73,40.6-60.9,81.2s47.8,97.4,141.6,115.6c0,0-44.2,38.5-44.2,46.7
			c0,8.1,4.1,28.4,32.5,20.3c28.4-8.1,52.7-28.4,52.7-28.4s-4.1,48.7-60.9,56.8c-56.8,8.1,20.3,24.3,8.1,73
			c-12.2,48.7-52.7,64.9-52.7,85.2c0,20.3,24.3,73,89.3,69c64.9-4.1,101.4-32.5,85.2-105.5c0,0,36.5,44.6,40.6,60.9
			c4.1,16.2-52.7,52.7-117.7,56.8s-178.5,0-206.9-64.9c-28.4-64.9-28.4-121.7-8.1-162.3c20.3-40.6,24.3-60.9,12.2-97.4
			c-12.2-36.5-40.6-121.7,0-170.4C4873.1-3907.4,4921.8-3895.2,4921.8-3895.2z"/>
	</g>
	<path class="st2" d="M4824-3810c0,0,0.7,90,36.3,131C4860.3-3679,4814-3693,4824-3810z"/>
	<path class="st2" d="M5126-3695c0,0,42-36,170-35s150,21,202-29c0,0-39,46-164,25S5126-3695,5126-3695z"/>
	<path class="st2" d="M5372-3957c0,0,76-39,109-20c0,0,22,12,30,23c0,0-27-22-47-21S5439-3975,5372-3957z"/>
	<path class="st2" d="M5502-3703c0,0,37.6,41.4,50,73L5502-3703z"/>
</g>
<g>
	<path class="st9" d="M6487.5-3998c25.9,3.3,47.8,20.5,57.4,44.8c10.1,25.5,20.2,61.3,15.8,94.6c-8.1,60.9-28.4,138-40.6,146.1
		c0,0,87.2,83.2,50.7,172.4c-36.5,89.3-113.6,146.1-231.3,142c-117.7-4.1-174.5-4.1-239.4,20.3c-64.9,24.3-243.5,52.7-284-101.4
		c0,0-20.3-48.7,32.5-170.4c0,0-52.7-150.1,8.1-235.3c0,0,8.1-28.4,133.9-28.4c125.8,0,251.6,24.3,296.2,0
		c44.6-24.3,129.8-81.2,166.4-85.2C6464.8-4000,6476.7-3999.4,6487.5-3998z"/>
	<g>
		<path class="st10" d="M6503.9-3842.5c0,0,28.4-77.1-16.2-73c-44.6,4.1-44.6,52.7-73,52.7c-28.4,0-60.9-48.7-101.4-24.3
			c-40.6,24.3-24.3,40.6-64.9,36.5c-40.6-4.1-52.7-32.5-77.1-36.5c0,0,89.3-4.1,109.6-16.2c20.3-12.2,166.4-105.5,206.9-85.2
			c40.6,20.3,56.4,45.8,54.6,71.6c-1.8,25.8,2.3,82.6-62.7,98.8C6479.5-3818.1,6499.8-3826.2,6503.9-3842.5z"/>
		<path class="st10" d="M6550.6-3818.1c0,0-25.8,125.8-147.9,119.7c-122-6.1-166.7-18.3-203.2,14.2c-36.5,32.5-28.4,77.2-28.4,77.2
			s12.2-44.8,32.5-24.5c20.3,20.3,4.1,89.3,32.5,109.6c28.4,20.3,101.4,73,174.5-89.3l14.2-58.8
			C6424.7-3670,6518.2-3649.7,6550.6-3818.1z"/>
		<path class="st10" d="M5935.8-3895.2c0,0-73,40.6-60.9,81.2s47.8,97.4,141.6,115.6c0,0-44.2,38.5-44.2,46.7
			c0,8.1,4.1,28.4,32.5,20.3c28.4-8.1,52.7-28.4,52.7-28.4s-4.1,48.7-60.9,56.8c-56.8,8.1,20.3,24.3,8.1,73
			c-12.2,48.7-52.7,64.9-52.7,85.2c0,20.3,24.3,73,89.3,69c64.9-4.1,101.4-32.5,85.2-105.5c0,0,36.5,44.6,40.6,60.9
			c4.1,16.2-52.7,52.7-117.7,56.8s-178.5,0-206.9-64.9c-28.4-64.9-28.4-121.7-8.1-162.3c20.3-40.6,24.3-60.9,12.2-97.4
			c-12.2-36.5-40.6-121.7,0-170.4C5887.1-3907.4,5935.8-3895.2,5935.8-3895.2z"/>
	</g>
	<path class="st2" d="M5838-3810c0,0,0.7,90,36.3,131C5874.3-3679,5828-3693,5838-3810z"/>
	<path class="st2" d="M6140-3695c0,0,42-36,170-35s150,21,202-29c0,0-39,46-164,25S6140-3695,6140-3695z"/>
	<path class="st2" d="M6386-3957c0,0,76-39,109-20c0,0,22,12,30,23c0,0-27-22-47-21S6453-3975,6386-3957z"/>
	<path class="st2" d="M6516-3703c0,0,37.6,41.4,50,73L6516-3703z"/>
</g>
<g>
	<path class="st11" d="M-893.5-4821c-25.9,3.3-47.8,20.5-57.4,44.8c-10.1,25.5-20.2,61.3-15.8,94.6c8.1,60.9,28.4,138,40.6,146.1
		c0,0-87.2,83.2-50.7,172.4s113.6,146.1,231.3,142s174.5-4.1,239.4,20.3c64.9,24.3,243.5,52.7,284-101.4c0,0,20.3-48.7-32.5-170.4
		c0,0,52.7-150.1-8.1-235.3c0,0-8.1-28.4-133.9-28.4s-251.6,24.3-296.2,0c-44.6-24.3-129.8-81.2-166.4-85.2
		C-870.8-4823-882.7-4822.4-893.5-4821z"/>
	<g>
		<path class="st12" d="M-909.9-4665.5c0,0-28.4-77.1,16.2-73c44.6,4.1,44.6,52.7,73,52.7s60.9-48.7,101.4-24.3s24.3,40.6,64.9,36.5
			s52.7-32.5,77.1-36.5c0,0-89.3-4.1-109.6-16.2c-20.3-12.2-166.4-105.5-206.9-85.2c-40.6,20.3-56.4,45.8-54.6,71.6
			c1.8,25.8-2.3,82.6,62.7,98.8C-885.5-4641.1-905.8-4649.2-909.9-4665.5z"/>
		<path class="st12" d="M-956.6-4641.1c0,0,25.8,125.8,147.9,119.7s166.7-18.3,203.2,14.2c36.5,32.5,28.4,77.2,28.4,77.2
			s-12.2-44.8-32.5-24.5s-4.1,89.3-32.5,109.6c-28.4,20.3-101.4,73-174.5-89.3l-14.2-58.8C-830.7-4493-924.2-4472.7-956.6-4641.1z"
			/>
		<path class="st12" d="M-341.8-4718.2c0,0,73,40.6,60.9,81.2c-12.2,40.6-47.8,97.4-141.6,115.6c0,0,44.2,38.5,44.2,46.7
			s-4.1,28.4-32.5,20.3c-28.4-8.1-52.7-28.4-52.7-28.4s4.1,48.7,60.9,56.8c56.8,8.1-20.3,24.3-8.1,73c12.2,48.7,52.7,64.9,52.7,85.2
			c0,20.3-24.3,73-89.3,69s-101.4-32.5-85.2-105.5c0,0-36.5,44.6-40.6,60.9s52.7,52.7,117.7,56.8s178.5,0,206.9-64.9
			c28.4-64.9,28.4-121.7,8.1-162.3c-20.3-40.6-24.3-60.9-12.2-97.4c12.2-36.5,40.6-121.7,0-170.4
			C-293.1-4730.4-341.8-4718.2-341.8-4718.2z"/>
	</g>
</g>
<g>
	<path class="st3" d="M3101.2-5097.2c0,0-165-18-177.9,124.9c-12.8,142.9,108.9,252.4,141.3,264.6c32.5,12.2,154.2,4.1,211,24.3
		c56.8,20.3,255.6,89.3,332.7-12.2c77.1-101.4,52.7-125.8,113.6-158.2c60.9-32.5,48.7-121.7,32.5-146.1s-113.6-146.1-178.5-150.1
		c-64.9-4.1-280,12.2-280,12.2s12.2-60.9-16.2-69S3145.8-5243.3,3101.2-5097.2z"/>
	<path class="st4" d="M3058.6-5058.7c0,0-4.1,121.7,239.4,93.3c0,0-36.5,28.4-28.4,56.8s32.5,48.7,32.5,48.7s-4.1,40.6,12.2,69
		c16.2,28.4,93.3,69,142,28.4c48.7-40.6,10.2-116.8-92.3-139.5c0,0,96.3-39,145,21.9c48.7,60.9,48.7,182.6-28.4,186.6
		s-166.4-36.5-198.8-44.6s-235.3,12.2-271.9-133.9C3009.9-4872,2969.3-4989.7,3058.6-5058.7z"/>
	<path class="st4" d="M3253.3-5204.7c0,0,28.4,28.4,12.2,48.7c-16.2,20.3-77.1,32.5-81.2,52.7c-4.1,20.3,0,52.7,0,52.7
		s117.7-44.6,109.6-101.4C3285.8-5208.8,3253.3-5204.7,3253.3-5204.7z"/>
	<path class="st4" d="M3509-5147.9c0,0-18.1,54.1,33.6,83.9s100.3,54.1,104.4,70.3s-24.3,56.8-56.8,44.6c-32.5-12.2-47.6-32-47.6-32
		s11.1,36.1,55.7,60.4s36.5,56.8,24.3,81.2c-12.2,24.3-24.3,32.5-16.2,69c8.1,36.5,12.2,44.6,12.2,44.6s40.6-52.7,44.6-85.2
		c4.1-32.5,52.7-44.6,81.2-93.3c28.4-48.7-4.1-101.4-4.1-101.4s-89.3-113.6-150.1-138C3529.2-5168.2,3509-5147.9,3509-5147.9z"/>
</g>
<g>
	<path class="st9" d="M-1669.4-4056.2c0,0-93.3-32.5-77.1-117.7s170.4-154.2,288.1-146.1c117.7,8.1,186.6,52.7,231.3,60.9
		s129.8-8.1,142-12.2c12.2-4.1,114.1-4.7,97.6,82.9s-48.9,140.3-40.8,156.5c8.1,16.2,36.5,101.4,32.5,129.8
		c-4.1,28.4,8.1,158.2-150.1,162.3c-158.2,4.1-296.2-48.7-320.5-48.7s-89.3,4.1-121.7,32.5s-158.2,28.4-150.1-73
		C-1730.2-3930.4-1689.6-4007.5-1669.4-4056.2z"/>
	<path class="st10" d="M-1679.5-4188c0,0,117.7-56.8,186.6-20.3c69,36.5,125.8,109.6,235.3,81.2c109.6-28.4,138-85.2,60.9-101.4
		s-97.4,28.4-174.5,4.1s-89.3-56.8-150.1-52.7S-1659.2-4224.6-1679.5-4188z"/>
	<path class="st10" d="M-1712-4090.7c0,0,56.8-73,105.5-64.9s109.6,60.9,146.1,81.2c36.5,20.3,186.6,81.2,312.4,12.2
		s138-101.4,138-125.8c0-24.3-28.4-69-28.4-69s44.6,20.3,40.6,64.9c-4.1,44.6-20.3,89.3-28.4,121.7c-8.1,32.5-12.2,44.6,4.1,73
		c16.2,28.4,32.5,142,12.2,170.4c-20.3,28.4-48.7,89.3-170.4,85.2c0,0,107.5-42.6,87.2-95.4s-44.6-113.6-81.2-121.7
		s-28.4,32.5-146.1,16.2c-117.7-16.2-174.5-93.3-202.9-93.3c-28.4,0-64.9,12.2-56.8,52.7c8.1,40.6,36.5,77.1,32.5,105.5
		s-16.2,85.2-16.2,85.2s-8.1-85.2-20.3-101.4c-12.2-16.2-64.9-36.5-56.8-121.7C-1640.9-4015.6-1628.8-4068.3-1712-4090.7z"/>
</g>
<g>
	<path class="st7" d="M-124.6-5847.9c0,0-101.4,60.9-101.4,158.2c0,97.4,97.4,142,158.2,125.8s73-48.7,129.8-20.3
		c56.8,28.4,69,101.4,150.1,109.6s239.4,0,316.5-81.2s93.3-142,93.3-215.1s-4.1-174.5-93.3-190.7s-97.4,28.4-170.4,12.2
		s-178.5-97.4-267.8-85.2S-116.5-6014.3-124.6-5847.9z"/>
	<path class="st8" d="M-82-5866.2c0,0,40.6-117.7,133.9-117.7s117.7,60.9,158.2,77.1c40.6,16.2,129.8,8.1,142-12.2
		c0,0,4.1,105.5-52.7,117.7s-121.7,20.3-146.1-32.5C129-5886.5-2.9-5896.6-82-5866.2z"/>
	<path class="st8" d="M-124.6-5681.6c0,0,41.9-154.2,158.9-129.8c117,24.3,108.9,97.4,161.6,101.4s105.5,8.1,121.7-20.3
		c16.2-28.4,64.9-24.3,77.1,0c12.2,24.3,24.3,154.2-105.5,158.2S78.8-5692.3,13.6-5693C-51.5-5693.8-124.6-5681.6-124.6-5681.6z"/>
	<path class="st8" d="M599.7-5874.3c0,0-64.9,32.5-64.9,77.1s16.2,101.4-28.4,121.7l-12.2,8.1c0,0,16.2,105.5-28.4,158.2
		c0,0,130.6-81.2,144.4-182.6C624-5793.2,615.9-5870.3,599.7-5874.3z"/>
</g>
<g>
	<path class="st13" d="M4836.5-4536.1c-248.3,0-496.6,0-744.9,0.1c-3.7,0-4.6-0.8-4.6-4.6c0.1-496.9,0.1-993.9,0-1490.8
		c0-3.7,0.8-4.6,4.6-4.6c496.9,0.1,993.9,0.1,1490.8,0c3.7,0,4.6,0.8,4.6,4.6c-0.1,496.9-0.1,993.9,0,1490.8c0,3.7-0.8,4.6-4.6,4.6
		C5333.8-4536.1,5085.1-4536.1,4836.5-4536.1z M5170.1-5007L5170.1-5007c0.3-0.3,0.7-0.6,1.1-0.9l-0.1,0.1c0.4-0.4,0.7-0.7,1.1-1.1
		l-0.1,0.1c0.4-0.3,0.8-0.7,1.2-1l-0.1,0.1c0.4-0.3,0.8-0.7,1.1-1l0,0.1c0.4-0.4,0.7-0.7,1.1-1.1l-0.1,0.1c0.4-0.4,0.7-0.7,1.1-1.1
		l-0.1,0.1c0.4-0.4,0.7-0.7,1.1-1.1l-0.1,0.1c0.4-0.4,0.7-0.7,1.1-1.1c0,0-0.1,0.1-0.1,0.1c0.3-0.4,0.6-0.8,1-1.2l-0.1,0.1
		c1.4-0.7,2.4-1.7,3-3.2c0.3-0.3,0.6-0.6,0.8-0.9c0.6-0.5,1.3-1,1.8-1.6c17.7-21.3,28.6-46,34.1-72.9c4.7-23.2,1.1-46.3-3.6-69.2
		c-6.2-30.9-16.8-60.4-29.1-89.4c-0.8-1.8-1.8-3.5-1.1-5.7c5.6-17.7,10-35.7,13.4-54.1c3-16.7,5.6-33.3,6.4-50.3c0-2-0.3-4.1,0.2-6
		c2.6-11.3,1.7-22.8,2-34.3c0.4-18.4-4.6-35.3-12.2-51.7c-0.2-0.5-0.3-0.9-0.5-1.4l0-0.1c-2.5-8.9-7.1-16.8-10.9-25.1
		c-7.2-15.5-19.7-23.7-35.5-28c-0.6-0.2-1.3-0.4-1.9-0.6c-29.6-8.4-60-9.7-90.4-10.4c-21.1-0.5-42.2-0.1-63.3,1.3
		c-11.5,0.8-23.1,1.6-34.6,1.9c-17.5,0.6-34.9,2.5-52.4,3.1c-6.3,0.2-12.6,0.8-18.8,1.4c-14.3,1.2-28.6,1.7-42.9,2.7
		c-6.1,0.4-12.3,0.1-18.5,0.2c-16.8,0-33.5,0.2-50.2-2.1c-17-2.3-31.5-9.9-45.9-18.4c-34.4-20.2-68.4-41.3-104.1-59.3
		c-24.6-12.4-49.6-19.9-77.7-15.6c-27.2,4.2-46.4,17.9-58,42.5c-4.7,10.1-7.9,20.8-10.9,31.6c-6.1,22-9,44.5-6,67.2
		c2.2,16.5,5.2,33,8.8,49.3c4.8,22.1,9.9,44.1,17.2,65.6c3.1,9.3,6.1,18.8,12,26.7c2,2.6,1.7,3.8-0.4,6
		c-21.2,22.4-37.8,47.7-48.2,76.9c-7.9,22.3-12,45.4-6.3,68.6c13.3,54.6,44,97.7,90.6,128.8c42.5,28.4,90.4,38.2,140.9,37.3
		c30.3-0.6,60.6-2.2,90.9-2.1c17.6,0,35.1,0.4,52.7,1.8c8.2,0.6,16.5,1.1,24.8,1.8c12.8,1.1,25.3,3.9,37.9,6.3
		c1.5,0.7,3,1.3,4.5,2.1c29.6,15.5,61,24,94.5,25.1c10.5,2,21.1,3.4,31.9,4c27.6,1.4,55,0.1,81.8-7.1c19.4-5.2,37.7-12.8,53.7-25.2
		l0.3-0.2c0.9-0.6,1.8-1.3,2.6-1.9l0.2-0.1c0.5-0.5,1.1-0.9,1.6-1.4l0,0c1-0.2,1.8-0.9,2.3-1.8l-0.2-0.2l0.1,0.2
		c0.8-0.2,1.5-0.6,1.7-1.4c0.3-0.3,0.7-0.6,1-0.8C5169.4-5006.3,5169.7-5006.6,5170.1-5007z"/>
	<path class="st0" d="M4893-4997.2c-12.6-2.3-25.1-5.2-37.9-6.3c-8.2-0.7-16.5-1.2-24.8-1.8c-17.6-1.4-35.1-1.8-52.7-1.8
		c-30.3,0-60.6,1.5-90.9,2.1c-50.5,1-98.4-8.8-140.9-37.3c-46.6-31.1-77.3-74.2-90.6-128.8c-5.6-23.2-1.6-46.3,6.3-68.6
		c10.3-29.2,27-54.5,48.2-76.9c2.1-2.2,2.3-3.4,0.4-6c-5.9-8-8.9-17.4-12-26.7c-7.2-21.5-12.4-43.5-17.2-65.6
		c-3.5-16.3-6.6-32.8-8.8-49.3c-3-22.7,0-45.2,6-67.2c3-10.7,6.1-21.5,10.9-31.6c11.6-24.6,30.8-38.3,58-42.5
		c28.2-4.3,53.2,3.2,77.7,15.6c35.7,18,69.7,39,104.1,59.3c14.4,8.5,28.9,16.1,45.9,18.4c16.7,2.2,33.4,2.1,50.2,2.1
		c6.2,0,12.3,0.3,18.5-0.2c14.3-1,28.6-1.5,42.9-2.7c6.2-0.5,12.5-1.2,18.8-1.4c17.5-0.5,34.9-2.5,52.4-3.1
		c11.5-0.4,23.1-1.2,34.6-1.9c21.1-1.4,42.2-1.8,63.3-1.3c30.4,0.8,60.8,2,90.4,10.4c0.6,0.2,1.3,0.4,1.9,0.6
		c15.9,4.2,28.3,12.5,35.5,28c3.9,8.3,8.4,16.2,10.9,25.1c-2-0.3-2.4-2.2-3.3-3.4c-4.3-5.9-8.8-11.7-14.2-16.6
		c-15-13.7-32.2-23.4-52.6-26.2c-8.6-1.2-17.2-2.2-26.5,0.6c2.5,1.7,4.6,3,6.6,4.3c18.2,12.1,35.4,25.3,47.4,44
		c7.3,11.4,9.5,23.4,4.9,36.5c-6.4,18.2-15.2,34.9-27.6,49.8c-17.9,21.4-40,36.7-65.4,47.6c-14.1,6-28.8,10.1-43.7,13.6
		c-0.9,0.2-2.2-0.2-2.5,1.2c-0.2,1.2,1,1.5,1.7,2.1c11.4,10.2,22.5,20.7,33.1,31.8c5.2,5.5,9.6,11.4,7.2,19.9
		c-3.2,11.3-13.5,16.7-26.5,13.7c-19.6-4.6-36.7-14.2-52.8-25.9c-1.1-0.8-2-3-3.6-1.8c-1.2,0.9-0.8,2.9-0.4,4.3
		c3.2,11,7.9,21.1,15.8,29.6c10.3,11,23.1,17.1,37.5,20.3c6.9,1.6,14.1,2.3,20.9,4.2c7.5,2.1,8.6,7,3.4,12.5
		c-4.3,4.6-8.8,9.1-12.8,13.9c-8.2,9.9-14.6,20.5-14.1,34.2c0.5,14,6.5,25.9,13.1,37.7c8.3,15,21,26.5,32.2,39.1
		c6.9,7.8,10.6,16.3,7.5,26.9c-10,34.3-36.2,55.9-70.6,59.2c-20.4,2-40.8-0.6-60.3-7.6c-12.2-4.4-23.3-10.6-31.6-20.9
		c-13.9-17.3-16-37.3-13.3-58.4c0.7-5.3,1.3-10.6,2-16.3c-0.9,0.5-1.4,0.7-1.7,1c-12.7,15.8-25.2,31.7-34.9,49.6
		c-6,11-4.7,15,4.4,24.2C4879.4-5006,4886.6-5002.2,4893-4997.2z M4861.5-5215.3c2.8-9.7,1-18.6-0.6-27.4
		c-4.2-23.3-16.3-41.8-35.8-55.3c-16.7-11.6-35.9-14-55.4-14.9c-11.8-0.5-23.6,0-35.4,0.9c-12.4,0.9-24.8,1.3-37.2,2.1
		c-17.7,1.2-35.3,3.2-53,3.7c-11.1,0.3-22,1.6-33.3,0.5c-16.2-1.6-31.8-4.9-46.5-11.7c-17.6-8.1-32.5-19.7-45-34.7
		c-12.7-15.2-22.4-32.1-29.6-50.5c-0.9-2.3-1.2-4.8-3.5-6.8c0,1.1-0.1,1.9,0,2.6c5.6,24.6,13.8,48.2,26.1,70.3
		c12.5,22.3,28.5,41.3,52.3,52.3c13,6,26.5,9.5,40.9,7.5c2.1-0.3,3,0.6,3.4,2.6c1.3,5.8,2.5,11.7,4.1,17.4
		c3.7,14.1,5.6,28.7,11.1,42.3c4.3,10.6,9.8,20.7,15.5,30.7c12.9,22.8,27.4,44.4,48.2,61c19.8,15.8,41.6,22.5,66.9,16
		c14.7-3.7,27-11.7,39.3-19.9c8.9-5.9,14.1-14.3,17-24.4c5.7-19.4,5-39.7,8-59.4c1.6-10.6,3.2-21.4,12-29.3
		c5.3-4.7,11.6-4.7,16.9,0.1C4855.2-5233.2,4858.1-5224.6,4861.5-5215.3z M4858.6-5493.4c-0.1-0.5-0.1-1.1-0.2-1.6
		c-5.2,0-10.5,0.5-15.7-0.1c-17.4-1.8-34.9-3-52.3-5.7c-16.8-2.6-33.1-5.9-47.8-15.3c-35-22.2-70.9-42.7-108.6-59.9
		c-20.1-9.2-40.4-18.1-62.4-21.4c-10.3-1.5-20.8-1.9-30.5,3.9c-13.1,7.9-26.1,15.7-35.9,27.9c-8.6,10.7-14.1,22.3-14.1,36.3
		c0,14,0.7,27.8,3,41.6c3.6,22.2,14,39.9,33.2,52c6.1,3.9,12.7,7.4,20.5,8.6c-1.3-2.7-3.6-3.3-5.2-4.6c-4.6-3.6-9.2-7.4-11.3-13
		c-6.8-18.9-12.5-38.1-10.2-58.6c1.1-9.6,8.4-17.8,16.6-18.6c15.4-1.4,28.4,3.6,39.3,14.4c7.9,7.8,13.4,17.3,20.2,25.9
		c5.8,7.3,12.6,12.4,22.8,11.9c9.3-0.5,16.8-4.9,24.4-9.2c9.8-5.6,19.3-11.8,29.6-16.5c12.6-5.7,25.5-7.6,38.5-2
		c14.1,6.1,25.7,15.8,35.4,27.7c5.4,6.6,11.3,12.4,20.4,12.8c19.4,0.9,37.5-2.9,54-13.8C4834.3-5478.6,4844.6-5489,4858.6-5493.4z
		 M4485.5-5413.3c-0.2,0.3-0.4,0.5-0.4,0.8c0,0.3,0.2,0.5,0.4,0.8c0.1-0.3,0.4-0.5,0.4-0.8C4485.9-5412.7,4485.7-5413,4485.5-5413.3
		z M4550.3-5426.6c-0.1,0-0.3-0.1-0.4-0.1c0,0-0.1,0.2-0.1,0.3c0.1,0,0.3,0.1,0.4,0.1C4550.2-5426.2,4550.3-5426.5,4550.3-5426.6z"
		/>
	<path class="st1" d="M4893-4997.2c-6.4-5-13.6-8.9-19.3-14.7c-9.1-9.1-10.3-13.2-4.4-24.2c9.6-17.9,22.2-33.8,34.9-49.6
		c0.3-0.3,0.8-0.5,1.7-1c-0.7,5.7-1.3,11-2,16.3c-2.7,21.1-0.6,41.2,13.3,58.4c8.3,10.3,19.4,16.5,31.6,20.9
		c19.5,7,39.9,9.6,60.3,7.6c34.4-3.3,60.6-24.9,70.6-59.2c3.1-10.5-0.5-19-7.5-26.9c-11.2-12.7-23.9-24.1-32.2-39.1
		c-6.5-11.8-12.5-23.8-13.1-37.7c-0.5-13.6,5.9-24.3,14.1-34.2c4-4.9,8.5-9.3,12.8-13.9c5.2-5.6,4.1-10.5-3.4-12.5
		c-6.8-1.9-14-2.6-20.9-4.2c-14.4-3.2-27.3-9.4-37.5-20.3c-7.9-8.5-12.7-18.6-15.8-29.6c-0.4-1.4-0.9-3.4,0.4-4.3
		c1.6-1.1,2.5,1,3.6,1.8c16.1,11.7,33.2,21.3,52.8,25.9c13,3.1,23.3-2.3,26.5-13.7c2.4-8.5-2-14.4-7.2-19.9
		c-10.6-11.1-21.7-21.6-33.1-31.8c-0.7-0.6-1.9-0.9-1.7-2.1c0.2-1.3,1.6-1,2.5-1.2c14.9-3.5,29.6-7.5,43.7-13.6
		c25.4-10.9,47.6-26.2,65.4-47.6c12.4-14.9,21.2-31.6,27.6-49.8c4.6-13.2,2.4-25.2-4.9-36.5c-12-18.8-29.2-31.9-47.4-44
		c-2-1.3-4.1-2.7-6.6-4.3c9.2-2.8,17.9-1.8,26.5-0.6c20.4,2.9,37.6,12.6,52.6,26.2c5.4,4.9,9.9,10.7,14.2,16.6
		c0.9,1.3,1.3,3.1,3.3,3.4c0,0,0,0.1,0,0.1c0.2,0.5,0.3,0.9,0.5,1.4c7.6,16.4,12.6,33.3,12.2,51.7c-0.3,11.5,0.6,23-2,34.3
		c-0.4,1.9-0.1,4-0.2,6c-1.9,2.1-0.9,4.8-1.4,7.2c-4.4,21.8-11,43-18.1,64.1c-6.3,18.6-7.8,37.6-2.2,56.7
		c4.1,14.2,10.7,27.6,17.2,40.8c4.5,9,7.4,18.5,9.4,28.3c3.9,19.5,4.1,39,1.3,58.8c-4.2,29.7-12.3,58-27.4,84
		c-0.6,1.1-0.8,2.2-0.7,3.3c-0.3,0.3-0.6,0.6-0.8,0.9c-2.1,0.1-3.2,1-3,3.2c0,0,0.1-0.1,0.1-0.1c-0.7,0.1-1,0.5-1,1.2
		c0,0,0.1-0.1,0.1-0.1c-0.7,0-1.1,0.3-1.1,1.1c0,0,0.1-0.1,0.1-0.1c-0.7,0-1.1,0.3-1.1,1.1c0,0,0.1-0.1,0.1-0.1
		c-0.7,0-1.1,0.3-1.1,1.1c0,0,0.1-0.1,0.1-0.1c-0.7,0-1.1,0.3-1.1,1.1c0,0,0-0.1,0-0.1c-0.7,0-1.1,0.3-1.1,1c0,0,0.1-0.1,0.1-0.1
		c-0.7,0-1,0.4-1.2,1c0,0,0.1-0.1,0.1-0.1c-0.4,0.4-0.7,0.7-1.1,1.1c0,0,0.1-0.1,0.1-0.1c-0.4,0.3-0.8,0.7-1.2,1
		c0,0,0.1-0.1,0.1-0.1c-0.4,0.4-0.8,0.7-1.1,1.1c-0.3,0.3-0.7,0.6-1,0.8c-0.9,0-1.8,0.2-1.7,1.4l-0.1-0.2c0,0,0.2,0.2,0.2,0.2
		c-1.6-0.4-2.3,0.2-2.3,1.8c0,0,0,0,0,0c-1,0-1.9,0-1.6,1.4c0,0-0.2,0.1-0.2,0.1c-1.9-0.7-3.1-0.5-2.6,1.9c0,0-0.3,0.2-0.3,0.2
		c-1.4-1.1-2.4,0-3.5,0.7c-10.1,5.8-20.6,10.8-31.7,14.2c-27.9,8.7-56.7,12.6-85.9,13.3c-15.4,0.3-30.9,0.1-46.4,0.1
		c-33.4-1-64.9-9.5-94.5-25.1C4896-4995.8,4894.5-4996.5,4893-4997.2z"/>
	<path class="st14" d="M5183-5019.9c-0.1-1.2,0.1-2.2,0.7-3.3c15.1-26,23.2-54.3,27.4-84c2.8-19.7,2.6-39.3-1.3-58.8
		c-1.9-9.7-4.9-19.3-9.4-28.3c-6.6-13.2-13.1-26.5-17.2-40.8c-5.5-19.1-4.1-38.1,2.2-56.7c7.1-21,13.7-42.2,18.1-64.1
		c0.5-2.4-0.5-5.1,1.4-7.2c-0.7,16.9-3.3,33.6-6.4,50.3c-3.3,18.3-7.8,36.3-13.4,54.1c-0.7,2.2,0.3,3.9,1.1,5.7
		c12.3,28.9,22.9,58.5,29.1,89.4c4.6,22.8,8.3,46,3.6,69.2c-5.5,26.9-16.4,51.5-34.1,72.9C5184.3-5020.9,5183.6-5020.4,5183-5019.9z
		"/>
	<path class="st15" d="M4992-4970c15.5,0,30.9,0.3,46.4-0.1c29.2-0.6,57.9-4.6,85.9-13.3c11.1-3.4,21.6-8.5,31.7-14.2
		c1.1-0.7,2.1-1.8,3.5-0.7c-16,12.4-34.3,19.9-53.7,25.2c-26.8,7.2-54.2,8.5-81.8,7.1C5013.1-4966.6,5002.5-4968,4992-4970z"/>
	<path class="st14" d="M5179.2-5015.8c-0.2-2.2,0.9-3.2,3-3.2C5181.6-5017.5,5180.5-5016.5,5179.2-5015.8z"/>
	<path class="st15" d="M5159.7-4998.5c-0.5-2.5,0.8-2.6,2.6-1.9C5161.5-4999.8,5160.6-4999.1,5159.7-4998.5z"/>
	<path class="st15" d="M5164.1-5001.9c0-1.6,0.7-2.2,2.3-1.8C5165.8-5002.7,5165.1-5002.1,5164.1-5001.9z"/>
	<path class="st15" d="M5166.2-5003.6c0-1.2,0.8-1.4,1.7-1.4C5167.7-5004.2,5167.1-5003.8,5166.2-5003.6z"/>
	<path class="st15" d="M5162.5-5000.5c-0.3-1.4,0.6-1.4,1.6-1.4C5163.6-5001.5,5163-5001,5162.5-5000.5z"/>
	<path class="st0" d="M5194.9-5455c-0.2-0.5-0.3-0.9-0.5-1.4C5194.5-5455.9,5194.7-5455.4,5194.9-5455z"/>
	<path class="st14" d="M5178.3-5014.7c-0.1-0.7,0.3-1.1,1-1.2C5178.9-5015.5,5178.6-5015.1,5178.3-5014.7z"/>
	<path class="st14" d="M5177.3-5013.7c0-0.7,0.3-1.1,1.1-1.1C5178-5014.4,5177.6-5014,5177.3-5013.7z"/>
	<path class="st14" d="M5176.3-5012.7c0-0.7,0.3-1.1,1.1-1.1C5177-5013.4,5176.6-5013,5176.3-5012.7z"/>
	<path class="st14" d="M5175.3-5011.7c0-0.7,0.3-1.1,1.1-1.1C5176-5012.4,5175.6-5012,5175.3-5011.7z"/>
	<path class="st14" d="M5174.3-5010.7c0-0.7,0.3-1.1,1.1-1.1C5175-5011.4,5174.6-5011,5174.3-5010.7z"/>
	<path class="st14" d="M5173.2-5009.7c0.1-0.7,0.4-1,1.1-1C5173.9-5010.4,5173.5-5010.1,5173.2-5009.7z"/>
	<path class="st14" d="M5172.1-5008.8c0.1-0.6,0.5-1,1.2-1C5172.9-5009.5,5172.5-5009.1,5172.1-5008.8z"/>
	<path class="st14" d="M5171.1-5007.8c0.4-0.4,0.7-0.7,1.1-1.1C5171.8-5008.5,5171.5-5008.2,5171.1-5007.8z"/>
	<path class="st14" d="M5170-5006.9c0.4-0.3,0.8-0.7,1.2-1C5170.8-5007.6,5170.4-5007.2,5170-5006.9z"/>
	<path class="st15" d="M5169-5005.9c0.4-0.4,0.8-0.7,1.1-1.1C5169.7-5006.6,5169.4-5006.3,5169-5005.9z"/>
	<path class="st1" d="M4861.5-5215.3c-3.5-9.2-6.4-17.9-13.5-24.3c-5.3-4.8-11.6-4.8-16.9-0.1c-8.9,7.8-10.4,18.6-12,29.3
		c-3.1,19.8-2.4,40-8,59.4c-2.9,10.1-8.1,18.5-17,24.4c-12.3,8.2-24.7,16.2-39.3,19.9c-25.2,6.4-47.1-0.3-66.9-16
		c-20.8-16.6-35.2-38.2-48.2-61c-5.7-10-11.2-20.1-15.5-30.7c-5.5-13.6-7.3-28.2-11.1-42.3c-1.5-5.8-2.8-11.6-4.1-17.4
		c-0.4-2-1.3-2.9-3.4-2.6c-14.5,2-27.9-1.4-40.9-7.5c-23.8-11.1-39.8-30-52.3-52.3c-12.3-22-20.5-45.7-26.1-70.3
		c-0.2-0.7,0-1.6,0-2.6c2.2,2,2.6,4.6,3.5,6.8c7.2,18.4,16.9,35.3,29.6,50.5c12.5,14.9,27.4,26.5,45,34.7
		c14.7,6.8,30.3,10.2,46.5,11.7c11.2,1.1,22.2-0.2,33.3-0.5c17.7-0.5,35.3-2.5,53-3.7c12.4-0.8,24.8-1.2,37.2-2.1
		c11.8-0.9,23.6-1.4,35.4-0.9c19.5,0.9,38.7,3.4,55.4,14.9c19.5,13.5,31.6,32,35.8,55.3C4862.5-5233.9,4864.3-5225.1,4861.5-5215.3z
		"/>
	<path class="st1" d="M4858.6-5493.4c-14,4.4-24.3,14.8-36.1,22.6c-16.5,10.9-34.6,14.7-54,13.8c-9.1-0.4-15-6.2-20.4-12.8
		c-9.7-11.8-21.3-21.6-35.4-27.7c-13-5.6-26-3.7-38.5,2c-10.3,4.7-19.8,10.9-29.6,16.5c-7.6,4.3-15.1,8.7-24.4,9.2
		c-10.3,0.5-17-4.6-22.8-11.9c-6.8-8.5-12.3-18.1-20.2-25.9c-11-10.8-23.9-15.8-39.3-14.4c-8.3,0.7-15.6,9-16.6,18.6
		c-2.3,20.6,3.4,39.7,10.2,58.6c2,5.7,6.6,9.4,11.3,13c1.7,1.3,3.9,1.9,5.2,4.6c-7.9-1.2-14.4-4.7-20.5-8.6
		c-19.1-12.1-29.5-29.9-33.2-52c-2.3-13.8-3-27.7-3-41.6c0-14,5.5-25.6,14.1-36.3c9.8-12.2,22.8-20,35.9-27.9
		c9.7-5.8,20.3-5.4,30.5-3.9c22,3.3,42.3,12.2,62.4,21.4c37.7,17.3,73.7,37.7,108.6,59.9c14.8,9.4,31,12.7,47.8,15.3
		c17.4,2.7,34.8,3.8,52.3,5.7c5.2,0.5,10.4,0.1,15.7,0.1C4858.4-5494.5,4858.5-5494,4858.6-5493.4z"/>
	<path class="st1" d="M4485.5-5413.3c0.2,0.3,0.4,0.5,0.4,0.8c0,0.3-0.2,0.5-0.4,0.8c-0.1-0.3-0.4-0.5-0.4-0.8
		C4485.2-5412.7,4485.4-5413,4485.5-5413.3z"/>
	<path class="st1" d="M4550.3-5426.6c0,0.1-0.1,0.3-0.1,0.3c-0.1,0-0.3-0.1-0.4-0.1c0-0.1,0.1-0.3,0.1-0.3
		C4550-5426.7,4550.2-5426.6,4550.3-5426.6z"/>
</g>
</svg>
