<?xml version="1.0" encoding="utf-8"?>
<!-- Generator: Adobe Illustrator 26.1.0, SVG Export Plug-In . SVG Version: 6.00 Build 0)  -->
<svg version="1.1" id="Layer_1" xmlns="http://www.w3.org/2000/svg" xmlns:xlink="http://www.w3.org/1999/xlink" x="0px" y="0px"
	 viewBox="0 0 995 1061" style="enable-background:new 0 0 995 1061;" xml:space="preserve">
<style type="text/css">
	.st0{fill:#002233;}
	.st1{fill:#FFFEFF;}
	.st2{fill:#2650F4;}
</style>
<g>
	<g>
		<g>
			<path class="st0" d="M3405.8-3635c-6.2-11.3-18.2-18.4-31.1-18.4c-12.2,0-23.5,6.2-30,16.5l-77.6,122.5v-92.2
				c0-25.8-21-46.8-46.8-46.8c-16.1,0-30.9,8.1-39.5,21.8l-74.3,117.3v-99.6c0-21.8-17.7-39.5-39.5-39.5s-39.5,17.7-39.5,39.5v195.6
				c0,25.8,21,46.8,46.8,46.8c16.1,0,30.9-8.1,39.5-21.8l74.3-117.3v92.2c0,25.8,21,46.8,46.8,46.8c16.1,0,30.9-8.1,39.5-21.8
				l130.2-205.6C3411.6-3609.8,3412.1-3623.7,3405.8-3635z"/>
			<path class="st0" d="M3411.1-3426.2c0-0.2,0-0.3,0-0.5c0-0.5,0.1-1,0.1-1.5c0-18.9-15.3-34.2-34.2-34.2s-34.2,15.3-34.2,34.2
				c0,18.9,15.3,34.2,34.2,34.2v22.4c17.4,0,31.7-32.5,33.9-52.2C3411-3424.6,3411.1-3425.4,3411.1-3426.2z"/>
		</g>
	</g>
	<g>
		<path class="st0" d="M3685.6-3575.7l-12.2,95.6c-2,14.8-5.6,25.3-10.9,31.5c-5.3,6.2-14.2,9.3-26.7,9.3c-12.2,0-20.8-3.1-25.6-9.3
			c-4.7-6-7.9-16.5-9.7-31.5l-9.1-74.5c-0.5-3.6-0.9-5.9-1.4-6.8c-0.5-0.9-1.4-1.4-2.9-1.4s-2.5,0.5-2.9,1.4
			c-0.5,0.9-0.9,3.2-1.4,6.8l-9.1,74.5c-1.8,14.9-5.1,25.4-9.7,31.5c-4.8,6.2-13.4,9.3-25.6,9.3c-12.5,0-21.4-3.1-26.7-9.3
			c-5.3-6.2-8.9-16.7-10.9-31.5l-12.2-95.6c-0.6-5.1-0.2-8.6,1.4-10.4c1.5-1.8,4.9-2.7,10.2-2.7h4.5c5.1,0,8.7,0.9,10.6,2.6
			c2,1.7,3.3,5.2,4.1,10.5l11.3,95.6c0.8,5.6,1.6,9.2,2.6,11c1,1.7,2.7,2.6,5.1,2.6c2.4,0,4.2-0.9,5.3-2.7c1.1-1.8,2.1-5.4,2.8-10.9
			l10.4-77.2c1.7-12.1,4.5-20.3,8.6-24.7c4.4-4.5,11.5-6.8,21.5-6.8c10.1,0,17.2,2.3,21.3,6.8c4.4,4.4,7.3,12.6,8.8,24.7l10.4,77.2
			c0.8,5.4,1.7,9.1,2.8,10.9c1.1,1.8,2.9,2.7,5.3,2.7c2.4,0,4.1-0.9,5.1-2.6c1-1.7,1.8-5.4,2.6-11l11.3-95.6
			c0.8-5.3,2.1-8.8,4.1-10.5c2-1.7,5.5-2.6,10.6-2.6h4.5c5.3,0,8.7,0.9,10.2,2.7C3685.7-3584.3,3686.2-3580.8,3685.6-3575.7z"/>
		<path class="st0" d="M3804.9-3508.6c0,1.1-0.2,4-0.5,8.8c-0.6,5.1-1.8,8.5-3.7,10.1c-1.9,1.6-5.5,2.4-11,2.4h-57.5v3.4
			c0,5.9,2.3,10.2,7,13c4.7,2.8,12.2,4.2,22.6,4.2c7.7,0,16.8-1.1,27.4-3.2c4.8-1.1,8-0.8,9.6,0.7c1.6,1.5,2.4,4.9,2.4,10.2v2.5
			c0,5-0.8,8.4-2.3,10.2c-1.5,1.8-4.8,3.3-9.7,4.5c-6.9,2-16.2,2.9-27.6,2.9c-20.4,0-35.3-4-44.8-11.9c-9.5-7.9-14.3-20.5-14.3-37.7
			v-18.1c0-34,17.6-50.9,52.8-50.9C3788.4-3557.5,3804.9-3541.2,3804.9-3508.6z M3732.2-3514.7v3.4h44.6v-3.4
			c0-11.5-7.5-17.2-22.4-17.2C3739.6-3532,3732.2-3526.2,3732.2-3514.7z"/>
		<path class="st0" d="M3824.8-3475.8v-111.6c0-5.1,0.8-8.5,2.5-10.2c1.7-1.7,5.1-2.5,10.2-2.5h4.1c5.1,0,8.5,0.8,10.2,2.5
			c1.7,1.7,2.5,5.1,2.5,10.2v105.1c0,5.7,0.8,9.7,2.3,11.9c1.5,2.2,4.1,3.3,7.7,3.3h1.1c3.2,0,5.2,0.6,6.2,1.9
			c1,1.3,1.5,4.1,1.5,8.5v4.3c0,4.5-0.5,7.6-1.6,9.3c-1.1,1.7-3.1,2.8-6.1,3.4c-2.7,0.3-5,0.5-6.8,0.5c-10.7,0-19-3.1-24.9-9.3
			C3827.8-3454.8,3824.8-3463.9,3824.8-3475.8z"/>
		<path class="st0" d="M3916.1-3576.3c-3.5,3.5-7.6,5.2-12.5,5.2c-4.8,0-9-1.7-12.5-5.2c-3.5-3.5-5.2-7.6-5.2-12.5
			c0-4.8,1.7-9,5.2-12.5c3.5-3.5,7.6-5.2,12.5-5.2c4.8,0,9,1.7,12.5,5.2c3.5,3.5,5.2,7.6,5.2,12.5
			C3921.3-3584,3919.6-3579.8,3916.1-3576.3z M3888.9-3454.3v-87.9c0-5.1,0.8-8.5,2.5-10.2c1.7-1.7,5.1-2.5,10.2-2.5h4.1
			c5.1,0,8.5,0.8,10.2,2.5c1.7,1.7,2.5,5.1,2.5,10.2v87.9c0,5.1-0.8,8.5-2.5,10.2c-1.7,1.7-5.1,2.5-10.2,2.5h-4.1
			c-5.1,0-8.5-0.8-10.2-2.5C3889.7-3445.8,3888.9-3449.2,3888.9-3454.3z"/>
		<path class="st0" d="M3972.5-3511.8v57.5c0,5.1-0.8,8.5-2.5,10.2c-1.7,1.7-5.1,2.5-10.2,2.5h-4.3c-5.1,0-8.5-0.8-10.2-2.5
			c-1.7-1.7-2.5-5.1-2.5-10.2v-57.5c0-14.9,4.3-26.3,13-34.1c8.7-7.8,21.5-11.7,38.6-11.7c17.5,0,30.4,3.7,38.7,11.2
			c8.3,7.5,12.5,19,12.5,34.5v57.5c0,5.1-0.8,8.5-2.5,10.2c-1.7,1.7-5.1,2.5-10.2,2.5h-4.3c-5.1,0-8.5-0.8-10.2-2.5
			c-1.7-1.7-2.5-5.1-2.5-10.2v-57.5c0-6.8-1.5-11.5-4.5-14c-3-2.6-8.7-3.8-17-3.8c-8.3,0-14,1.3-17.2,4
			C3974.1-3523.1,3972.5-3518.4,3972.5-3511.8z"/>
		<path class="st0" d="M4168.1-3516.3v1.4c0,28.1-16.9,42.1-50.7,42.1c-8.9,0-14.8,0.4-17.5,1.1c-2.8,0.8-4.2,2.3-4.2,4.8
			c0,2.1,1.4,3.5,4.2,4.2c2.8,0.7,8.6,1,17.5,1c20.7,0,34.9,2.5,42.6,7.5s11.5,13.9,11.5,26.7c0,13-3.9,22.1-11.5,27.4
			c-8,5.3-22.2,7.9-42.6,7.9c-20.7,0-35-2.4-43-7.2c-7.7-4.8-11.5-12.5-11.5-22.9c0-9.8,3.8-17,11.3-21.5c-5.3-3.6-7.9-9.2-7.9-16.8
			c0-10.1,5.8-17.1,17.4-21.1c-11.6-6.6-17.4-17.7-17.4-33.3v-1.4c0-13,4.5-23.1,13.5-30.3c9-7.2,21.5-10.9,37.7-10.9
			c7.4,0,14,1,19.9,2.9l13.1-9.5c3.6-2.7,6.6-4,9.1-4c2.4,0.1,5.2,1.7,8.4,4.9l0.7,0.7c3.3,3.3,5,6,5.1,7.9c0.1,2-1.4,4.7-4.4,8.2
			l-8.2,9.1C4165.8-3531.8,4168.1-3524.8,4168.1-3516.3z M4117.4-3436.6c-6.9,0-13.2-0.2-18.8-0.7c-4.1,1.8-6.1,5.3-6.1,10.4
			c0,4.1,1.5,6.7,4.5,7.9c3.3,1.2,10.1,1.8,20.4,1.8c8.2,0,14.2-0.5,18.1-1.4c4.2-1.1,6.3-3.8,6.3-8.4c0-4.4-1.6-7.1-4.8-8.2
			C4134.1-3436.1,4127.5-3436.6,4117.4-3436.6z M4138.4-3515v-1.4c0-5.4-1.6-9.4-4.9-11.9c-3.2-2.5-8.6-3.7-16.2-3.7
			c-7.7,0-13.2,1.2-16.5,3.7c-3.3,2.5-5,6.5-5,11.9v1.4c0,5.9,1.7,10.1,5,12.7c3.3,2.6,8.8,3.8,16.5,3.8c7.7,0,13.1-1.3,16.3-3.8
			C4136.9-3504.9,4138.4-3509.1,4138.4-3515z"/>
		<path class="st0" d="M4279.5-3518.6v43.3c0,12.4-4,21.5-12,27.5c-8,6-20.4,8.9-37.1,8.9c-16.8,0-29.1-2.9-37.1-8.7
			c-8-5.8-12-14.8-12-27.1c0-23.5,15.3-35.3,46-35.3h22.9v-8.6c0-5.1-1.8-8.7-5.4-10.8c-3.6-2-9.7-3.1-18.1-3.1
			c-6.3,0-12.9,0.5-19.7,1.4c-5,0.8-8.3,0.4-10.1-1c-1.7-1.4-2.6-4.6-2.6-9.6v-0.9c0-4.8,0.8-8.2,2.4-10c1.6-1.8,4.9-3.1,9.9-3.9
			c7.1-0.8,13.2-1.1,18.3-1.1c18.6,0,32.3,3.1,41.3,9.3C4275-3542.1,4279.5-3532.2,4279.5-3518.6z M4250.1-3476.9v-10.9h-23.3
			c-10.7,0-16.1,4.2-16.1,12.5c0.5,4.8,2.1,8,5,9.6s7.6,2.3,14.3,2.2c6.8,0.2,11.7-0.7,14.8-2.6
			C4247.8-3468.1,4249.6-3471.6,4250.1-3476.9z"/>
	</g>
</g>
<g>
	<g>
		<g>
			<path class="st1" d="M1821.8-3635c-6.2-11.3-18.2-18.4-31.1-18.4c-12.2,0-23.5,6.2-30,16.5l-77.6,122.5v-92.2
				c0-25.8-21-46.8-46.8-46.8c-16.1,0-30.9,8.1-39.5,21.8l-74.3,117.3v-99.6c0-21.8-17.7-39.5-39.5-39.5
				c-21.8,0-39.5,17.7-39.5,39.5v195.6c0,25.8,21,46.8,46.8,46.8c16.1,0,30.9-8.1,39.5-21.8l74.3-117.3v92.2
				c0,25.8,21,46.8,46.8,46.8c16.1,0,30.9-8.1,39.5-21.8l130.2-205.6C1827.6-3609.8,1828.1-3623.7,1821.8-3635z"/>
			<path class="st1" d="M1827.1-3426.2c0-0.2,0-0.3,0-0.5c0-0.5,0.1-1,0.1-1.5c0-18.9-15.3-34.2-34.2-34.2
				c-18.9,0-34.2,15.3-34.2,34.2c0,18.9,15.3,34.2,34.2,34.2v22.4c17.4,0,31.7-32.5,33.9-52.2
				C1827-3424.6,1827.1-3425.4,1827.1-3426.2z"/>
		</g>
	</g>
	<g>
		<path class="st1" d="M2101.6-3575.7l-12.2,95.6c-2,14.8-5.6,25.3-10.9,31.5c-5.3,6.2-14.2,9.3-26.7,9.3c-12.2,0-20.8-3.1-25.6-9.3
			c-4.7-6-7.9-16.5-9.7-31.5l-9.1-74.5c-0.5-3.6-0.9-5.9-1.4-6.8c-0.5-0.9-1.4-1.4-2.9-1.4c-1.5,0-2.5,0.5-2.9,1.4
			c-0.5,0.9-0.9,3.2-1.4,6.8l-9.1,74.5c-1.8,14.9-5.1,25.4-9.7,31.5c-4.8,6.2-13.4,9.3-25.6,9.3c-12.5,0-21.4-3.1-26.7-9.3
			c-5.3-6.2-8.9-16.7-10.9-31.5l-12.2-95.6c-0.6-5.1-0.2-8.6,1.4-10.4c1.5-1.8,4.9-2.7,10.2-2.7h4.5c5.1,0,8.7,0.9,10.6,2.6
			c2,1.7,3.3,5.2,4.1,10.5l11.3,95.6c0.8,5.6,1.6,9.2,2.6,11c1,1.7,2.7,2.6,5.1,2.6c2.4,0,4.2-0.9,5.3-2.7c1.1-1.8,2.1-5.4,2.8-10.9
			l10.4-77.2c1.7-12.1,4.5-20.3,8.6-24.7c4.4-4.5,11.5-6.8,21.5-6.8c10.1,0,17.2,2.3,21.3,6.8c4.4,4.4,7.3,12.6,8.8,24.7l10.4,77.2
			c0.8,5.4,1.7,9.1,2.8,10.9c1.1,1.8,2.9,2.7,5.3,2.7c2.4,0,4.1-0.9,5.1-2.6c1-1.7,1.8-5.4,2.6-11l11.3-95.6
			c0.8-5.3,2.1-8.8,4.1-10.5c2-1.7,5.5-2.6,10.6-2.6h4.5c5.3,0,8.7,0.9,10.2,2.7C2101.7-3584.3,2102.2-3580.8,2101.6-3575.7z"/>
		<path class="st1" d="M2220.9-3508.6c0,1.1-0.2,4-0.5,8.8c-0.6,5.1-1.8,8.5-3.7,10.1c-1.9,1.6-5.5,2.4-11,2.4h-57.5v3.4
			c0,5.9,2.3,10.2,7,13c4.7,2.8,12.2,4.2,22.6,4.2c7.7,0,16.8-1.1,27.4-3.2c4.8-1.1,8-0.8,9.6,0.7c1.6,1.5,2.4,4.9,2.4,10.2v2.5
			c0,5-0.8,8.4-2.3,10.2c-1.5,1.8-4.8,3.3-9.7,4.5c-6.9,2-16.2,2.9-27.6,2.9c-20.4,0-35.3-4-44.8-11.9c-9.5-7.9-14.3-20.5-14.3-37.7
			v-18.1c0-34,17.6-50.9,52.8-50.9C2204.4-3557.5,2220.9-3541.2,2220.9-3508.6z M2148.2-3514.7v3.4h44.6v-3.4
			c0-11.5-7.5-17.2-22.4-17.2C2155.6-3532,2148.2-3526.2,2148.2-3514.7z"/>
		<path class="st1" d="M2240.8-3475.8v-111.6c0-5.1,0.8-8.5,2.5-10.2c1.7-1.7,5.1-2.5,10.2-2.5h4.1c5.1,0,8.5,0.8,10.2,2.5
			c1.7,1.7,2.5,5.1,2.5,10.2v105.1c0,5.7,0.8,9.7,2.3,11.9c1.5,2.2,4.1,3.3,7.7,3.3h1.1c3.2,0,5.2,0.6,6.2,1.9
			c1,1.3,1.5,4.1,1.5,8.5v4.3c0,4.5-0.5,7.6-1.6,9.3c-1.1,1.7-3.1,2.8-6.1,3.4c-2.7,0.3-5,0.5-6.8,0.5c-10.7,0-19-3.1-24.9-9.3
			C2243.8-3454.8,2240.8-3463.9,2240.8-3475.8z"/>
		<path class="st1" d="M2332.1-3576.3c-3.5,3.5-7.6,5.2-12.5,5.2c-4.8,0-9-1.7-12.5-5.2c-3.5-3.5-5.2-7.6-5.2-12.5
			c0-4.8,1.7-9,5.2-12.5c3.5-3.5,7.6-5.2,12.5-5.2c4.8,0,9,1.7,12.5,5.2c3.5,3.5,5.2,7.6,5.2,12.5
			C2337.3-3584,2335.6-3579.8,2332.1-3576.3z M2304.9-3454.3v-87.9c0-5.1,0.8-8.5,2.5-10.2c1.7-1.7,5.1-2.5,10.2-2.5h4.1
			c5.1,0,8.5,0.8,10.2,2.5c1.7,1.7,2.5,5.1,2.5,10.2v87.9c0,5.1-0.8,8.5-2.5,10.2c-1.7,1.7-5.1,2.5-10.2,2.5h-4.1
			c-5.1,0-8.5-0.8-10.2-2.5C2305.7-3445.8,2304.9-3449.2,2304.9-3454.3z"/>
		<path class="st1" d="M2388.5-3511.8v57.5c0,5.1-0.8,8.5-2.5,10.2c-1.7,1.7-5.1,2.5-10.2,2.5h-4.3c-5.1,0-8.5-0.8-10.2-2.5
			c-1.7-1.7-2.5-5.1-2.5-10.2v-57.5c0-14.9,4.3-26.3,13-34.1c8.7-7.8,21.5-11.7,38.6-11.7c17.5,0,30.4,3.7,38.7,11.2
			c8.3,7.5,12.5,19,12.5,34.5v57.5c0,5.1-0.8,8.5-2.5,10.2c-1.7,1.7-5.1,2.5-10.2,2.5h-4.3c-5.1,0-8.5-0.8-10.2-2.5
			c-1.7-1.7-2.5-5.1-2.5-10.2v-57.5c0-6.8-1.5-11.5-4.5-14c-3-2.6-8.7-3.8-17-3.8c-8.3,0-14,1.3-17.2,4
			C2390.1-3523.1,2388.5-3518.4,2388.5-3511.8z"/>
		<path class="st1" d="M2584.1-3516.3v1.4c0,28.1-16.9,42.1-50.7,42.1c-8.9,0-14.8,0.4-17.5,1.1c-2.8,0.8-4.2,2.3-4.2,4.8
			c0,2.1,1.4,3.5,4.2,4.2c2.8,0.7,8.6,1,17.5,1c20.7,0,34.9,2.5,42.6,7.5s11.5,13.9,11.5,26.7c0,13-3.9,22.1-11.5,27.4
			c-8,5.3-22.2,7.9-42.6,7.9c-20.7,0-35-2.4-43-7.2c-7.7-4.8-11.5-12.5-11.5-22.9c0-9.8,3.8-17,11.3-21.5c-5.3-3.6-7.9-9.2-7.9-16.8
			c0-10.1,5.8-17.1,17.4-21.1c-11.6-6.6-17.4-17.7-17.4-33.3v-1.4c0-13,4.5-23.1,13.5-30.3c9-7.2,21.5-10.9,37.7-10.9
			c7.4,0,14,1,19.9,2.9l13.1-9.5c3.6-2.7,6.6-4,9.1-4c2.4,0.1,5.2,1.7,8.4,4.9l0.7,0.7c3.3,3.3,5,6,5.1,7.9c0.1,2-1.4,4.7-4.4,8.2
			l-8.2,9.1C2581.8-3531.8,2584.1-3524.8,2584.1-3516.3z M2533.4-3436.6c-6.9,0-13.2-0.2-18.8-0.7c-4.1,1.8-6.1,5.3-6.1,10.4
			c0,4.1,1.5,6.7,4.5,7.9c3.3,1.2,10.1,1.8,20.4,1.8c8.2,0,14.2-0.5,18.1-1.4c4.2-1.1,6.3-3.8,6.3-8.4c0-4.4-1.6-7.1-4.8-8.2
			C2550.1-3436.1,2543.5-3436.6,2533.4-3436.6z M2554.4-3515v-1.4c0-5.4-1.6-9.4-4.9-11.9c-3.2-2.5-8.6-3.7-16.2-3.7
			c-7.7,0-13.2,1.2-16.5,3.7c-3.3,2.5-5,6.5-5,11.9v1.4c0,5.9,1.7,10.1,5,12.7c3.3,2.6,8.8,3.8,16.5,3.8c7.7,0,13.1-1.3,16.3-3.8
			C2552.9-3504.9,2554.4-3509.1,2554.4-3515z"/>
		<path class="st1" d="M2695.5-3518.6v43.3c0,12.4-4,21.5-12,27.5c-8,6-20.4,8.9-37.1,8.9c-16.8,0-29.1-2.9-37.1-8.7
			c-8-5.8-12-14.8-12-27.1c0-23.5,15.3-35.3,46-35.3h22.9v-8.6c0-5.1-1.8-8.7-5.4-10.8c-3.6-2-9.7-3.1-18.1-3.1
			c-6.3,0-12.9,0.5-19.7,1.4c-5,0.8-8.3,0.4-10.1-1c-1.7-1.4-2.6-4.6-2.6-9.6v-0.9c0-4.8,0.8-8.2,2.4-10c1.6-1.8,4.9-3.1,9.9-3.9
			c7.1-0.8,13.2-1.1,18.3-1.1c18.6,0,32.3,3.1,41.3,9.3C2691-3542.1,2695.5-3532.2,2695.5-3518.6z M2666.1-3476.9v-10.9h-23.3
			c-10.7,0-16.1,4.2-16.1,12.5c0.5,4.8,2.1,8,5,9.6c2.9,1.6,7.6,2.3,14.3,2.2c6.8,0.2,11.7-0.7,14.8-2.6
			C2663.8-3468.1,2665.6-3471.6,2666.1-3476.9z"/>
	</g>
</g>
<g>
	<g>
		<g>
			<path class="st2" d="M249.8-3635c-6.2-11.3-18.2-18.4-31.1-18.4c-12.2,0-23.5,6.2-30,16.5l-77.6,122.5v-92.2
				c0-25.8-21-46.8-46.8-46.8c-16.1,0-30.9,8.1-39.5,21.8l-74.3,117.3v-99.6c0-21.8-17.7-39.5-39.5-39.5s-39.5,17.7-39.5,39.5v195.6
				c0,25.8,21,46.8,46.8,46.8c16.1,0,30.9-8.1,39.5-21.8l74.3-117.3v92.2c0,25.8,21,46.8,46.8,46.8c16.1,0,30.9-8.1,39.5-21.8
				l130.2-205.6C255.6-3609.8,256.1-3623.7,249.8-3635z"/>
			<path class="st2" d="M255.1-3426.2c0-0.2,0-0.3,0-0.5c0-0.5,0.1-1,0.1-1.5c0-18.9-15.3-34.2-34.2-34.2s-34.2,15.3-34.2,34.2
				c0,18.9,15.3,34.2,34.2,34.2v22.4c17.4,0,31.7-32.5,33.9-52.2C255-3424.6,255.1-3425.4,255.1-3426.2z"/>
		</g>
	</g>
	<g>
		<path class="st2" d="M529.6-3575.7l-12.2,95.6c-2,14.8-5.6,25.3-10.9,31.5c-5.3,6.2-14.2,9.3-26.7,9.3c-12.2,0-20.8-3.1-25.6-9.3
			c-4.7-6-7.9-16.5-9.7-31.5l-9.1-74.5c-0.5-3.6-0.9-5.9-1.4-6.8c-0.5-0.9-1.4-1.4-2.9-1.4s-2.5,0.5-2.9,1.4
			c-0.5,0.9-0.9,3.2-1.4,6.8l-9.1,74.5c-1.8,14.9-5.1,25.4-9.7,31.5c-4.8,6.2-13.4,9.3-25.6,9.3c-12.5,0-21.4-3.1-26.7-9.3
			c-5.3-6.2-8.9-16.7-10.9-31.5l-12.2-95.6c-0.6-5.1-0.2-8.6,1.4-10.4c1.5-1.8,4.9-2.7,10.2-2.7h4.5c5.1,0,8.7,0.9,10.6,2.6
			c2,1.7,3.3,5.2,4.1,10.5l11.3,95.6c0.8,5.6,1.6,9.2,2.6,11c1,1.7,2.7,2.6,5.1,2.6c2.4,0,4.2-0.9,5.3-2.7c1.1-1.8,2.1-5.4,2.8-10.9
			l10.4-77.2c1.7-12.1,4.5-20.3,8.6-24.7c4.4-4.5,11.5-6.8,21.5-6.8c10.1,0,17.2,2.3,21.3,6.8c4.4,4.4,7.3,12.6,8.8,24.7l10.4,77.2
			c0.8,5.4,1.7,9.1,2.8,10.9c1.1,1.8,2.9,2.7,5.3,2.7c2.4,0,4.1-0.9,5.1-2.6c1-1.7,1.8-5.4,2.6-11l11.3-95.6
			c0.8-5.3,2.1-8.8,4.1-10.5c2-1.7,5.5-2.6,10.6-2.6h4.5c5.3,0,8.7,0.9,10.2,2.7C529.7-3584.3,530.2-3580.8,529.6-3575.7z"/>
		<path class="st2" d="M648.9-3508.6c0,1.1-0.2,4-0.5,8.8c-0.6,5.1-1.8,8.5-3.7,10.1c-1.9,1.6-5.5,2.4-11,2.4h-57.5v3.4
			c0,5.9,2.3,10.2,7,13c4.7,2.8,12.2,4.2,22.6,4.2c7.7,0,16.8-1.1,27.4-3.2c4.8-1.1,8-0.8,9.6,0.7c1.6,1.5,2.4,4.9,2.4,10.2v2.5
			c0,5-0.8,8.4-2.3,10.2c-1.5,1.8-4.8,3.3-9.7,4.5c-6.9,2-16.2,2.9-27.6,2.9c-20.4,0-35.3-4-44.8-11.9s-14.3-20.5-14.3-37.7v-18.1
			c0-34,17.6-50.9,52.8-50.9C632.4-3557.5,648.9-3541.2,648.9-3508.6z M576.2-3514.7v3.4h44.6v-3.4c0-11.5-7.5-17.2-22.4-17.2
			C583.6-3532,576.2-3526.2,576.2-3514.7z"/>
		<path class="st2" d="M668.8-3475.8v-111.6c0-5.1,0.8-8.5,2.5-10.2c1.7-1.7,5.1-2.5,10.2-2.5h4.1c5.1,0,8.5,0.8,10.2,2.5
			c1.7,1.7,2.5,5.1,2.5,10.2v105.1c0,5.7,0.8,9.7,2.3,11.9c1.5,2.2,4.1,3.3,7.7,3.3h1.1c3.2,0,5.2,0.6,6.2,1.9
			c1,1.3,1.5,4.1,1.5,8.5v4.3c0,4.5-0.5,7.6-1.6,9.3c-1.1,1.7-3.1,2.8-6.1,3.4c-2.7,0.3-5,0.5-6.8,0.5c-10.7,0-19-3.1-24.9-9.3
			C671.8-3454.8,668.8-3463.9,668.8-3475.8z"/>
		<path class="st2" d="M760.1-3576.3c-3.5,3.5-7.6,5.2-12.5,5.2c-4.8,0-9-1.7-12.5-5.2c-3.5-3.5-5.2-7.6-5.2-12.5
			c0-4.8,1.7-9,5.2-12.5c3.5-3.5,7.6-5.2,12.5-5.2c4.8,0,9,1.7,12.5,5.2c3.5,3.5,5.2,7.6,5.2,12.5
			C765.3-3584,763.6-3579.8,760.1-3576.3z M732.9-3454.3v-87.9c0-5.1,0.8-8.5,2.5-10.2c1.7-1.7,5.1-2.5,10.2-2.5h4.1
			c5.1,0,8.5,0.8,10.2,2.5c1.7,1.7,2.5,5.1,2.5,10.2v87.9c0,5.1-0.8,8.5-2.5,10.2c-1.7,1.7-5.1,2.5-10.2,2.5h-4.1
			c-5.1,0-8.5-0.8-10.2-2.5C733.7-3445.8,732.9-3449.2,732.9-3454.3z"/>
		<path class="st2" d="M816.5-3511.8v57.5c0,5.1-0.8,8.5-2.5,10.2c-1.7,1.7-5.1,2.5-10.2,2.5h-4.3c-5.1,0-8.5-0.8-10.2-2.5
			c-1.7-1.7-2.5-5.1-2.5-10.2v-57.5c0-14.9,4.3-26.3,13-34.1c8.7-7.8,21.5-11.7,38.6-11.7c17.5,0,30.4,3.7,38.7,11.2
			c8.3,7.5,12.5,19,12.5,34.5v57.5c0,5.1-0.8,8.5-2.5,10.2c-1.7,1.7-5.1,2.5-10.2,2.5h-4.3c-5.1,0-8.5-0.8-10.2-2.5
			c-1.7-1.7-2.5-5.1-2.5-10.2v-57.5c0-6.8-1.5-11.5-4.5-14c-3-2.6-8.7-3.8-17-3.8c-8.3,0-14,1.3-17.2,4
			C818.1-3523.1,816.5-3518.4,816.5-3511.8z"/>
		<path class="st2" d="M1012.1-3516.3v1.4c0,28.1-16.9,42.1-50.7,42.1c-8.9,0-14.8,0.4-17.5,1.1c-2.8,0.8-4.2,2.3-4.2,4.8
			c0,2.1,1.4,3.5,4.2,4.2c2.8,0.7,8.6,1,17.5,1c20.7,0,34.9,2.5,42.6,7.5c7.7,5,11.5,13.9,11.5,26.7c0,13-3.9,22.1-11.5,27.4
			c-8,5.3-22.2,7.9-42.6,7.9c-20.7,0-35-2.4-43-7.2c-7.7-4.8-11.5-12.5-11.5-22.9c0-9.8,3.8-17,11.3-21.5c-5.3-3.6-7.9-9.2-7.9-16.8
			c0-10.1,5.8-17.1,17.4-21.1c-11.6-6.6-17.4-17.7-17.4-33.3v-1.4c0-13,4.5-23.1,13.5-30.3c9-7.2,21.5-10.9,37.7-10.9
			c7.4,0,14,1,19.9,2.9l13.1-9.5c3.6-2.7,6.6-4,9.1-4c2.4,0.1,5.2,1.7,8.4,4.9l0.7,0.7c3.3,3.3,5,6,5.1,7.9c0.1,2-1.4,4.7-4.4,8.2
			l-8.2,9.1C1009.8-3531.8,1012.1-3524.8,1012.1-3516.3z M961.4-3436.6c-6.9,0-13.2-0.2-18.8-0.7c-4.1,1.8-6.1,5.3-6.1,10.4
			c0,4.1,1.5,6.7,4.5,7.9c3.3,1.2,10.1,1.8,20.4,1.8c8.2,0,14.2-0.5,18.1-1.4c4.2-1.1,6.3-3.8,6.3-8.4c0-4.4-1.6-7.1-4.8-8.2
			C978.1-3436.1,971.5-3436.6,961.4-3436.6z M982.4-3515v-1.4c0-5.4-1.6-9.4-4.9-11.9c-3.2-2.5-8.6-3.7-16.2-3.7
			c-7.7,0-13.2,1.2-16.5,3.7c-3.3,2.5-5,6.5-5,11.9v1.4c0,5.9,1.7,10.1,5,12.7c3.3,2.6,8.8,3.8,16.5,3.8c7.7,0,13.1-1.3,16.3-3.8
			C980.9-3504.9,982.4-3509.1,982.4-3515z"/>
		<path class="st2" d="M1123.5-3518.6v43.3c0,12.4-4,21.5-12,27.5c-8,6-20.4,8.9-37.1,8.9c-16.8,0-29.1-2.9-37.1-8.7
			c-8-5.8-12-14.8-12-27.1c0-23.5,15.3-35.3,46-35.3h22.9v-8.6c0-5.1-1.8-8.7-5.4-10.8c-3.6-2-9.7-3.1-18.1-3.1
			c-6.3,0-12.9,0.5-19.7,1.4c-5,0.8-8.3,0.4-10.1-1c-1.7-1.4-2.6-4.6-2.6-9.6v-0.9c0-4.8,0.8-8.2,2.4-10c1.6-1.8,4.9-3.1,9.9-3.9
			c7.1-0.8,13.2-1.1,18.3-1.1c18.6,0,32.3,3.1,41.3,9.3C1119-3542.1,1123.5-3532.2,1123.5-3518.6z M1094.1-3476.9v-10.9h-23.3
			c-10.7,0-16.1,4.2-16.1,12.5c0.5,4.8,2.1,8,5,9.6s7.6,2.3,14.3,2.2c6.8,0.2,11.7-0.7,14.8-2.6
			C1091.8-3468.1,1093.6-3471.6,1094.1-3476.9z"/>
	</g>
</g>
<g>
	<g>
		<g>
			<path class="st1" d="M805.6,328.1c-10.3-18.7-30-30.4-51.4-30.4c-20.2,0-38.8,10.2-49.6,27.3L576.3,527.4V375
				c0-42.7-34.7-77.4-77.4-77.4c-26.7,0-51.1,13.4-65.3,36L310.9,527.4V362.9c0-35.9-29.2-65.2-65.2-65.2s-65.2,29.2-65.2,65.2V686
				c0,42.7,34.7,77.4,77.4,77.4c26.7,0,51.1-13.4,65.3-36l122.7-193.8V686c0,42.7,34.7,77.4,77.4,77.4c26.7,0,51.1-13.4,65.3-36
				l215.1-339.6C815.2,369.7,815.9,346.8,805.6,328.1z"/>
			<path class="st1" d="M814.3,673c0-0.3,0-0.6,0-0.8c0-0.8,0.1-1.6,0.1-2.4c0-31.2-25.3-56.6-56.6-56.6s-56.6,25.3-56.6,56.6
				c0,31.2,25.3,56.6,56.6,56.6v37c28.7,0,52.4-53.7,56-86.2C814.1,675.8,814.3,674.4,814.3,673z"/>
		</g>
	</g>
</g>
<g>
	<g>
		<g>
			<path class="st0" d="M805.6-1165.9c-10.3-18.7-30-30.4-51.4-30.4c-20.2,0-38.8,10.2-49.6,27.3L576.3-966.6V-1119
				c0-42.7-34.7-77.4-77.4-77.4c-26.7,0-51.1,13.4-65.3,36L310.9-966.6v-164.6c0-35.9-29.2-65.2-65.2-65.2s-65.2,29.2-65.2,65.2
				V-808c0,42.7,34.7,77.4,77.4,77.4c26.7,0,51.1-13.4,65.3-36l122.7-193.8V-808c0,42.7,34.7,77.4,77.4,77.4
				c26.7,0,51.1-13.4,65.3-36l215.1-339.6C815.2-1124.3,815.9-1147.2,805.6-1165.9z"/>
			<path class="st0" d="M814.3-821c0-0.3,0-0.6,0-0.8c0-0.8,0.1-1.6,0.1-2.4c0-31.2-25.3-56.6-56.6-56.6s-56.6,25.3-56.6,56.6
				c0,31.2,25.3,56.6,56.6,56.6v37c28.7,0,52.4-53.7,56-86.2C814.1-818.2,814.3-819.6,814.3-821z"/>
		</g>
	</g>
</g>
<g>
	<g>
		<g>
			<path class="st2" d="M805.6-2626.9c-10.3-18.7-30-30.4-51.4-30.4c-20.2,0-38.8,10.2-49.6,27.3l-128.2,202.5V-2580
				c0-42.7-34.7-77.4-77.4-77.4c-26.7,0-51.1,13.4-65.3,36l-122.7,193.8v-164.6c0-35.9-29.2-65.2-65.2-65.2s-65.2,29.2-65.2,65.2
				v323.1c0,42.7,34.7,77.4,77.4,77.4c26.7,0,51.1-13.4,65.3-36l122.7-193.8v152.4c0,42.7,34.7,77.4,77.4,77.4
				c26.7,0,51.1-13.4,65.3-36l215.1-339.6C815.2-2585.3,815.9-2608.2,805.6-2626.9z"/>
			<path class="st2" d="M814.3-2282c0-0.3,0-0.6,0-0.8c0-0.8,0.1-1.6,0.1-2.4c0-31.2-25.3-56.6-56.6-56.6s-56.6,25.3-56.6,56.6
				c0,31.2,25.3,56.6,56.6,56.6v37c28.7,0,52.4-53.7,56-86.2C814.1-2279.2,814.3-2280.6,814.3-2282z"/>
		</g>
	</g>
</g>
<g>
	<g>
		<g>
			<path class="st2" d="M-1311.2-3635c-6.2-11.3-18.2-18.4-31.1-18.4c-12.2,0-23.5,6.2-30,16.5l-77.6,122.5v-92.2
				c0-25.8-21-46.8-46.8-46.8c-16.1,0-30.9,8.1-39.5,21.8l-74.3,117.3v-99.6c0-21.8-17.7-39.5-39.5-39.5
				c-21.8,0-39.5,17.7-39.5,39.5v195.6c0,25.8,21,46.8,46.8,46.8c16.1,0,30.9-8.1,39.5-21.8l74.3-117.3v92.2
				c0,25.8,21,46.8,46.8,46.8c16.1,0,30.9-8.1,39.5-21.8l130.2-205.6C-1305.4-3609.8-1304.9-3623.7-1311.2-3635z"/>
			<path class="st2" d="M-1305.9-3426.2c0-0.2,0-0.3,0-0.5c0-0.5,0.1-1,0.1-1.5c0-18.9-15.3-34.2-34.2-34.2
				c-18.9,0-34.2,15.3-34.2,34.2c0,18.9,15.3,34.2,34.2,34.2v22.4c17.4,0,31.7-32.5,33.9-52.2
				C-1306-3424.6-1305.9-3425.4-1305.9-3426.2z"/>
		</g>
	</g>
	<g>
		<path class="st1" d="M-1031.4-3575.7l-12.2,95.6c-2,14.8-5.6,25.3-10.9,31.5c-5.3,6.2-14.2,9.3-26.7,9.3
			c-12.2,0-20.8-3.1-25.6-9.3c-4.7-6-7.9-16.5-9.7-31.5l-9.1-74.5c-0.5-3.6-0.9-5.9-1.4-6.8c-0.5-0.9-1.4-1.4-2.9-1.4
			c-1.5,0-2.5,0.5-2.9,1.4c-0.5,0.9-0.9,3.2-1.4,6.8l-9.1,74.5c-1.8,14.9-5.1,25.4-9.7,31.5c-4.8,6.2-13.4,9.3-25.6,9.3
			c-12.5,0-21.4-3.1-26.7-9.3c-5.3-6.2-8.9-16.7-10.9-31.5l-12.2-95.6c-0.6-5.1-0.2-8.6,1.4-10.4c1.5-1.8,4.9-2.7,10.2-2.7h4.5
			c5.1,0,8.7,0.9,10.6,2.6c2,1.7,3.3,5.2,4.1,10.5l11.3,95.6c0.8,5.6,1.6,9.2,2.6,11c1,1.7,2.7,2.6,5.1,2.6c2.4,0,4.2-0.9,5.3-2.7
			c1.1-1.8,2.1-5.4,2.8-10.9l10.4-77.2c1.7-12.1,4.5-20.3,8.6-24.7c4.4-4.5,11.5-6.8,21.5-6.8c10.1,0,17.2,2.3,21.3,6.8
			c4.4,4.4,7.3,12.6,8.8,24.7l10.4,77.2c0.8,5.4,1.7,9.1,2.8,10.9c1.1,1.8,2.9,2.7,5.3,2.7c2.4,0,4.1-0.9,5.1-2.6
			c1-1.7,1.8-5.4,2.6-11l11.3-95.6c0.8-5.3,2.1-8.8,4.1-10.5c2-1.7,5.5-2.6,10.6-2.6h4.5c5.3,0,8.7,0.9,10.2,2.7
			C-1031.3-3584.3-1030.8-3580.8-1031.4-3575.7z"/>
		<path class="st1" d="M-912.1-3508.6c0,1.1-0.2,4-0.5,8.8c-0.6,5.1-1.8,8.5-3.7,10.1c-1.9,1.6-5.5,2.4-11,2.4h-57.5v3.4
			c0,5.9,2.3,10.2,7,13c4.7,2.8,12.2,4.2,22.6,4.2c7.7,0,16.8-1.1,27.4-3.2c4.8-1.1,8-0.8,9.6,0.7c1.6,1.5,2.4,4.9,2.4,10.2v2.5
			c0,5-0.8,8.4-2.3,10.2c-1.5,1.8-4.8,3.3-9.7,4.5c-6.9,2-16.2,2.9-27.6,2.9c-20.4,0-35.3-4-44.8-11.9s-14.3-20.5-14.3-37.7v-18.1
			c0-34,17.6-50.9,52.8-50.9C-928.6-3557.5-912.1-3541.2-912.1-3508.6z M-984.8-3514.7v3.4h44.6v-3.4c0-11.5-7.5-17.2-22.4-17.2
			C-977.4-3532-984.8-3526.2-984.8-3514.7z"/>
		<path class="st1" d="M-892.2-3475.8v-111.6c0-5.1,0.8-8.5,2.5-10.2c1.7-1.7,5.1-2.5,10.2-2.5h4.1c5.1,0,8.5,0.8,10.2,2.5
			c1.7,1.7,2.5,5.1,2.5,10.2v105.1c0,5.7,0.8,9.7,2.3,11.9c1.5,2.2,4.1,3.3,7.7,3.3h1.1c3.2,0,5.2,0.6,6.2,1.9
			c1,1.3,1.5,4.1,1.5,8.5v4.3c0,4.5-0.5,7.6-1.6,9.3c-1.1,1.7-3.1,2.8-6.1,3.4c-2.7,0.3-5,0.5-6.8,0.5c-10.7,0-19-3.1-24.9-9.3
			C-889.2-3454.8-892.2-3463.9-892.2-3475.8z"/>
		<path class="st1" d="M-800.9-3576.3c-3.5,3.5-7.6,5.2-12.5,5.2c-4.8,0-9-1.7-12.5-5.2c-3.5-3.5-5.2-7.6-5.2-12.5
			c0-4.8,1.7-9,5.2-12.5c3.5-3.5,7.6-5.2,12.5-5.2c4.8,0,9,1.7,12.5,5.2c3.5,3.5,5.2,7.6,5.2,12.5
			C-795.7-3584-797.4-3579.8-800.9-3576.3z M-828.1-3454.3v-87.9c0-5.1,0.8-8.5,2.5-10.2c1.7-1.7,5.1-2.5,10.2-2.5h4.1
			c5.1,0,8.5,0.8,10.2,2.5c1.7,1.7,2.5,5.1,2.5,10.2v87.9c0,5.1-0.8,8.5-2.5,10.2c-1.7,1.7-5.1,2.5-10.2,2.5h-4.1
			c-5.1,0-8.5-0.8-10.2-2.5C-827.3-3445.8-828.1-3449.2-828.1-3454.3z"/>
		<path class="st1" d="M-744.5-3511.8v57.5c0,5.1-0.8,8.5-2.5,10.2c-1.7,1.7-5.1,2.5-10.2,2.5h-4.3c-5.1,0-8.5-0.8-10.2-2.5
			c-1.7-1.7-2.5-5.1-2.5-10.2v-57.5c0-14.9,4.3-26.3,13-34.1c8.7-7.8,21.5-11.7,38.6-11.7c17.5,0,30.4,3.7,38.7,11.2
			c8.3,7.5,12.5,19,12.5,34.5v57.5c0,5.1-0.8,8.5-2.5,10.2c-1.7,1.7-5.1,2.5-10.2,2.5h-4.3c-5.1,0-8.5-0.8-10.2-2.5
			c-1.7-1.7-2.5-5.1-2.5-10.2v-57.5c0-6.8-1.5-11.5-4.5-14c-3-2.6-8.7-3.8-17-3.8c-8.3,0-14,1.3-17.2,4
			C-742.9-3523.1-744.5-3518.4-744.5-3511.8z"/>
		<path class="st1" d="M-548.9-3516.3v1.4c0,28.1-16.9,42.1-50.7,42.1c-8.9,0-14.8,0.4-17.5,1.1c-2.8,0.8-4.2,2.3-4.2,4.8
			c0,2.1,1.4,3.5,4.2,4.2c2.8,0.7,8.6,1,17.5,1c20.7,0,34.9,2.5,42.6,7.5c7.7,5,11.5,13.9,11.5,26.7c0,13-3.9,22.1-11.5,27.4
			c-8,5.3-22.2,7.9-42.6,7.9c-20.7,0-35-2.4-43-7.2c-7.7-4.8-11.5-12.5-11.5-22.9c0-9.8,3.8-17,11.3-21.5c-5.3-3.6-7.9-9.2-7.9-16.8
			c0-10.1,5.8-17.1,17.4-21.1c-11.6-6.6-17.4-17.7-17.4-33.3v-1.4c0-13,4.5-23.1,13.5-30.3c9-7.2,21.5-10.9,37.7-10.9
			c7.4,0,14,1,19.9,2.9l13.1-9.5c3.6-2.7,6.6-4,9.1-4c2.4,0.1,5.2,1.7,8.4,4.9l0.7,0.7c3.3,3.3,5,6,5.1,7.9c0.1,2-1.4,4.7-4.4,8.2
			l-8.2,9.1C-551.2-3531.8-548.9-3524.8-548.9-3516.3z M-599.6-3436.6c-6.9,0-13.2-0.2-18.8-0.7c-4.1,1.8-6.1,5.3-6.1,10.4
			c0,4.1,1.5,6.7,4.5,7.9c3.3,1.2,10.1,1.8,20.4,1.8c8.2,0,14.2-0.5,18.1-1.4c4.2-1.1,6.3-3.8,6.3-8.4c0-4.4-1.6-7.1-4.8-8.2
			C-582.9-3436.1-589.5-3436.6-599.6-3436.6z M-578.6-3515v-1.4c0-5.4-1.6-9.4-4.9-11.9c-3.2-2.5-8.6-3.7-16.2-3.7
			c-7.7,0-13.2,1.2-16.5,3.7c-3.3,2.5-5,6.5-5,11.9v1.4c0,5.9,1.7,10.1,5,12.7c3.3,2.6,8.8,3.8,16.5,3.8c7.7,0,13.1-1.3,16.3-3.8
			C-580.1-3504.9-578.6-3509.1-578.6-3515z"/>
		<path class="st1" d="M-437.5-3518.6v43.3c0,12.4-4,21.5-12,27.5c-8,6-20.4,8.9-37.1,8.9c-16.8,0-29.1-2.9-37.1-8.7
			c-8-5.8-12-14.8-12-27.1c0-23.5,15.3-35.3,46-35.3h22.9v-8.6c0-5.1-1.8-8.7-5.4-10.8c-3.6-2-9.7-3.1-18.1-3.1
			c-6.3,0-12.9,0.5-19.7,1.4c-5,0.8-8.3,0.4-10.1-1c-1.7-1.4-2.6-4.6-2.6-9.6v-0.9c0-4.8,0.8-8.2,2.4-10c1.6-1.8,4.9-3.1,9.9-3.9
			c7.1-0.8,13.2-1.1,18.3-1.1c18.6,0,32.3,3.1,41.3,9.3C-442-3542.1-437.5-3532.2-437.5-3518.6z M-466.9-3476.9v-10.9h-23.3
			c-10.7,0-16.1,4.2-16.1,12.5c0.5,4.8,2.1,8,5,9.6c2.9,1.6,7.6,2.3,14.3,2.2c6.8,0.2,11.7-0.7,14.8-2.6
			C-469.2-3468.1-467.4-3471.6-466.9-3476.9z"/>
	</g>
</g>
</svg>
