<?xml version="1.0" encoding="utf-8"?>
<!-- Generator: Adobe Illustrator 26.1.0, SVG Export Plug-In . SVG Version: 6.00 Build 0)  -->
<svg version="1.1" id="Layer_1" xmlns="http://www.w3.org/2000/svg" xmlns:xlink="http://www.w3.org/1999/xlink" x="0px" y="0px"
	 viewBox="0 0 1500 536" style="enable-background:new 0 0 1500 536;" xml:space="preserve">
<style type="text/css">
	.st0{fill:#FFFFFF;}
	.st1{fill:#340472;}
	.st2{fill:#062726;}
	.st3{fill:#E2CFEA;}
	.st4{fill:#102B3F;}
	.st5{fill:#FFFFFF;stroke:#E8E8E8;stroke-miterlimit:10;}
</style>
<g>
	<g>
		<g>
			<g>
				<g>
					<path class="st0" d="M4042.8,1575.5v182c0,100.5-81.5,182-182,182h0c-100.5,0-182-81.5-182-182v0c0-100.5,81.5-182,182-182
						L4042.8,1575.5z"/>
				</g>
			</g>
			<g>
				<g>
					<path class="st0" d="M4043.9,1510.5l-182,0c-100.5,0-182-81.5-182-182v0c0-100.5,81.5-182,182-182h0c100.5,0,182,81.5,182,182
						L4043.9,1510.5z"/>
				</g>
			</g>
			<g>
				<g>
					<path class="st0" d="M4106.8,1575.5l182,0c100.5,0,182,81.5,182,182v0c0,100.5-81.5,182-182,182l0,0c-100.5,0-182-81.5-182-182
						V1575.5z"/>
				</g>
			</g>
			<g>
				<g>
					<path class="st0" d="M4471.2,1328.4c0,100-81.4,181.3-181.3,181.3l-181.3,0v-181.3c0-100,81.4-181.3,181.3-181.3
						C4389.9,1147.1,4471.2,1228.4,4471.2,1328.4z M4129.3,1489.1h160.6c88.6,0,160.6-72.1,160.6-160.6
						c0-88.6-72.1-160.6-160.6-160.6c-88.6,0-160.6,72.1-160.6,160.6V1489.1z"/>
				</g>
				<g>
					<path class="st0" d="M4425.6,1328.4c0,74.9-60.9,135.8-135.8,135.8l-135.8,0v-135.8c0-74.9,60.9-135.8,135.8-135.8
						C4364.7,1192.7,4425.6,1253.6,4425.6,1328.4z M4174.9,1443.5h115c63.4,0,115-51.6,115-115c0-63.4-51.6-115-115-115
						s-115,51.6-115,115V1443.5z"/>
				</g>
				<g>
					<path class="st0" d="M4380,1328.4c0,49.7-40.4,90.2-90.2,90.2h-90.2v-90.2c0-49.7,40.4-90.2,90.2-90.2S4380,1278.7,4380,1328.4
						z M4220.5,1397.9h69.4c38.3,0,69.4-31.1,69.4-69.4c0-38.3-31.1-69.4-69.4-69.4s-69.4,31.1-69.4,69.4V1397.9z"/>
				</g>
			</g>
		</g>
	</g>
</g>
<g>
	<g>
		<g>
			<g>
				<g>
					<path class="st1" d="M4042.8,32.5v182c0,100.5-81.5,182-182,182h0c-100.5,0-182-81.5-182-182v0c0-100.5,81.5-182,182-182
						L4042.8,32.5z"/>
				</g>
			</g>
			<g>
				<g>
					<path class="st1" d="M4043.9-32.5l-182,0c-100.5,0-182-81.5-182-182v0c0-100.5,81.5-182,182-182h0c100.5,0,182,81.5,182,182
						L4043.9-32.5z"/>
				</g>
			</g>
			<g>
				<g>
					<path class="st1" d="M4106.8,32.5l182,0c100.5,0,182,81.5,182,182v0c0,100.5-81.5,182-182,182l0,0c-100.5,0-182-81.5-182-182
						V32.5z"/>
				</g>
			</g>
			<g>
				<g>
					<path class="st1" d="M4471.2-214.6c0,100-81.4,181.3-181.3,181.3l-181.3,0v-181.3c0-100,81.4-181.3,181.3-181.3
						C4389.9-395.9,4471.2-314.6,4471.2-214.6z M4129.3-53.9l160.6,0c88.6,0,160.6-72.1,160.6-160.6s-72.1-160.6-160.6-160.6
						c-88.6,0-160.6,72.1-160.6,160.6V-53.9z"/>
				</g>
				<g>
					<path class="st1" d="M4425.6-214.6c0,74.9-60.9,135.8-135.8,135.8l-135.8,0v-135.8c0-74.9,60.9-135.8,135.8-135.8
						C4364.7-350.3,4425.6-289.4,4425.6-214.6z M4174.9-99.5l115,0c63.4,0,115-51.6,115-115s-51.6-115-115-115
						c-63.4,0-115,51.6-115,115V-99.5z"/>
				</g>
				<g>
					<path class="st1" d="M4380-214.6c0,49.7-40.4,90.2-90.2,90.2l-90.2,0v-90.2c0-49.7,40.4-90.2,90.2-90.2
						C4339.6-304.7,4380-264.3,4380-214.6z M4220.5-145.1l69.4,0c38.3,0,69.4-31.1,69.4-69.4s-31.1-69.4-69.4-69.4
						c-38.3,0-69.4,31.1-69.4,69.4V-145.1z"/>
				</g>
			</g>
		</g>
	</g>
</g>
<g>
	<g>
		<g>
			<g>
				<g>
					<path class="st2" d="M4042.8-1545.5v182c0,100.5-81.5,182-182,182h0c-100.5,0-182-81.5-182-182v0c0-100.5,81.5-182,182-182
						L4042.8-1545.5z"/>
				</g>
			</g>
			<g>
				<g>
					<path class="st2" d="M4043.9-1610.5l-182,0c-100.5,0-182-81.5-182-182v0c0-100.5,81.5-182,182-182h0c100.5,0,182,81.5,182,182
						L4043.9-1610.5z"/>
				</g>
			</g>
			<g>
				<g>
					<path class="st2" d="M4106.8-1545.5l182,0c100.5,0,182,81.5,182,182v0c0,100.5-81.5,182-182,182l0,0c-100.5,0-182-81.5-182-182
						V-1545.5z"/>
				</g>
			</g>
			<g>
				<g>
					<path class="st2" d="M4471.2-1792.6c0,100-81.4,181.3-181.3,181.3l-181.3,0v-181.3c0-100,81.4-181.3,181.3-181.3
						C4389.9-1973.9,4471.2-1892.6,4471.2-1792.6z M4129.3-1631.9h160.6c88.6,0,160.6-72.1,160.6-160.6
						c0-88.6-72.1-160.6-160.6-160.6c-88.6,0-160.6,72.1-160.6,160.6V-1631.9z"/>
				</g>
				<g>
					<path class="st2" d="M4425.6-1792.6c0,74.9-60.9,135.8-135.8,135.8l-135.8,0v-135.8c0-74.9,60.9-135.8,135.8-135.8
						C4364.7-1928.3,4425.6-1867.4,4425.6-1792.6z M4174.9-1677.5h115c63.4,0,115-51.6,115-115c0-63.4-51.6-115-115-115
						s-115,51.6-115,115V-1677.5z"/>
				</g>
				<g>
					<path class="st2" d="M4380-1792.6c0,49.7-40.4,90.2-90.2,90.2h-90.2v-90.2c0-49.7,40.4-90.2,90.2-90.2S4380-1842.3,4380-1792.6
						z M4220.5-1723.1h69.4c38.3,0,69.4-31.1,69.4-69.4c0-38.3-31.1-69.4-69.4-69.4s-69.4,31.1-69.4,69.4V-1723.1z"/>
				</g>
			</g>
		</g>
	</g>
</g>
<g>
	<g>
		<g>
			<g>
				<g>
					<path class="st3" d="M2378.8,1575.5v182c0,100.5-81.5,182-182,182h0c-100.5,0-182-81.5-182-182v0c0-100.5,81.5-182,182-182
						L2378.8,1575.5z"/>
				</g>
			</g>
			<g>
				<g>
					<path class="st3" d="M2379.9,1510.5l-182,0c-100.5,0-182-81.5-182-182v0c0-100.5,81.5-182,182-182h0c100.5,0,182,81.5,182,182
						L2379.9,1510.5z"/>
				</g>
			</g>
			<g>
				<g>
					<path class="st3" d="M2442.8,1575.5l182,0c100.5,0,182,81.5,182,182v0c0,100.5-81.5,182-182,182h0c-100.5,0-182-81.5-182-182
						L2442.8,1575.5z"/>
				</g>
			</g>
			<g>
				<g>
					<path class="st3" d="M2807.2,1328.4c0,100-81.4,181.3-181.3,181.3l-181.3,0v-181.3c0-100,81.4-181.3,181.3-181.3
						C2725.9,1147.1,2807.2,1228.4,2807.2,1328.4z M2465.3,1489.1h160.6c88.6,0,160.6-72.1,160.6-160.6
						c0-88.6-72.1-160.6-160.6-160.6c-88.6,0-160.6,72.1-160.6,160.6V1489.1z"/>
				</g>
				<g>
					<path class="st3" d="M2761.6,1328.4c0,74.9-60.9,135.8-135.8,135.8l-135.8,0v-135.8c0-74.9,60.9-135.8,135.8-135.8
						C2700.7,1192.7,2761.6,1253.6,2761.6,1328.4z M2510.9,1443.5h115c63.4,0,115-51.6,115-115c0-63.4-51.6-115-115-115
						c-63.4,0-115,51.6-115,115V1443.5z"/>
				</g>
				<g>
					<path class="st3" d="M2716,1328.4c0,49.7-40.4,90.2-90.2,90.2h-90.2v-90.2c0-49.7,40.4-90.2,90.2-90.2
						C2675.6,1238.3,2716.1,1278.7,2716,1328.4z M2556.5,1397.9h69.4c38.3,0,69.4-31.1,69.4-69.4c0-38.3-31.1-69.4-69.4-69.4
						c-38.3,0-69.4,31.1-69.4,69.4V1397.9z"/>
				</g>
			</g>
		</g>
	</g>
</g>
<g>
	<g>
		<g>
			<g>
				<g>
					<path class="st4" d="M2378.8,32.5v182c0,100.5-81.5,182-182,182h0c-100.5,0-182-81.5-182-182v0c0-100.5,81.5-182,182-182
						L2378.8,32.5z"/>
				</g>
			</g>
			<g>
				<g>
					<path class="st4" d="M2379.9-32.5l-182,0c-100.5,0-182-81.5-182-182v0c0-100.5,81.5-182,182-182h0c100.5,0,182,81.5,182,182
						L2379.9-32.5z"/>
				</g>
			</g>
			<g>
				<g>
					<path class="st4" d="M2442.8,32.5l182,0c100.5,0,182,81.5,182,182v0c0,100.5-81.5,182-182,182h0c-100.5,0-182-81.5-182-182
						L2442.8,32.5z"/>
				</g>
			</g>
			<g>
				<g>
					<path class="st4" d="M2807.2-214.6c0,100-81.4,181.3-181.3,181.3l-181.3,0v-181.3c0-100,81.4-181.3,181.3-181.3
						C2725.9-395.9,2807.2-314.6,2807.2-214.6z M2465.3-53.9l160.6,0c88.6,0,160.6-72.1,160.6-160.6s-72.1-160.6-160.6-160.6
						c-88.6,0-160.6,72.1-160.6,160.6V-53.9z"/>
				</g>
				<g>
					<path class="st4" d="M2761.6-214.6c0,74.9-60.9,135.8-135.8,135.8l-135.8,0v-135.8c0-74.9,60.9-135.8,135.8-135.8
						C2700.7-350.3,2761.6-289.4,2761.6-214.6z M2510.9-99.5l115,0c63.4,0,115-51.6,115-115s-51.6-115-115-115
						c-63.4,0-115,51.6-115,115V-99.5z"/>
				</g>
				<g>
					<path class="st4" d="M2716-214.6c0,49.7-40.4,90.2-90.2,90.2l-90.2,0v-90.2c0-49.7,40.4-90.2,90.2-90.2
						C2675.6-304.7,2716.1-264.3,2716-214.6z M2556.5-145.1l69.4,0c38.3,0,69.4-31.1,69.4-69.4c0-38.3-31.1-69.4-69.4-69.4
						c-38.3,0-69.4,31.1-69.4,69.4V-145.1z"/>
				</g>
			</g>
		</g>
	</g>
</g>
<g>
	<g>
		<g>
			<g>
				<g>
					<path d="M2378.8-1545.5v182c0,100.5-81.5,182-182,182h0c-100.5,0-182-81.5-182-182v0c0-100.5,81.5-182,182-182L2378.8-1545.5z"
						/>
				</g>
			</g>
			<g>
				<g>
					<path d="M2379.9-1610.5l-182,0c-100.5,0-182-81.5-182-182v0c0-100.5,81.5-182,182-182h0c100.5,0,182,81.5,182,182
						L2379.9-1610.5z"/>
				</g>
			</g>
			<g>
				<g>
					<path d="M2442.8-1545.5l182,0c100.5,0,182,81.5,182,182v0c0,100.5-81.5,182-182,182h0c-100.5,0-182-81.5-182-182L2442.8-1545.5
						z"/>
				</g>
			</g>
			<g>
				<g>
					<path d="M2807.2-1792.6c0,100-81.4,181.3-181.3,181.3l-181.3,0v-181.3c0-100,81.4-181.3,181.3-181.3
						C2725.9-1973.9,2807.2-1892.6,2807.2-1792.6z M2465.3-1631.9h160.6c88.6,0,160.6-72.1,160.6-160.6
						c0-88.6-72.1-160.6-160.6-160.6c-88.6,0-160.6,72.1-160.6,160.6V-1631.9z"/>
				</g>
				<g>
					<path d="M2761.6-1792.6c0,74.9-60.9,135.8-135.8,135.8l-135.8,0v-135.8c0-74.9,60.9-135.8,135.8-135.8
						C2700.7-1928.3,2761.6-1867.4,2761.6-1792.6z M2510.9-1677.5h115c63.4,0,115-51.6,115-115c0-63.4-51.6-115-115-115
						c-63.4,0-115,51.6-115,115V-1677.5z"/>
				</g>
				<g>
					<path d="M2716-1792.6c0,49.7-40.4,90.2-90.2,90.2h-90.2v-90.2c0-49.7,40.4-90.2,90.2-90.2
						C2675.6-1882.7,2716.1-1842.3,2716-1792.6z M2556.5-1723.1h69.4c38.3,0,69.4-31.1,69.4-69.4c0-38.3-31.1-69.4-69.4-69.4
						c-38.3,0-69.4,31.1-69.4,69.4V-1723.1z"/>
				</g>
			</g>
		</g>
	</g>
</g>
<g>
	<g>
		<g>
			<g>
				<g>
					<path class="st0" d="M313,1558.9l0,89.3c0,49.3-40,89.3-89.3,89.3h0c-49.3,0-89.3-40-89.3-89.3v0c0-49.3,40-89.3,89.3-89.3
						L313,1558.9z"/>
				</g>
			</g>
			<g>
				<g>
					<path class="st0" d="M313.6,1527l-89.3,0c-49.3,0-89.3-40-89.3-89.3v0c0-49.3,40-89.3,89.3-89.3h0c49.3,0,89.3,40,89.3,89.3
						L313.6,1527z"/>
				</g>
			</g>
			<g>
				<g>
					<path class="st0" d="M344.4,1558.9l89.3,0c49.3,0,89.3,40,89.3,89.3v0c0,49.3-40,89.3-89.3,89.3h0c-49.3,0-89.3-40-89.3-89.3
						L344.4,1558.9z"/>
				</g>
			</g>
			<g>
				<g>
					<path class="st0" d="M523.1,1437.8c0,49-39.9,88.9-88.9,88.9h-88.9l0-88.9c0-49,39.9-88.9,88.9-88.9
						C483.2,1348.8,523.1,1388.7,523.1,1437.8z M355.4,1516.5h78.8c43.4,0,78.8-35.3,78.8-78.8c0-43.4-35.3-78.8-78.8-78.8
						s-78.8,35.3-78.8,78.8L355.4,1516.5z"/>
				</g>
				<g>
					<path class="st0" d="M500.8,1437.8c0,36.7-29.9,66.6-66.6,66.6h-66.6l0-66.6c0-36.7,29.9-66.6,66.6-66.6
						C470.9,1371.2,500.8,1401.1,500.8,1437.8z M377.8,1494.2h56.4c31.1,0,56.4-25.3,56.4-56.4c0-31.1-25.3-56.4-56.4-56.4
						s-56.4,25.3-56.4,56.4V1494.2z"/>
				</g>
				<g>
					<path class="st0" d="M478.4,1437.8c0,24.4-19.8,44.2-44.2,44.2H390v-44.2c0-24.4,19.8-44.2,44.2-44.2
						C458.6,1393.5,478.4,1413.4,478.4,1437.8z M400.1,1471.8h34c18.8,0,34-15.3,34-34c0-18.8-15.3-34-34-34s-34,15.3-34,34
						L400.1,1471.8z"/>
				</g>
			</g>
		</g>
	</g>
	<g>
		<path class="st0" d="M732.4,1617.8l-38.6-45.9l-39.9,45.9h-55.6l67.7-75.4l-65.5-74.3h57.3l37.3,43.7l38.3-43.7h54.3l-65.5,73.1
			l68.1,76.5H732.4z"/>
		<path class="st0" d="M981.1,1555.2H847.9c2.4,9.3,8.1,16.6,17,22c8.9,5.4,20.1,8.1,33.4,8.1c9.2,0,17.3-1.2,24.4-3.5
			c7.1-2.3,13.7-6,19.8-11l27.2,25c-16.6,16.1-40.8,24.2-72.6,24.2c-19.9,0-37.4-3.3-52.7-9.9c-15.3-6.6-27.1-15.7-35.3-27.4
			c-8.3-11.7-12.4-24.9-12.4-39.8c0-14.6,4.1-27.9,12.3-39.6c8.2-11.8,19.4-21,33.7-27.5c14.3-6.6,30.3-9.9,47.9-9.9
			c17.2,0,32.8,3.2,46.8,9.5c14,6.3,24.9,15.3,32.9,27.1c8,11.8,11.9,25.4,11.9,41C982.1,1544.1,981.8,1548,981.1,1555.2z
			 M861.7,1507.1c-7.9,5.6-12.7,13.2-14.4,22.8H934c-1.7-9.5-6.5-17-14.4-22.7c-7.9-5.7-17.5-8.5-28.8-8.5
			C879.2,1498.7,869.5,1501.5,861.7,1507.1z"/>
		<path class="st0" d="M1187.6,1555.2h-133.2c2.4,9.3,8.1,16.6,17,22c8.9,5.4,20.1,8.1,33.4,8.1c9.2,0,17.3-1.2,24.4-3.5
			c7.1-2.3,13.7-6,19.8-11l27.2,25c-16.6,16.1-40.8,24.2-72.6,24.2c-19.9,0-37.4-3.3-52.7-9.9c-15.3-6.6-27.1-15.7-35.3-27.4
			c-8.3-11.7-12.4-24.9-12.4-39.8c0-14.6,4.1-27.9,12.3-39.6c8.2-11.8,19.4-21,33.7-27.5c14.3-6.6,30.3-9.9,47.9-9.9
			c17.2,0,32.8,3.2,46.8,9.5c14,6.3,24.9,15.3,32.9,27.1c8,11.8,11.9,25.4,11.9,41C1188.6,1544.1,1188.3,1548,1187.6,1555.2z
			 M1068.2,1507.1c-7.9,5.6-12.7,13.2-14.4,22.8h86.7c-1.7-9.5-6.5-17-14.4-22.7c-7.9-5.7-17.5-8.5-28.8-8.5
			C1085.7,1498.7,1076,1501.5,1068.2,1507.1z"/>
		<path class="st0" d="M1239,1615.4c-14-3.1-25.1-6.9-33.4-11.5l17-31.2c7.9,4.3,17.3,7.7,28.5,10.4c11.1,2.7,22,4,32.7,4
			c21.6,0,32.4-4.5,32.4-13.6c0-4.3-2.9-7.3-8.8-9.2c-5.9-1.9-14.9-3.4-27.2-4.7c-14.4-1.9-26.3-4-35.7-6.4
			c-9.4-2.4-17.5-6.7-24.4-12.8c-6.9-6.1-10.3-14.8-10.3-26.1c0-9.5,3.2-17.8,9.7-25.2c6.4-7.3,15.8-13,28.1-17.1
			c12.3-4.1,26.9-6.1,43.7-6.1c12.4,0,24.8,1.2,37.1,3.5c12.3,2.3,22.5,5.5,30.6,9.6l-17,30.9c-15.5-7.4-32.4-11.1-50.7-11.1
			c-10.9,0-19.1,1.3-24.5,3.9c-5.5,2.6-8.2,5.9-8.2,10c0,4.6,2.9,7.9,8.8,9.7c5.9,1.9,15.3,3.6,28.1,5.3c14.4,2,26.2,4.2,35.3,6.5
			c9.2,2.3,17.1,6.5,23.9,12.7c6.8,6.1,10.1,14.6,10.1,25.6c0,9.3-3.3,17.5-9.8,24.8c-6.5,7.2-16.1,12.8-28.6,16.8
			c-12.5,4-27.4,6-44.7,6C1267.3,1620,1253,1618.5,1239,1615.4z"/>
	</g>
</g>
<g>
	<g>
		<g>
			<g>
				<g>
					<path class="st3" d="M313,918.9l0,89.3c0,49.3-40,89.3-89.3,89.3h0c-49.3,0-89.3-40-89.3-89.3v0c0-49.3,40-89.3,89.3-89.3
						L313,918.9z"/>
				</g>
			</g>
			<g>
				<g>
					<path class="st3" d="M313.6,887l-89.3,0c-49.3,0-89.3-40-89.3-89.3v0c0-49.3,40-89.3,89.3-89.3h0c49.3,0,89.3,40,89.3,89.3
						L313.6,887z"/>
				</g>
			</g>
			<g>
				<g>
					<path class="st3" d="M344.4,918.9h89.3c49.3,0,89.3,40,89.3,89.3v0c0,49.3-40,89.3-89.3,89.3h0c-49.3,0-89.3-40-89.3-89.3
						L344.4,918.9z"/>
				</g>
			</g>
			<g>
				<g>
					<path class="st3" d="M523.1,797.8c0,49-39.9,88.9-88.9,88.9l-88.9,0l0-88.9c0-49,39.9-88.9,88.9-88.9S523.1,748.7,523.1,797.8z
						 M355.4,876.5h78.8c43.4,0,78.8-35.3,78.8-78.8S477.6,719,434.2,719s-78.8,35.3-78.8,78.8L355.4,876.5z"/>
				</g>
				<g>
					<path class="st3" d="M500.8,797.8c0,36.7-29.9,66.6-66.6,66.6h-66.6l0-66.6c0-36.7,29.9-66.6,66.6-66.6
						C470.9,731.2,500.8,761.1,500.8,797.8z M377.8,854.2h56.4c31.1,0,56.4-25.3,56.4-56.4c0-31.1-25.3-56.4-56.4-56.4
						s-56.4,25.3-56.4,56.4V854.2z"/>
				</g>
				<g>
					<path class="st3" d="M478.4,797.8c0,24.4-19.8,44.2-44.2,44.2H390v-44.2c0-24.4,19.8-44.2,44.2-44.2
						C458.6,753.5,478.4,773.4,478.4,797.8z M400.1,831.8h34c18.8,0,34-15.3,34-34c0-18.8-15.3-34-34-34s-34,15.3-34,34L400.1,831.8
						z"/>
				</g>
			</g>
		</g>
	</g>
	<g>
		<path class="st3" d="M732.4,977.8l-38.6-45.9l-39.9,45.9h-55.6l67.7-75.4l-65.5-74.3h57.3l37.3,43.7l38.3-43.7h54.3l-65.5,73.1
			l68.1,76.5H732.4z"/>
		<path class="st3" d="M981.1,915.2H847.9c2.4,9.3,8.1,16.6,17,22c8.9,5.4,20.1,8.1,33.4,8.1c9.2,0,17.3-1.2,24.4-3.5
			c7.1-2.3,13.7-6,19.8-11l27.2,25C953.1,971.9,928.9,980,897,980c-19.9,0-37.4-3.3-52.7-9.9c-15.3-6.6-27.1-15.7-35.3-27.4
			c-8.3-11.7-12.4-24.9-12.4-39.8c0-14.6,4.1-27.9,12.3-39.6c8.2-11.8,19.4-21,33.7-27.5c14.3-6.6,30.3-9.9,47.9-9.9
			c17.2,0,32.8,3.2,46.8,9.5c14,6.3,24.9,15.3,32.9,27.1c8,11.8,11.9,25.4,11.9,41C982.1,904.1,981.8,908,981.1,915.2z M861.7,867.1
			c-7.9,5.6-12.7,13.2-14.4,22.8H934c-1.7-9.5-6.5-17-14.4-22.7c-7.9-5.7-17.5-8.5-28.8-8.5C879.2,858.7,869.5,861.5,861.7,867.1z"
			/>
		<path class="st3" d="M1187.6,915.2h-133.2c2.4,9.3,8.1,16.6,17,22c8.9,5.4,20.1,8.1,33.4,8.1c9.2,0,17.3-1.2,24.4-3.5
			c7.1-2.3,13.7-6,19.8-11l27.2,25c-16.6,16.1-40.8,24.2-72.6,24.2c-19.9,0-37.4-3.3-52.7-9.9c-15.3-6.6-27.1-15.7-35.3-27.4
			c-8.3-11.7-12.4-24.9-12.4-39.8c0-14.6,4.1-27.9,12.3-39.6c8.2-11.8,19.4-21,33.7-27.5c14.3-6.6,30.3-9.9,47.9-9.9
			c17.2,0,32.8,3.2,46.8,9.5c14,6.3,24.9,15.3,32.9,27.1c8,11.8,11.9,25.4,11.9,41C1188.6,904.1,1188.3,908,1187.6,915.2z
			 M1068.2,867.1c-7.9,5.6-12.7,13.2-14.4,22.8h86.7c-1.7-9.5-6.5-17-14.4-22.7c-7.9-5.7-17.5-8.5-28.8-8.5
			C1085.7,858.7,1076,861.5,1068.2,867.1z"/>
		<path class="st3" d="M1239,975.4c-14-3.1-25.1-6.9-33.4-11.5l17-31.2c7.9,4.3,17.3,7.7,28.5,10.4c11.1,2.7,22,4,32.7,4
			c21.6,0,32.4-4.5,32.4-13.6c0-4.3-2.9-7.3-8.8-9.2c-5.9-1.9-14.9-3.4-27.2-4.7c-14.4-1.9-26.3-4-35.7-6.4
			c-9.4-2.4-17.5-6.7-24.4-12.8c-6.9-6.1-10.3-14.8-10.3-26.1c0-9.5,3.2-17.8,9.7-25.2c6.4-7.3,15.8-13,28.1-17.1
			c12.3-4.1,26.9-6.1,43.7-6.1c12.4,0,24.8,1.2,37.1,3.5c12.3,2.3,22.5,5.5,30.6,9.6l-17,30.9c-15.5-7.4-32.4-11.1-50.7-11.1
			c-10.9,0-19.1,1.3-24.5,3.9c-5.5,2.6-8.2,5.9-8.2,10c0,4.6,2.9,7.9,8.8,9.7c5.9,1.9,15.3,3.6,28.1,5.3c14.4,2,26.2,4.2,35.3,6.5
			c9.2,2.3,17.1,6.5,23.9,12.7c6.8,6.1,10.1,14.6,10.1,25.6c0,9.3-3.3,17.5-9.8,24.8c-6.5,7.2-16.1,12.8-28.6,16.8
			c-12.5,4-27.4,6-44.7,6C1267.3,980,1253,978.5,1239,975.4z"/>
	</g>
</g>
<g>
	<g>
		<g>
			<g>
				<g>
					<path class="st1" d="M313,283.9l0,89.3c0,49.3-40,89.3-89.3,89.3h0c-49.3,0-89.3-40-89.3-89.3v0c0-49.3,40-89.3,89.3-89.3
						L313,283.9z"/>
				</g>
			</g>
			<g>
				<g>
					<path class="st1" d="M313.6,252l-89.3,0c-49.3,0-89.3-40-89.3-89.3v0c0-49.3,40-89.3,89.3-89.3h0c49.3,0,89.3,40,89.3,89.3
						L313.6,252z"/>
				</g>
			</g>
			<g>
				<g>
					<path class="st1" d="M344.4,283.9l89.3,0c49.3,0,89.3,40,89.3,89.3v0c0,49.3-40,89.3-89.3,89.3h0c-49.3,0-89.3-40-89.3-89.3
						L344.4,283.9z"/>
				</g>
			</g>
			<g>
				<g>
					<path class="st1" d="M523.1,162.8c0,49-39.9,88.9-88.9,88.9l-88.9,0l0-88.9c0-49,39.9-88.9,88.9-88.9
						C483.2,73.8,523.1,113.7,523.1,162.8z M355.4,241.5l78.8,0c43.4,0,78.8-35.3,78.8-78.8S477.6,84,434.2,84s-78.8,35.3-78.8,78.8
						L355.4,241.5z"/>
				</g>
				<g>
					<path class="st1" d="M500.8,162.8c0,36.7-29.9,66.6-66.6,66.6l-66.6,0l0-66.6c0-36.7,29.9-66.6,66.6-66.6
						C470.9,96.2,500.8,126.1,500.8,162.8z M377.8,219.2l56.4,0c31.1,0,56.4-25.3,56.4-56.4s-25.3-56.4-56.4-56.4
						c-31.1,0-56.4,25.3-56.4,56.4V219.2z"/>
				</g>
				<g>
					<path class="st1" d="M478.4,162.8c0,24.4-19.8,44.2-44.2,44.2l-44.2,0v-44.2c0-24.4,19.8-44.2,44.2-44.2
						C458.6,118.5,478.4,138.4,478.4,162.8z M400.1,196.8l34,0c18.8,0,34-15.3,34-34c0-18.8-15.3-34-34-34c-18.8,0-34,15.3-34,34
						L400.1,196.8z"/>
				</g>
			</g>
		</g>
	</g>
	<g>
		<path class="st1" d="M732.4,342.8l-38.6-45.9l-39.9,45.9h-55.6l67.7-75.4l-65.5-74.3h57.3l37.3,43.7l38.3-43.7h54.3l-65.5,73.1
			l68.1,76.5H732.4z"/>
		<path class="st1" d="M981.1,280.2H847.9c2.4,9.3,8.1,16.6,17,22c8.9,5.4,20.1,8.1,33.4,8.1c9.2,0,17.3-1.2,24.4-3.5
			c7.1-2.3,13.7-6,19.8-11l27.2,25C953.1,336.9,928.9,345,897,345c-19.9,0-37.4-3.3-52.7-9.9c-15.3-6.6-27.1-15.7-35.3-27.4
			c-8.3-11.7-12.4-24.9-12.4-39.8c0-14.6,4.1-27.9,12.3-39.6c8.2-11.8,19.4-21,33.7-27.5c14.3-6.6,30.3-9.9,47.9-9.9
			c17.2,0,32.8,3.2,46.8,9.5c14,6.3,24.9,15.3,32.9,27.1c8,11.8,11.9,25.4,11.9,41C982.1,269.1,981.8,273,981.1,280.2z M861.7,232.1
			c-7.9,5.6-12.7,13.2-14.4,22.8H934c-1.7-9.5-6.5-17-14.4-22.7c-7.9-5.7-17.5-8.5-28.8-8.5C879.2,223.7,869.5,226.5,861.7,232.1z"
			/>
		<path class="st1" d="M1187.6,280.2h-133.2c2.4,9.3,8.1,16.6,17,22c8.9,5.4,20.1,8.1,33.4,8.1c9.2,0,17.3-1.2,24.4-3.5
			c7.1-2.3,13.7-6,19.8-11l27.2,25c-16.6,16.1-40.8,24.2-72.6,24.2c-19.9,0-37.4-3.3-52.7-9.9c-15.3-6.6-27.1-15.7-35.3-27.4
			c-8.3-11.7-12.4-24.9-12.4-39.8c0-14.6,4.1-27.9,12.3-39.6c8.2-11.8,19.4-21,33.7-27.5c14.3-6.6,30.3-9.9,47.9-9.9
			c17.2,0,32.8,3.2,46.8,9.5c14,6.3,24.9,15.3,32.9,27.1c8,11.8,11.9,25.4,11.9,41C1188.6,269.1,1188.3,273,1187.6,280.2z
			 M1068.2,232.1c-7.9,5.6-12.7,13.2-14.4,22.8h86.7c-1.7-9.5-6.5-17-14.4-22.7c-7.9-5.7-17.5-8.5-28.8-8.5
			C1085.7,223.7,1076,226.5,1068.2,232.1z"/>
		<path class="st1" d="M1239,340.4c-14-3.1-25.1-6.9-33.4-11.5l17-31.2c7.9,4.3,17.3,7.7,28.5,10.4c11.1,2.7,22,4,32.7,4
			c21.6,0,32.4-4.5,32.4-13.6c0-4.3-2.9-7.3-8.8-9.2c-5.9-1.9-14.9-3.4-27.2-4.7c-14.4-1.9-26.3-4-35.7-6.4
			c-9.4-2.4-17.5-6.7-24.4-12.8c-6.9-6.1-10.3-14.8-10.3-26.1c0-9.5,3.2-17.8,9.7-25.2c6.4-7.3,15.8-13,28.1-17.1
			c12.3-4.1,26.9-6.1,43.7-6.1c12.4,0,24.8,1.2,37.1,3.5c12.3,2.3,22.5,5.5,30.6,9.6l-17,30.9c-15.5-7.4-32.4-11.1-50.7-11.1
			c-10.9,0-19.1,1.3-24.5,3.9c-5.5,2.6-8.2,5.9-8.2,10c0,4.6,2.9,7.9,8.8,9.7c5.9,1.9,15.3,3.6,28.1,5.3c14.4,2,26.2,4.2,35.3,6.5
			c9.2,2.3,17.1,6.5,23.9,12.7c6.8,6.1,10.1,14.6,10.1,25.6c0,9.3-3.3,17.5-9.8,24.8c-6.5,7.2-16.1,12.8-28.6,16.8
			c-12.5,4-27.4,6-44.7,6C1267.3,345,1253,343.5,1239,340.4z"/>
	</g>
</g>
<g>
	<g>
		<g>
			<g>
				<g>
					<path class="st4" d="M313-351.1l0,89.3c0,49.3-40,89.3-89.3,89.3h0c-49.3,0-89.3-40-89.3-89.3v0c0-49.3,40-89.3,89.3-89.3
						L313-351.1z"/>
				</g>
			</g>
			<g>
				<g>
					<path class="st4" d="M313.6-383l-89.3,0c-49.3,0-89.3-40-89.3-89.3v0c0-49.3,40-89.3,89.3-89.3h0c49.3,0,89.3,40,89.3,89.3
						L313.6-383z"/>
				</g>
			</g>
			<g>
				<g>
					<path class="st4" d="M344.4-351.1l89.3,0c49.3,0,89.3,40,89.3,89.3v0c0,49.3-40,89.3-89.3,89.3h0c-49.3,0-89.3-40-89.3-89.3
						L344.4-351.1z"/>
				</g>
			</g>
			<g>
				<g>
					<path class="st4" d="M523.1-472.2c0,49-39.9,88.9-88.9,88.9l-88.9,0l0-88.9c0-49,39.9-88.9,88.9-88.9S523.1-521.3,523.1-472.2z
						 M355.4-393.5l78.8,0c43.4,0,78.8-35.3,78.8-78.8S477.6-551,434.2-551s-78.8,35.3-78.8,78.8L355.4-393.5z"/>
				</g>
				<g>
					<path class="st4" d="M500.8-472.2c0,36.7-29.9,66.6-66.6,66.6h-66.6l0-66.6c0-36.7,29.9-66.6,66.6-66.6
						C470.9-538.8,500.8-508.9,500.8-472.2z M377.8-415.8l56.4,0c31.1,0,56.4-25.3,56.4-56.4s-25.3-56.4-56.4-56.4
						s-56.4,25.3-56.4,56.4V-415.8z"/>
				</g>
				<g>
					<path class="st4" d="M478.4-472.2c0,24.4-19.8,44.2-44.2,44.2l-44.2,0v-44.2c0-24.4,19.8-44.2,44.2-44.2
						C458.6-516.5,478.4-496.6,478.4-472.2z M400.1-438.2h34c18.8,0,34-15.3,34-34c0-18.8-15.3-34-34-34c-18.8,0-34,15.3-34,34
						L400.1-438.2z"/>
				</g>
			</g>
		</g>
	</g>
	<g>
		<path class="st4" d="M732.4-292.2l-38.6-45.9l-39.9,45.9h-55.6l67.7-75.4l-65.5-74.3h57.3l37.3,43.7l38.3-43.7h54.3l-65.5,73.1
			l68.1,76.5H732.4z"/>
		<path class="st4" d="M981.1-354.8H847.9c2.4,9.3,8.1,16.6,17,22c8.9,5.4,20.1,8.1,33.4,8.1c9.2,0,17.3-1.2,24.4-3.5
			c7.1-2.3,13.7-6,19.8-11l27.2,25C953.1-298.1,928.9-290,897-290c-19.9,0-37.4-3.3-52.7-9.9c-15.3-6.6-27.1-15.7-35.3-27.4
			c-8.3-11.7-12.4-24.9-12.4-39.8c0-14.6,4.1-27.9,12.3-39.6c8.2-11.8,19.4-21,33.7-27.5c14.3-6.6,30.3-9.9,47.9-9.9
			c17.2,0,32.8,3.2,46.8,9.5c14,6.3,24.9,15.3,32.9,27.1c8,11.8,11.9,25.4,11.9,41C982.1-365.9,981.8-362,981.1-354.8z M861.7-402.9
			c-7.9,5.6-12.7,13.2-14.4,22.8H934c-1.7-9.5-6.5-17-14.4-22.7c-7.9-5.7-17.5-8.5-28.8-8.5C879.2-411.3,869.5-408.5,861.7-402.9z"
			/>
		<path class="st4" d="M1187.6-354.8h-133.2c2.4,9.3,8.1,16.6,17,22c8.9,5.4,20.1,8.1,33.4,8.1c9.2,0,17.3-1.2,24.4-3.5
			c7.1-2.3,13.7-6,19.8-11l27.2,25c-16.6,16.1-40.8,24.2-72.6,24.2c-19.9,0-37.4-3.3-52.7-9.9c-15.3-6.6-27.1-15.7-35.3-27.4
			c-8.3-11.7-12.4-24.9-12.4-39.8c0-14.6,4.1-27.9,12.3-39.6c8.2-11.8,19.4-21,33.7-27.5c14.3-6.6,30.3-9.9,47.9-9.9
			c17.2,0,32.8,3.2,46.8,9.5c14,6.3,24.9,15.3,32.9,27.1c8,11.8,11.9,25.4,11.9,41C1188.6-365.9,1188.3-362,1187.6-354.8z
			 M1068.2-402.9c-7.9,5.6-12.7,13.2-14.4,22.8h86.7c-1.7-9.5-6.5-17-14.4-22.7c-7.9-5.7-17.5-8.5-28.8-8.5
			C1085.7-411.3,1076-408.5,1068.2-402.9z"/>
		<path class="st4" d="M1239-294.6c-14-3.1-25.1-6.9-33.4-11.5l17-31.2c7.9,4.3,17.3,7.7,28.5,10.4c11.1,2.7,22,4,32.7,4
			c21.6,0,32.4-4.5,32.4-13.6c0-4.3-2.9-7.3-8.8-9.2c-5.9-1.9-14.9-3.4-27.2-4.7c-14.4-1.9-26.3-4-35.7-6.4
			c-9.4-2.4-17.5-6.7-24.4-12.8c-6.9-6.1-10.3-14.8-10.3-26.1c0-9.5,3.2-17.8,9.7-25.2c6.4-7.3,15.8-13,28.1-17.1
			c12.3-4.1,26.9-6.1,43.7-6.1c12.4,0,24.8,1.2,37.1,3.5c12.3,2.3,22.5,5.5,30.6,9.6l-17,30.9c-15.5-7.4-32.4-11.1-50.7-11.1
			c-10.9,0-19.1,1.3-24.5,3.9c-5.5,2.6-8.2,5.9-8.2,10c0,4.6,2.9,7.9,8.8,9.7c5.9,1.9,15.3,3.6,28.1,5.3c14.4,2,26.2,4.2,35.3,6.5
			c9.2,2.3,17.1,6.5,23.9,12.7c6.8,6.1,10.1,14.6,10.1,25.6c0,9.3-3.3,17.5-9.8,24.8c-6.5,7.2-16.1,12.8-28.6,16.8
			c-12.5,4-27.4,6-44.7,6C1267.3-290,1253-291.5,1239-294.6z"/>
	</g>
</g>
<g>
	<g>
		<g>
			<g>
				<g>
					<path class="st2" d="M313-975.1l0,89.3c0,49.3-40,89.3-89.3,89.3h0c-49.3,0-89.3-40-89.3-89.3v0c0-49.3,40-89.3,89.3-89.3
						L313-975.1z"/>
				</g>
			</g>
			<g>
				<g>
					<path class="st2" d="M313.6-1007l-89.3,0c-49.3,0-89.3-40-89.3-89.3v0c0-49.3,40-89.3,89.3-89.3h0c49.3,0,89.3,40,89.3,89.3
						L313.6-1007z"/>
				</g>
			</g>
			<g>
				<g>
					<path class="st2" d="M344.4-975.1h89.3c49.3,0,89.3,40,89.3,89.3v0c0,49.3-40,89.3-89.3,89.3h0c-49.3,0-89.3-40-89.3-89.3
						L344.4-975.1z"/>
				</g>
			</g>
			<g>
				<g>
					<path class="st2" d="M523.1-1096.2c0,49-39.9,88.9-88.9,88.9l-88.9,0l0-88.9c0-49,39.9-88.9,88.9-88.9
						C483.2-1185.2,523.1-1145.3,523.1-1096.2z M355.4-1017.5h78.8c43.4,0,78.8-35.3,78.8-78.8c0-43.4-35.3-78.8-78.8-78.8
						s-78.8,35.3-78.8,78.8L355.4-1017.5z"/>
				</g>
				<g>
					<path class="st2" d="M500.8-1096.2c0,36.7-29.9,66.6-66.6,66.6h-66.6l0-66.6c0-36.7,29.9-66.6,66.6-66.6
						C470.9-1162.8,500.8-1132.9,500.8-1096.2z M377.8-1039.8h56.4c31.1,0,56.4-25.3,56.4-56.4c0-31.1-25.3-56.4-56.4-56.4
						s-56.4,25.3-56.4,56.4V-1039.8z"/>
				</g>
				<g>
					<path class="st2" d="M478.4-1096.2c0,24.4-19.8,44.2-44.2,44.2H390v-44.2c0-24.4,19.8-44.2,44.2-44.2
						C458.6-1140.5,478.4-1120.6,478.4-1096.2z M400.1-1062.2h34c18.8,0,34-15.3,34-34c0-18.8-15.3-34-34-34s-34,15.3-34,34
						L400.1-1062.2z"/>
				</g>
			</g>
		</g>
	</g>
	<g>
		<path class="st2" d="M732.4-916.2l-38.6-45.9l-39.9,45.9h-55.6l67.7-75.4l-65.5-74.3h57.3l37.3,43.7l38.3-43.7h54.3l-65.5,73.1
			l68.1,76.5H732.4z"/>
		<path class="st2" d="M981.1-978.8H847.9c2.4,9.3,8.1,16.6,17,22c8.9,5.4,20.1,8.1,33.4,8.1c9.2,0,17.3-1.2,24.4-3.5
			c7.1-2.3,13.7-6,19.8-11l27.2,25C953.1-922.1,928.9-914,897-914c-19.9,0-37.4-3.3-52.7-9.9c-15.3-6.6-27.1-15.7-35.3-27.4
			c-8.3-11.7-12.4-24.9-12.4-39.8c0-14.6,4.1-27.9,12.3-39.6c8.2-11.8,19.4-21,33.7-27.5c14.3-6.6,30.3-9.9,47.9-9.9
			c17.2,0,32.8,3.2,46.8,9.5c14,6.3,24.9,15.3,32.9,27.1c8,11.8,11.9,25.4,11.9,41C982.1-989.9,981.8-986,981.1-978.8z
			 M861.7-1026.9c-7.9,5.6-12.7,13.2-14.4,22.8H934c-1.7-9.5-6.5-17-14.4-22.7c-7.9-5.7-17.5-8.5-28.8-8.5
			C879.2-1035.3,869.5-1032.5,861.7-1026.9z"/>
		<path class="st2" d="M1187.6-978.8h-133.2c2.4,9.3,8.1,16.6,17,22c8.9,5.4,20.1,8.1,33.4,8.1c9.2,0,17.3-1.2,24.4-3.5
			c7.1-2.3,13.7-6,19.8-11l27.2,25c-16.6,16.1-40.8,24.2-72.6,24.2c-19.9,0-37.4-3.3-52.7-9.9c-15.3-6.6-27.1-15.7-35.3-27.4
			c-8.3-11.7-12.4-24.9-12.4-39.8c0-14.6,4.1-27.9,12.3-39.6c8.2-11.8,19.4-21,33.7-27.5c14.3-6.6,30.3-9.9,47.9-9.9
			c17.2,0,32.8,3.2,46.8,9.5c14,6.3,24.9,15.3,32.9,27.1c8,11.8,11.9,25.4,11.9,41C1188.6-989.9,1188.3-986,1187.6-978.8z
			 M1068.2-1026.9c-7.9,5.6-12.7,13.2-14.4,22.8h86.7c-1.7-9.5-6.5-17-14.4-22.7c-7.9-5.7-17.5-8.5-28.8-8.5
			C1085.7-1035.3,1076-1032.5,1068.2-1026.9z"/>
		<path class="st2" d="M1239-918.6c-14-3.1-25.1-6.9-33.4-11.5l17-31.2c7.9,4.3,17.3,7.7,28.5,10.4c11.1,2.7,22,4,32.7,4
			c21.6,0,32.4-4.5,32.4-13.6c0-4.3-2.9-7.3-8.8-9.2c-5.9-1.9-14.9-3.4-27.2-4.7c-14.4-1.9-26.3-4-35.7-6.4
			c-9.4-2.4-17.5-6.7-24.4-12.8c-6.9-6.1-10.3-14.8-10.3-26.1c0-9.5,3.2-17.8,9.7-25.2c6.4-7.3,15.8-13,28.1-17.1
			c12.3-4.1,26.9-6.1,43.7-6.1c12.4,0,24.8,1.2,37.1,3.5c12.3,2.3,22.5,5.5,30.6,9.6l-17,30.9c-15.5-7.4-32.4-11.1-50.7-11.1
			c-10.9,0-19.1,1.3-24.5,3.9c-5.5,2.6-8.2,5.9-8.2,10c0,4.6,2.9,7.9,8.8,9.7c5.9,1.9,15.3,3.6,28.1,5.3c14.4,2,26.2,4.2,35.3,6.5
			c9.2,2.3,17.1,6.5,23.9,12.7c6.8,6.1,10.1,14.6,10.1,25.6c0,9.3-3.3,17.5-9.8,24.8c-6.5,7.2-16.1,12.8-28.6,16.8
			c-12.5,4-27.4,6-44.7,6C1267.3-914,1253-915.5,1239-918.6z"/>
	</g>
</g>
<g>
	<g>
		<g>
			<g>
				<g>
					<path d="M313-1562.1l0,89.3c0,49.3-40,89.3-89.3,89.3h0c-49.3,0-89.3-40-89.3-89.3v0c0-49.3,40-89.3,89.3-89.3L313-1562.1z"/>
				</g>
			</g>
			<g>
				<g>
					<path d="M313.6-1594l-89.3,0c-49.3,0-89.3-40-89.3-89.3v0c0-49.3,40-89.3,89.3-89.3h0c49.3,0,89.3,40,89.3,89.3L313.6-1594z"/>
				</g>
			</g>
			<g>
				<g>
					<path d="M344.4-1562.1l89.3,0c49.3,0,89.3,40,89.3,89.3v0c0,49.3-40,89.3-89.3,89.3h0c-49.3,0-89.3-40-89.3-89.3L344.4-1562.1z
						"/>
				</g>
			</g>
			<g>
				<g>
					<path d="M523.1-1683.2c0,49-39.9,88.9-88.9,88.9h-88.9l0-88.9c0-49,39.9-88.9,88.9-88.9
						C483.2-1772.2,523.1-1732.3,523.1-1683.2z M355.4-1604.5h78.8c43.4,0,78.8-35.3,78.8-78.8c0-43.4-35.3-78.8-78.8-78.8
						s-78.8,35.3-78.8,78.8L355.4-1604.5z"/>
				</g>
				<g>
					<path d="M500.8-1683.2c0,36.7-29.9,66.6-66.6,66.6h-66.6l0-66.6c0-36.7,29.9-66.6,66.6-66.6
						C470.9-1749.8,500.8-1719.9,500.8-1683.2z M377.8-1626.8h56.4c31.1,0,56.4-25.3,56.4-56.4c0-31.1-25.3-56.4-56.4-56.4
						s-56.4,25.3-56.4,56.4V-1626.8z"/>
				</g>
				<g>
					<path d="M478.4-1683.2c0,24.4-19.8,44.2-44.2,44.2H390v-44.2c0-24.4,19.8-44.2,44.2-44.2
						C458.6-1727.5,478.4-1707.6,478.4-1683.2z M400.1-1649.2h34c18.8,0,34-15.3,34-34c0-18.8-15.3-34-34-34s-34,15.3-34,34
						L400.1-1649.2z"/>
				</g>
			</g>
		</g>
	</g>
	<g>
		<path d="M732.4-1503.2l-38.6-45.9l-39.9,45.9h-55.6l67.7-75.4l-65.5-74.3h57.3l37.3,43.7l38.3-43.7h54.3l-65.5,73.1l68.1,76.5
			H732.4z"/>
		<path d="M981.1-1565.8H847.9c2.4,9.3,8.1,16.6,17,22c8.9,5.4,20.1,8.1,33.4,8.1c9.2,0,17.3-1.2,24.4-3.5c7.1-2.3,13.7-6,19.8-11
			l27.2,25c-16.6,16.1-40.8,24.2-72.6,24.2c-19.9,0-37.4-3.3-52.7-9.9c-15.3-6.6-27.1-15.7-35.3-27.4c-8.3-11.7-12.4-24.9-12.4-39.8
			c0-14.6,4.1-27.9,12.3-39.6c8.2-11.8,19.4-21,33.7-27.5c14.3-6.6,30.3-9.9,47.9-9.9c17.2,0,32.8,3.2,46.8,9.5
			c14,6.3,24.9,15.3,32.9,27.1c8,11.8,11.9,25.4,11.9,41C982.1-1576.9,981.8-1573,981.1-1565.8z M861.7-1613.9
			c-7.9,5.6-12.7,13.2-14.4,22.8H934c-1.7-9.5-6.5-17-14.4-22.7c-7.9-5.7-17.5-8.5-28.8-8.5C879.2-1622.3,869.5-1619.5,861.7-1613.9
			z"/>
		<path d="M1187.6-1565.8h-133.2c2.4,9.3,8.1,16.6,17,22c8.9,5.4,20.1,8.1,33.4,8.1c9.2,0,17.3-1.2,24.4-3.5c7.1-2.3,13.7-6,19.8-11
			l27.2,25c-16.6,16.1-40.8,24.2-72.6,24.2c-19.9,0-37.4-3.3-52.7-9.9c-15.3-6.6-27.1-15.7-35.3-27.4c-8.3-11.7-12.4-24.9-12.4-39.8
			c0-14.6,4.1-27.9,12.3-39.6c8.2-11.8,19.4-21,33.7-27.5c14.3-6.6,30.3-9.9,47.9-9.9c17.2,0,32.8,3.2,46.8,9.5
			c14,6.3,24.9,15.3,32.9,27.1c8,11.8,11.9,25.4,11.9,41C1188.6-1576.9,1188.3-1573,1187.6-1565.8z M1068.2-1613.9
			c-7.9,5.6-12.7,13.2-14.4,22.8h86.7c-1.7-9.5-6.5-17-14.4-22.7c-7.9-5.7-17.5-8.5-28.8-8.5
			C1085.7-1622.3,1076-1619.5,1068.2-1613.9z"/>
		<path d="M1239-1505.6c-14-3.1-25.1-6.9-33.4-11.5l17-31.2c7.9,4.3,17.3,7.7,28.5,10.4c11.1,2.7,22,4,32.7,4
			c21.6,0,32.4-4.5,32.4-13.6c0-4.3-2.9-7.3-8.8-9.2c-5.9-1.9-14.9-3.4-27.2-4.7c-14.4-1.9-26.3-4-35.7-6.4
			c-9.4-2.4-17.5-6.7-24.4-12.8c-6.9-6.1-10.3-14.8-10.3-26.1c0-9.5,3.2-17.8,9.7-25.2c6.4-7.3,15.8-13,28.1-17.1
			c12.3-4.1,26.9-6.1,43.7-6.1c12.4,0,24.8,1.2,37.1,3.5c12.3,2.3,22.5,5.5,30.6,9.6l-17,30.9c-15.5-7.4-32.4-11.1-50.7-11.1
			c-10.9,0-19.1,1.3-24.5,3.9c-5.5,2.6-8.2,5.9-8.2,10c0,4.6,2.9,7.9,8.8,9.7c5.9,1.9,15.3,3.6,28.1,5.3c14.4,2,26.2,4.2,35.3,6.5
			c9.2,2.3,17.1,6.5,23.9,12.7c6.8,6.1,10.1,14.6,10.1,25.6c0,9.3-3.3,17.5-9.8,24.8c-6.5,7.2-16.1,12.8-28.6,16.8
			c-12.5,4-27.4,6-44.7,6C1267.3-1501,1253-1502.5,1239-1505.6z"/>
	</g>
</g>
<g>
	<rect x="866.9" y="-2566.5" class="st5" width="150" height="477"/>
	<rect x="883.9" y="-2153.5" style="fill:none;" width="130" height="46"/>
	<text transform="matrix(1 0 0 1 883.9166 -2146.3999)"><tspan x="0" y="0" class="st2" style="font-family:'MyriadPro-Regular'; font-size:10px;">R=255 G=255 B=255</tspan><tspan x="0" y="12" class="st2" style="font-family:'MyriadPro-Regular'; font-size:10px;">HEX ff ff ff</tspan><tspan x="0" y="24" class="st2" style="font-family:'MyriadPro-Regular'; font-size:10px;">RGB 255 255 255</tspan><tspan x="0" y="36" class="st2" style="font-family:'MyriadPro-Regular'; font-size:10px;">CMYK 0 0 0 0</tspan></text>
	<rect x="703.9" y="-2566.5" class="st3" width="150" height="477"/>
	<rect x="720.9" y="-2153.5" style="fill:none;" width="130" height="46"/>
	<text transform="matrix(1 0 0 1 720.9167 -2146.3999)"><tspan x="0" y="0" class="st2" style="font-family:'MyriadPro-Regular'; font-size:10px;">R=226 G=207 B=234</tspan><tspan x="0" y="12" class="st2" style="font-family:'MyriadPro-Regular'; font-size:10px;">HEX e2 cf ea</tspan><tspan x="0" y="24" class="st2" style="font-family:'MyriadPro-Regular'; font-size:10px;">RGB 226 207 234</tspan><tspan x="0" y="36" class="st2" style="font-family:'MyriadPro-Regular'; font-size:10px;">CMYK 9 18 0 0</tspan></text>
	<rect x="543.9" y="-2566.5" class="st1" width="150" height="477"/>
	<rect x="560.9" y="-2153.5" style="fill:none;" width="130" height="46"/>
	<text transform="matrix(1 0 0 1 560.9167 -2146.3999)"><tspan x="0" y="0" class="st0" style="font-family:'MyriadPro-Regular'; font-size:10px;">R=123 G=44 B=191</tspan><tspan x="0" y="12" class="st0" style="font-family:'MyriadPro-Regular'; font-size:10px;">HEX 7b 2c bf</tspan><tspan x="0" y="24" class="st0" style="font-family:'MyriadPro-Regular'; font-size:10px;">RGB 123 44 191</tspan><tspan x="0" y="36" class="st0" style="font-family:'MyriadPro-Regular'; font-size:10px;">CMYK 66 86 0 0</tspan></text>
	<rect x="383.9" y="-2566.5" class="st4" width="150" height="477"/>
	<rect x="400.9" y="-2153.5" style="fill:none;" width="130" height="46"/>
	<text transform="matrix(1 0 0 1 400.9167 -2146.3999)"><tspan x="0" y="0" class="st0" style="font-family:'MyriadPro-Regular'; font-size:10px;">R=16 G=43 B=63</tspan><tspan x="0" y="12" class="st0" style="font-family:'MyriadPro-Regular'; font-size:10px;">HEX 10 2b 3f</tspan><tspan x="0" y="24" class="st0" style="font-family:'MyriadPro-Regular'; font-size:10px;">RGB 16 43 63</tspan><tspan x="0" y="36" class="st0" style="font-family:'MyriadPro-Regular'; font-size:10px;">CMYK 94 76 49 52</tspan></text>
	<rect x="223.9" y="-2566.5" class="st2" width="150" height="477"/>
	<rect x="240.9" y="-2153.5" style="fill:none;" width="130" height="46"/>
	<text transform="matrix(1 0 0 1 240.9167 -2146.3999)"><tspan x="0" y="0" class="st0" style="font-family:'MyriadPro-Regular'; font-size:10px;">R=6 G=39 B=38</tspan><tspan x="0" y="12" class="st0" style="font-family:'MyriadPro-Regular'; font-size:10px;">HEX 06 27 26</tspan><tspan x="0" y="24" class="st0" style="font-family:'MyriadPro-Regular'; font-size:10px;">RGB 6 39 38</tspan><tspan x="0" y="36" class="st0" style="font-family:'MyriadPro-Regular'; font-size:10px;">CMYK 87 61 67 69</tspan></text>
	
		<text transform="matrix(1.1767 0 0 1 239.4724 -2170.2617)" class="st0" style="font-family:'Montserrat-Bold'; font-size:16.8082px;">Burnham</text>
	
		<text transform="matrix(1.1767 0 0 1 400.4724 -2170.2617)" class="st0" style="font-family:'Montserrat-Bold'; font-size:16.8082px;">Elephant</text>
	
		<text transform="matrix(1.1767 0 0 1 720.4724 -2170.2617)" class="st2" style="font-family:'Montserrat-Bold'; font-size:16.8082px;">Moonraker</text>
	
		<text transform="matrix(1.1767 0 0 1 883.4722 -2170.2617)" class="st2" style="font-family:'Montserrat-Bold'; font-size:16.8082px;">White</text>
	<text transform="matrix(1.1767 0 0 1 561.4724 -2181.2617)"><tspan x="0" y="0" class="st0" style="font-family:'Montserrat-Bold'; font-size:16.8082px;">Persian</tspan><tspan x="0" y="16" class="st0" style="font-family:'Montserrat-Bold'; font-size:16.8082px;">Indigo</tspan></text>
</g>
</svg>
