<?xml version="1.0" encoding="utf-8"?>
<!-- Generator: Adobe Illustrator 26.1.0, SVG Export Plug-In . SVG Version: 6.00 Build 0)  -->
<svg version="1.1" id="Layer_1" xmlns="http://www.w3.org/2000/svg" xmlns:xlink="http://www.w3.org/1999/xlink" x="0px" y="0px"
	 viewBox="0 0 2118 1765" style="enable-background:new 0 0 2118 1765;" xml:space="preserve">
<style type="text/css">
	.st0{clip-path:url(#SVGID_00000111875530650582744020000004758422809223657883_);}
	.st1{opacity:0.5;enable-background:new    ;}
	.st2{fill:#2650F4;}
	.st3{fill:#FFFEFF;}
	.st4{fill:#F4F4F4;}
	.st5{opacity:0.3;fill:none;stroke:#7C7C7C;stroke-miterlimit:10;enable-background:new    ;}
	.st6{opacity:0.3;fill:#FFFFFF;enable-background:new    ;}
	.st7{opacity:0.3;fill:#F5F5F5;enable-background:new    ;}
	.st8{fill:#FFFFFF;}
	.st9{fill:none;stroke:#999999;stroke-miterlimit:10;}
	.st10{fill:none;}
	.st11{fill:#EBEBEB;}
	.st12{fill:#002233;}
	.st13{fill:#70E000;}
	.st14{opacity:0.1;}
	.st15{fill:none;stroke:#4F4F4F;stroke-width:1.1773;stroke-miterlimit:10;}
	.st16{fill:none;stroke:#FFFFFF;stroke-width:0.5759;stroke-miterlimit:10;}
	.st17{opacity:0.3;clip-path:url(#SVGID_00000170971124618185222870000002609918755677772718_);}
	.st18{fill:#D3D3D3;}
	.st19{fill:none;stroke:#999999;stroke-width:1.1639;stroke-miterlimit:10;}
	.st20{fill:none;stroke:#999999;stroke-width:1.0492;stroke-miterlimit:10;}
	.st21{fill:none;stroke:#999999;stroke-width:1.3443;stroke-miterlimit:10;}
	.st22{fill:none;stroke:#999999;stroke-width:1.3934;stroke-miterlimit:10;}
</style>
<g>
	<g>
		<defs>
			<rect id="SVGID_1_" x="-1872" y="-2597" width="1920" height="1080"/>
		</defs>
		<clipPath id="SVGID_00000015326375179652153100000006821185560926600328_">
			<use xlink:href="#SVGID_1_"  style="overflow:visible;"/>
		</clipPath>
		<g style="clip-path:url(#SVGID_00000015326375179652153100000006821185560926600328_);">
			
				<image style="overflow:visible;enable-background:new    ;" width="6000" height="4000" xlink:href="C:\Users\munkh\Downloads\pexels-nothing-ahead-4440720.jpg"  transform="matrix(0.32 0 0 0.32 -1872 -2697)">
			</image>
		</g>
	</g>
</g>
<rect x="-1872" y="-2597" class="st1" width="1920" height="1080"/>
<g>
	<g>
		<g>
			<path class="st2" d="M-999.9-2100.5c-2.2-4-6.4-6.5-11-6.5c-4.3,0-8.3,2.2-10.6,5.9l-27.5,43.5v-32.7c0-9.2-7.5-16.6-16.6-16.6
				c-5.7,0-11,2.9-14,7.7l-26.4,41.6v-35.3c0-7.7-6.3-14-14-14s-14,6.3-14,14v69.4c0,9.2,7.5,16.6,16.6,16.6c5.7,0,11-2.9,14-7.7
				l26.4-41.6v32.7c0,9.2,7.5,16.6,16.6,16.6c5.7,0,11-2.9,14-7.7l46.2-72.9C-997.8-2091.5-997.7-2096.4-999.9-2100.5z"/>
			<path class="st2" d="M-998-2026.4c0-0.1,0-0.1,0-0.2c0-0.2,0-0.3,0-0.5c0-6.7-5.4-12.1-12.1-12.1c-6.7,0-12.1,5.4-12.1,12.1
				s5.4,12.1,12.1,12.1v7.9c6.2,0,11.2-11.5,12-18.5C-998-2025.8-998-2026.1-998-2026.4z"/>
		</g>
	</g>
	<g>
		<path class="st3" d="M-900.6-2079.4l-4.3,33.9c-0.7,5.2-2,9-3.9,11.2s-5,3.3-9.5,3.3c-4.3,0-7.4-1.1-9.1-3.3
			c-1.7-2.1-2.8-5.9-3.5-11.2l-3.2-26.4c-0.2-1.3-0.3-2.1-0.5-2.4c-0.2-0.3-0.5-0.5-1-0.5s-0.9,0.2-1,0.5c-0.2,0.3-0.3,1.1-0.5,2.4
			l-3.2,26.4c-0.6,5.3-1.8,9-3.5,11.2s-4.7,3.3-9.1,3.3c-4.4,0-7.6-1.1-9.5-3.3c-1.9-2.2-3.2-5.9-3.9-11.2l-4.3-33.9
			c-0.2-1.8-0.1-3.1,0.5-3.7c0.5-0.6,1.7-1,3.6-1h1.6c1.8,0,3.1,0.3,3.8,0.9c0.7,0.6,1.2,1.9,1.4,3.7l4,33.9c0.3,2,0.6,3.3,0.9,3.9
			c0.3,0.6,0.9,0.9,1.8,0.9c0.9,0,1.5-0.3,1.9-1c0.4-0.6,0.7-1.9,1-3.9l3.7-27.4c0.6-4.3,1.6-7.2,3.1-8.8c1.6-1.6,4.1-2.4,7.6-2.4
			c3.6,0,6.1,0.8,7.6,2.4c1.6,1.6,2.6,4.5,3.1,8.8l3.7,27.4c0.3,1.9,0.6,3.2,1,3.9c0.4,0.6,1,1,1.9,1s1.5-0.3,1.8-0.9
			s0.7-1.9,0.9-3.9l4-33.9c0.3-1.9,0.8-3.1,1.4-3.7c0.7-0.6,2-0.9,3.8-0.9h1.6c1.9,0,3.1,0.3,3.6,1
			C-900.6-2082.5-900.4-2081.2-900.6-2079.4z"/>
		<path class="st3" d="M-858.3-2055.6c0,0.4-0.1,1.4-0.2,3.1c-0.2,1.8-0.7,3-1.3,3.6c-0.7,0.6-2,0.8-3.9,0.8h-20.4v1.2
			c0,2.1,0.8,3.6,2.5,4.6s4.3,1.5,8,1.5c2.7,0,6-0.4,9.7-1.1c1.7-0.4,2.9-0.3,3.4,0.2c0.6,0.5,0.8,1.7,0.8,3.6v0.9
			c0,1.8-0.3,3-0.8,3.6s-1.7,1.2-3.5,1.6c-2.5,0.7-5.7,1-9.8,1c-7.2,0-12.5-1.4-15.9-4.2s-5.1-7.3-5.1-13.4v-6.4
			c0-12.1,6.2-18.1,18.7-18.1C-864.1-2073-858.3-2067.2-858.3-2055.6z M-884.1-2057.8v1.2h15.8v-1.2c0-4.1-2.7-6.1-8-6.1
			C-881.4-2063.9-884.1-2061.9-884.1-2057.8z"/>
		<path class="st3" d="M-851.2-2044v-39.6c0-1.8,0.3-3,0.9-3.6c0.6-0.6,1.8-0.9,3.6-0.9h1.4c1.8,0,3,0.3,3.6,0.9
			c0.6,0.6,0.9,1.8,0.9,3.6v37.3c0,2,0.3,3.4,0.8,4.2c0.5,0.8,1.4,1.2,2.7,1.2h0.4c1.1,0,1.9,0.2,2.2,0.7s0.5,1.5,0.5,3v1.5
			c0,1.6-0.2,2.7-0.6,3.3c-0.4,0.6-1.1,1-2.2,1.2c-1,0.1-1.8,0.2-2.4,0.2c-3.8,0-6.7-1.1-8.8-3.3
			C-850.2-2036.5-851.2-2039.7-851.2-2044z"/>
		<path class="st3" d="M-818.8-2079.6c-1.2,1.2-2.7,1.8-4.4,1.8s-3.2-0.6-4.4-1.8s-1.8-2.7-1.8-4.4s0.6-3.2,1.8-4.4s2.7-1.8,4.4-1.8
			s3.2,0.6,4.4,1.8s1.8,2.7,1.8,4.4C-817-2082.4-817.6-2080.9-818.8-2079.6z M-828.5-2036.3v-31.2c0-1.8,0.3-3,0.9-3.6
			c0.6-0.6,1.8-0.9,3.6-0.9h1.4c1.8,0,3,0.3,3.6,0.9c0.6,0.6,0.9,1.8,0.9,3.6v31.2c0,1.8-0.3,3-0.9,3.6c-0.6,0.6-1.8,0.9-3.6,0.9
			h-1.4c-1.8,0-3-0.3-3.6-0.9C-828.2-2033.3-828.5-2034.5-828.5-2036.3z"/>
		<path class="st3" d="M-798.8-2056.8v20.4c0,1.8-0.3,3-0.9,3.6c-0.6,0.6-1.8,0.9-3.6,0.9h-1.5c-1.8,0-3-0.3-3.6-0.9
			s-0.9-1.8-0.9-3.6v-20.4c0-5.3,1.5-9.3,4.6-12.1s7.6-4.1,13.7-4.1c6.2,0,10.8,1.3,13.7,4s4.4,6.7,4.4,12.3v20.4
			c0,1.8-0.3,3-0.9,3.6c-0.6,0.6-1.8,0.9-3.6,0.9h-1.5c-1.8,0-3-0.3-3.6-0.9s-0.9-1.8-0.9-3.6v-20.4c0-2.4-0.5-4.1-1.6-5
			s-3.1-1.4-6-1.4s-5,0.5-6.1,1.4C-798.3-2060.8-798.8-2059.1-798.8-2056.8z"/>
		<path class="st3" d="M-729.4-2058.4v0.5c0,10-6,14.9-18,14.9c-3.2,0-5.2,0.1-6.2,0.4s-1.5,0.8-1.5,1.7c0,0.8,0.5,1.2,1.5,1.5
			c1,0.2,3.1,0.4,6.2,0.4c7.3,0,12.4,0.9,15.1,2.7c2.7,1.8,4.1,4.9,4.1,9.5s-1.4,7.8-4.1,9.7c-2.8,1.9-7.9,2.8-15.1,2.8
			c-7.3,0-12.4-0.9-15.3-2.6c-2.7-1.7-4.1-4.4-4.1-8.1c0-3.5,1.3-6,4-7.6c-1.9-1.3-2.8-3.3-2.8-5.9c0-3.6,2.1-6.1,6.2-7.5
			c-4.1-2.4-6.2-6.3-6.2-11.8v-0.5c0-4.6,1.6-8.2,4.8-10.8s7.6-3.9,13.4-3.9c2.6,0,5,0.3,7.1,1l4.7-3.4c1.3-1,2.4-1.4,3.2-1.4
			c0.9,0,1.8,0.6,3,1.7l0.2,0.2c1.2,1.2,1.8,2.1,1.8,2.8s-0.5,1.7-1.6,2.9l-2.9,3.2C-730.2-2063.8-729.4-2061.4-729.4-2058.4z
			 M-747.4-2030.1c-2.5,0-4.7-0.1-6.7-0.2c-1.4,0.6-2.2,1.9-2.2,3.7c0,1.4,0.5,2.4,1.6,2.8c1.2,0.4,3.6,0.6,7.2,0.6
			c2.9,0,5-0.2,6.4-0.5c1.5-0.4,2.2-1.4,2.2-3s-0.6-2.5-1.7-2.9C-741.5-2029.9-743.8-2030.1-747.4-2030.1z M-739.9-2057.9v-0.5
			c0-1.9-0.6-3.3-1.7-4.2c-1.2-0.9-3.1-1.3-5.7-1.3c-2.7,0-4.7,0.4-5.9,1.3c-1.2,0.9-1.8,2.3-1.8,4.2v0.5c0,2.1,0.6,3.6,1.8,4.5
			s3.1,1.4,5.9,1.4c2.7,0,4.7-0.5,5.8-1.4C-740.5-2054.3-739.9-2055.8-739.9-2057.9z"/>
		<path class="st3" d="M-689.9-2059.2v15.3c0,4.4-1.4,7.6-4.3,9.8c-2.8,2.1-7.2,3.2-13.2,3.2c-5.9,0-10.3-1-13.2-3.1
			c-2.8-2.1-4.3-5.3-4.3-9.6c0-8.4,5.4-12.5,16.3-12.5h8.1v-3.1c0-1.8-0.6-3.1-1.9-3.8s-3.4-1.1-6.4-1.1c-2.2,0-4.6,0.2-7,0.5
			c-1.8,0.3-3,0.1-3.6-0.4s-0.9-1.6-0.9-3.4v-0.3c0-1.7,0.3-2.9,0.8-3.5c0.6-0.6,1.7-1.1,3.5-1.4c2.5-0.3,4.7-0.4,6.5-0.4
			c6.6,0,11.5,1.1,14.7,3.3C-691.5-2067.5-689.9-2064-689.9-2059.2z M-700.3-2044.4v-3.9h-8.3c-3.8,0-5.7,1.5-5.7,4.4
			c0.2,1.7,0.8,2.9,1.8,3.4c1,0.6,2.7,0.8,5.1,0.8c2.4,0.1,4.2-0.3,5.3-0.9C-701.1-2041.2-700.5-2042.5-700.3-2044.4z"/>
	</g>
</g>
<g>
	<g>
		<g>
			<path class="st2" d="M8264.1-2479.5c-2.2-4-6.4-6.5-11-6.5c-4.3,0-8.3,2.2-10.6,5.9l-27.5,43.5v-32.7c0-9.2-7.5-16.6-16.6-16.6
				c-5.7,0-11,2.9-14,7.7l-26.4,41.6v-35.3c0-7.7-6.3-14-14-14s-14,6.3-14,14v69.4c0,9.2,7.5,16.6,16.6,16.6c5.7,0,11-2.9,14-7.7
				l26.4-41.6v32.7c0,9.2,7.5,16.6,16.6,16.6c5.7,0,11-2.9,14-7.7l46.2-72.9C8266.2-2470.5,8266.3-2475.4,8264.1-2479.5z"/>
			<path class="st2" d="M8266-2405.4c0-0.1,0-0.1,0-0.2c0-0.2,0-0.3,0-0.5c0-6.7-5.4-12.1-12.1-12.1c-6.7,0-12.1,5.4-12.1,12.1
				s5.4,12.1,12.1,12.1v7.9c6.2,0,11.2-11.5,12-18.5C8266-2404.8,8266-2405.1,8266-2405.4z"/>
		</g>
	</g>
	<g>
		<path class="st2" d="M8363.4-2458.4l-4.3,33.9c-0.7,5.2-2,9-3.9,11.2s-5,3.3-9.5,3.3c-4.3,0-7.4-1.1-9.1-3.3
			c-1.7-2.1-2.8-5.9-3.5-11.2l-3.2-26.4c-0.2-1.3-0.3-2.1-0.5-2.4c-0.2-0.3-0.5-0.5-1-0.5s-0.9,0.2-1,0.5c-0.2,0.3-0.3,1.1-0.5,2.4
			l-3.2,26.4c-0.6,5.3-1.8,9-3.5,11.2s-4.7,3.3-9.1,3.3c-4.4,0-7.6-1.1-9.5-3.3s-3.2-5.9-3.9-11.2l-4.3-33.9
			c-0.2-1.8-0.1-3.1,0.5-3.7c0.5-0.6,1.7-1,3.6-1h1.6c1.8,0,3.1,0.3,3.8,0.9c0.7,0.6,1.2,1.9,1.4,3.7l4,33.9c0.3,2,0.6,3.3,0.9,3.9
			c0.3,0.6,0.9,0.9,1.8,0.9c0.9,0,1.5-0.3,1.9-1c0.4-0.6,0.7-1.9,1-3.9l3.7-27.4c0.6-4.3,1.6-7.2,3.1-8.8c1.6-1.6,4.1-2.4,7.6-2.4
			c3.6,0,6.1,0.8,7.6,2.4c1.6,1.6,2.6,4.5,3.1,8.8l3.7,27.4c0.3,1.9,0.6,3.2,1,3.9c0.4,0.6,1,1,1.9,1s1.5-0.3,1.8-0.9
			c0.3-0.6,0.7-1.9,0.9-3.9l4-33.9c0.3-1.9,0.8-3.1,1.4-3.7c0.7-0.6,2-0.9,3.8-0.9h1.6c1.9,0,3.1,0.3,3.6,1
			C8363.4-2461.5,8363.6-2460.2,8363.4-2458.4z"/>
		<path class="st2" d="M8405.7-2434.6c0,0.4-0.1,1.4-0.2,3.1c-0.2,1.8-0.7,3-1.3,3.6c-0.7,0.6-2,0.8-3.9,0.8h-20.4v1.2
			c0,2.1,0.8,3.6,2.5,4.6s4.3,1.5,8,1.5c2.7,0,6-0.4,9.7-1.1c1.7-0.4,2.9-0.3,3.4,0.2c0.6,0.5,0.8,1.7,0.8,3.6v0.9
			c0,1.8-0.3,3-0.8,3.6s-1.7,1.2-3.5,1.6c-2.5,0.7-5.7,1-9.8,1c-7.2,0-12.5-1.4-15.9-4.2s-5.1-7.3-5.1-13.4v-6.4
			c0-12.1,6.2-18.1,18.7-18.1C8399.9-2452,8405.7-2446.2,8405.7-2434.6z M8379.9-2436.8v1.2h15.8v-1.2c0-4.1-2.7-6.1-8-6.1
			C8382.6-2442.9,8379.9-2440.9,8379.9-2436.8z"/>
		<path class="st2" d="M8412.8-2423v-39.6c0-1.8,0.3-3,0.9-3.6c0.6-0.6,1.8-0.9,3.6-0.9h1.4c1.8,0,3,0.3,3.6,0.9
			c0.6,0.6,0.9,1.8,0.9,3.6v37.3c0,2,0.3,3.4,0.8,4.2s1.4,1.2,2.7,1.2h0.4c1.1,0,1.9,0.2,2.2,0.7s0.5,1.5,0.5,3v1.5
			c0,1.6-0.2,2.7-0.6,3.3c-0.4,0.6-1.1,1-2.2,1.2c-1,0.1-1.8,0.2-2.4,0.2c-3.8,0-6.7-1.1-8.8-3.3
			C8413.8-2415.5,8412.8-2418.7,8412.8-2423z"/>
		<path class="st2" d="M8445.2-2458.6c-1.2,1.2-2.7,1.8-4.4,1.8s-3.2-0.6-4.4-1.8s-1.8-2.7-1.8-4.4s0.6-3.2,1.8-4.4s2.7-1.8,4.4-1.8
			s3.2,0.6,4.4,1.8s1.8,2.7,1.8,4.4C8447-2461.4,8446.4-2459.9,8445.2-2458.6z M8435.5-2415.3v-31.2c0-1.8,0.3-3,0.9-3.6
			c0.6-0.6,1.8-0.9,3.6-0.9h1.4c1.8,0,3,0.3,3.6,0.9c0.6,0.6,0.9,1.8,0.9,3.6v31.2c0,1.8-0.3,3-0.9,3.6c-0.6,0.6-1.8,0.9-3.6,0.9
			h-1.4c-1.8,0-3-0.3-3.6-0.9C8435.8-2412.3,8435.5-2413.5,8435.5-2415.3z"/>
		<path class="st2" d="M8465.2-2435.8v20.4c0,1.8-0.3,3-0.9,3.6c-0.6,0.6-1.8,0.9-3.6,0.9h-1.5c-1.8,0-3-0.3-3.6-0.9
			c-0.6-0.6-0.9-1.8-0.9-3.6v-20.4c0-5.3,1.5-9.3,4.6-12.1s7.6-4.1,13.7-4.1c6.2,0,10.8,1.3,13.7,4s4.4,6.7,4.4,12.3v20.4
			c0,1.8-0.3,3-0.9,3.6c-0.6,0.6-1.8,0.9-3.6,0.9h-1.5c-1.8,0-3-0.3-3.6-0.9c-0.6-0.6-0.9-1.8-0.9-3.6v-20.4c0-2.4-0.5-4.1-1.6-5
			s-3.1-1.4-6-1.4s-5,0.5-6.1,1.4C8465.7-2439.8,8465.2-2438.1,8465.2-2435.8z"/>
		<path class="st2" d="M8534.6-2437.4v0.5c0,10-6,14.9-18,14.9c-3.2,0-5.2,0.1-6.2,0.4c-1,0.3-1.5,0.8-1.5,1.7
			c0,0.8,0.5,1.2,1.5,1.5c1,0.2,3.1,0.4,6.2,0.4c7.3,0,12.4,0.9,15.1,2.7c2.7,1.8,4.1,4.9,4.1,9.5s-1.4,7.8-4.1,9.7
			c-2.8,1.9-7.9,2.8-15.1,2.8c-7.3,0-12.4-0.9-15.3-2.6c-2.7-1.7-4.1-4.4-4.1-8.1c0-3.5,1.3-6,4-7.6c-1.9-1.3-2.8-3.3-2.8-5.9
			c0-3.6,2.1-6.1,6.2-7.5c-4.1-2.4-6.2-6.3-6.2-11.8v-0.5c0-4.6,1.6-8.2,4.8-10.8s7.6-3.9,13.4-3.9c2.6,0,5,0.3,7.1,1l4.7-3.4
			c1.3-1,2.4-1.4,3.2-1.4c0.9,0,1.8,0.6,3,1.7l0.2,0.2c1.2,1.2,1.8,2.1,1.8,2.8s-0.5,1.7-1.6,2.9l-2.9,3.2
			C8533.8-2442.8,8534.6-2440.4,8534.6-2437.4z M8516.6-2409.1c-2.5,0-4.7-0.1-6.7-0.2c-1.4,0.6-2.2,1.9-2.2,3.7
			c0,1.4,0.5,2.4,1.6,2.8c1.2,0.4,3.6,0.6,7.2,0.6c2.9,0,5-0.2,6.4-0.5c1.5-0.4,2.2-1.4,2.2-3s-0.6-2.5-1.7-2.9
			C8522.5-2408.9,8520.2-2409.1,8516.6-2409.1z M8524.1-2436.9v-0.5c0-1.9-0.6-3.3-1.7-4.2c-1.2-0.9-3.1-1.3-5.7-1.3
			c-2.7,0-4.7,0.4-5.9,1.3c-1.2,0.9-1.8,2.3-1.8,4.2v0.5c0,2.1,0.6,3.6,1.8,4.5s3.1,1.4,5.9,1.4c2.7,0,4.7-0.5,5.8-1.4
			C8523.5-2433.3,8524.1-2434.8,8524.1-2436.9z"/>
		<path class="st2" d="M8574.1-2438.2v15.3c0,4.4-1.4,7.6-4.3,9.8c-2.8,2.1-7.2,3.2-13.2,3.2c-5.9,0-10.3-1-13.2-3.1
			c-2.8-2.1-4.3-5.3-4.3-9.6c0-8.4,5.4-12.5,16.3-12.5h8.1v-3.1c0-1.8-0.6-3.1-1.9-3.8s-3.4-1.1-6.4-1.1c-2.2,0-4.6,0.2-7,0.5
			c-1.8,0.3-3,0.1-3.6-0.4s-0.9-1.6-0.9-3.4v-0.3c0-1.7,0.3-2.9,0.8-3.5c0.6-0.6,1.7-1.1,3.5-1.4c2.5-0.3,4.7-0.4,6.5-0.4
			c6.6,0,11.5,1.1,14.7,3.3C8572.5-2446.5,8574.1-2443,8574.1-2438.2z M8563.7-2423.4v-3.9h-8.3c-3.8,0-5.7,1.5-5.7,4.4
			c0.2,1.7,0.8,2.9,1.8,3.4c1,0.6,2.7,0.8,5.1,0.8c2.4,0.1,4.2-0.3,5.3-0.9C8562.9-2420.2,8563.5-2421.5,8563.7-2423.4z"/>
	</g>
</g>
<text transform="matrix(1 0 0 1 -990.2354 -1593.8232)" class="st3" style="font-family:'SegoeUI'; font-size:19.0292px;">Улаанбаатар 2021</text>
<text transform="matrix(1 0 0 1 -998.6909 -2512.8232)" class="st3" style="font-family:'SegoeUI'; font-size:19.0292px;">Language and Game</text>
<text transform="matrix(1 0 0 1 -964.7909 -2490.0232)" class="st3" style="font-family:'SegoeUI'; font-size:19.0292px;">Logo Design</text>
<rect x="2065" y="-2597" class="st4" width="1920" height="1080"/>
<text transform="matrix(1 0 0 1 2341 -2240.8232)" class="st18" style="font-family:'SegoeUI'; font-size:19.0292px;">App Store</text>
<text transform="matrix(1 0 0 1 3122 -2240.8232)" class="st18" style="font-family:'SegoeUI'; font-size:19.0292px;">Play Store</text>
<g>
	<path class="st2" d="M2866.6-1928.9h-132.7c-33.9,0-61.4-27.5-61.4-61.4V-2123c0-33.9,27.5-61.4,61.4-61.4h132.7
		c33.9,0,61.4,27.5,61.4,61.4v132.7C2928-1956.4,2900.5-1928.9,2866.6-1928.9z"/>
	<path class="st5" d="M2800.3-1928.9L2800.3-1928.9c-70.5,0-127.7-57.2-127.7-127.7l0,0c0-70.5,57.2-127.7,127.7-127.7l0,0
		c70.5,0,127.7,57.2,127.7,127.7l0,0C2928-1986.1,2870.8-1928.9,2800.3-1928.9z"/>
	<circle class="st5" cx="2800.3" cy="-2056.7" r="67.6"/>
	<circle class="st5" cx="2800.3" cy="-2056.7" r="46.8"/>
	<circle class="st5" cx="2799.9" cy="-2056.7" r="109.6"/>
	<line class="st5" x1="2672.6" y1="-2166.3" x2="2928" y2="-2166.3"/>
	<line class="st5" x1="2672.6" y1="-2103.5" x2="2928" y2="-2103.5"/>
	<line class="st5" x1="2672.6" y1="-2056.7" x2="2928" y2="-2056.7"/>
	<line class="st5" x1="2672.6" y1="-2009.9" x2="2928" y2="-2009.9"/>
	<line class="st5" x1="2672.6" y1="-1947.1" x2="2928" y2="-1947.1"/>
	<line class="st5" x1="2690.4" y1="-2184.4" x2="2690.4" y2="-1928.9"/>
	<line class="st5" x1="2753.5" y1="-2184.4" x2="2753.5" y2="-1928.9"/>
	<line class="st5" x1="2800.3" y1="-2184.4" x2="2800.3" y2="-1928.9"/>
	<line class="st5" x1="2847.1" y1="-2184.4" x2="2847.1" y2="-1928.9"/>
	<line class="st5" x1="2909.5" y1="-2184.4" x2="2909.5" y2="-1928.9"/>
	<line class="st5" x1="2672.6" y1="-2184.4" x2="2928" y2="-1928.9"/>
	<line class="st5" x1="2672.6" y1="-1928.9" x2="2928" y2="-2184.4"/>
	<path class="st6" d="M2468.4-1928.9L2468.4-1928.9c-70.5,0-127.7-57.2-127.7-127.7l0,0c0-70.5,57.2-127.7,127.7-127.7l0,0
		c70.5,0,127.7,57.2,127.7,127.7l0,0C2596.1-1986.1,2538.9-1928.9,2468.4-1928.9z"/>
	<path class="st5" d="M2534.5-1928.9h-132.2c-34.1,0-61.6-27.6-61.6-61.7v-132.2c0-34.1,27.6-61.7,61.6-61.7h132.2
		c34.1,0,61.6,27.6,61.6,61.7v132.2C2596.1-1956.5,2568.5-1928.9,2534.5-1928.9z"/>
	<circle class="st5" cx="2468.4" cy="-2056.7" r="67.6"/>
	<circle class="st5" cx="2468.4" cy="-2056.7" r="46.8"/>
	<circle class="st5" cx="2468" cy="-2056.7" r="109.6"/>
	<line class="st5" x1="2340.6" y1="-2166.3" x2="2596.1" y2="-2166.3"/>
	<line class="st5" x1="2340.6" y1="-2103.5" x2="2596.1" y2="-2103.5"/>
	<line class="st5" x1="2340.6" y1="-2056.7" x2="2596.1" y2="-2056.7"/>
	<line class="st5" x1="2340.6" y1="-2009.9" x2="2596.1" y2="-2009.9"/>
	<line class="st5" x1="2340.6" y1="-1947.1" x2="2596.1" y2="-1947.1"/>
	<line class="st5" x1="2358.4" y1="-2184.4" x2="2358.4" y2="-1928.9"/>
	<line class="st5" x1="2421.6" y1="-2184.4" x2="2421.6" y2="-1928.9"/>
	<line class="st5" x1="2468.4" y1="-2184.4" x2="2468.4" y2="-1928.9"/>
	<line class="st5" x1="2515.2" y1="-2184.4" x2="2515.2" y2="-1928.9"/>
	<line class="st5" x1="2577.6" y1="-2184.4" x2="2577.6" y2="-1928.9"/>
	<line class="st5" x1="2340.6" y1="-2184.4" x2="2596.1" y2="-1928.9"/>
	<line class="st5" x1="2340.6" y1="-1928.9" x2="2596.1" y2="-2184.4"/>
	<path class="st7" d="M2757.2-2086.5c-0.1,0-0.2,0-0.3,0l0,0H2757.2z"/>
</g>
<g>
	<path class="st6" d="M3626.6-1928.4h-159.7c-26.4,0-47.9-21.4-47.9-47.9V-2136c0-26.4,21.4-47.9,47.9-47.9h159.7
		c26.4,0,47.9,21.4,47.9,47.9v159.7C3674.5-1949.8,3653-1928.4,3626.6-1928.4z"/>
	<circle class="st5" cx="3250.1" cy="-2056.1" r="64.7"/>
	<circle class="st5" cx="3250.1" cy="-2056.1" r="44.8"/>
	<circle class="st5" cx="3249.7" cy="-2056.1" r="104.9"/>
	<line class="st5" x1="3122" y1="-2183.8" x2="3377.5" y2="-1928.4"/>
	<line class="st5" x1="3122" y1="-1928.4" x2="3377.5" y2="-2183.8"/>
	<path class="st5" d="M3357.7-1928.4h-216c-10.9,0-19.7-8.8-19.7-19.7v-216c0-10.9,8.8-19.7,19.7-19.7h216
		c10.9,0,19.7,8.8,19.7,19.7v216C3377.5-1937.2,3368.6-1928.4,3357.7-1928.4z"/>
	<line class="st5" x1="3161.7" y1="-2183.8" x2="3161.7" y2="-1928.4"/>
	<line class="st5" x1="3197.4" y1="-2183.8" x2="3197.4" y2="-1928.4"/>
	<line class="st5" x1="3232.3" y1="-2183.8" x2="3232.3" y2="-1928.4"/>
	<line class="st5" x1="3268" y1="-2183.8" x2="3268" y2="-1928.4"/>
	<line class="st5" x1="3303.6" y1="-2183.8" x2="3303.6" y2="-1928.4"/>
	<path class="st5" d="M3338.5-2183.8v255.5V-2183.8z"/>
	<path class="st5" d="M3377.5-2143.9H3122H3377.5z"/>
	<path class="st5" d="M3377.5-2108.3H3122H3377.5z"/>
	<path class="st5" d="M3377.5-2072.6H3122H3377.5z"/>
	<path class="st5" d="M3377.5-2036.9H3122H3377.5z"/>
	<path class="st5" d="M3377.5-2001.3H3122H3377.5z"/>
	<path class="st5" d="M3377.5-1965.6H3122H3377.5z"/>
	<circle class="st5" cx="3546.8" cy="-2056.1" r="64.7"/>
	<path class="st2" d="M3654.8-1928.4H3438c-10.7,0-19.3-8.7-19.3-19.3v-216.8c0-10.7,8.7-19.3,19.3-19.3h216.8
		c10.7,0,19.3,8.7,19.3,19.3v216.8C3674.2-1937,3665.5-1928.4,3654.8-1928.4z"/>
	<circle class="st5" cx="3546.7" cy="-2056.1" r="44.8"/>
	<circle class="st5" cx="3546.4" cy="-2056.1" r="104.9"/>
	<line class="st5" x1="3418.7" y1="-2183.8" x2="3674.2" y2="-1928.4"/>
	<line class="st5" x1="3418.7" y1="-1928.4" x2="3674.2" y2="-2183.8"/>
	<line class="st5" x1="3458.4" y1="-2183.8" x2="3458.4" y2="-1928.4"/>
	<line class="st5" x1="3494.1" y1="-2183.8" x2="3494.1" y2="-1928.4"/>
	<line class="st5" x1="3529" y1="-2183.8" x2="3529" y2="-1928.4"/>
	<line class="st5" x1="3564.7" y1="-2183.8" x2="3564.7" y2="-1928.4"/>
	<line class="st5" x1="3600.3" y1="-2183.8" x2="3600.3" y2="-1928.4"/>
	<path class="st5" d="M3635.2-2183.8v255.5V-2183.8z"/>
	<path class="st5" d="M3674.2-2143.9h-255.5H3674.2z"/>
	<path class="st5" d="M3674.2-2108.3h-255.5H3674.2z"/>
	<path class="st5" d="M3674.2-2072.6h-255.5H3674.2z"/>
	<path class="st5" d="M3674.2-2036.9h-255.5H3674.2z"/>
	<path class="st5" d="M3674.2-2001.3h-255.5H3674.2z"/>
	<path class="st5" d="M3674.2-1965.6h-255.5H3674.2z"/>
	<line class="st5" x1="3122" y1="-1934.1" x2="3377.5" y2="-1934.1"/>
	<line class="st5" x1="3122" y1="-2178.1" x2="3377.5" y2="-2178.1"/>
	<line class="st5" x1="3419" y1="-2178.1" x2="3674.5" y2="-2178.1"/>
	<line class="st5" x1="3419" y1="-1934.1" x2="3674.5" y2="-1934.1"/>
	<line class="st5" x1="3127.7" y1="-2183.8" x2="3127.7" y2="-1928.4"/>
	<line class="st5" x1="3371.8" y1="-2183.8" x2="3371.8" y2="-1928.4"/>
	<line class="st5" x1="3424.4" y1="-2183.8" x2="3424.4" y2="-1928.4"/>
	<line class="st5" x1="3668.5" y1="-2183.8" x2="3668.5" y2="-1928.4"/>
</g>
<g>
	<g>
		<g>
			<path class="st8" d="M2862.7-2098.5c-2.1-3.8-6.1-6.2-10.5-6.2c-4.1,0-7.9,2.1-10.1,5.5L2816-2058v-31c0-8.7-7.1-15.7-15.7-15.7
				c-5.4,0-10.4,2.7-13.3,7.3l-25,39.4v-33.5c0-7.3-5.9-13.3-13.3-13.3c-7.3,0-13.3,5.9-13.3,13.3v65.7c0,8.7,7.1,15.7,15.7,15.7
				c5.4,0,10.4-2.7,13.3-7.3l25-39.4v31c0,8.7,7.1,15.7,15.7,15.7c5.4,0,10.4-2.7,13.3-7.3l43.7-69
				C2864.7-2090,2864.8-2094.7,2862.7-2098.5z"/>
			<path class="st8" d="M2864.5-2028.4c0-0.1,0-0.1,0-0.2c0-0.2,0-0.3,0-0.5c0-6.4-5.1-11.5-11.5-11.5s-11.5,5.1-11.5,11.5
				s5.1,11.5,11.5,11.5v7.5c5.8,0,10.6-10.9,11.4-17.5C2864.4-2027.8,2864.5-2028.1,2864.5-2028.4z"/>
		</g>
	</g>
</g>
<g>
	<g>
		<g>
			<path class="st8" d="M3609.7-2098.5c-2.1-3.8-6.1-6.2-10.5-6.2c-4.1,0-7.9,2.1-10.1,5.5L3563-2058v-31c0-8.7-7.1-15.7-15.7-15.7
				c-5.4,0-10.4,2.7-13.3,7.3l-25,39.4v-33.5c0-7.3-5.9-13.3-13.3-13.3c-7.3,0-13.3,5.9-13.3,13.3v65.7c0,8.7,7.1,15.7,15.7,15.7
				c5.4,0,10.4-2.7,13.3-7.3l25-39.4v31c0,8.7,7.1,15.7,15.7,15.7c5.4,0,10.4-2.7,13.3-7.3l43.7-69
				C3611.7-2090,3611.8-2094.7,3609.7-2098.5z"/>
			<path class="st8" d="M3611.5-2028.4c0-0.1,0-0.1,0-0.2c0-0.2,0-0.3,0-0.5c0-6.4-5.1-11.5-11.5-11.5s-11.5,5.1-11.5,11.5
				s5.1,11.5,11.5,11.5v7.5c5.8,0,10.6-10.9,11.4-17.5C3611.4-2027.8,3611.5-2028.1,3611.5-2028.4z"/>
		</g>
	</g>
</g>
<line class="st9" x1="3025" y1="-2252" x2="3025" y2="-1841"/>
<text transform="matrix(1 0 0 1 2946.7646 -1593.8232)" class="st18" style="font-family:'SegoeUI'; font-size:19.0292px;">Улаанбаатар 2021</text>
<rect x="4035" y="-2597" class="st4" width="1920" height="1080"/>
<rect x="4515.1" y="-2597" class="st8" width="479.9" height="1080"/>
<rect x="4565" y="-1673" class="st10" width="130" height="100"/>
<text transform="matrix(1 0 0 1 4565 -1662.3501)" style="font-family:'MyriadPro-Bold'; font-size:15px;">R=255 G=255 B=255</text>
<text transform="matrix(1 0 0 1 4565 -1644.3501)" style="font-family:'MyriadPro-Bold'; font-size:15px;">HEX #ffffff</text>
<text transform="matrix(1 0 0 1 4565 -1626.3501)" style="font-family:'MyriadPro-Bold'; font-size:15px;">RGB 255 255 255</text>
<text transform="matrix(1 0 0 1 4565 -1608.3501)" style="font-family:'MyriadPro-Bold'; font-size:15px;">CMYK 0 0 0 0</text>
<rect x="5348" y="-2597" class="st11" width="353.5" height="1080"/>
<rect x="5389" y="-1673" class="st10" width="130" height="100"/>
<text transform="matrix(1 0 0 1 5389 -1662.3501)" style="font-family:'MyriadPro-Bold'; font-size:15px;">R=235 G=235 B=235</text>
<text transform="matrix(1 0 0 1 5389 -1644.3501)" style="font-family:'MyriadPro-Bold'; font-size:15px;">HEX #ebebeb</text>
<text transform="matrix(1 0 0 1 5389 -1626.3501)" style="font-family:'MyriadPro-Bold'; font-size:15px;">RGB 235 235 235</text>
<text transform="matrix(1 0 0 1 5389 -1608.3501)" style="font-family:'MyriadPro-Bold'; font-size:15px;">CMYK 7 5 5 0</text>
<rect x="4035" y="-2597" class="st2" width="479.8" height="1080"/>
<rect x="4085" y="-1673" class="st10" width="130" height="100"/>
<text transform="matrix(1 0 0 1 4085 -1662.3501)" class="st8" style="font-family:'MyriadPro-Bold'; font-size:15px;">R=38 G=80 B=244</text>
<text transform="matrix(1 0 0 1 4085 -1644.3501)" class="st8" style="font-family:'MyriadPro-Bold'; font-size:15px;">HEX #2650F4</text>
<text transform="matrix(1 0 0 1 4085 -1626.3501)" class="st8" style="font-family:'MyriadPro-Bold'; font-size:15px;">RGB 38 80 244</text>
<text transform="matrix(1 0 0 1 4085 -1608.3501)" class="st8" style="font-family:'MyriadPro-Bold'; font-size:15px;">CMYK 82 69 0 0</text>
<rect x="4995" y="-2597" class="st12" width="353.4" height="1080"/>
<rect x="5036" y="-1673" class="st10" width="130" height="100"/>
<text transform="matrix(1 0 0 1 5036 -1662.3501)" class="st8" style="font-family:'MyriadPro-Bold'; font-size:15px;">R=0 G=34 B=51</text>
<text transform="matrix(1 0 0 1 5036 -1644.3501)" class="st8" style="font-family:'MyriadPro-Bold'; font-size:15px;">HEX #002233</text>
<text transform="matrix(1 0 0 1 5036 -1626.3501)" class="st8" style="font-family:'MyriadPro-Bold'; font-size:15px;">RGB 0 34 51</text>
<text transform="matrix(1 0 0 1 5036 -1608.3501)" class="st8" style="font-family:'MyriadPro-Bold'; font-size:15px;">CMYK 94 74 54 63</text>
<rect x="5701.5" y="-2597" class="st13" width="253.5" height="1080"/>
<rect x="5737" y="-1673" class="st10" width="130" height="100"/>
<text transform="matrix(1 0 0 1 5737 -1662.3501)" style="font-family:'MyriadPro-Bold'; font-size:15px;">R=112 G=224 B=0</text>
<text transform="matrix(1 0 0 1 5737 -1644.3501)" style="font-family:'MyriadPro-Bold'; font-size:15px;">HEX #70e000</text>
<text transform="matrix(1 0 0 1 5737 -1626.3501)" style="font-family:'MyriadPro-Bold'; font-size:15px;">RGB 112 224 0</text>
<text transform="matrix(1 0 0 1 5737 -1608.3501)" style="font-family:'MyriadPro-Bold'; font-size:15px;">CMYK 56 0 100 0</text>
<rect x="6005" y="-2597" class="st4" width="1920" height="1080"/>
<g class="st14">
	<g>
		<g>
			<path class="st15" d="M7082.7-2835.6c-17.8-32.4-51.9-52.5-88.9-52.5c-35,0-67,17.6-85.7,47.2L6686.5-2491v-263.4
				c0-73.7-60-133.7-133.7-133.7c-46.1,0-88.3,23.2-112.9,62.2L6227.8-2491v-284.4c0-62.1-50.5-112.7-112.7-112.7
				s-112.7,50.5-112.7,112.7v558.5c0,73.7,60,133.7,133.7,133.7c46.1,0,88.3-23.2,112.9-62.2l212.1-334.9v263.4
				c0,73.7,60,133.7,133.7,133.7c46.1,0,88.3-23.2,112.9-62.2l371.8-587C7099.3-2763.7,7100.6-2803.2,7082.7-2835.6z"/>
		</g>
	</g>
	<g>
		<g>
			<path class="st15" d="M6847.7-2135.8c17.8,32.4,51.9,52.5,88.9,52.5c35,0,67-17.6,85.7-47.2l221.6-349.9v263.4
				c0,73.7,60,133.7,133.7,133.7c46.1,0,88.3-23.2,112.9-62.2l212.1-334.9v284.4c0,62.1,50.5,112.7,112.7,112.7
				c62.1,0,112.7-50.5,112.7-112.7v-558.5c0-73.7-60-133.7-133.7-133.7c-46.1,0-88.3,23.2-112.9,62.2l-212.1,335v-263.4
				c0-73.7-60-133.7-133.7-133.7c-46.1,0-88.3,23.2-112.9,62.2l-371.8,587C6831.1-2207.8,6829.9-2168.2,6847.7-2135.8z"/>
		</g>
	</g>
	<g>
		<g>
			<path class="st15" d="M7082.7-1985.2c-17.8-32.4-51.9-52.5-88.9-52.5c-35,0-67,17.6-85.7,47.2l-221.6,349.9V-1904
				c0-73.7-60-133.7-133.7-133.7c-46.1,0-88.3,23.2-112.9,62.2l-212.1,334.9V-1925c0-62.1-50.5-112.7-112.7-112.7
				s-112.7,50.5-112.7,112.7v558.5c0,73.7,60,133.7,133.7,133.7c46.1,0,88.3-23.2,112.9-62.2l212.1-334.9v263.4
				c0,73.7,60,133.7,133.7,133.7c46.1,0,88.3-23.2,112.9-62.2l371.8-587C7099.3-1913.2,7100.6-1952.8,7082.7-1985.2z"/>
		</g>
	</g>
	<g>
		<g>
			<path class="st15" d="M6847.7-1285.4c17.8,32.4,51.9,52.5,88.9,52.5c35,0,67-17.6,85.7-47.2l221.6-349.9v263.4
				c0,73.7,60,133.7,133.7,133.7c46.1,0,88.3-23.2,112.9-62.2l212.1-334.9v284.4c0,62.1,50.5,112.7,112.7,112.7
				c62.1,0,112.7-50.5,112.7-112.7V-1904c0-73.7-60-133.7-133.7-133.7c-46.1,0-88.3,23.2-112.9,62.2l-212.1,334.9V-1904
				c0-73.7-60-133.7-133.7-133.7c-46.1,0-88.3,23.2-112.9,62.2l-371.8,587C6831.1-1357.3,6829.9-1317.8,6847.7-1285.4z"/>
		</g>
	</g>
</g>
<g>
	<g>
		<g>
			<path class="st16" d="M627.4,80.5c-8.7-15.8-25.4-25.7-43.5-25.7c-17.1,0-32.8,8.6-41.9,23.1L433.6,249V120.2
				c0-36.1-29.3-65.4-65.4-65.4c-22.5,0-43.2,11.4-55.2,30.4L209.2,249V109.9c0-30.4-24.7-55.1-55.1-55.1S99,79.5,99,109.9v273.2
				c0,36.1,29.3,65.4,65.4,65.4c22.5,0,43.2-11.4,55.2-30.4l103.8-163.8v128.9c0,36.1,29.3,65.4,65.4,65.4
				c22.5,0,43.2-11.4,55.2-30.4l181.8-287.1C635.6,115.7,636.2,96.3,627.4,80.5z"/>
		</g>
	</g>
	<g>
		<g>
			<path class="st16" d="M512.5,422.8c8.7,15.8,25.4,25.7,43.5,25.7c17.1,0,32.8-8.6,41.9-23.1l108.4-171.2v128.9
				c0,36.1,29.3,65.4,65.4,65.4c22.5,0,43.2-11.4,55.2-30.4l103.8-163.8v139.1c0,30.4,24.7,55.1,55.1,55.1s55.1-24.7,55.1-55.1
				V120.2c0-36.1-29.3-65.4-65.4-65.4c-22.5,0-43.2,11.4-55.2,30.4L816.5,249V120.2c0-36.1-29.3-65.4-65.4-65.4
				c-22.5,0-43.2,11.4-55.2,30.4L514,372.3C504.4,387.6,503.8,406.9,512.5,422.8z"/>
		</g>
	</g>
	<g>
		<g>
			<path class="st16" d="M627.4,496.5c-8.7-15.8-25.4-25.7-43.5-25.7c-17.1,0-32.8,8.6-41.9,23.1L433.6,665V536.2
				c0-36.1-29.3-65.4-65.4-65.4c-22.5,0-43.2,11.4-55.2,30.4L209.2,665V525.9c0-30.4-24.7-55.1-55.1-55.1S99,495.5,99,525.9v273.2
				c0,36.1,29.3,65.4,65.4,65.4c22.5,0,43.2-11.4,55.2-30.4l103.8-163.8v128.9c0,36.1,29.3,65.4,65.4,65.4
				c22.5,0,43.2-11.4,55.2-30.4l181.8-287.1C635.6,531.7,636.2,512.3,627.4,496.5z"/>
		</g>
	</g>
	<g>
		<g>
			<path class="st16" d="M512.5,838.8c8.7,15.8,25.4,25.7,43.5,25.7c17.1,0,32.8-8.6,41.9-23.1l108.4-171.2v128.9
				c0,36.1,29.3,65.4,65.4,65.4c22.5,0,43.2-11.4,55.2-30.4l103.8-163.8v139.1c0,30.4,24.7,55.1,55.1,55.1s55.1-24.7,55.1-55.1
				V536.2c0-36.1-29.3-65.4-65.4-65.4c-22.5,0-43.2,11.4-55.2,30.4L816.5,665V536.2c0-36.1-29.3-65.4-65.4-65.4
				c-22.5,0-43.2,11.4-55.2,30.4L514,788.3C504.4,803.6,503.8,822.9,512.5,838.8z"/>
		</g>
	</g>
</g>
<g>
	<g>
		<g>
			<path class="st16" d="M627.4,908.2c-8.7-15.8-25.4-25.7-43.5-25.7c-17.1,0-32.8,8.6-41.9,23.1l-108.4,171.2V947.9
				c0-36.1-29.3-65.4-65.4-65.4c-22.5,0-43.2,11.4-55.2,30.4l-103.8,163.8V937.6c0-30.4-24.7-55.1-55.1-55.1S99,907.3,99,937.6
				v273.2c0,36.1,29.3,65.4,65.4,65.4c22.5,0,43.2-11.4,55.2-30.4L323.4,1082v128.9c0,36.1,29.3,65.4,65.4,65.4
				c22.5,0,43.2-11.4,55.2-30.4l181.8-287.1C635.6,943.4,636.2,924.1,627.4,908.2z"/>
		</g>
	</g>
	<g>
		<g>
			<path class="st16" d="M512.5,1250.5c8.7,15.8,25.4,25.7,43.5,25.7c17.1,0,32.8-8.6,41.9-23.1L706.3,1082v128.9
				c0,36.1,29.3,65.4,65.4,65.4c22.5,0,43.2-11.4,55.2-30.4L930.7,1082v139.1c0,30.4,24.7,55.1,55.1,55.1s55.1-24.7,55.1-55.1V947.9
				c0-36.1-29.3-65.4-65.4-65.4c-22.5,0-43.2,11.4-55.2,30.4l-103.8,163.8V947.9c0-36.1-29.3-65.4-65.4-65.4
				c-22.5,0-43.2,11.4-55.2,30.4L514,1200.1C504.4,1215.3,503.8,1234.7,512.5,1250.5z"/>
		</g>
	</g>
	<g>
		<g>
			<path class="st16" d="M627.4,1324.2c-8.7-15.8-25.4-25.7-43.5-25.7c-17.1,0-32.8,8.6-41.9,23.1l-108.4,171.2v-128.9
				c0-36.1-29.3-65.4-65.4-65.4c-22.5,0-43.2,11.4-55.2,30.4l-103.8,163.8v-139.1c0-30.4-24.7-55.1-55.1-55.1S99,1323.2,99,1353.6
				v273.2c0,36.1,29.3,65.4,65.4,65.4c22.5,0,43.2-11.4,55.2-30.4L323.4,1498v128.9c0,36.1,29.3,65.4,65.4,65.4
				c22.5,0,43.2-11.4,55.2-30.4l181.8-287.1C635.6,1359.4,636.2,1340.1,627.4,1324.2z"/>
		</g>
	</g>
	<g>
		<g>
			<path class="st16" d="M512.5,1666.5c8.7,15.8,25.4,25.7,43.5,25.7c17.1,0,32.8-8.6,41.9-23.1L706.3,1498v128.9
				c0,36.1,29.3,65.4,65.4,65.4c22.5,0,43.2-11.4,55.2-30.4L930.7,1498v139.1c0,30.4,24.7,55.1,55.1,55.1s55.1-24.7,55.1-55.1
				v-273.2c0-36.1-29.3-65.4-65.4-65.4c-22.5,0-43.2,11.4-55.2,30.4l-103.8,163.8v-128.9c0-36.1-29.3-65.4-65.4-65.4
				c-22.5,0-43.2,11.4-55.2,30.4L514,1616.1C504.4,1631.3,503.8,1650.7,512.5,1666.5z"/>
		</g>
	</g>
</g>
<g>
	<g>
		<g>
			<path class="st16" d="M1605.5,80.5c-8.7-15.8-25.4-25.7-43.5-25.7c-17.1,0-32.8,8.6-41.9,23.1L1411.7,249V120.2
				c0-36.1-29.3-65.4-65.4-65.4c-22.5,0-43.2,11.4-55.2,30.4L1187.3,249V109.9c0-30.4-24.7-55.1-55.1-55.1s-55.1,24.7-55.1,55.1
				v273.2c0,36.1,29.3,65.4,65.4,65.4c22.5,0,43.2-11.4,55.2-30.4l103.8-163.8v128.9c0,36.1,29.3,65.4,65.4,65.4
				c22.5,0,43.2-11.4,55.2-30.4L1604,130.9C1613.6,115.7,1614.2,96.3,1605.5,80.5z"/>
		</g>
	</g>
	<g>
		<g>
			<path class="st16" d="M1490.6,422.8c8.7,15.8,25.4,25.7,43.5,25.7c17.1,0,32.8-8.6,41.9-23.1l108.4-171.2v128.9
				c0,36.1,29.3,65.4,65.4,65.4c22.5,0,43.2-11.4,55.2-30.4l103.8-163.8v139.1c0,30.4,24.7,55.1,55.1,55.1s55.1-24.7,55.1-55.1
				V120.2c0-36.1-29.3-65.4-65.4-65.4c-22.5,0-43.2,11.4-55.2,30.4L1794.6,249V120.2c0-36.1-29.3-65.4-65.4-65.4
				c-22.5,0-43.2,11.4-55.2,30.4l-181.8,287.1C1482.4,387.6,1481.8,406.9,1490.6,422.8z"/>
		</g>
	</g>
	<g>
		<g>
			<path class="st16" d="M1605.5,496.5c-8.7-15.8-25.4-25.7-43.5-25.7c-17.1,0-32.8,8.6-41.9,23.1L1411.7,665V536.2
				c0-36.1-29.3-65.4-65.4-65.4c-22.5,0-43.2,11.4-55.2,30.4L1187.3,665V525.9c0-30.4-24.7-55.1-55.1-55.1s-55.1,24.7-55.1,55.1
				v273.2c0,36.1,29.3,65.4,65.4,65.4c22.5,0,43.2-11.4,55.2-30.4l103.8-163.8v128.9c0,36.1,29.3,65.4,65.4,65.4
				c22.5,0,43.2-11.4,55.2-30.4L1604,546.9C1613.6,531.7,1614.2,512.3,1605.5,496.5z"/>
		</g>
	</g>
	<g>
		<g>
			<path class="st16" d="M1490.6,838.8c8.7,15.8,25.4,25.7,43.5,25.7c17.1,0,32.8-8.6,41.9-23.1l108.4-171.2v128.9
				c0,36.1,29.3,65.4,65.4,65.4c22.5,0,43.2-11.4,55.2-30.4l103.8-163.8v139.1c0,30.4,24.7,55.1,55.1,55.1s55.1-24.7,55.1-55.1
				V536.2c0-36.1-29.3-65.4-65.4-65.4c-22.5,0-43.2,11.4-55.2,30.4L1794.6,665V536.2c0-36.1-29.3-65.4-65.4-65.4
				c-22.5,0-43.2,11.4-55.2,30.4l-181.8,287.1C1482.4,803.6,1481.8,822.9,1490.6,838.8z"/>
		</g>
	</g>
</g>
<g>
	<g>
		<g>
			<path class="st16" d="M1605.5,908.2c-8.7-15.8-25.4-25.7-43.5-25.7c-17.1,0-32.8,8.6-41.9,23.1l-108.4,171.2V947.9
				c0-36.1-29.3-65.4-65.4-65.4c-22.5,0-43.2,11.4-55.2,30.4l-103.8,163.8V937.6c0-30.4-24.7-55.1-55.1-55.1s-55.1,24.7-55.1,55.1
				v273.2c0,36.1,29.3,65.4,65.4,65.4c22.5,0,43.2-11.4,55.2-30.4l103.8-163.8v128.9c0,36.1,29.3,65.4,65.4,65.4
				c22.5,0,43.2-11.4,55.2-30.4L1604,958.7C1613.6,943.4,1614.2,924.1,1605.5,908.2z"/>
		</g>
	</g>
	<g>
		<g>
			<path class="st16" d="M1490.6,1250.5c8.7,15.8,25.4,25.7,43.5,25.7c17.1,0,32.8-8.6,41.9-23.1l108.4-171.2v128.9
				c0,36.1,29.3,65.4,65.4,65.4c22.5,0,43.2-11.4,55.2-30.4l103.8-163.8v139.1c0,30.4,24.7,55.1,55.1,55.1s55.1-24.7,55.1-55.1
				V947.9c0-36.1-29.3-65.4-65.4-65.4c-22.5,0-43.2,11.4-55.2,30.4l-103.8,163.8V947.9c0-36.1-29.3-65.4-65.4-65.4
				c-22.5,0-43.2,11.4-55.2,30.4L1492.2,1200C1482.4,1215.3,1481.8,1234.7,1490.6,1250.5z"/>
		</g>
	</g>
	<g>
		<g>
			<path class="st16" d="M1605.5,1324.2c-8.7-15.8-25.4-25.7-43.5-25.7c-17.1,0-32.8,8.6-41.9,23.1l-108.4,171.2v-128.9
				c0-36.1-29.3-65.4-65.4-65.4c-22.5,0-43.2,11.4-55.2,30.4l-103.8,163.8v-139.1c0-30.4-24.7-55.1-55.1-55.1s-55.1,24.7-55.1,55.1
				v273.2c0,36.1,29.3,65.4,65.4,65.4c22.5,0,43.2-11.4,55.2-30.4l103.8-163.8v128.9c0,36.1,29.3,65.4,65.4,65.4
				c22.5,0,43.2-11.4,55.2-30.4l181.8-287.1C1613.6,1359.4,1614.2,1340.1,1605.5,1324.2z"/>
		</g>
	</g>
	<g>
		<g>
			<path class="st16" d="M1490.6,1666.5c8.7,15.8,25.4,25.7,43.5,25.7c17.1,0,32.8-8.6,41.9-23.1l108.4-171.2v128.9
				c0,36.1,29.3,65.4,65.4,65.4c22.5,0,43.2-11.4,55.2-30.4l103.8-163.8v139.1c0,30.4,24.7,55.1,55.1,55.1s55.1-24.7,55.1-55.1
				v-273.2c0-36.1-29.3-65.4-65.4-65.4c-22.5,0-43.2,11.4-55.2,30.4l-103.8,163.8v-128.9c0-36.1-29.3-65.4-65.4-65.4
				c-22.5,0-43.2,11.4-55.2,30.4l-181.8,287.1C1482.4,1631.3,1481.8,1650.7,1490.6,1666.5z"/>
		</g>
	</g>
</g>
<text transform="matrix(1 0 0 1 6156.1523 -2315.1973)" class="st2" style="font-family:'SegoeUI-Bold'; font-size:173.1763px;">Segoe UI</text>
<g>
	<g>
		<text transform="matrix(1 0 0 1 6227.478 -2181.0757)" style="fill:#6C6F72; font-family:'Roboto-Black'; font-size:28px;">Гарчиг </text>
		<text transform="matrix(1 0 0 1 6227.478 -2137.8757)" style="fill:#6C6F72; font-family:'Roboto-Black'; font-size:36px;">Segoe ui </text>
		<text transform="matrix(1 0 0 1 6227.478 -2094.6758)" style="fill:#6C6F72; font-family:'Roboto-Black'; font-size:36px;">Bold</text>
	</g>
	<g>
		<rect x="6536.8" y="-2204.9" class="st10" width="693" height="136.8"/>
		<text transform="matrix(1 0 0 1 6536.8184 -2182.3755)" style="fill:#6C6F72; font-family:'Roboto-Black'; font-size:30px;">Аа Бб Вв Гг Дд Ее Ёё Жж Зз Ии Кк Лл Мм Нн Оо </text>
		<text transform="matrix(1 0 0 1 6536.8184 -2146.3755)" style="fill:#6C6F72; font-family:'Roboto-Black'; font-size:30px;">Өө Пп Рр Сс Тт Уу Үү Фф Хх Цц Чч Шш Щщ Ъъ </text>
		<text transform="matrix(1 0 0 1 6536.8184 -2110.3755)" style="fill:#6C6F72; font-family:'Roboto-Black'; font-size:30px;">Ыы Ьь Ээ Юю Яя</text>
		<text transform="matrix(1 0 0 1 6536.8184 -2074.3755)" style="fill:#6C6F72; font-family:'Roboto-Black'; font-size:30px;">1234567890_()*&amp;^%$#@! </text>
	</g>
</g>
<g>
	<g>
		<text transform="matrix(1 0 0 1 6227.478 -1975.0757)" style="fill:#6C6F72; font-family:'Roboto-Medium'; font-size:28px;">Дэд гарчиг </text>
		<text transform="matrix(1 0 0 1 6227.478 -1931.8757)" style="fill:#6C6F72; font-family:'Roboto-Medium'; font-size:36px;">segoe ui </text>
		<text transform="matrix(1 0 0 1 6227.478 -1888.6758)" style="fill:#6C6F72; font-family:'Roboto-Medium'; font-size:36px;">Medium</text>
	</g>
	<g>
		<rect x="6536.8" y="-1998.9" class="st10" width="693" height="136.8"/>
		<text transform="matrix(1 0 0 1 6536.8184 -1976.3755)" style="fill:#6C6F72; font-family:'Roboto-Medium'; font-size:30px;">Аа Бб Вв Гг Дд Ее Ёё Жж Зз Ии Кк Лл Мм Нн Оо </text>
		<text transform="matrix(1 0 0 1 6536.8184 -1940.3755)" style="fill:#6C6F72; font-family:'Roboto-Medium'; font-size:30px;">Өө Пп Рр Сс Тт Уу Үү Фф Хх Цц Чч Шш Щщ Ъъ </text>
		<text transform="matrix(1 0 0 1 6536.8184 -1904.3755)" style="fill:#6C6F72; font-family:'Roboto-Medium'; font-size:30px;">Ыы Ьь Ээ Юю Яя</text>
		<text transform="matrix(1 0 0 1 6536.8184 -1868.3755)" style="fill:#6C6F72; font-family:'Roboto-Medium'; font-size:30px;">1234567890_()*&amp;^%$#@! </text>
	</g>
</g>
<g>
	<g>
		<text transform="matrix(1 0 0 1 6227.478 -1769.0757)" style="fill:#6C6F72; font-family:'Roboto-Regular'; font-size:28px;">Гарчиг </text>
		<text transform="matrix(1 0 0 1 6227.478 -1725.8757)" style="fill:#6C6F72; font-family:'Roboto-Regular'; font-size:36px;">Segoe ui </text>
		<text transform="matrix(1 0 0 1 6227.478 -1682.6758)" style="fill:#6C6F72; font-family:'Roboto-Regular'; font-size:36px;">Regular</text>
	</g>
	<g>
		<rect x="6536.8" y="-1792.9" class="st10" width="693" height="136.8"/>
		<text transform="matrix(1 0 0 1 6536.8184 -1770.3755)" style="fill:#6C6F72; font-family:'Roboto-Regular'; font-size:30px;">Аа Бб Вв Гг Дд Ее Ёё Жж Зз Ии Кк Лл Мм Нн Оо </text>
		<text transform="matrix(1 0 0 1 6536.8184 -1734.3755)" style="fill:#6C6F72; font-family:'Roboto-Regular'; font-size:30px;">Өө Пп Рр Сс Тт Уу Үү Фф Хх Цц Чч Шш Щщ Ъъ </text>
		<text transform="matrix(1 0 0 1 6536.8184 -1698.3755)" style="fill:#6C6F72; font-family:'Roboto-Regular'; font-size:30px;">Ыы Ьь Ээ Юю Яя</text>
		<text transform="matrix(1 0 0 1 6536.8184 -1662.3755)" style="fill:#6C6F72; font-family:'Roboto-Regular'; font-size:30px;">1234567890_()*&amp;^%$#@! </text>
	</g>
</g>
<g>
	<g>
		<defs>
			<rect id="SVGID_00000106121030505681924720000008348498510788036740_" x="6005" y="-2597" width="1920" height="1080"/>
		</defs>
		<clipPath id="SVGID_00000106857568981723064640000006665131166428092822_">
			<use xlink:href="#SVGID_00000106121030505681924720000008348498510788036740_"  style="overflow:visible;"/>
		</clipPath>
		<g style="opacity:0.3;clip-path:url(#SVGID_00000106857568981723064640000006665131166428092822_);">
			
				<text transform="matrix(1 0 0 1 7293.3955 -1846.6221)" class="st18" style="font-family:'SegoeUI-Bold'; font-size:628.9054px;">Aa</text>
		</g>
	</g>
</g>
<rect x="99" y="-2597" class="st4" width="1920" height="1080"/>
<g>
	<g>
		<g>
			<path class="st18" d="M836.6-2167c-5.6-10.2-16.3-16.5-27.9-16.5c-11,0-21.1,5.5-26.9,14.8l-69.7,110v-82.8c0-23.2-18.9-42-42-42
				c-14.5,0-27.8,7.3-35.5,19.5l-66.7,105.3v-89.4c0-19.5-15.9-35.4-35.4-35.4s-35.4,15.9-35.4,35.4v175.6c0,23.2,18.9,42,42,42
				c14.5,0,27.8-7.3,35.5-19.5l66.7-105.3v82.8c0,23.2,18.9,42,42,42c14.5,0,27.8-7.3,35.5-19.5l116.9-184.5
				C841.9-2144.4,842.2-2156.8,836.6-2167z"/>
			<path class="st18" d="M841.4-1979.6c0-0.2,0-0.3,0-0.5c0-0.4,0.1-0.9,0.1-1.3c0-17-13.8-30.7-30.7-30.7
				c-17,0-30.7,13.8-30.7,30.7c0,17,13.8,30.7,30.7,30.7v20.1c15.6,0,28.4-29.2,30.4-46.8C841.3-1978,841.4-1978.8,841.4-1979.6z"/>
		</g>
	</g>
	<g>
		<path class="st18" d="M1087.8-2113.7l-11,85.8c-1.8,13.3-5,22.7-9.8,28.3c-4.7,5.6-12.7,8.3-24,8.3c-11,0-18.6-2.8-23-8.3
			c-4.2-5.4-7.1-14.8-8.7-28.3l-8.1-66.9c-0.4-3.3-0.8-5.3-1.2-6.1s-1.3-1.2-2.6-1.2c-1.4,0-2.2,0.4-2.6,1.2
			c-0.4,0.8-0.8,2.8-1.2,6.1l-8.1,66.9c-1.6,13.4-4.5,22.8-8.7,28.3c-4.3,5.6-12,8.3-23,8.3c-11.3,0-19.2-2.8-24-8.3
			c-4.7-5.6-8-15-9.8-28.3l-11-85.8c-0.5-4.6-0.1-7.7,1.2-9.4c1.4-1.6,4.4-2.4,9.1-2.4h4.1c4.6,0,7.8,0.8,9.6,2.3
			c1.8,1.6,3,4.7,3.7,9.5l10.2,85.8c0.7,5,1.5,8.3,2.3,9.9c0.9,1.6,2.4,2.3,4.6,2.3c2.2,0,3.8-0.8,4.8-2.4s1.9-4.9,2.5-9.8l9.4-69.3
			c1.5-10.8,4.1-18.2,7.7-22.2c3.9-4.1,10.4-6.1,19.3-6.1c9.1,0,15.4,2,19.1,6.1c3.9,3.9,6.6,11.3,7.9,22.2l9.3,69.3
			c0.7,4.9,1.5,8.1,2.5,9.8c1,1.6,2.6,2.4,4.8,2.4c2.2,0,3.7-0.8,4.6-2.3c0.9-1.6,1.7-4.8,2.3-9.9l10.2-85.8
			c0.7-4.7,1.9-7.9,3.7-9.5c1.8-1.6,4.9-2.3,9.6-2.3h4.1c4.7,0,7.8,0.8,9.1,2.4C1087.9-2121.4,1088.3-2118.3,1087.8-2113.7z"/>
		<path class="st18" d="M1194.9-2053.5c0,1-0.1,3.6-0.4,7.9c-0.5,4.6-1.7,7.6-3.4,9c-1.7,1.4-5,2.1-9.9,2.1h-51.6v3
			c0,5.3,2.1,9.2,6.3,11.7c4.2,2.5,11,3.8,20.3,3.8c6.9,0,15.1-0.9,24.6-2.8c4.3-0.9,7.2-0.7,8.6,0.6c1.4,1.4,2.1,4.4,2.1,9.1v2.2
			c0,4.5-0.7,7.5-2,9.1c-1.4,1.6-4.3,3-8.7,4.1c-6.2,1.8-14.5,2.6-24.8,2.6c-18.3,0-31.7-3.6-40.2-10.7s-12.8-18.4-12.8-33.8v-16.3
			c0-30.5,15.8-45.7,47.4-45.7C1180.1-2097.4,1194.9-2082.8,1194.9-2053.5z M1129.7-2059v3h40v-3c0-10.3-6.7-15.4-20.1-15.4
			C1136.3-2074.5,1129.7-2069.3,1129.7-2059z"/>
		<path class="st18" d="M1212.8-2024.1v-100.2c0-4.6,0.7-7.7,2.2-9.1c1.5-1.5,4.5-2.2,9.1-2.2h3.7c4.6,0,7.7,0.7,9.1,2.2
			c1.5,1.5,2.2,4.5,2.2,9.1v94.3c0,5.2,0.7,8.7,2,10.7c1.4,2,3.7,2.9,6.9,2.9h1c2.8,0,4.7,0.6,5.6,1.7c0.9,1.2,1.3,3.7,1.3,7.6v3.9
			c0,4.1-0.5,6.8-1.4,8.3s-2.8,2.5-5.5,3c-2.4,0.3-4.5,0.4-6.1,0.4c-9.6,0-17.1-2.8-22.4-8.3
			C1215.5-2005.2,1212.8-2013.3,1212.8-2024.1z"/>
		<path class="st18" d="M1294.7-2112.3c-3.1,3.1-6.8,4.7-11.2,4.7c-4.3,0-8.1-1.6-11.2-4.7c-3.1-3.1-4.7-6.8-4.7-11.2
			c0-4.3,1.6-8.1,4.7-11.2c3.1-3.1,6.8-4.7,11.2-4.7c4.3,0,8.1,1.6,11.2,4.7c3.1,3.1,4.7,6.8,4.7,11.2
			C1299.4-2119.1,1297.9-2115.4,1294.7-2112.3z M1270.4-2002.7v-78.9c0-4.6,0.7-7.7,2.2-9.1c1.5-1.5,4.5-2.2,9.1-2.2h3.7
			c4.6,0,7.7,0.7,9.1,2.2c1.5,1.5,2.2,4.5,2.2,9.1v78.9c0,4.6-0.7,7.7-2.2,9.1c-1.5,1.5-4.5,2.2-9.1,2.2h-3.7
			c-4.6,0-7.7-0.7-9.1-2.2C1271.1-1995.1,1270.4-1998.1,1270.4-2002.7z"/>
		<path class="st18" d="M1345.4-2054.4v51.6c0,4.6-0.7,7.7-2.2,9.1c-1.5,1.5-4.5,2.2-9.1,2.2h-3.9c-4.6,0-7.7-0.7-9.1-2.2
			c-1.5-1.5-2.2-4.5-2.2-9.1v-51.6c0-13.4,3.9-23.6,11.7-30.6c7.8-7,19.3-10.5,34.7-10.5c15.7,0,27.3,3.4,34.8,10.1
			c7.5,6.7,11.2,17,11.2,31v51.6c0,4.6-0.7,7.7-2.2,9.1c-1.5,1.5-4.5,2.2-9.1,2.2h-3.9c-4.6,0-7.7-0.7-9.1-2.2
			c-1.5-1.5-2.2-4.5-2.2-9.1v-51.6c0-6.1-1.4-10.3-4.1-12.6s-7.8-3.5-15.2-3.5c-7.5,0-12.6,1.2-15.4,3.6
			C1346.8-2064.5,1345.4-2060.3,1345.4-2054.4z"/>
		<path class="st18" d="M1521-2060.4v1.2c0,25.2-15.2,37.8-45.5,37.8c-8,0-13.2,0.3-15.8,1c-2.5,0.7-3.8,2.1-3.8,4.3
			c0,1.9,1.3,3.2,3.8,3.8c2.5,0.6,7.8,0.9,15.8,0.9c18.6,0,31.3,2.2,38.2,6.7s10.4,12.5,10.4,24c0,11.7-3.5,19.9-10.4,24.6
			c-7.2,4.7-19.9,7.1-38.2,7.1c-18.6,0-31.4-2.2-38.6-6.5c-6.9-4.3-10.4-11.2-10.4-20.5c0-8.8,3.4-15.2,10.2-19.3
			c-4.7-3.3-7.1-8.3-7.1-15c0-9.1,5.2-15.4,15.7-18.9c-10.4-6-15.7-15.9-15.7-29.9v-1.2c0-11.7,4-20.7,12.1-27.2s19.3-9.8,33.8-9.8
			c6.6,0,12.6,0.9,17.9,2.6l11.8-8.5c3.3-2.4,6-3.6,8.1-3.6c2.2,0.1,4.7,1.5,7.5,4.4l0.6,0.6c3,3,4.5,5.4,4.6,7.1
			c0.1,1.8-1.3,4.2-4,7.3l-7.3,8.1C1518.9-2074.3,1521-2068,1521-2060.4z M1475.5-1988.9c-6.2,0-11.9-0.2-16.9-0.6
			c-3.7,1.6-5.5,4.7-5.5,9.3c0,3.7,1.4,6,4.1,7.1c3,1.1,9.1,1.6,18.3,1.6c7.3,0,12.7-0.4,16.3-1.2c3.8-0.9,5.7-3.5,5.7-7.5
			c0-3.9-1.4-6.4-4.3-7.3C1490.4-1988.4,1484.5-1988.9,1475.5-1988.9z M1494.4-2059.2v-1.2c0-4.9-1.5-8.4-4.4-10.7
			c-2.9-2.2-7.8-3.4-14.5-3.4c-6.9,0-11.9,1.1-14.8,3.4c-3,2.2-4.5,5.8-4.5,10.7v1.2c0,5.3,1.5,9.1,4.5,11.4c3,2.3,7.9,3.5,14.8,3.5
			s11.8-1.2,14.6-3.5C1492.9-2050.1,1494.4-2053.9,1494.4-2059.2z"/>
		<path class="st18" d="M1621-2062.5v38.8c0,11.1-3.6,19.3-10.8,24.7c-7.2,5.4-18.3,8-33.3,8s-26.2-2.6-33.3-7.8
			c-7.2-5.2-10.8-13.3-10.8-24.3c0-21.1,13.8-31.7,41.3-31.7h20.5v-7.7c0-4.6-1.6-7.8-4.9-9.7c-3.3-1.8-8.7-2.7-16.3-2.7
			c-5.7,0-11.6,0.4-17.7,1.2c-4.5,0.7-7.5,0.4-9-0.9c-1.6-1.3-2.3-4.2-2.3-8.6v-0.8c0-4.3,0.7-7.3,2.1-8.9c1.4-1.6,4.4-2.8,8.8-3.5
			c6.4-0.7,11.9-1,16.5-1c16.7,0,29,2.8,37.1,8.3C1617-2083.5,1621-2074.7,1621-2062.5z M1594.6-2025.1v-9.8h-20.9
			c-9.6,0-14.4,3.7-14.4,11.2c0.4,4.3,1.9,7.2,4.5,8.6s6.8,2.1,12.8,1.9c6.1,0.1,10.5-0.6,13.3-2.3
			C1592.6-2017.1,1594.2-2020.3,1594.6-2025.1z"/>
	</g>
</g>
<line class="st9" x1="99" y1="-2183.5" x2="2019" y2="-2183.5"/>
<line class="st9" x1="99" y1="-2125.5" x2="2019" y2="-2125.5"/>
<line class="st9" x1="99" y1="-1990.5" x2="2019" y2="-1990.5"/>
<line class="st9" x1="99" y1="-1930.5" x2="2019" y2="-1930.5"/>
<rect x="497.5" y="-2183.5" class="st9" width="71" height="253"/>
<rect x="640.5" y="-2183.5" class="st9" width="71" height="253"/>
<polygon class="st9" points="706.5,-1930.5 631.5,-1930.5 790.5,-2183.5 865.5,-2183.5 "/>
<polygon class="st9" points="561.5,-1930.5 486.5,-1930.5 645.5,-2183.5 720.5,-2183.5 "/>
<circle class="st9" cx="811" cy="-1981.5" r="30.5"/>
<circle class="st19" cx="533" cy="-2148" r="35.5"/>
<circle class="st20" cx="808.5" cy="-2151.5" r="32"/>
<circle class="st21" cx="538.5" cy="-1971" r="41"/>
<circle class="st21" cx="681.5" cy="-1971.5" r="41"/>
<circle class="st22" cx="669" cy="-2140.5" r="42.5"/>
<line class="st9" x1="1621" y1="-2183" x2="1621" y2="-1930"/>
<line class="st9" x1="911.5" y1="-2183" x2="911.5" y2="-1930"/>
<line class="st9" x1="1088.5" y1="-2183" x2="1088.5" y2="-1930"/>
<line class="st9" x1="1103.5" y1="-2183" x2="1103.5" y2="-1930"/>
<line class="st9" x1="1194.5" y1="-2183" x2="1194.5" y2="-1930"/>
<line class="st9" x1="1212.5" y1="-2183" x2="1212.5" y2="-1930"/>
<line class="st9" x1="1256.5" y1="-2183" x2="1256.5" y2="-1930"/>
<line class="st9" x1="1270.5" y1="-2183" x2="1270.5" y2="-1930"/>
<line class="st9" x1="1296.5" y1="-2183" x2="1296.5" y2="-1930"/>
<line class="st9" x1="1318.5" y1="-2183" x2="1318.5" y2="-1930"/>
<line class="st9" x1="1345.5" y1="-2183" x2="1345.5" y2="-1930"/>
<line class="st9" x1="1384.5" y1="-2183" x2="1384.5" y2="-1930"/>
<line class="st9" x1="1411.5" y1="-2183" x2="1411.5" y2="-1930"/>
<line class="st9" x1="1430.5" y1="-2183" x2="1430.5" y2="-1930"/>
<line class="st9" x1="1525.5" y1="-2183" x2="1525.5" y2="-1930"/>
<line class="st9" x1="1532.5" y1="-2183" x2="1532.5" y2="-1930"/>
<g>
	<g>
		<g>
			<path class="st18" d="M1013.4-1616c0.6,0,1.3,0,1.9,0c0.1,0,0.2,0,0.3,0.1c0.9,0.1,1.8,0.2,2.6,0.4c7.4,1.8,12.3,8.8,11.6,16.4
				c-0.3,3.6-1.7,6.7-4.2,9.2c-4.2,4.3-9.3,5.8-15.2,4.3c-0.7-0.2-1.3-0.2-2,0.1c-1.4,0.6-3,0.9-4.6,1c-0.9,0-1.8-0.1-2.7-0.2
				c-0.5-0.1-0.8-0.4-1-0.9c-0.1-0.5,0.1-0.9,0.5-1.2c0.3-0.2,0.5-0.4,0.8-0.7c0.7-0.6,1.4-1.3,2-2.2c-0.1-0.1-0.1-0.2-0.2-0.2
				c-3.6-3.9-4.9-8.4-4-13.5c1.1-6.2,6.2-11.3,12.4-12.4C1012.2-1615.9,1012.8-1615.9,1013.4-1616z M1019.1-1600.2
				c0,1.4,1.2,2.5,2.5,2.5c1.4,0,2.5-1.1,2.5-2.5s-1.1-2.5-2.5-2.5C1020.2-1602.8,1019.1-1601.6,1019.1-1600.2z M1009.8-1600.3
				c0-1.4-1.1-2.5-2.5-2.5s-2.5,1.1-2.5,2.5s1.1,2.5,2.5,2.5C1008.6-1597.7,1009.8-1598.9,1009.8-1600.3z M1017-1600.2
				c0-1.4-1.1-2.5-2.5-2.6c-1.4,0-2.5,1.1-2.5,2.5c-0.1,1.4,1.1,2.5,2.5,2.6C1015.8-1597.7,1016.9-1598.8,1017-1600.2z"/>
		</g>
	</g>
	
		<text transform="matrix(1 0 0 1 1069.8174 -1587.7227)" class="st18" style="font-family:'AmpleSoftPro-Bold'; font-size:41.244px;">W</text>
	
		<text transform="matrix(1 0 0 1 1045.5127 -1592.4229)" class="st18" style="font-family:'AmpleSoftPro-Bold'; font-size:24.0296px;">+</text>
</g>
<g class="st14">
	<g>
		<g>
			<path class="st15" d="M1173.7-2835.6c-17.8-32.4-51.9-52.5-88.9-52.5c-35,0-67,17.6-85.7,47.2L777.5-2491v-263.4
				c0-73.7-60-133.7-133.7-133.7c-46.1,0-88.3,23.2-112.9,62.2L318.8-2491v-284.4c0-62.1-50.5-112.7-112.7-112.7
				s-112.7,50.5-112.7,112.7v558.5c0,73.7,60,133.7,133.7,133.7c46.1,0,88.3-23.2,112.9-62.2l212.1-334.9v263.4
				c0,73.7,60,133.7,133.7,133.7c46.1,0,88.3-23.2,112.9-62.2l371.8-587C1190.3-2763.7,1191.6-2803.2,1173.7-2835.6z"/>
		</g>
	</g>
	<g>
		<g>
			<path class="st15" d="M938.7-2135.8c17.8,32.4,51.9,52.5,88.9,52.5c35,0,67-17.6,85.7-47.2l221.6-349.9v263.4
				c0,73.7,60,133.7,133.7,133.7c46.1,0,88.3-23.2,112.9-62.2l212.1-334.9v284.4c0,62.1,50.5,112.7,112.7,112.7
				S2019-2133.8,2019-2196v-558.5c0-73.7-60-133.7-133.7-133.7c-46.1,0-88.3,23.2-112.9,62.2l-212.1,335v-263.4
				c0-73.7-60-133.7-133.7-133.7c-46.1,0-88.3,23.2-112.9,62.2l-371.8,587C922.1-2207.8,920.9-2168.2,938.7-2135.8z"/>
		</g>
	</g>
	<g>
		<g>
			<path class="st15" d="M1173.7-1985.2c-17.8-32.4-51.9-52.5-88.9-52.5c-35,0-67,17.6-85.7,47.2l-221.6,349.9V-1904
				c0-73.7-60-133.7-133.7-133.7c-46.1,0-88.3,23.2-112.9,62.2l-212.1,334.9V-1925c0-62.1-50.5-112.7-112.7-112.7
				S93.4-1987.2,93.4-1925v558.5c0,73.7,60,133.7,133.7,133.7c46.1,0,88.3-23.2,112.9-62.2l212.2-335v263.4
				c0,73.7,60,133.7,133.7,133.7c46.1,0,88.3-23.2,112.9-62.2l371.8-587C1190.3-1913.2,1191.6-1952.8,1173.7-1985.2z"/>
		</g>
	</g>
	<g>
		<g>
			<path class="st15" d="M938.7-1285.4c17.8,32.4,51.9,52.5,88.9,52.5c35,0,67-17.6,85.7-47.2l221.6-349.9v263.4
				c0,73.7,60,133.7,133.7,133.7c46.1,0,88.3-23.2,112.9-62.2l212.1-334.9v284.4c0,62.1,50.5,112.7,112.7,112.7
				s112.7-50.5,112.7-112.7V-1904c0-73.7-60-133.7-133.7-133.7c-46.1,0-88.3,23.2-112.9,62.2l-212.1,334.9V-1904
				c0-73.7-60-133.7-133.7-133.7c-46.1,0-88.3,23.2-112.9,62.2l-371.8,587C922.1-1357.3,920.9-1317.8,938.7-1285.4z"/>
		</g>
	</g>
</g>
<g class="st14">
	<g>
		<g>
			<path class="st15" d="M5112.7-2835.6c-17.8-32.4-51.9-52.5-88.9-52.5c-35,0-67,17.6-85.7,47.2L4716.5-2491v-263.4
				c0-73.7-60-133.7-133.7-133.7c-46.1,0-88.3,23.2-112.9,62.2L4257.8-2491v-284.4c0-62.1-50.5-112.7-112.7-112.7
				c-62.1,0-112.7,50.5-112.7,112.7v558.5c0,73.7,60,133.7,133.7,133.7c46.1,0,88.3-23.2,112.9-62.2l212.1-334.9v263.4
				c0,73.7,60,133.7,133.7,133.7c46.1,0,88.3-23.2,112.9-62.2l371.8-587C5129.3-2763.7,5130.6-2803.2,5112.7-2835.6z"/>
		</g>
	</g>
	<g>
		<g>
			<path class="st15" d="M4877.7-2135.8c17.8,32.4,51.9,52.5,88.9,52.5c35,0,67-17.6,85.7-47.2l221.6-349.9v263.4
				c0,73.7,60,133.7,133.7,133.7c46.1,0,88.3-23.2,112.9-62.2l212.1-334.9v284.4c0,62.1,50.5,112.7,112.7,112.7
				c62.1,0,112.7-50.5,112.7-112.7v-558.5c0-73.7-60-133.7-133.7-133.7c-46.1,0-88.3,23.2-112.9,62.2l-212.1,335v-263.4
				c0-73.7-60-133.7-133.7-133.7c-46.1,0-88.3,23.2-112.9,62.2l-371.8,587C4861.1-2207.8,4859.9-2168.2,4877.7-2135.8z"/>
		</g>
	</g>
	<g>
		<g>
			<path class="st15" d="M5112.7-1985.2c-17.8-32.4-51.9-52.5-88.9-52.5c-35,0-67,17.6-85.7,47.2l-221.6,349.9V-1904
				c0-73.7-60-133.7-133.7-133.7c-46.1,0-88.3,23.2-112.9,62.2l-212.1,334.9V-1925c0-62.1-50.5-112.7-112.7-112.7
				c-62.1,0-112.7,50.5-112.7,112.7v558.5c0,73.7,60,133.7,133.7,133.7c46.1,0,88.3-23.2,112.9-62.2l212.1-334.9v263.4
				c0,73.7,60,133.7,133.7,133.7c46.1,0,88.3-23.2,112.9-62.2l371.8-587C5129.3-1913.2,5130.6-1952.8,5112.7-1985.2z"/>
		</g>
	</g>
	<g>
		<g>
			<path class="st15" d="M4877.7-1285.4c17.8,32.4,51.9,52.5,88.9,52.5c35,0,67-17.6,85.7-47.2l221.6-349.9v263.4
				c0,73.7,60,133.7,133.7,133.7c46.1,0,88.3-23.2,112.9-62.2l212.1-334.9v284.4c0,62.1,50.5,112.7,112.7,112.7
				c62.1,0,112.7-50.5,112.7-112.7V-1904c0-73.7-60-133.7-133.7-133.7c-46.1,0-88.3,23.2-112.9,62.2l-212.1,334.9V-1904
				c0-73.7-60-133.7-133.7-133.7c-46.1,0-88.3,23.2-112.9,62.2l-371.8,587C4861.1-1357.3,4859.9-1317.8,4877.7-1285.4z"/>
		</g>
	</g>
</g>
<g>
	<g>
		<path class="st2" d="M8154-1685.1c0,0.5,0,1,0,1.5c0,0.3-0.1,0.6-0.1,0.9c-0.4,2.5-1.3,4.7-3,6.5c-1.9,2.1-4.3,3.5-7.1,4
			c-0.5,0.1-0.9,0.1-1.4,0.2c-0.5,0-1,0-1.5,0c-0.1,0-0.2,0-0.2,0c-0.5-0.1-1-0.1-1.6-0.2c-3-0.6-5.4-2.2-7.2-4.6
			c-2.3-3-3.1-6.4-2.3-10.1c0.7-3.2,2.4-5.8,5.2-7.7c2.7-1.8,5.7-2.5,9-2c2.3,0.4,4.4,1.4,6.2,2.9c2.1,1.9,3.5,4.3,4,7.1
			C8153.9-1686,8153.9-1685.5,8154-1685.1z M8141.6-1678.7c2.1,0,4.2,0,6.3,0c1,0,1.7-0.6,1.7-1.7c0-2.6,0-5.2,0-7.9
			c0-1.1-0.6-1.7-1.7-1.7c-4.2,0-8.4,0-12.6,0c-1.1,0-1.7,0.6-1.7,1.7c0,2.6,0,5.2,0,7.8c0,1,0.7,1.8,1.7,1.8
			C8137.4-1678.7,8139.5-1678.7,8141.6-1678.7z"/>
		<path class="st2" d="M8148.3-1688c0,0.1,0,0.2,0,0.3c0,2.4,0,4.8,0,7.3c0,0.4,0,0.5-0.5,0.5c-4.1,0-8.3,0-12.4,0
			c-0.4,0-0.5,0-0.5-0.5c0-2.4,0-4.8,0-7.3c0-0.1,0-0.2,0-0.3c0.1,0.1,0.2,0.1,0.2,0.2c2,1.6,4,3.2,6,4.7c0.4,0.3,0.6,0.3,1,0
			c2-1.6,3.9-3.1,5.9-4.7C8148.1-1687.8,8148.2-1687.9,8148.3-1688z"/>
		<path class="st2" d="M8136.2-1688.6c3.6,0,7.2,0,10.8,0c0,0,0,0,0.1,0.1c-0.1,0-0.1,0.1-0.2,0.1c-1.7,1.3-3.4,2.7-5.1,4
			c-0.1,0.1-0.2,0.1-0.3,0c-1.7-1.4-3.4-2.7-5.1-4.1C8136.3-1688.5,8136.3-1688.6,8136.2-1688.6z"/>
	</g>
</g>
<g>
	<g>
		<path class="st2" d="M8138.1-1773.3c0-0.1,0-0.2,0-0.4c0-4.2,0-8.4,0-12.5c0-0.1,0-0.2,0-0.4c-1.5,0-3,0-4.5,0c0-1.7,0-3.4,0-5.2
			c1.5,0,3,0,4.5,0c0-0.1,0-0.3,0-0.4c0-1.4,0-2.7,0-4.1c0.1-1.6,0.6-3.1,1.7-4.4c0.9-0.9,2-1.5,3.2-1.7c1-0.2,2-0.2,3-0.2
			c0.8,0,1.7,0.1,2.5,0.2c0.1,0,0.1,0,0.2,0c0,1.5,0,3.1,0,4.6c-0.1,0-0.2,0-0.3,0c-1,0-2,0-3.1,0.1c-1.2,0.1-1.9,0.7-1.9,1.9
			c-0.1,1.3,0,2.5,0,3.8c0,0,0,0,0,0.1c1.7,0,3.4,0,5.1,0c-0.2,1.7-0.4,3.4-0.7,5.2c-1.5,0-3,0-4.4,0c0,0.1,0,0.2,0,0.3
			c0,4.3,0,8.6,0,12.8c0,0.1,0,0.1,0,0.2C8141.6-1773.3,8139.9-1773.3,8138.1-1773.3z"/>
	</g>
</g>
<g>
	<g>
		<path class="st2" d="M8129.2-1632.1c0.3,0,0.5,0,0.8,0c1.4,0,2.8,0,4.2,0c0.1,0,0.2,0,0.2,0c0.1,1.1,0.2,2.1,0.3,3.1
			c0.1,1,0.4,2,0.6,3c-0.3,0.1-0.6,0.2-0.9,0.3c-0.8,0.3-1.5,0.6-2.2,1c-0.1,0.1-0.2,0.1-0.3,0c-1.3-1.6-2.1-3.4-2.5-5.4
			c-0.1-0.4-0.1-0.9-0.2-1.4c0-0.1,0-0.1,0-0.2C8129.2-1631.9,8129.2-1632,8129.2-1632.1z"/>
		<path class="st2" d="M8129.2-1633.3c0.1-0.5,0.1-0.9,0.2-1.4c0.2-1.5,0.8-2.9,1.6-4.2c0.3-0.5,0.7-1,1-1.5
			c1.2,0.5,2.3,0.9,3.4,1.4c-0.5,1.9-0.8,4-0.9,6.1c-1.8,0-3.5,0-5.3,0C8129.2-1633.1,8129.2-1633.2,8129.2-1633.3z"/>
		<path class="st2" d="M8147.8-1626c0.6-2,0.9-4,0.9-6.1c1.8,0,3.5,0,5.3,0c-0.1,0.5-0.1,1-0.2,1.6c-0.3,2.1-1.2,4-2.6,5.7
			c-0.1,0.1-0.1,0.2-0.2,0.1C8150-1625.2,8148.9-1625.7,8147.8-1626z"/>
		<path class="st2" d="M8148.7-1633c0-2.1-0.3-4.1-0.9-6c1.1-0.4,2.2-0.9,3.4-1.3c1.7,2.1,2.7,4.6,2.8,7.4
			C8152.2-1633,8150.5-1633,8148.7-1633z"/>
		<path class="st2" d="M8141.1-1626.8c-1.6,0-3.2,0.2-4.9,0.6c-0.6-1.9-0.8-3.9-0.9-5.9c1.9,0,3.8,0,5.7,0
			C8141.1-1630.3,8141.1-1628.6,8141.1-1626.8z"/>
		<path class="st2" d="M8147.8-1632.1c0,2-0.3,4-0.9,5.9c-1.6-0.4-3.2-0.6-4.9-0.6c0-1.8,0-3.5,0-5.3
			C8144-1632.1,8145.9-1632.1,8147.8-1632.1z"/>
		<path class="st2" d="M8136.3-1638.9c0.8,0.1,1.6,0.3,2.4,0.4s1.6,0.1,2.4,0.2c0,1.8,0,3.5,0,5.3c-1.9,0-3.8,0-5.7,0
			C8135.4-1635,8135.7-1637,8136.3-1638.9z"/>
		<path class="st2" d="M8142.1-1638.3c1.6,0,3.2-0.2,4.9-0.6c0.6,1.9,0.8,3.9,0.9,5.9c-1.9,0-3.8,0-5.7,0
			C8142.1-1634.8,8142.1-1636.5,8142.1-1638.3z"/>
		<path class="st2" d="M8141.1-1620.2c-0.8-0.1-1.5-0.5-2.1-1.1c-1-0.9-1.6-2-2.1-3.2c-0.1-0.3-0.2-0.6-0.4-0.9
			c1.5-0.3,3-0.5,4.6-0.5C8141.1-1624,8141.1-1622.1,8141.1-1620.2z"/>
		<path class="st2" d="M8142.1-1625.9c0.8-0.1,3.8,0.3,4.6,0.5c-0.4,1.1-0.9,2.1-1.6,3.1c-0.5,0.7-1.1,1.3-1.9,1.7
			c-0.3,0.2-0.7,0.3-1.1,0.4C8142.1-1622.1,8142.1-1624,8142.1-1625.9z"/>
		<path class="st2" d="M8141.1-1639.2c-0.8,0.1-3.6-0.2-4.6-0.5c0.1-0.3,0.2-0.6,0.4-0.9c0.6-1.3,1.3-2.5,2.5-3.4
			c0.5-0.4,1.1-0.7,1.7-0.8C8141.1-1643,8141.1-1641.1,8141.1-1639.2z"/>
		<path class="st2" d="M8146.7-1639.8c-1.6,0.3-3.1,0.5-4.6,0.5c0-1.9,0-3.8,0-5.7c0.5,0.1,1,0.3,1.4,0.5c1,0.7,1.7,1.6,2.3,2.7
			C8146.1-1641.1,8146.4-1640.4,8146.7-1639.8z"/>
		<path class="st2" d="M8132.7-1624c1-0.5,2-0.9,3-1.2c0.6,1.7,1.5,3.3,2.8,4.5C8136.9-1620.7,8133.8-1622.6,8132.7-1624z"/>
		<path class="st2" d="M8150.5-1641.1c-1,0.5-2,0.9-3,1.2c-0.6-1.7-1.5-3.2-2.7-4.5C8147-1643.9,8148.9-1642.8,8150.5-1641.1z"/>
		<path class="st2" d="M8132.7-1641.1c1.6-1.7,3.5-2.8,5.8-3.4c-1.3,1.3-2.2,2.8-2.7,4.5C8134.6-1640.2,8133.6-1640.6,8132.7-1641.1
			z"/>
		<path class="st2" d="M8144.8-1620.6c1.3-1.3,2.2-2.8,2.8-4.5c1.1,0.3,2,0.7,3,1.2C8148.9-1622.3,8147-1621.2,8144.8-1620.6z"/>
	</g>
</g>
<g>
	<g>
		<path class="st2" d="M8147.8-1723.5c-0.6-0.1-1.2-0.2-1.8-0.4c-1.2-0.3-2.4-0.9-3.5-1.6c-3.2-1.8-5.9-4.2-8.3-7
			c-1.6-1.8-2.9-3.7-4-5.8c-0.6-1.3-1.2-2.7-1.3-4.1c-0.1-0.9-0.1-1.8,0.4-2.7c0.1-0.3,0.3-0.5,0.5-0.7c0.7-0.8,1.5-1.5,2.2-2.2
			c1-1,2.6-0.9,3.6,0c1.1,1.1,2.3,2.3,3.4,3.4c1,1,1,2.5,0,3.4c-0.2,0.2-0.5,0.4-0.7,0.5c-0.7,0.3-1.2,0.7-1.5,1.4
			c-0.2,0.5-0.2,0.9-0.1,1.4c0.4,1.4,1.1,2.5,2.1,3.5c1,1.1,2.1,2,3.4,2.6c0.6,0.3,1.2,0.5,1.8,0.4c0.9-0.1,1.6-0.6,1.9-1.4
			c0.2-0.5,0.5-1,1-1.3c1-0.6,2.1-0.5,3,0.3c1.2,1.2,2.4,2.3,3.5,3.5c0.9,1,0.9,2.5,0,3.5c-0.8,0.8-1.5,1.5-2.3,2.3
			c-0.5,0.5-1.2,0.8-1.9,0.9c-0.1,0-0.1,0-0.2,0C8148.5-1723.5,8148.2-1723.5,8147.8-1723.5z"/>
	</g>
</g>
<g>
	<g>
		<path class="st2" d="M8142-1854c0.7,0.1,1.4,0.2,2,0.4c1.9,0.5,3.4,1.6,4.6,3.1c0.9,1.1,1.5,2.4,1.8,3.8c0.5,2.4,0.2,4.8-1.2,6.9
			c-2.3,3.7-4.7,7.3-7,10.9c0,0.1-0.1,0.1-0.1,0.2c-0.4,0.6-1.1,0.6-1.5,0c-0.4-0.7-0.9-1.3-1.3-2c-1.9-3-3.9-6-5.8-9
			c-1.3-2-1.7-4.1-1.3-6.5c0.7-3.8,3.5-6.7,7.2-7.5c0.4-0.1,0.9-0.1,1.3-0.2C8141.2-1854,8141.6-1854,8142-1854z M8145.6-1844.7
			c0-2.3-1.9-4.2-4.2-4.2c-2.3,0-4.2,1.9-4.2,4.2c0,2.3,1.9,4.2,4.2,4.2S8145.6-1842.4,8145.6-1844.7z"/>
		<path class="st2" d="M8142-1825.3c-3.2,0-5.7-0.3-8.1-1c-1.4-0.4-2.7-0.9-3.8-1.8c-0.4-0.3-0.7-0.7-1-1.1c-0.5-0.9-0.3-2,0.4-2.9
			c0.8-0.9,1.8-1.4,2.9-1.8c0.7-0.3,1.5-0.5,2.2-0.7c0.2-0.1,0.3,0,0.4,0.2c1.3,2.1,2.7,4.2,4,6.3c0.5,0.8,1.2,1.3,2.2,1.4
			s1.8-0.3,2.4-1.1c0.6-0.8,1.1-1.7,1.7-2.6c0.9-1.3,1.7-2.7,2.5-4c0.1-0.2,0.2-0.2,0.4-0.2c1.3,0.3,2.5,0.7,3.6,1.4
			c0.6,0.4,1.2,0.8,1.7,1.4c0.7,1,0.6,2.3-0.2,3.2c-0.7,0.8-1.6,1.3-2.6,1.7c-1.8,0.7-3.6,1.1-5.5,1.3
			C8143.9-1825.4,8142.7-1825.3,8142-1825.3z"/>
	</g>
</g>
<text transform="matrix(1 0 0 1 8180.8887 -1832.0149)" class="st12" style="font-family:'SegoeUI'; font-size:24px;">Lorem ipsum</text>
<text transform="matrix(1 0 0 1 8180.8887 -1779.0149)" class="st12" style="font-family:'SegoeUI'; font-size:24px;">Welinga Language App</text>
<text transform="matrix(1 0 0 1 8180.8887 -1727.0149)" class="st12" style="font-family:'SegoeUI'; font-size:24px;">+976 8989-8989</text>
<text transform="matrix(1 0 0 1 8180.8887 -1676.0149)" class="st12" style="font-family:'SegoeUI'; font-size:24px;">welinga@gmail.com</text>
<text transform="matrix(1 0 0 1 8180.8887 -1627.0149)" class="st12" style="font-family:'SegoeUI'; font-size:24px;">www.welinga.com</text>
</svg>
