<?xml version="1.0" encoding="utf-8"?>
<!-- Generator: Adobe Illustrator 26.1.0, SVG Export Plug-In . SVG Version: 6.00 Build 0)  -->
<svg version="1.1" id="Layer_1" xmlns="http://www.w3.org/2000/svg" xmlns:xlink="http://www.w3.org/1999/xlink" x="0px" y="0px"
	 viewBox="0 0 1500 1500" style="enable-background:new 0 0 1500 1500;" xml:space="preserve">
<style type="text/css">
	.st0{fill:#FFFFFF;}
	.st1{fill:#340472;}
	.st2{fill:#062726;}
	.st3{fill:#E2CFEA;}
	.st4{fill:#102B3F;}
	.st5{fill:#FFFFFF;stroke:#E8E8E8;stroke-miterlimit:10;}
</style>
<g>
	<g>
		<g>
			<g>
				<g>
					<path class="st0" d="M717.8,3029.5l0,182c0,100.5-81.5,182-182,182h0c-100.5,0-182-81.5-182-182v0c0-100.5,81.5-182,182-182
						L717.8,3029.5z"/>
				</g>
			</g>
			<g>
				<g>
					<path class="st0" d="M718.9,2964.5l-182,0c-100.5,0-182-81.5-182-182v0c0-100.5,81.5-182,182-182h0c100.5,0,182,81.5,182,182
						L718.9,2964.5z"/>
				</g>
			</g>
			<g>
				<g>
					<path class="st0" d="M781.8,3029.5l182,0c100.5,0,182,81.5,182,182v0c0,100.5-81.5,182-182,182h0c-100.5,0-182-81.5-182-182
						L781.8,3029.5z"/>
				</g>
			</g>
			<g>
				<g>
					<path class="st0" d="M1146.2,2782.4c0,100-81.4,181.3-181.3,181.3H783.5l0-181.3c0-100,81.4-181.3,181.3-181.3
						S1146.2,2682.4,1146.2,2782.4z M804.3,2943.1h160.6c88.6,0,160.6-72.1,160.6-160.6c0-88.6-72.1-160.6-160.6-160.6
						s-160.6,72.1-160.6,160.6L804.3,2943.1z"/>
				</g>
				<g>
					<path class="st0" d="M1100.6,2782.4c0,74.9-60.9,135.8-135.8,135.8H829.1l0-135.8c0-74.9,60.9-135.8,135.8-135.8
						C1039.7,2646.7,1100.6,2707.6,1100.6,2782.4z M849.9,2897.5h115c63.4,0,115-51.6,115-115s-51.6-115-115-115s-115,51.6-115,115
						L849.9,2897.5z"/>
				</g>
				<g>
					<path class="st0" d="M1055,2782.4c0,49.7-40.4,90.2-90.2,90.2h-90.2l0-90.2c0-49.7,40.4-90.2,90.2-90.2
						C1014.6,2692.3,1055,2732.7,1055,2782.4z M895.5,2851.9h69.4c38.3,0,69.4-31.1,69.4-69.4c0-38.3-31.1-69.4-69.4-69.4
						c-38.3,0-69.4,31.1-69.4,69.4L895.5,2851.9z"/>
				</g>
			</g>
		</g>
	</g>
</g>
<g>
	<g>
		<g>
			<g>
				<g>
					<path class="st1" d="M717.8,782.5l0,182c0,100.5-81.5,182-182,182h0c-100.5,0-182-81.5-182-182v0c0-100.5,81.5-182,182-182
						L717.8,782.5z"/>
				</g>
			</g>
			<g>
				<g>
					<path class="st1" d="M718.9,717.5l-182,0c-100.5,0-182-81.5-182-182v0c0-100.5,81.5-182,182-182h0c100.5,0,182,81.5,182,182
						L718.9,717.5z"/>
				</g>
			</g>
			<g>
				<g>
					<path class="st1" d="M781.8,782.5l182,0c100.5,0,182,81.5,182,182v0c0,100.5-81.5,182-182,182h0c-100.5,0-182-81.5-182-182
						L781.8,782.5z"/>
				</g>
			</g>
			<g>
				<g>
					<path class="st1" d="M1146.2,535.4c0,100-81.4,181.3-181.3,181.3l-181.3,0l0-181.3c0-100,81.4-181.3,181.3-181.3
						C1064.9,354.1,1146.2,435.4,1146.2,535.4z M804.3,696.1l160.6,0c88.6,0,160.6-72.1,160.6-160.6c0-88.6-72.1-160.6-160.6-160.6
						s-160.6,72.1-160.6,160.6L804.3,696.1z"/>
				</g>
				<g>
					<path class="st1" d="M1100.6,535.4c0,74.9-60.9,135.8-135.8,135.8l-135.8,0l0-135.8c0-74.9,60.9-135.8,135.8-135.8
						C1039.7,399.7,1100.6,460.6,1100.6,535.4z M849.9,650.5l115,0c63.4,0,115-51.6,115-115s-51.6-115-115-115
						c-63.4,0-115,51.6-115,115L849.9,650.5z"/>
				</g>
				<g>
					<path class="st1" d="M1055,535.4c0,49.7-40.4,90.2-90.2,90.2l-90.2,0l0-90.2c0-49.7,40.4-90.2,90.2-90.2
						C1014.6,445.3,1055,485.7,1055,535.4z M895.5,604.9l69.4,0c38.3,0,69.4-31.1,69.4-69.4s-31.1-69.4-69.4-69.4
						c-38.3,0-69.4,31.1-69.4,69.4L895.5,604.9z"/>
				</g>
			</g>
		</g>
	</g>
</g>
<g>
	<g>
		<g>
			<g>
				<g>
					<path class="st2" d="M717.8-1299.5l0,182c0,100.5-81.5,182-182,182h0c-100.5,0-182-81.5-182-182v0c0-100.5,81.5-182,182-182
						L717.8-1299.5z"/>
				</g>
			</g>
			<g>
				<g>
					<path class="st2" d="M718.9-1364.5l-182,0c-100.5,0-182-81.5-182-182v0c0-100.5,81.5-182,182-182h0c100.5,0,182,81.5,182,182
						L718.9-1364.5z"/>
				</g>
			</g>
			<g>
				<g>
					<path class="st2" d="M781.8-1299.5l182,0c100.5,0,182,81.5,182,182v0c0,100.5-81.5,182-182,182h0c-100.5,0-182-81.5-182-182
						L781.8-1299.5z"/>
				</g>
			</g>
			<g>
				<g>
					<path class="st2" d="M1146.2-1546.6c0,100-81.4,181.3-181.3,181.3l-181.3,0l0-181.3c0-100,81.4-181.3,181.3-181.3
						C1064.9-1727.9,1146.2-1646.6,1146.2-1546.6z M804.3-1385.9h160.6c88.6,0,160.6-72.1,160.6-160.6
						c0-88.6-72.1-160.6-160.6-160.6c-88.6,0-160.6,72.1-160.6,160.6L804.3-1385.9z"/>
				</g>
				<g>
					<path class="st2" d="M1100.6-1546.6c0,74.9-60.9,135.8-135.8,135.8l-135.8,0l0-135.8c0-74.9,60.9-135.8,135.8-135.8
						C1039.7-1682.3,1100.6-1621.4,1100.6-1546.6z M849.9-1431.5h115c63.4,0,115-51.6,115-115c0-63.4-51.6-115-115-115
						s-115,51.6-115,115L849.9-1431.5z"/>
				</g>
				<g>
					<path class="st2" d="M1055-1546.6c0,49.7-40.4,90.2-90.2,90.2h-90.2l0-90.2c0-49.7,40.4-90.2,90.2-90.2
						C1014.6-1636.7,1055-1596.3,1055-1546.6z M895.5-1477.1h69.4c38.3,0,69.4-31.1,69.4-69.4c0-38.3-31.1-69.4-69.4-69.4
						c-38.3,0-69.4,31.1-69.4,69.4L895.5-1477.1z"/>
				</g>
			</g>
		</g>
	</g>
</g>
<g>
	<g>
		<g>
			<g>
				<g>
					<path class="st3" d="M-2539.2,3029.5v182c0,100.5-81.5,182-182,182h0c-100.5,0-182-81.5-182-182v0c0-100.5,81.5-182,182-182
						L-2539.2,3029.5z"/>
				</g>
			</g>
			<g>
				<g>
					<path class="st3" d="M-2538.1,2964.5l-182,0c-100.5,0-182-81.5-182-182v0c0-100.5,81.5-182,182-182h0c100.5,0,182,81.5,182,182
						L-2538.1,2964.5z"/>
				</g>
			</g>
			<g>
				<g>
					<path class="st3" d="M-2475.2,3029.5l182,0c100.5,0,182,81.5,182,182v0c0,100.5-81.5,182-182,182h0c-100.5,0-182-81.5-182-182
						L-2475.2,3029.5z"/>
				</g>
			</g>
			<g>
				<g>
					<path class="st3" d="M-2110.8,2782.4c0,100-81.4,181.3-181.3,181.3h-181.3v-181.3c0-100,81.4-181.3,181.3-181.3
						C-2192.1,2601.1-2110.8,2682.4-2110.8,2782.4z M-2452.7,2943.1h160.6c88.6,0,160.6-72.1,160.6-160.6
						c0-88.6-72.1-160.6-160.6-160.6c-88.6,0-160.6,72.1-160.6,160.6V2943.1z"/>
				</g>
				<g>
					<path class="st3" d="M-2156.4,2782.4c0,74.9-60.9,135.8-135.8,135.8h-135.8v-135.8c0-74.9,60.9-135.8,135.8-135.8
						C-2217.3,2646.7-2156.4,2707.6-2156.4,2782.4z M-2407.1,2897.5h115c63.4,0,115-51.6,115-115s-51.6-115-115-115
						c-63.4,0-115,51.6-115,115V2897.5z"/>
				</g>
				<g>
					<path class="st3" d="M-2202,2782.4c0,49.7-40.4,90.2-90.2,90.2h-90.2v-90.2c0-49.7,40.4-90.2,90.2-90.2
						C-2242.4,2692.3-2201.9,2732.7-2202,2782.4z M-2361.5,2851.9h69.4c38.3,0,69.4-31.1,69.4-69.4c0-38.3-31.1-69.4-69.4-69.4
						c-38.3,0-69.4,31.1-69.4,69.4V2851.9z"/>
				</g>
			</g>
		</g>
	</g>
</g>
<g>
	<g>
		<g>
			<g>
				<g>
					<path class="st4" d="M-2539.2,782.5v182c0,100.5-81.5,182-182,182h0c-100.5,0-182-81.5-182-182v0c0-100.5,81.5-182,182-182
						L-2539.2,782.5z"/>
				</g>
			</g>
			<g>
				<g>
					<path class="st4" d="M-2538.1,717.5l-182,0c-100.5,0-182-81.5-182-182v0c0-100.5,81.5-182,182-182h0c100.5,0,182,81.5,182,182
						L-2538.1,717.5z"/>
				</g>
			</g>
			<g>
				<g>
					<path class="st4" d="M-2475.2,782.5l182,0c100.5,0,182,81.5,182,182v0c0,100.5-81.5,182-182,182h0c-100.5,0-182-81.5-182-182
						L-2475.2,782.5z"/>
				</g>
			</g>
			<g>
				<g>
					<path class="st4" d="M-2110.8,535.4c0,100-81.4,181.3-181.3,181.3l-181.3,0V535.4c0-100,81.4-181.3,181.3-181.3
						C-2192.1,354.1-2110.8,435.4-2110.8,535.4z M-2452.7,696.1l160.6,0c88.6,0,160.6-72.1,160.6-160.6s-72.1-160.6-160.6-160.6
						c-88.6,0-160.6,72.1-160.6,160.6V696.1z"/>
				</g>
				<g>
					<path class="st4" d="M-2156.4,535.4c0,74.9-60.9,135.8-135.8,135.8l-135.8,0V535.4c0-74.9,60.9-135.8,135.8-135.8
						C-2217.3,399.7-2156.4,460.6-2156.4,535.4z M-2407.1,650.5l115,0c63.4,0,115-51.6,115-115s-51.6-115-115-115
						c-63.4,0-115,51.6-115,115V650.5z"/>
				</g>
				<g>
					<path class="st4" d="M-2202,535.4c0,49.7-40.4,90.2-90.2,90.2l-90.2,0v-90.2c0-49.7,40.4-90.2,90.2-90.2
						C-2242.4,445.3-2201.9,485.7-2202,535.4z M-2361.5,604.9l69.4,0c38.3,0,69.4-31.1,69.4-69.4c0-38.3-31.1-69.4-69.4-69.4
						c-38.3,0-69.4,31.1-69.4,69.4V604.9z"/>
				</g>
			</g>
		</g>
	</g>
</g>
<g>
	<g>
		<g>
			<g>
				<g>
					<path d="M-2539.2-1299.5v182c0,100.5-81.5,182-182,182h0c-100.5,0-182-81.5-182-182v0c0-100.5,81.5-182,182-182L-2539.2-1299.5
						z"/>
				</g>
			</g>
			<g>
				<g>
					<path d="M-2538.1-1364.5l-182,0c-100.5,0-182-81.5-182-182v0c0-100.5,81.5-182,182-182h0c100.5,0,182,81.5,182,182
						L-2538.1-1364.5z"/>
				</g>
			</g>
			<g>
				<g>
					<path d="M-2475.2-1299.5l182,0c100.5,0,182,81.5,182,182v0c0,100.5-81.5,182-182,182h0c-100.5,0-182-81.5-182-182
						L-2475.2-1299.5z"/>
				</g>
			</g>
			<g>
				<g>
					<path d="M-2110.8-1546.6c0,100-81.4,181.3-181.3,181.3l-181.3,0v-181.3c0-100,81.4-181.3,181.3-181.3
						C-2192.1-1727.9-2110.8-1646.6-2110.8-1546.6z M-2452.7-1385.9h160.6c88.6,0,160.6-72.1,160.6-160.6
						c0-88.6-72.1-160.6-160.6-160.6c-88.6,0-160.6,72.1-160.6,160.6V-1385.9z"/>
				</g>
				<g>
					<path d="M-2156.4-1546.6c0,74.9-60.9,135.8-135.8,135.8l-135.8,0v-135.8c0-74.9,60.9-135.8,135.8-135.8
						C-2217.3-1682.3-2156.4-1621.4-2156.4-1546.6z M-2407.1-1431.5h115c63.4,0,115-51.6,115-115c0-63.4-51.6-115-115-115
						c-63.4,0-115,51.6-115,115V-1431.5z"/>
				</g>
				<g>
					<path d="M-2202-1546.6c0,49.7-40.4,90.2-90.2,90.2h-90.2v-90.2c0-49.7,40.4-90.2,90.2-90.2
						C-2242.4-1636.7-2201.9-1596.3-2202-1546.6z M-2361.5-1477.1h69.4c38.3,0,69.4-31.1,69.4-69.4c0-38.3-31.1-69.4-69.4-69.4
						c-38.3,0-69.4,31.1-69.4,69.4V-1477.1z"/>
				</g>
			</g>
		</g>
	</g>
</g>
<g>
	<g>
		<g>
			<g>
				<g>
					<path class="st0" d="M-6504,1804.9v89.3c0,49.3-40,89.3-89.3,89.3l0,0c-49.3,0-89.3-40-89.3-89.3v0c0-49.3,40-89.3,89.3-89.3
						L-6504,1804.9z"/>
				</g>
			</g>
			<g>
				<g>
					<path class="st0" d="M-6503.4,1773l-89.3,0c-49.3,0-89.3-40-89.3-89.3v0c0-49.3,40-89.3,89.3-89.3l0,0
						c49.3,0,89.3,40,89.3,89.3V1773z"/>
				</g>
			</g>
			<g>
				<g>
					<path class="st0" d="M-6472.6,1804.9l89.3,0c49.3,0,89.3,40,89.3,89.3v0c0,49.3-40,89.3-89.3,89.3l0,0
						c-49.3,0-89.3-40-89.3-89.3V1804.9z"/>
				</g>
			</g>
			<g>
				<g>
					<path class="st0" d="M-6293.9,1683.8c0,49-39.9,88.9-88.9,88.9h-88.9v-88.9c0-49,39.9-88.9,88.9-88.9
						C-6333.8,1594.8-6293.9,1634.7-6293.9,1683.8z M-6461.6,1762.5h78.8c43.4,0,78.8-35.3,78.8-78.8c0-43.4-35.3-78.8-78.8-78.8
						c-43.4,0-78.8,35.3-78.8,78.8V1762.5z"/>
				</g>
				<g>
					<path class="st0" d="M-6316.2,1683.8c0,36.7-29.9,66.6-66.6,66.6h-66.6v-66.6c0-36.7,29.9-66.6,66.6-66.6
						C-6346.1,1617.2-6316.2,1647.1-6316.2,1683.8z M-6439.2,1740.2h56.4c31.1,0,56.4-25.3,56.4-56.4c0-31.1-25.3-56.4-56.4-56.4
						c-31.1,0-56.4,25.3-56.4,56.4V1740.2z"/>
				</g>
				<g>
					<path class="st0" d="M-6338.6,1683.8c0,24.4-19.8,44.2-44.2,44.2h-44.2v-44.2c0-24.4,19.8-44.2,44.2-44.2
						C-6358.4,1639.5-6338.6,1659.4-6338.6,1683.8z M-6416.9,1717.8h34c18.8,0,34-15.3,34-34c0-18.8-15.3-34-34-34
						c-18.8,0-34,15.3-34,34V1717.8z"/>
				</g>
			</g>
		</g>
	</g>
	<g>
		<path class="st0" d="M-6084.6,1863.8l-38.6-45.9l-39.9,45.9h-55.6l67.7-75.4l-65.5-74.3h57.3l37.3,43.7l38.3-43.7h54.3l-65.5,73.1
			l68.1,76.5H-6084.6z"/>
		<path class="st0" d="M-5835.9,1801.2h-133.2c2.4,9.3,8.1,16.6,17,22c8.9,5.4,20.1,8.1,33.4,8.1c9.2,0,17.3-1.2,24.4-3.5
			c7.1-2.3,13.7-6,19.8-11l27.2,25c-16.6,16.1-40.8,24.2-72.6,24.2c-19.9,0-37.4-3.3-52.7-9.9c-15.3-6.6-27.1-15.7-35.3-27.4
			c-8.3-11.7-12.4-24.9-12.4-39.8c0-14.6,4.1-27.9,12.3-39.6c8.2-11.8,19.4-21,33.7-27.5c14.3-6.6,30.3-9.9,47.9-9.9
			c17.2,0,32.8,3.2,46.8,9.5c14,6.3,24.9,15.3,32.9,27.1c8,11.8,11.9,25.4,11.9,41C-5834.9,1790.1-5835.2,1794-5835.9,1801.2z
			 M-5955.3,1753.1c-7.9,5.6-12.7,13.2-14.4,22.8h86.7c-1.7-9.5-6.5-17-14.4-22.7c-7.9-5.7-17.5-8.5-28.8-8.5
			C-5937.8,1744.7-5947.5,1747.5-5955.3,1753.1z"/>
		<path class="st0" d="M-5629.4,1801.2h-133.2c2.4,9.3,8.1,16.6,17,22c8.9,5.4,20.1,8.1,33.4,8.1c9.2,0,17.3-1.2,24.4-3.5
			c7.1-2.3,13.7-6,19.8-11l27.2,25c-16.6,16.1-40.8,24.2-72.6,24.2c-19.9,0-37.4-3.3-52.7-9.9c-15.3-6.6-27.1-15.7-35.3-27.4
			c-8.3-11.7-12.4-24.9-12.4-39.8c0-14.6,4.1-27.9,12.3-39.6c8.2-11.8,19.4-21,33.7-27.5c14.3-6.6,30.3-9.9,47.9-9.9
			c17.2,0,32.8,3.2,46.8,9.5c14,6.3,24.9,15.3,32.9,27.1c8,11.8,11.9,25.4,11.9,41C-5628.4,1790.1-5628.7,1794-5629.4,1801.2z
			 M-5748.8,1753.1c-7.9,5.6-12.7,13.2-14.4,22.8h86.7c-1.7-9.5-6.5-17-14.4-22.7c-7.9-5.7-17.5-8.5-28.8-8.5
			C-5731.3,1744.7-5741,1747.5-5748.8,1753.1z"/>
		<path class="st0" d="M-5578,1861.4c-14-3.1-25.1-6.9-33.4-11.5l17-31.2c7.9,4.3,17.3,7.7,28.5,10.4c11.1,2.7,22,4,32.7,4
			c21.6,0,32.4-4.5,32.4-13.6c0-4.3-2.9-7.3-8.8-9.2c-5.9-1.9-14.9-3.4-27.2-4.7c-14.4-1.9-26.3-4-35.7-6.4
			c-9.4-2.4-17.5-6.7-24.4-12.8c-6.9-6.1-10.3-14.8-10.3-26.1c0-9.5,3.2-17.8,9.7-25.2c6.4-7.3,15.8-13,28.1-17.1
			c12.3-4.1,26.9-6.1,43.7-6.1c12.4,0,24.8,1.2,37.1,3.5c12.3,2.3,22.5,5.5,30.6,9.6l-17,30.9c-15.5-7.4-32.4-11.1-50.7-11.1
			c-10.9,0-19.1,1.3-24.5,3.9c-5.5,2.6-8.2,5.9-8.2,10c0,4.6,2.9,7.9,8.8,9.7c5.9,1.9,15.3,3.6,28.1,5.3c14.4,2,26.2,4.2,35.3,6.5
			c9.2,2.3,17.1,6.5,23.9,12.7c6.8,6.1,10.1,14.6,10.1,25.6c0,9.3-3.3,17.5-9.8,24.8c-6.5,7.2-16.1,12.8-28.6,16.8
			c-12.5,4-27.4,6-44.7,6C-5549.7,1866-5564,1864.5-5578,1861.4z"/>
	</g>
</g>
<g>
	<g>
		<g>
			<g>
				<g>
					<path class="st3" d="M-6504,1164.9v89.3c0,49.3-40,89.3-89.3,89.3l0,0c-49.3,0-89.3-40-89.3-89.3v0c0-49.3,40-89.3,89.3-89.3
						L-6504,1164.9z"/>
				</g>
			</g>
			<g>
				<g>
					<path class="st3" d="M-6503.4,1133l-89.3,0c-49.3,0-89.3-40-89.3-89.3v0c0-49.3,40-89.3,89.3-89.3l0,0
						c49.3,0,89.3,40,89.3,89.3V1133z"/>
				</g>
			</g>
			<g>
				<g>
					<path class="st3" d="M-6472.6,1164.9l89.3,0c49.3,0,89.3,40,89.3,89.3v0c0,49.3-40,89.3-89.3,89.3l0,0
						c-49.3,0-89.3-40-89.3-89.3V1164.9z"/>
				</g>
			</g>
			<g>
				<g>
					<path class="st3" d="M-6293.9,1043.8c0,49-39.9,88.9-88.9,88.9h-88.9v-88.9c0-49,39.9-88.9,88.9-88.9
						C-6333.8,954.8-6293.9,994.7-6293.9,1043.8z M-6461.6,1122.5h78.8c43.4,0,78.8-35.3,78.8-78.8c0-43.4-35.3-78.8-78.8-78.8
						c-43.4,0-78.8,35.3-78.8,78.8V1122.5z"/>
				</g>
				<g>
					<path class="st3" d="M-6316.2,1043.8c0,36.7-29.9,66.6-66.6,66.6h-66.6v-66.6c0-36.7,29.9-66.6,66.6-66.6
						C-6346.1,977.2-6316.2,1007.1-6316.2,1043.8z M-6439.2,1100.2h56.4c31.1,0,56.4-25.3,56.4-56.4c0-31.1-25.3-56.4-56.4-56.4
						c-31.1,0-56.4,25.3-56.4,56.4V1100.2z"/>
				</g>
				<g>
					<path class="st3" d="M-6338.6,1043.8c0,24.4-19.8,44.2-44.2,44.2h-44.2v-44.2c0-24.4,19.8-44.2,44.2-44.2
						C-6358.4,999.5-6338.6,1019.4-6338.6,1043.8z M-6416.9,1077.8h34c18.8,0,34-15.3,34-34c0-18.8-15.3-34-34-34
						c-18.8,0-34,15.3-34,34V1077.8z"/>
				</g>
			</g>
		</g>
	</g>
	<g>
		<path class="st3" d="M-6084.6,1223.8l-38.6-45.9l-39.9,45.9h-55.6l67.7-75.4l-65.5-74.3h57.3l37.3,43.7l38.3-43.7h54.3l-65.5,73.1
			l68.1,76.5H-6084.6z"/>
		<path class="st3" d="M-5835.9,1161.2h-133.2c2.4,9.3,8.1,16.6,17,22c8.9,5.4,20.1,8.1,33.4,8.1c9.2,0,17.3-1.2,24.4-3.5
			c7.1-2.3,13.7-6,19.8-11l27.2,25c-16.6,16.1-40.8,24.2-72.6,24.2c-19.9,0-37.4-3.3-52.7-9.9c-15.3-6.6-27.1-15.7-35.3-27.4
			c-8.3-11.7-12.4-24.9-12.4-39.8c0-14.6,4.1-27.9,12.3-39.6c8.2-11.8,19.4-21,33.7-27.5c14.3-6.6,30.3-9.9,47.9-9.9
			c17.2,0,32.8,3.2,46.8,9.5c14,6.3,24.9,15.3,32.9,27.1c8,11.8,11.9,25.4,11.9,41C-5834.9,1150.1-5835.2,1154-5835.9,1161.2z
			 M-5955.3,1113.1c-7.9,5.6-12.7,13.2-14.4,22.8h86.7c-1.7-9.5-6.5-17-14.4-22.7c-7.9-5.7-17.5-8.5-28.8-8.5
			C-5937.8,1104.7-5947.5,1107.5-5955.3,1113.1z"/>
		<path class="st3" d="M-5629.4,1161.2h-133.2c2.4,9.3,8.1,16.6,17,22c8.9,5.4,20.1,8.1,33.4,8.1c9.2,0,17.3-1.2,24.4-3.5
			c7.1-2.3,13.7-6,19.8-11l27.2,25c-16.6,16.1-40.8,24.2-72.6,24.2c-19.9,0-37.4-3.3-52.7-9.9c-15.3-6.6-27.1-15.7-35.3-27.4
			c-8.3-11.7-12.4-24.9-12.4-39.8c0-14.6,4.1-27.9,12.3-39.6c8.2-11.8,19.4-21,33.7-27.5c14.3-6.6,30.3-9.9,47.9-9.9
			c17.2,0,32.8,3.2,46.8,9.5c14,6.3,24.9,15.3,32.9,27.1c8,11.8,11.9,25.4,11.9,41C-5628.4,1150.1-5628.7,1154-5629.4,1161.2z
			 M-5748.8,1113.1c-7.9,5.6-12.7,13.2-14.4,22.8h86.7c-1.7-9.5-6.5-17-14.4-22.7c-7.9-5.7-17.5-8.5-28.8-8.5
			C-5731.3,1104.7-5741,1107.5-5748.8,1113.1z"/>
		<path class="st3" d="M-5578,1221.4c-14-3.1-25.1-6.9-33.4-11.5l17-31.2c7.9,4.3,17.3,7.7,28.5,10.4c11.1,2.7,22,4,32.7,4
			c21.6,0,32.4-4.5,32.4-13.6c0-4.3-2.9-7.3-8.8-9.2c-5.9-1.9-14.9-3.4-27.2-4.7c-14.4-1.9-26.3-4-35.7-6.4
			c-9.4-2.4-17.5-6.7-24.4-12.8c-6.9-6.1-10.3-14.8-10.3-26.1c0-9.5,3.2-17.8,9.7-25.2c6.4-7.3,15.8-13,28.1-17.1
			c12.3-4.1,26.9-6.1,43.7-6.1c12.4,0,24.8,1.2,37.1,3.5c12.3,2.3,22.5,5.5,30.6,9.6l-17,30.9c-15.5-7.4-32.4-11.1-50.7-11.1
			c-10.9,0-19.1,1.3-24.5,3.9c-5.5,2.6-8.2,5.9-8.2,10c0,4.6,2.9,7.9,8.8,9.7c5.9,1.9,15.3,3.6,28.1,5.3c14.4,2,26.2,4.2,35.3,6.5
			c9.2,2.3,17.1,6.5,23.9,12.7c6.8,6.1,10.1,14.6,10.1,25.6c0,9.3-3.3,17.5-9.8,24.8c-6.5,7.2-16.1,12.8-28.6,16.8
			c-12.5,4-27.4,6-44.7,6C-5549.7,1226-5564,1224.5-5578,1221.4z"/>
	</g>
</g>
<g>
	<g>
		<g>
			<g>
				<g>
					<path class="st1" d="M-6504,529.9v89.3c0,49.3-40,89.3-89.3,89.3l0,0c-49.3,0-89.3-40-89.3-89.3v0c0-49.3,40-89.3,89.3-89.3
						L-6504,529.9z"/>
				</g>
			</g>
			<g>
				<g>
					<path class="st1" d="M-6503.4,498l-89.3,0c-49.3,0-89.3-40-89.3-89.3v0c0-49.3,40-89.3,89.3-89.3l0,0c49.3,0,89.3,40,89.3,89.3
						V498z"/>
				</g>
			</g>
			<g>
				<g>
					<path class="st1" d="M-6472.6,529.9h89.3c49.3,0,89.3,40,89.3,89.3v0c0,49.3-40,89.3-89.3,89.3l0,0c-49.3,0-89.3-40-89.3-89.3
						V529.9z"/>
				</g>
			</g>
			<g>
				<g>
					<path class="st1" d="M-6293.9,408.8c0,49-39.9,88.9-88.9,88.9l-88.9,0v-88.9c0-49,39.9-88.9,88.9-88.9
						C-6333.8,319.8-6293.9,359.7-6293.9,408.8z M-6461.6,487.5l78.8,0c43.4,0,78.8-35.3,78.8-78.8c0-43.4-35.3-78.8-78.8-78.8
						c-43.4,0-78.8,35.3-78.8,78.8V487.5z"/>
				</g>
				<g>
					<path class="st1" d="M-6316.2,408.8c0,36.7-29.9,66.6-66.6,66.6h-66.6v-66.6c0-36.7,29.9-66.6,66.6-66.6
						C-6346.1,342.2-6316.2,372.1-6316.2,408.8z M-6439.2,465.2l56.4,0c31.1,0,56.4-25.3,56.4-56.4s-25.3-56.4-56.4-56.4
						c-31.1,0-56.4,25.3-56.4,56.4V465.2z"/>
				</g>
				<g>
					<path class="st1" d="M-6338.6,408.8c0,24.4-19.8,44.2-44.2,44.2l-44.2,0v-44.2c0-24.4,19.8-44.2,44.2-44.2
						C-6358.4,364.5-6338.6,384.4-6338.6,408.8z M-6416.9,442.8h34c18.8,0,34-15.3,34-34s-15.3-34-34-34c-18.8,0-34,15.3-34,34
						V442.8z"/>
				</g>
			</g>
		</g>
	</g>
	<g>
		<path class="st1" d="M-6084.6,588.8l-38.6-45.9l-39.9,45.9h-55.6l67.7-75.4l-65.5-74.3h57.3l37.3,43.7l38.3-43.7h54.3l-65.5,73.1
			l68.1,76.5H-6084.6z"/>
		<path class="st1" d="M-5835.9,526.2h-133.2c2.4,9.3,8.1,16.6,17,22c8.9,5.4,20.1,8.1,33.4,8.1c9.2,0,17.3-1.2,24.4-3.5
			c7.1-2.3,13.7-6,19.8-11l27.2,25c-16.6,16.1-40.8,24.2-72.6,24.2c-19.9,0-37.4-3.3-52.7-9.9c-15.3-6.6-27.1-15.7-35.3-27.4
			c-8.3-11.7-12.4-24.9-12.4-39.8c0-14.6,4.1-27.9,12.3-39.6c8.2-11.8,19.4-21,33.7-27.5c14.3-6.6,30.3-9.9,47.9-9.9
			c17.2,0,32.8,3.2,46.8,9.5c14,6.3,24.9,15.3,32.9,27.1c8,11.8,11.9,25.4,11.9,41C-5834.9,515.1-5835.2,519-5835.9,526.2z
			 M-5955.3,478.1c-7.9,5.6-12.7,13.2-14.4,22.8h86.7c-1.7-9.5-6.5-17-14.4-22.7c-7.9-5.7-17.5-8.5-28.8-8.5
			C-5937.8,469.7-5947.5,472.5-5955.3,478.1z"/>
		<path class="st1" d="M-5629.4,526.2h-133.2c2.4,9.3,8.1,16.6,17,22c8.9,5.4,20.1,8.1,33.4,8.1c9.2,0,17.3-1.2,24.4-3.5
			c7.1-2.3,13.7-6,19.8-11l27.2,25c-16.6,16.1-40.8,24.2-72.6,24.2c-19.9,0-37.4-3.3-52.7-9.9c-15.3-6.6-27.1-15.7-35.3-27.4
			c-8.3-11.7-12.4-24.9-12.4-39.8c0-14.6,4.1-27.9,12.3-39.6c8.2-11.8,19.4-21,33.7-27.5c14.3-6.6,30.3-9.9,47.9-9.9
			c17.2,0,32.8,3.2,46.8,9.5c14,6.3,24.9,15.3,32.9,27.1c8,11.8,11.9,25.4,11.9,41C-5628.4,515.1-5628.7,519-5629.4,526.2z
			 M-5748.8,478.1c-7.9,5.6-12.7,13.2-14.4,22.8h86.7c-1.7-9.5-6.5-17-14.4-22.7c-7.9-5.7-17.5-8.5-28.8-8.5
			C-5731.3,469.7-5741,472.5-5748.8,478.1z"/>
		<path class="st1" d="M-5578,586.4c-14-3.1-25.1-6.9-33.4-11.5l17-31.2c7.9,4.3,17.3,7.7,28.5,10.4c11.1,2.7,22,4,32.7,4
			c21.6,0,32.4-4.5,32.4-13.6c0-4.3-2.9-7.3-8.8-9.2c-5.9-1.9-14.9-3.4-27.2-4.7c-14.4-1.9-26.3-4-35.7-6.4
			c-9.4-2.4-17.5-6.7-24.4-12.8c-6.9-6.1-10.3-14.8-10.3-26.1c0-9.5,3.2-17.8,9.7-25.2c6.4-7.3,15.8-13,28.1-17.1
			c12.3-4.1,26.9-6.1,43.7-6.1c12.4,0,24.8,1.2,37.1,3.5c12.3,2.3,22.5,5.5,30.6,9.6l-17,30.9c-15.5-7.4-32.4-11.1-50.7-11.1
			c-10.9,0-19.1,1.3-24.5,3.9c-5.5,2.6-8.2,5.9-8.2,10c0,4.6,2.9,7.9,8.8,9.7c5.9,1.9,15.3,3.6,28.1,5.3c14.4,2,26.2,4.2,35.3,6.5
			c9.2,2.3,17.1,6.5,23.9,12.7c6.8,6.1,10.1,14.6,10.1,25.6c0,9.3-3.3,17.5-9.8,24.8c-6.5,7.2-16.1,12.8-28.6,16.8
			c-12.5,4-27.4,6-44.7,6C-5549.7,591-5564,589.5-5578,586.4z"/>
	</g>
</g>
<g>
	<g>
		<g>
			<g>
				<g>
					<path class="st4" d="M-6504-105.1v89.3c0,49.3-40,89.3-89.3,89.3l0,0c-49.3,0-89.3-40-89.3-89.3v0c0-49.3,40-89.3,89.3-89.3
						L-6504-105.1z"/>
				</g>
			</g>
			<g>
				<g>
					<path class="st4" d="M-6503.4-137l-89.3,0c-49.3,0-89.3-40-89.3-89.3v0c0-49.3,40-89.3,89.3-89.3l0,0c49.3,0,89.3,40,89.3,89.3
						V-137z"/>
				</g>
			</g>
			<g>
				<g>
					<path class="st4" d="M-6472.6-105.1l89.3,0c49.3,0,89.3,40,89.3,89.3v0c0,49.3-40,89.3-89.3,89.3l0,0
						c-49.3,0-89.3-40-89.3-89.3V-105.1z"/>
				</g>
			</g>
			<g>
				<g>
					<path class="st4" d="M-6293.9-226.2c0,49-39.9,88.9-88.9,88.9l-88.9,0v-88.9c0-49,39.9-88.9,88.9-88.9
						C-6333.8-315.2-6293.9-275.3-6293.9-226.2z M-6461.6-147.5l78.8,0c43.4,0,78.8-35.3,78.8-78.8c0-43.4-35.3-78.8-78.8-78.8
						c-43.4,0-78.8,35.3-78.8,78.8V-147.5z"/>
				</g>
				<g>
					<path class="st4" d="M-6316.2-226.2c0,36.7-29.9,66.6-66.6,66.6l-66.6,0v-66.6c0-36.7,29.9-66.6,66.6-66.6
						C-6346.1-292.8-6316.2-262.9-6316.2-226.2z M-6439.2-169.8l56.4,0c31.1,0,56.4-25.3,56.4-56.4s-25.3-56.4-56.4-56.4
						c-31.1,0-56.4,25.3-56.4,56.4V-169.8z"/>
				</g>
				<g>
					<path class="st4" d="M-6338.6-226.2c0,24.4-19.8,44.2-44.2,44.2l-44.2,0v-44.2c0-24.4,19.8-44.2,44.2-44.2
						C-6358.4-270.5-6338.6-250.6-6338.6-226.2z M-6416.9-192.2l34,0c18.8,0,34-15.3,34-34s-15.3-34-34-34c-18.8,0-34,15.3-34,34
						V-192.2z"/>
				</g>
			</g>
		</g>
	</g>
	<g>
		<path class="st4" d="M-6084.6-46.2l-38.6-45.9l-39.9,45.9h-55.6l67.7-75.4l-65.5-74.3h57.3l37.3,43.7l38.3-43.7h54.3l-65.5,73.1
			l68.1,76.5H-6084.6z"/>
		<path class="st4" d="M-5835.9-108.8h-133.2c2.4,9.3,8.1,16.6,17,22c8.9,5.4,20.1,8.1,33.4,8.1c9.2,0,17.3-1.2,24.4-3.5
			c7.1-2.3,13.7-6,19.8-11l27.2,25c-16.6,16.1-40.8,24.2-72.6,24.2c-19.9,0-37.4-3.3-52.7-9.9c-15.3-6.6-27.1-15.7-35.3-27.4
			c-8.3-11.7-12.4-24.9-12.4-39.8c0-14.6,4.1-27.9,12.3-39.6c8.2-11.8,19.4-21,33.7-27.5c14.3-6.6,30.3-9.9,47.9-9.9
			c17.2,0,32.8,3.2,46.8,9.5c14,6.3,24.9,15.3,32.9,27.1c8,11.8,11.9,25.4,11.9,41C-5834.9-119.9-5835.2-116-5835.9-108.8z
			 M-5955.3-156.9c-7.9,5.6-12.7,13.2-14.4,22.8h86.7c-1.7-9.5-6.5-17-14.4-22.7c-7.9-5.7-17.5-8.5-28.8-8.5
			C-5937.8-165.3-5947.5-162.5-5955.3-156.9z"/>
		<path class="st4" d="M-5629.4-108.8h-133.2c2.4,9.3,8.1,16.6,17,22c8.9,5.4,20.1,8.1,33.4,8.1c9.2,0,17.3-1.2,24.4-3.5
			c7.1-2.3,13.7-6,19.8-11l27.2,25c-16.6,16.1-40.8,24.2-72.6,24.2c-19.9,0-37.4-3.3-52.7-9.9c-15.3-6.6-27.1-15.7-35.3-27.4
			c-8.3-11.7-12.4-24.9-12.4-39.8c0-14.6,4.1-27.9,12.3-39.6c8.2-11.8,19.4-21,33.7-27.5c14.3-6.6,30.3-9.9,47.9-9.9
			c17.2,0,32.8,3.2,46.8,9.5c14,6.3,24.9,15.3,32.9,27.1c8,11.8,11.9,25.4,11.9,41C-5628.4-119.9-5628.7-116-5629.4-108.8z
			 M-5748.8-156.9c-7.9,5.6-12.7,13.2-14.4,22.8h86.7c-1.7-9.5-6.5-17-14.4-22.7c-7.9-5.7-17.5-8.5-28.8-8.5
			C-5731.3-165.3-5741-162.5-5748.8-156.9z"/>
		<path class="st4" d="M-5578-48.6c-14-3.1-25.1-6.9-33.4-11.5l17-31.2c7.9,4.3,17.3,7.7,28.5,10.4c11.1,2.7,22,4,32.7,4
			c21.6,0,32.4-4.5,32.4-13.6c0-4.3-2.9-7.3-8.8-9.2c-5.9-1.9-14.9-3.4-27.2-4.7c-14.4-1.9-26.3-4-35.7-6.4
			c-9.4-2.4-17.5-6.7-24.4-12.8c-6.9-6.1-10.3-14.8-10.3-26.1c0-9.5,3.2-17.8,9.7-25.2c6.4-7.3,15.8-13,28.1-17.1
			c12.3-4.1,26.9-6.1,43.7-6.1c12.4,0,24.8,1.2,37.1,3.5c12.3,2.3,22.5,5.5,30.6,9.6l-17,30.9c-15.5-7.4-32.4-11.1-50.7-11.1
			c-10.9,0-19.1,1.3-24.5,3.9c-5.5,2.6-8.2,5.9-8.2,10c0,4.6,2.9,7.9,8.8,9.7c5.9,1.9,15.3,3.6,28.1,5.3c14.4,2,26.2,4.2,35.3,6.5
			c9.2,2.3,17.1,6.5,23.9,12.7c6.8,6.1,10.1,14.6,10.1,25.6c0,9.3-3.3,17.5-9.8,24.8c-6.5,7.2-16.1,12.8-28.6,16.8
			c-12.5,4-27.4,6-44.7,6C-5549.7-44-5564-45.5-5578-48.6z"/>
	</g>
</g>
<g>
	<g>
		<g>
			<g>
				<g>
					<path class="st2" d="M-6504-729.1v89.3c0,49.3-40,89.3-89.3,89.3l0,0c-49.3,0-89.3-40-89.3-89.3v0c0-49.3,40-89.3,89.3-89.3
						L-6504-729.1z"/>
				</g>
			</g>
			<g>
				<g>
					<path class="st2" d="M-6503.4-761l-89.3,0c-49.3,0-89.3-40-89.3-89.3v0c0-49.3,40-89.3,89.3-89.3l0,0c49.3,0,89.3,40,89.3,89.3
						V-761z"/>
				</g>
			</g>
			<g>
				<g>
					<path class="st2" d="M-6472.6-729.1h89.3c49.3,0,89.3,40,89.3,89.3v0c0,49.3-40,89.3-89.3,89.3l0,0c-49.3,0-89.3-40-89.3-89.3
						V-729.1z"/>
				</g>
			</g>
			<g>
				<g>
					<path class="st2" d="M-6293.9-850.2c0,49-39.9,88.9-88.9,88.9l-88.9,0v-88.9c0-49,39.9-88.9,88.9-88.9
						C-6333.8-939.2-6293.9-899.3-6293.9-850.2z M-6461.6-771.5h78.8c43.4,0,78.8-35.3,78.8-78.8c0-43.4-35.3-78.8-78.8-78.8
						c-43.4,0-78.8,35.3-78.8,78.8V-771.5z"/>
				</g>
				<g>
					<path class="st2" d="M-6316.2-850.2c0,36.7-29.9,66.6-66.6,66.6h-66.6v-66.6c0-36.7,29.9-66.6,66.6-66.6
						C-6346.1-916.8-6316.2-886.9-6316.2-850.2z M-6439.2-793.8h56.4c31.1,0,56.4-25.3,56.4-56.4c0-31.1-25.3-56.4-56.4-56.4
						c-31.1,0-56.4,25.3-56.4,56.4V-793.8z"/>
				</g>
				<g>
					<path class="st2" d="M-6338.6-850.2c0,24.4-19.8,44.2-44.2,44.2h-44.2v-44.2c0-24.4,19.8-44.2,44.2-44.2
						C-6358.4-894.5-6338.6-874.6-6338.6-850.2z M-6416.9-816.2h34c18.8,0,34-15.3,34-34c0-18.8-15.3-34-34-34
						c-18.8,0-34,15.3-34,34V-816.2z"/>
				</g>
			</g>
		</g>
	</g>
	<g>
		<path class="st2" d="M-6084.6-670.2l-38.6-45.9l-39.9,45.9h-55.6l67.7-75.4l-65.5-74.3h57.3l37.3,43.7l38.3-43.7h54.3l-65.5,73.1
			l68.1,76.5H-6084.6z"/>
		<path class="st2" d="M-5835.9-732.8h-133.2c2.4,9.3,8.1,16.6,17,22c8.9,5.4,20.1,8.1,33.4,8.1c9.2,0,17.3-1.2,24.4-3.5
			c7.1-2.3,13.7-6,19.8-11l27.2,25c-16.6,16.1-40.8,24.2-72.6,24.2c-19.9,0-37.4-3.3-52.7-9.9c-15.3-6.6-27.1-15.7-35.3-27.4
			c-8.3-11.7-12.4-24.9-12.4-39.8c0-14.6,4.1-27.9,12.3-39.6c8.2-11.8,19.4-21,33.7-27.5c14.3-6.6,30.3-9.9,47.9-9.9
			c17.2,0,32.8,3.2,46.8,9.5c14,6.3,24.9,15.3,32.9,27.1c8,11.8,11.9,25.4,11.9,41C-5834.9-743.9-5835.2-740-5835.9-732.8z
			 M-5955.3-780.9c-7.9,5.6-12.7,13.2-14.4,22.8h86.7c-1.7-9.5-6.5-17-14.4-22.7c-7.9-5.7-17.5-8.5-28.8-8.5
			C-5937.8-789.3-5947.5-786.5-5955.3-780.9z"/>
		<path class="st2" d="M-5629.4-732.8h-133.2c2.4,9.3,8.1,16.6,17,22c8.9,5.4,20.1,8.1,33.4,8.1c9.2,0,17.3-1.2,24.4-3.5
			c7.1-2.3,13.7-6,19.8-11l27.2,25c-16.6,16.1-40.8,24.2-72.6,24.2c-19.9,0-37.4-3.3-52.7-9.9c-15.3-6.6-27.1-15.7-35.3-27.4
			c-8.3-11.7-12.4-24.9-12.4-39.8c0-14.6,4.1-27.9,12.3-39.6c8.2-11.8,19.4-21,33.7-27.5c14.3-6.6,30.3-9.9,47.9-9.9
			c17.2,0,32.8,3.2,46.8,9.5c14,6.3,24.9,15.3,32.9,27.1c8,11.8,11.9,25.4,11.9,41C-5628.4-743.9-5628.7-740-5629.4-732.8z
			 M-5748.8-780.9c-7.9,5.6-12.7,13.2-14.4,22.8h86.7c-1.7-9.5-6.5-17-14.4-22.7c-7.9-5.7-17.5-8.5-28.8-8.5
			C-5731.3-789.3-5741-786.5-5748.8-780.9z"/>
		<path class="st2" d="M-5578-672.6c-14-3.1-25.1-6.9-33.4-11.5l17-31.2c7.9,4.3,17.3,7.7,28.5,10.4c11.1,2.7,22,4,32.7,4
			c21.6,0,32.4-4.5,32.4-13.6c0-4.3-2.9-7.3-8.8-9.2c-5.9-1.9-14.9-3.4-27.2-4.7c-14.4-1.9-26.3-4-35.7-6.4
			c-9.4-2.4-17.5-6.7-24.4-12.8c-6.9-6.1-10.3-14.8-10.3-26.1c0-9.5,3.2-17.8,9.7-25.2c6.4-7.3,15.8-13,28.1-17.1
			c12.3-4.1,26.9-6.1,43.7-6.1c12.4,0,24.8,1.2,37.1,3.5c12.3,2.3,22.5,5.5,30.6,9.6l-17,30.9c-15.5-7.4-32.4-11.1-50.7-11.1
			c-10.9,0-19.1,1.3-24.5,3.9c-5.5,2.6-8.2,5.9-8.2,10c0,4.6,2.9,7.9,8.8,9.7c5.9,1.9,15.3,3.6,28.1,5.3c14.4,2,26.2,4.2,35.3,6.5
			c9.2,2.3,17.1,6.5,23.9,12.7c6.8,6.1,10.1,14.6,10.1,25.6c0,9.3-3.3,17.5-9.8,24.8c-6.5,7.2-16.1,12.8-28.6,16.8
			c-12.5,4-27.4,6-44.7,6C-5549.7-668-5564-669.5-5578-672.6z"/>
	</g>
</g>
<g>
	<g>
		<g>
			<g>
				<g>
					<path d="M-6504-1316.1v89.3c0,49.3-40,89.3-89.3,89.3l0,0c-49.3,0-89.3-40-89.3-89.3v0c0-49.3,40-89.3,89.3-89.3L-6504-1316.1z
						"/>
				</g>
			</g>
			<g>
				<g>
					<path d="M-6503.4-1348l-89.3,0c-49.3,0-89.3-40-89.3-89.3v0c0-49.3,40-89.3,89.3-89.3l0,0c49.3,0,89.3,40,89.3,89.3V-1348z"/>
				</g>
			</g>
			<g>
				<g>
					<path d="M-6472.6-1316.1l89.3,0c49.3,0,89.3,40,89.3,89.3v0c0,49.3-40,89.3-89.3,89.3l0,0c-49.3,0-89.3-40-89.3-89.3V-1316.1z"
						/>
				</g>
			</g>
			<g>
				<g>
					<path d="M-6293.9-1437.2c0,49-39.9,88.9-88.9,88.9h-88.9v-88.9c0-49,39.9-88.9,88.9-88.9
						C-6333.8-1526.2-6293.9-1486.3-6293.9-1437.2z M-6461.6-1358.5h78.8c43.4,0,78.8-35.3,78.8-78.8c0-43.4-35.3-78.8-78.8-78.8
						c-43.4,0-78.8,35.3-78.8,78.8V-1358.5z"/>
				</g>
				<g>
					<path d="M-6316.2-1437.2c0,36.7-29.9,66.6-66.6,66.6h-66.6v-66.6c0-36.7,29.9-66.6,66.6-66.6
						C-6346.1-1503.8-6316.2-1473.9-6316.2-1437.2z M-6439.2-1380.8h56.4c31.1,0,56.4-25.3,56.4-56.4c0-31.1-25.3-56.4-56.4-56.4
						c-31.1,0-56.4,25.3-56.4,56.4V-1380.8z"/>
				</g>
				<g>
					<path d="M-6338.6-1437.2c0,24.4-19.8,44.2-44.2,44.2h-44.2v-44.2c0-24.4,19.8-44.2,44.2-44.2
						C-6358.4-1481.5-6338.6-1461.6-6338.6-1437.2z M-6416.9-1403.2h34c18.8,0,34-15.3,34-34c0-18.8-15.3-34-34-34
						c-18.8,0-34,15.3-34,34V-1403.2z"/>
				</g>
			</g>
		</g>
	</g>
	<g>
		<path d="M-6084.6-1257.2l-38.6-45.9l-39.9,45.9h-55.6l67.7-75.4l-65.5-74.3h57.3l37.3,43.7l38.3-43.7h54.3l-65.5,73.1l68.1,76.5
			H-6084.6z"/>
		<path d="M-5835.9-1319.8h-133.2c2.4,9.3,8.1,16.6,17,22c8.9,5.4,20.1,8.1,33.4,8.1c9.2,0,17.3-1.2,24.4-3.5
			c7.1-2.3,13.7-6,19.8-11l27.2,25c-16.6,16.1-40.8,24.2-72.6,24.2c-19.9,0-37.4-3.3-52.7-9.9c-15.3-6.6-27.1-15.7-35.3-27.4
			c-8.3-11.7-12.4-24.9-12.4-39.8c0-14.6,4.1-27.9,12.3-39.6c8.2-11.8,19.4-21,33.7-27.5c14.3-6.6,30.3-9.9,47.9-9.9
			c17.2,0,32.8,3.2,46.8,9.5c14,6.3,24.9,15.3,32.9,27.1c8,11.8,11.9,25.4,11.9,41C-5834.9-1330.9-5835.2-1327-5835.9-1319.8z
			 M-5955.3-1367.9c-7.9,5.6-12.7,13.2-14.4,22.8h86.7c-1.7-9.5-6.5-17-14.4-22.7c-7.9-5.7-17.5-8.5-28.8-8.5
			C-5937.8-1376.3-5947.5-1373.5-5955.3-1367.9z"/>
		<path d="M-5629.4-1319.8h-133.2c2.4,9.3,8.1,16.6,17,22c8.9,5.4,20.1,8.1,33.4,8.1c9.2,0,17.3-1.2,24.4-3.5
			c7.1-2.3,13.7-6,19.8-11l27.2,25c-16.6,16.1-40.8,24.2-72.6,24.2c-19.9,0-37.4-3.3-52.7-9.9c-15.3-6.6-27.1-15.7-35.3-27.4
			c-8.3-11.7-12.4-24.9-12.4-39.8c0-14.6,4.1-27.9,12.3-39.6c8.2-11.8,19.4-21,33.7-27.5c14.3-6.6,30.3-9.9,47.9-9.9
			c17.2,0,32.8,3.2,46.8,9.5c14,6.3,24.9,15.3,32.9,27.1c8,11.8,11.9,25.4,11.9,41C-5628.4-1330.9-5628.7-1327-5629.4-1319.8z
			 M-5748.8-1367.9c-7.9,5.6-12.7,13.2-14.4,22.8h86.7c-1.7-9.5-6.5-17-14.4-22.7c-7.9-5.7-17.5-8.5-28.8-8.5
			C-5731.3-1376.3-5741-1373.5-5748.8-1367.9z"/>
		<path d="M-5578-1259.6c-14-3.1-25.1-6.9-33.4-11.5l17-31.2c7.9,4.3,17.3,7.7,28.5,10.4c11.1,2.7,22,4,32.7,4
			c21.6,0,32.4-4.5,32.4-13.6c0-4.3-2.9-7.3-8.8-9.2c-5.9-1.9-14.9-3.4-27.2-4.7c-14.4-1.9-26.3-4-35.7-6.4
			c-9.4-2.4-17.5-6.7-24.4-12.8c-6.9-6.1-10.3-14.8-10.3-26.1c0-9.5,3.2-17.8,9.7-25.2c6.4-7.3,15.8-13,28.1-17.1
			c12.3-4.1,26.9-6.1,43.7-6.1c12.4,0,24.8,1.2,37.1,3.5c12.3,2.3,22.5,5.5,30.6,9.6l-17,30.9c-15.5-7.4-32.4-11.1-50.7-11.1
			c-10.9,0-19.1,1.3-24.5,3.9c-5.5,2.6-8.2,5.9-8.2,10c0,4.6,2.9,7.9,8.8,9.7c5.9,1.9,15.3,3.6,28.1,5.3c14.4,2,26.2,4.2,35.3,6.5
			c9.2,2.3,17.1,6.5,23.9,12.7c6.8,6.1,10.1,14.6,10.1,25.6c0,9.3-3.3,17.5-9.8,24.8c-6.5,7.2-16.1,12.8-28.6,16.8
			c-12.5,4-27.4,6-44.7,6C-5549.7-1255-5564-1256.5-5578-1259.6z"/>
	</g>
</g>
<g>
	<rect x="-5876.1" y="-2384.5" class="st5" width="150" height="477"/>
	<rect x="-5859.1" y="-1971.5" style="fill:none;" width="130" height="46"/>
	<text transform="matrix(1 0 0 1 -5859.0835 -1964.3999)"><tspan x="0" y="0" class="st2" style="font-family:'MyriadPro-Regular'; font-size:10px;">R=255 G=255 B=255</tspan><tspan x="0" y="12" class="st2" style="font-family:'MyriadPro-Regular'; font-size:10px;">HEX ff ff ff</tspan><tspan x="0" y="24" class="st2" style="font-family:'MyriadPro-Regular'; font-size:10px;">RGB 255 255 255</tspan><tspan x="0" y="36" class="st2" style="font-family:'MyriadPro-Regular'; font-size:10px;">CMYK 0 0 0 0</tspan></text>
	<rect x="-6039.1" y="-2384.5" class="st3" width="150" height="477"/>
	<rect x="-6022.1" y="-1971.5" style="fill:none;" width="130" height="46"/>
	<text transform="matrix(1 0 0 1 -6022.083 -1964.3999)"><tspan x="0" y="0" class="st2" style="font-family:'MyriadPro-Regular'; font-size:10px;">R=226 G=207 B=234</tspan><tspan x="0" y="12" class="st2" style="font-family:'MyriadPro-Regular'; font-size:10px;">HEX e2 cf ea</tspan><tspan x="0" y="24" class="st2" style="font-family:'MyriadPro-Regular'; font-size:10px;">RGB 226 207 234</tspan><tspan x="0" y="36" class="st2" style="font-family:'MyriadPro-Regular'; font-size:10px;">CMYK 9 18 0 0</tspan></text>
	<rect x="-6199.1" y="-2384.5" class="st1" width="150" height="477"/>
	<rect x="-6182.1" y="-1971.5" style="fill:none;" width="130" height="46"/>
	<text transform="matrix(1 0 0 1 -6182.083 -1964.3999)"><tspan x="0" y="0" class="st0" style="font-family:'MyriadPro-Regular'; font-size:10px;">R=123 G=44 B=191</tspan><tspan x="0" y="12" class="st0" style="font-family:'MyriadPro-Regular'; font-size:10px;">HEX 7b 2c bf</tspan><tspan x="0" y="24" class="st0" style="font-family:'MyriadPro-Regular'; font-size:10px;">RGB 123 44 191</tspan><tspan x="0" y="36" class="st0" style="font-family:'MyriadPro-Regular'; font-size:10px;">CMYK 66 86 0 0</tspan></text>
	<rect x="-6359.1" y="-2384.5" class="st4" width="150" height="477"/>
	<rect x="-6342.1" y="-1971.5" style="fill:none;" width="130" height="46"/>
	<text transform="matrix(1 0 0 1 -6342.083 -1964.3999)"><tspan x="0" y="0" class="st0" style="font-family:'MyriadPro-Regular'; font-size:10px;">R=16 G=43 B=63</tspan><tspan x="0" y="12" class="st0" style="font-family:'MyriadPro-Regular'; font-size:10px;">HEX 10 2b 3f</tspan><tspan x="0" y="24" class="st0" style="font-family:'MyriadPro-Regular'; font-size:10px;">RGB 16 43 63</tspan><tspan x="0" y="36" class="st0" style="font-family:'MyriadPro-Regular'; font-size:10px;">CMYK 94 76 49 52</tspan></text>
	<rect x="-6519.1" y="-2384.5" class="st2" width="150" height="477"/>
	<rect x="-6502.1" y="-1971.5" style="fill:none;" width="130" height="46"/>
	<text transform="matrix(1 0 0 1 -6502.083 -1964.3999)"><tspan x="0" y="0" class="st0" style="font-family:'MyriadPro-Regular'; font-size:10px;">R=6 G=39 B=38</tspan><tspan x="0" y="12" class="st0" style="font-family:'MyriadPro-Regular'; font-size:10px;">HEX 06 27 26</tspan><tspan x="0" y="24" class="st0" style="font-family:'MyriadPro-Regular'; font-size:10px;">RGB 6 39 38</tspan><tspan x="0" y="36" class="st0" style="font-family:'MyriadPro-Regular'; font-size:10px;">CMYK 87 61 67 69</tspan></text>
	
		<text transform="matrix(1.1767 0 0 1 -6503.5273 -1988.2617)" class="st0" style="font-family:'Montserrat-Bold'; font-size:16.8082px;">Burnham</text>
	
		<text transform="matrix(1.1767 0 0 1 -6342.5273 -1988.2617)" class="st0" style="font-family:'Montserrat-Bold'; font-size:16.8082px;">Elephant</text>
	
		<text transform="matrix(1.1767 0 0 1 -6022.5273 -1988.2617)" class="st2" style="font-family:'Montserrat-Bold'; font-size:16.8082px;">Moonraker</text>
	
		<text transform="matrix(1.1767 0 0 1 -5859.5278 -1988.2617)" class="st2" style="font-family:'Montserrat-Bold'; font-size:16.8082px;">White</text>
	<text transform="matrix(1.1767 0 0 1 -6181.5273 -1999.2617)"><tspan x="0" y="0" class="st0" style="font-family:'Montserrat-Bold'; font-size:16.8082px;">Persian</tspan><tspan x="0" y="16" class="st0" style="font-family:'Montserrat-Bold'; font-size:16.8082px;">Indigo</tspan></text>
</g>
</svg>
