<?xml version="1.0" encoding="utf-8"?>
<!-- Generator: Adobe Illustrator 26.1.0, SVG Export Plug-In . SVG Version: 6.00 Build 0)  -->
<svg version="1.1" id="Layer_1" xmlns="http://www.w3.org/2000/svg" xmlns:xlink="http://www.w3.org/1999/xlink" x="0px" y="0px"
	 viewBox="0 0 1500 510" style="enable-background:new 0 0 1500 510;" xml:space="preserve">
<style type="text/css">
	.st0{fill:#002233;}
	.st1{fill:#FFFEFF;}
	.st2{fill:#2650F4;}
</style>
<g>
	<g>
		<g>
			<path class="st0" d="M2086.3,141.5c-6.2-11.3-18.2-18.4-31.1-18.4c-12.2,0-23.5,6.2-30,16.5l-77.6,122.5v-92.2
				c0-25.8-21-46.8-46.8-46.8c-16.1,0-30.9,8.1-39.5,21.8l-74.3,117.3v-99.6c0-21.8-17.7-39.5-39.5-39.5
				c-21.8,0-39.5,17.7-39.5,39.5v195.6c0,25.8,21,46.8,46.8,46.8c16.1,0,30.9-8.1,39.5-21.8l74.3-117.3v92.2
				c0,25.8,21,46.8,46.8,46.8c16.1,0,30.9-8.1,39.5-21.8l130.2-205.6C2092.1,166.7,2092.6,152.8,2086.3,141.5z"/>
			<path class="st0" d="M2091.6,350.3c0-0.2,0-0.3,0-0.5c0-0.5,0.1-1,0.1-1.5c0-18.9-15.3-34.2-34.2-34.2s-34.2,15.3-34.2,34.2
				s15.3,34.2,34.2,34.2v22.4c17.4,0,31.7-32.5,33.9-52.2C2091.5,351.9,2091.6,351.1,2091.6,350.3z"/>
		</g>
	</g>
	<g>
		<path class="st0" d="M2366.1,200.8l-12.2,95.6c-2,14.8-5.6,25.3-10.9,31.5c-5.3,6.2-14.2,9.3-26.7,9.3c-12.2,0-20.8-3.1-25.6-9.3
			c-4.7-6-7.9-16.5-9.7-31.5l-9.1-74.5c-0.5-3.6-0.9-5.9-1.4-6.8c-0.5-0.9-1.4-1.4-2.9-1.4s-2.5,0.5-2.9,1.4
			c-0.5,0.9-0.9,3.2-1.4,6.8l-9.1,74.5c-1.8,14.9-5.1,25.4-9.7,31.5c-4.8,6.2-13.4,9.3-25.6,9.3c-12.5,0-21.4-3.1-26.7-9.3
			c-5.3-6.2-8.9-16.7-10.9-31.5l-12.2-95.6c-0.6-5.1-0.2-8.6,1.4-10.4c1.5-1.8,4.9-2.7,10.2-2.7h4.5c5.1,0,8.7,0.9,10.6,2.6
			c2,1.7,3.3,5.2,4.1,10.5l11.3,95.6c0.8,5.6,1.6,9.2,2.6,11c1,1.7,2.7,2.6,5.1,2.6c2.4,0,4.2-0.9,5.3-2.7c1.1-1.8,2.1-5.4,2.8-10.9
			l10.4-77.2c1.7-12.1,4.5-20.3,8.6-24.7c4.4-4.5,11.5-6.8,21.5-6.8c10.1,0,17.2,2.3,21.3,6.8c4.4,4.4,7.3,12.6,8.8,24.7l10.4,77.2
			c0.8,5.4,1.7,9.1,2.8,10.9c1.1,1.8,2.9,2.7,5.3,2.7c2.4,0,4.1-0.9,5.1-2.6c1-1.7,1.8-5.4,2.6-11l11.3-95.6
			c0.8-5.3,2.1-8.8,4.1-10.5c2-1.7,5.5-2.6,10.6-2.6h4.5c5.3,0,8.7,0.9,10.2,2.7C2366.2,192.2,2366.7,195.7,2366.1,200.8z"/>
		<path class="st0" d="M2485.4,267.9c0,1.1-0.2,4-0.5,8.8c-0.6,5.1-1.8,8.5-3.7,10.1c-1.9,1.6-5.5,2.4-11,2.4h-57.5v3.4
			c0,5.9,2.3,10.2,7,13c4.7,2.8,12.2,4.2,22.6,4.2c7.7,0,16.8-1.1,27.4-3.2c4.8-1.1,8-0.8,9.6,0.7c1.6,1.5,2.4,4.9,2.4,10.2v2.5
			c0,5-0.8,8.4-2.3,10.2c-1.5,1.8-4.8,3.3-9.7,4.5c-6.9,2-16.2,2.9-27.6,2.9c-20.4,0-35.3-4-44.8-11.9c-9.5-7.9-14.3-20.5-14.3-37.7
			v-18.1c0-34,17.6-50.9,52.8-50.9C2468.9,219,2485.4,235.3,2485.4,267.9z M2412.7,261.8v3.4h44.6v-3.4c0-11.5-7.5-17.2-22.4-17.2
			C2420.1,244.5,2412.7,250.3,2412.7,261.8z"/>
		<path class="st0" d="M2505.3,300.7V189.1c0-5.1,0.8-8.5,2.5-10.2c1.7-1.7,5.1-2.5,10.2-2.5h4.1c5.1,0,8.5,0.8,10.2,2.5
			c1.7,1.7,2.5,5.1,2.5,10.2v105.1c0,5.7,0.8,9.7,2.3,11.9c1.5,2.2,4.1,3.3,7.7,3.3h1.1c3.2,0,5.2,0.6,6.2,1.9
			c1,1.3,1.5,4.1,1.5,8.5v4.3c0,4.5-0.5,7.6-1.6,9.3c-1.1,1.7-3.1,2.8-6.1,3.4c-2.7,0.3-5,0.5-6.8,0.5c-10.7,0-19-3.1-24.9-9.3
			C2508.3,321.7,2505.3,312.6,2505.3,300.7z"/>
		<path class="st0" d="M2596.6,200.2c-3.5,3.5-7.6,5.2-12.5,5.2c-4.8,0-9-1.7-12.5-5.2c-3.5-3.5-5.2-7.6-5.2-12.5
			c0-4.8,1.7-9,5.2-12.5c3.5-3.5,7.6-5.2,12.5-5.2c4.8,0,9,1.7,12.5,5.2c3.5,3.5,5.2,7.6,5.2,12.5
			C2601.8,192.5,2600.1,196.7,2596.6,200.2z M2569.4,322.2v-87.9c0-5.1,0.8-8.5,2.5-10.2c1.7-1.7,5.1-2.5,10.2-2.5h4.1
			c5.1,0,8.5,0.8,10.2,2.5c1.7,1.7,2.5,5.1,2.5,10.2v87.9c0,5.1-0.8,8.5-2.5,10.2c-1.7,1.7-5.1,2.5-10.2,2.5h-4.1
			c-5.1,0-8.5-0.8-10.2-2.5C2570.2,330.7,2569.4,327.3,2569.4,322.2z"/>
		<path class="st0" d="M2653,264.7v57.5c0,5.1-0.8,8.5-2.5,10.2c-1.7,1.7-5.1,2.5-10.2,2.5h-4.3c-5.1,0-8.5-0.8-10.2-2.5
			c-1.7-1.7-2.5-5.1-2.5-10.2v-57.5c0-14.9,4.3-26.3,13-34.1c8.7-7.8,21.5-11.7,38.6-11.7c17.5,0,30.4,3.7,38.7,11.2
			c8.3,7.5,12.5,19,12.5,34.5v57.5c0,5.1-0.8,8.5-2.5,10.2c-1.7,1.7-5.1,2.5-10.2,2.5h-4.3c-5.1,0-8.5-0.8-10.2-2.5
			c-1.7-1.7-2.5-5.1-2.5-10.2v-57.5c0-6.8-1.5-11.5-4.5-14c-3-2.6-8.7-3.8-17-3.8c-8.3,0-14,1.3-17.2,4
			C2654.6,253.4,2653,258.1,2653,264.7z"/>
		<path class="st0" d="M2848.6,260.2v1.4c0,28.1-16.9,42.1-50.7,42.1c-8.9,0-14.8,0.4-17.5,1.1c-2.8,0.8-4.2,2.3-4.2,4.8
			c0,2.1,1.4,3.5,4.2,4.2c2.8,0.7,8.6,1,17.5,1c20.7,0,34.9,2.5,42.6,7.5c7.7,5,11.5,13.9,11.5,26.7c0,13-3.9,22.1-11.5,27.4
			c-8,5.3-22.2,7.9-42.6,7.9c-20.7,0-35-2.4-43-7.2c-7.7-4.8-11.5-12.5-11.5-22.9c0-9.8,3.8-17,11.3-21.5c-5.3-3.6-7.9-9.2-7.9-16.8
			c0-10.1,5.8-17.1,17.4-21.1c-11.6-6.6-17.4-17.7-17.4-33.3v-1.4c0-13,4.5-23.1,13.5-30.3c9-7.2,21.5-10.9,37.7-10.9
			c7.4,0,14,1,19.9,2.9l13.1-9.5c3.6-2.7,6.6-4,9.1-4c2.4,0.1,5.2,1.7,8.4,4.9l0.7,0.7c3.3,3.3,5,6,5.1,7.9c0.1,2-1.4,4.7-4.4,8.2
			l-8.2,9.1C2846.3,244.7,2848.6,251.7,2848.6,260.2z M2797.9,339.9c-6.9,0-13.2-0.2-18.8-0.7c-4.1,1.8-6.1,5.3-6.1,10.4
			c0,4.1,1.5,6.7,4.5,7.9c3.3,1.2,10.1,1.8,20.4,1.8c8.2,0,14.2-0.5,18.1-1.4c4.2-1.1,6.3-3.8,6.3-8.4c0-4.4-1.6-7.1-4.8-8.2
			C2814.6,340.4,2808,339.9,2797.9,339.9z M2818.9,261.5v-1.4c0-5.4-1.6-9.4-4.9-11.9c-3.2-2.5-8.6-3.7-16.2-3.7
			c-7.7,0-13.2,1.2-16.5,3.7c-3.3,2.5-5,6.5-5,11.9v1.4c0,5.9,1.7,10.1,5,12.7c3.3,2.6,8.8,3.8,16.5,3.8c7.7,0,13.1-1.3,16.3-3.8
			C2817.4,271.6,2818.9,267.4,2818.9,261.5z"/>
		<path class="st0" d="M2960,257.9v43.3c0,12.4-4,21.5-12,27.5c-8,6-20.4,8.9-37.1,8.9c-16.8,0-29.1-2.9-37.1-8.7
			c-8-5.8-12-14.8-12-27.1c0-23.5,15.3-35.3,46-35.3h22.9v-8.6c0-5.1-1.8-8.7-5.4-10.8s-9.7-3.1-18.1-3.1c-6.3,0-12.9,0.5-19.7,1.4
			c-5,0.8-8.3,0.4-10.1-1c-1.7-1.4-2.6-4.6-2.6-9.6v-0.9c0-4.8,0.8-8.2,2.4-10c1.6-1.8,4.9-3.1,9.9-3.9c7.1-0.8,13.2-1.1,18.3-1.1
			c18.6,0,32.3,3.1,41.3,9.3C2955.5,234.4,2960,244.3,2960,257.9z M2930.6,299.6v-10.9h-23.3c-10.7,0-16.1,4.2-16.1,12.5
			c0.5,4.8,2.1,8,5,9.6c2.9,1.6,7.6,2.3,14.3,2.2c6.8,0.2,11.7-0.7,14.8-2.6C2928.3,308.4,2930.1,304.9,2930.6,299.6z"/>
	</g>
</g>
<g>
	<g>
		<g>
			<path class="st1" d="M502.3,141.5c-6.2-11.3-18.2-18.4-31.1-18.4c-12.2,0-23.5,6.2-30,16.5l-77.6,122.5v-92.2
				c0-25.8-21-46.8-46.8-46.8c-16.1,0-30.9,8.1-39.5,21.8l-74.3,117.3v-99.6c0-21.8-17.7-39.5-39.5-39.5S124,140.8,124,162.5v195.6
				c0,25.8,21,46.8,46.8,46.8c16.1,0,30.9-8.1,39.5-21.8l74.3-117.3v92.2c0,25.8,21,46.8,46.8,46.8c16.1,0,30.9-8.1,39.5-21.8
				l130.2-205.6C508.1,166.7,508.6,152.8,502.3,141.5z"/>
			<path class="st1" d="M507.6,350.3c0-0.2,0-0.3,0-0.5c0-0.5,0.1-1,0.1-1.5c0-18.9-15.3-34.2-34.2-34.2s-34.2,15.3-34.2,34.2
				s15.3,34.2,34.2,34.2v22.4c17.4,0,31.7-32.5,33.9-52.2C507.5,351.9,507.6,351.1,507.6,350.3z"/>
		</g>
	</g>
	<g>
		<path class="st1" d="M782.1,200.8l-12.2,95.6c-2,14.8-5.6,25.3-10.9,31.5c-5.3,6.2-14.2,9.3-26.7,9.3c-12.2,0-20.8-3.1-25.6-9.3
			c-4.7-6-7.9-16.5-9.7-31.5l-9.1-74.5c-0.5-3.6-0.9-5.9-1.4-6.8c-0.5-0.9-1.4-1.4-2.9-1.4c-1.5,0-2.5,0.5-2.9,1.4
			c-0.5,0.9-0.9,3.2-1.4,6.8l-9.1,74.5c-1.8,14.9-5.1,25.4-9.7,31.5c-4.8,6.2-13.4,9.3-25.6,9.3c-12.5,0-21.4-3.1-26.7-9.3
			c-5.3-6.2-8.9-16.7-10.9-31.5l-12.2-95.6c-0.6-5.1-0.2-8.6,1.4-10.4c1.5-1.8,4.9-2.7,10.2-2.7h4.5c5.1,0,8.7,0.9,10.6,2.6
			c2,1.7,3.3,5.2,4.1,10.5l11.3,95.6c0.8,5.6,1.6,9.2,2.6,11c1,1.7,2.7,2.6,5.1,2.6c2.4,0,4.2-0.9,5.3-2.7c1.1-1.8,2.1-5.4,2.8-10.9
			l10.4-77.2c1.7-12.1,4.5-20.3,8.6-24.7c4.4-4.5,11.5-6.8,21.5-6.8c10.1,0,17.2,2.3,21.3,6.8c4.4,4.4,7.3,12.6,8.8,24.7l10.4,77.2
			c0.8,5.4,1.7,9.1,2.8,10.9c1.1,1.8,2.9,2.7,5.3,2.7c2.4,0,4.1-0.9,5.1-2.6c1-1.7,1.8-5.4,2.6-11l11.3-95.6
			c0.8-5.3,2.1-8.8,4.1-10.5c2-1.7,5.5-2.6,10.6-2.6h4.5c5.3,0,8.7,0.9,10.2,2.7C782.2,192.2,782.7,195.7,782.1,200.8z"/>
		<path class="st1" d="M901.4,267.9c0,1.1-0.2,4-0.5,8.8c-0.6,5.1-1.8,8.5-3.7,10.1c-1.9,1.6-5.5,2.4-11,2.4h-57.5v3.4
			c0,5.9,2.3,10.2,7,13c4.7,2.8,12.2,4.2,22.6,4.2c7.7,0,16.8-1.1,27.4-3.2c4.8-1.1,8-0.8,9.6,0.7c1.6,1.5,2.4,4.9,2.4,10.2v2.5
			c0,5-0.8,8.4-2.3,10.2c-1.5,1.8-4.8,3.3-9.7,4.5c-6.9,2-16.2,2.9-27.6,2.9c-20.4,0-35.3-4-44.8-11.9s-14.3-20.5-14.3-37.7v-18.1
			c0-34,17.6-50.9,52.8-50.9C884.9,219,901.4,235.3,901.4,267.9z M828.7,261.8v3.4h44.6v-3.4c0-11.5-7.5-17.2-22.4-17.2
			C836.1,244.5,828.7,250.3,828.7,261.8z"/>
		<path class="st1" d="M921.3,300.7V189.1c0-5.1,0.8-8.5,2.5-10.2c1.7-1.7,5.1-2.5,10.2-2.5h4.1c5.1,0,8.5,0.8,10.2,2.5
			c1.7,1.7,2.5,5.1,2.5,10.2v105.1c0,5.7,0.8,9.7,2.3,11.9c1.5,2.2,4.1,3.3,7.7,3.3h1.1c3.2,0,5.2,0.6,6.2,1.9
			c1,1.3,1.5,4.1,1.5,8.5v4.3c0,4.5-0.5,7.6-1.6,9.3c-1.1,1.7-3.1,2.8-6.1,3.4c-2.7,0.3-5,0.5-6.8,0.5c-10.7,0-19-3.1-24.9-9.3
			C924.3,321.7,921.3,312.6,921.3,300.7z"/>
		<path class="st1" d="M1012.6,200.2c-3.5,3.5-7.6,5.2-12.5,5.2c-4.8,0-9-1.7-12.5-5.2c-3.5-3.5-5.2-7.6-5.2-12.5
			c0-4.8,1.7-9,5.2-12.5c3.5-3.5,7.6-5.2,12.5-5.2c4.8,0,9,1.7,12.5,5.2c3.5,3.5,5.2,7.6,5.2,12.5
			C1017.8,192.5,1016.1,196.7,1012.6,200.2z M985.4,322.2v-87.9c0-5.1,0.8-8.5,2.5-10.2c1.7-1.7,5.1-2.5,10.2-2.5h4.1
			c5.1,0,8.5,0.8,10.2,2.5c1.7,1.7,2.5,5.1,2.5,10.2v87.9c0,5.1-0.8,8.5-2.5,10.2c-1.7,1.7-5.1,2.5-10.2,2.5h-4.1
			c-5.1,0-8.5-0.8-10.2-2.5C986.2,330.7,985.4,327.3,985.4,322.2z"/>
		<path class="st1" d="M1069,264.7v57.5c0,5.1-0.8,8.5-2.5,10.2c-1.7,1.7-5.1,2.5-10.2,2.5h-4.3c-5.1,0-8.5-0.8-10.2-2.5
			c-1.7-1.7-2.5-5.1-2.5-10.2v-57.5c0-14.9,4.3-26.3,13-34.1c8.7-7.8,21.5-11.7,38.6-11.7c17.5,0,30.4,3.7,38.7,11.2
			c8.3,7.5,12.5,19,12.5,34.5v57.5c0,5.1-0.8,8.5-2.5,10.2c-1.7,1.7-5.1,2.5-10.2,2.5h-4.3c-5.1,0-8.5-0.8-10.2-2.5
			c-1.7-1.7-2.5-5.1-2.5-10.2v-57.5c0-6.8-1.5-11.5-4.5-14c-3-2.6-8.7-3.8-17-3.8c-8.3,0-14,1.3-17.2,4
			C1070.6,253.4,1069,258.1,1069,264.7z"/>
		<path class="st1" d="M1264.6,260.2v1.4c0,28.1-16.9,42.1-50.7,42.1c-8.9,0-14.8,0.4-17.5,1.1c-2.8,0.8-4.2,2.3-4.2,4.8
			c0,2.1,1.4,3.5,4.2,4.2c2.8,0.7,8.6,1,17.5,1c20.7,0,34.9,2.5,42.6,7.5c7.7,5,11.5,13.9,11.5,26.7c0,13-3.9,22.1-11.5,27.4
			c-8,5.3-22.2,7.9-42.6,7.9c-20.7,0-35-2.4-43-7.2c-7.7-4.8-11.5-12.5-11.5-22.9c0-9.8,3.8-17,11.3-21.5c-5.3-3.6-7.9-9.2-7.9-16.8
			c0-10.1,5.8-17.1,17.4-21.1c-11.6-6.6-17.4-17.7-17.4-33.3v-1.4c0-13,4.5-23.1,13.5-30.3c9-7.2,21.5-10.9,37.7-10.9
			c7.4,0,14,1,19.9,2.9l13.1-9.5c3.6-2.7,6.6-4,9.1-4c2.4,0.1,5.2,1.7,8.4,4.9l0.7,0.7c3.3,3.3,5,6,5.1,7.9c0.1,2-1.4,4.7-4.4,8.2
			l-8.2,9.1C1262.3,244.7,1264.6,251.7,1264.6,260.2z M1213.9,339.9c-6.9,0-13.2-0.2-18.8-0.7c-4.1,1.8-6.1,5.3-6.1,10.4
			c0,4.1,1.5,6.7,4.5,7.9c3.3,1.2,10.1,1.8,20.4,1.8c8.2,0,14.2-0.5,18.1-1.4c4.2-1.1,6.3-3.8,6.3-8.4c0-4.4-1.6-7.1-4.8-8.2
			C1230.6,340.4,1224,339.9,1213.9,339.9z M1234.9,261.5v-1.4c0-5.4-1.6-9.4-4.9-11.9c-3.2-2.5-8.6-3.7-16.2-3.7
			c-7.7,0-13.2,1.2-16.5,3.7c-3.3,2.5-5,6.5-5,11.9v1.4c0,5.9,1.7,10.1,5,12.7c3.3,2.6,8.8,3.8,16.5,3.8c7.7,0,13.1-1.3,16.3-3.8
			C1233.4,271.6,1234.9,267.4,1234.9,261.5z"/>
		<path class="st1" d="M1376,257.9v43.3c0,12.4-4,21.5-12,27.5c-8,6-20.4,8.9-37.1,8.9c-16.8,0-29.1-2.9-37.1-8.7
			c-8-5.8-12-14.8-12-27.1c0-23.5,15.3-35.3,46-35.3h22.9v-8.6c0-5.1-1.8-8.7-5.4-10.8c-3.6-2-9.7-3.1-18.1-3.1
			c-6.3,0-12.9,0.5-19.7,1.4c-5,0.8-8.3,0.4-10.1-1c-1.7-1.4-2.6-4.6-2.6-9.6v-0.9c0-4.8,0.8-8.2,2.4-10c1.6-1.8,4.9-3.1,9.9-3.9
			c7.1-0.8,13.2-1.1,18.3-1.1c18.6,0,32.3,3.1,41.3,9.3C1371.5,234.4,1376,244.3,1376,257.9z M1346.6,299.6v-10.9h-23.3
			c-10.7,0-16.1,4.2-16.1,12.5c0.5,4.8,2.1,8,5,9.6s7.6,2.3,14.3,2.2c6.8,0.2,11.7-0.7,14.8-2.6
			C1344.3,308.4,1346.1,304.9,1346.6,299.6z"/>
	</g>
</g>
<g>
	<g>
		<g>
			<path class="st2" d="M-1069.7,141.5c-6.2-11.3-18.2-18.4-31.1-18.4c-12.2,0-23.5,6.2-30,16.5l-77.6,122.5v-92.2
				c0-25.8-21-46.8-46.8-46.8c-16.1,0-30.9,8.1-39.5,21.8l-74.3,117.3v-99.6c0-21.8-17.7-39.5-39.5-39.5
				c-21.8,0-39.5,17.7-39.5,39.5v195.6c0,25.8,21,46.8,46.8,46.8c16.1,0,30.9-8.1,39.5-21.8l74.3-117.3v92.2
				c0,25.8,21,46.8,46.8,46.8c16.1,0,30.9-8.1,39.5-21.8l130.2-205.6C-1063.9,166.7-1063.4,152.8-1069.7,141.5z"/>
			<path class="st2" d="M-1064.4,350.3c0-0.2,0-0.3,0-0.5c0-0.5,0.1-1,0.1-1.5c0-18.9-15.3-34.2-34.2-34.2
				c-18.9,0-34.2,15.3-34.2,34.2s15.3,34.2,34.2,34.2v22.4c17.4,0,31.7-32.5,33.9-52.2C-1064.5,351.9-1064.4,351.1-1064.4,350.3z"/>
		</g>
	</g>
	<g>
		<path class="st2" d="M-789.9,200.8l-12.2,95.6c-2,14.8-5.6,25.3-10.9,31.5c-5.3,6.2-14.2,9.3-26.7,9.3c-12.2,0-20.8-3.1-25.6-9.3
			c-4.7-6-7.9-16.5-9.7-31.5l-9.1-74.5c-0.5-3.6-0.9-5.9-1.4-6.8c-0.5-0.9-1.4-1.4-2.9-1.4c-1.5,0-2.5,0.5-2.9,1.4
			c-0.5,0.9-0.9,3.2-1.4,6.8l-9.1,74.5c-1.8,14.9-5.1,25.4-9.7,31.5c-4.8,6.2-13.4,9.3-25.6,9.3c-12.5,0-21.4-3.1-26.7-9.3
			c-5.3-6.2-8.9-16.7-10.9-31.5l-12.2-95.6c-0.6-5.1-0.2-8.6,1.4-10.4c1.5-1.8,4.9-2.7,10.2-2.7h4.5c5.1,0,8.7,0.9,10.6,2.6
			c2,1.7,3.3,5.2,4.1,10.5l11.3,95.6c0.8,5.6,1.6,9.2,2.6,11c1,1.7,2.7,2.6,5.1,2.6c2.4,0,4.2-0.9,5.3-2.7c1.1-1.8,2.1-5.4,2.8-10.9
			l10.4-77.2c1.7-12.1,4.5-20.3,8.6-24.7c4.4-4.5,11.5-6.8,21.5-6.8c10.1,0,17.2,2.3,21.3,6.8c4.4,4.4,7.3,12.6,8.8,24.7l10.4,77.2
			c0.8,5.4,1.7,9.1,2.8,10.9c1.1,1.8,2.9,2.7,5.3,2.7c2.4,0,4.1-0.9,5.1-2.6c1-1.7,1.8-5.4,2.6-11l11.3-95.6
			c0.8-5.3,2.1-8.8,4.1-10.5c2-1.7,5.5-2.6,10.6-2.6h4.5c5.3,0,8.7,0.9,10.2,2.7C-789.8,192.2-789.3,195.7-789.9,200.8z"/>
		<path class="st2" d="M-670.6,267.9c0,1.1-0.2,4-0.5,8.8c-0.6,5.1-1.8,8.5-3.7,10.1c-1.9,1.6-5.5,2.4-11,2.4h-57.5v3.4
			c0,5.9,2.3,10.2,7,13c4.7,2.8,12.2,4.2,22.6,4.2c7.7,0,16.8-1.1,27.4-3.2c4.8-1.1,8-0.8,9.6,0.7c1.6,1.5,2.4,4.9,2.4,10.2v2.5
			c0,5-0.8,8.4-2.3,10.2c-1.5,1.8-4.8,3.3-9.7,4.5c-6.9,2-16.2,2.9-27.6,2.9c-20.4,0-35.3-4-44.8-11.9s-14.3-20.5-14.3-37.7v-18.1
			c0-34,17.6-50.9,52.8-50.9C-687.1,219-670.6,235.3-670.6,267.9z M-743.3,261.8v3.4h44.6v-3.4c0-11.5-7.5-17.2-22.4-17.2
			C-735.9,244.5-743.3,250.3-743.3,261.8z"/>
		<path class="st2" d="M-650.7,300.7V189.1c0-5.1,0.8-8.5,2.5-10.2c1.7-1.7,5.1-2.5,10.2-2.5h4.1c5.1,0,8.5,0.8,10.2,2.5
			c1.7,1.7,2.5,5.1,2.5,10.2v105.1c0,5.7,0.8,9.7,2.3,11.9c1.5,2.2,4.1,3.3,7.7,3.3h1.1c3.2,0,5.2,0.6,6.2,1.9
			c1,1.3,1.5,4.1,1.5,8.5v4.3c0,4.5-0.5,7.6-1.6,9.3c-1.1,1.7-3.1,2.8-6.1,3.4c-2.7,0.3-5,0.5-6.8,0.5c-10.7,0-19-3.1-24.9-9.3
			C-647.7,321.7-650.7,312.6-650.7,300.7z"/>
		<path class="st2" d="M-559.4,200.2c-3.5,3.5-7.6,5.2-12.5,5.2c-4.8,0-9-1.7-12.5-5.2c-3.5-3.5-5.2-7.6-5.2-12.5
			c0-4.8,1.7-9,5.2-12.5c3.5-3.5,7.6-5.2,12.5-5.2c4.8,0,9,1.7,12.5,5.2c3.5,3.5,5.2,7.6,5.2,12.5
			C-554.2,192.5-555.9,196.7-559.4,200.2z M-586.6,322.2v-87.9c0-5.1,0.8-8.5,2.5-10.2c1.7-1.7,5.1-2.5,10.2-2.5h4.1
			c5.1,0,8.5,0.8,10.2,2.5c1.7,1.7,2.5,5.1,2.5,10.2v87.9c0,5.1-0.8,8.5-2.5,10.2c-1.7,1.7-5.1,2.5-10.2,2.5h-4.1
			c-5.1,0-8.5-0.8-10.2-2.5C-585.8,330.7-586.6,327.3-586.6,322.2z"/>
		<path class="st2" d="M-503,264.7v57.5c0,5.1-0.8,8.5-2.5,10.2c-1.7,1.7-5.1,2.5-10.2,2.5h-4.3c-5.1,0-8.5-0.8-10.2-2.5
			c-1.7-1.7-2.5-5.1-2.5-10.2v-57.5c0-14.9,4.3-26.3,13-34.1c8.7-7.8,21.5-11.7,38.6-11.7c17.5,0,30.4,3.7,38.7,11.2
			c8.3,7.5,12.5,19,12.5,34.5v57.5c0,5.1-0.8,8.5-2.5,10.2c-1.7,1.7-5.1,2.5-10.2,2.5h-4.3c-5.1,0-8.5-0.8-10.2-2.5
			c-1.7-1.7-2.5-5.1-2.5-10.2v-57.5c0-6.8-1.5-11.5-4.5-14c-3-2.6-8.7-3.8-17-3.8c-8.3,0-14,1.3-17.2,4
			C-501.4,253.4-503,258.1-503,264.7z"/>
		<path class="st2" d="M-307.4,260.2v1.4c0,28.1-16.9,42.1-50.7,42.1c-8.9,0-14.8,0.4-17.5,1.1c-2.8,0.8-4.2,2.3-4.2,4.8
			c0,2.1,1.4,3.5,4.2,4.2c2.8,0.7,8.6,1,17.5,1c20.7,0,34.9,2.5,42.6,7.5c7.7,5,11.5,13.9,11.5,26.7c0,13-3.9,22.1-11.5,27.4
			c-8,5.3-22.2,7.9-42.6,7.9c-20.7,0-35-2.4-43-7.2c-7.7-4.8-11.5-12.5-11.5-22.9c0-9.8,3.8-17,11.3-21.5c-5.3-3.6-7.9-9.2-7.9-16.8
			c0-10.1,5.8-17.1,17.4-21.1c-11.6-6.6-17.4-17.7-17.4-33.3v-1.4c0-13,4.5-23.1,13.5-30.3c9-7.2,21.5-10.9,37.7-10.9
			c7.4,0,14,1,19.9,2.9l13.1-9.5c3.6-2.7,6.6-4,9.1-4c2.4,0.1,5.2,1.7,8.4,4.9l0.7,0.7c3.3,3.3,5,6,5.1,7.9c0.1,2-1.4,4.7-4.4,8.2
			l-8.2,9.1C-309.7,244.7-307.4,251.7-307.4,260.2z M-358.1,339.9c-6.9,0-13.2-0.2-18.8-0.7c-4.1,1.8-6.1,5.3-6.1,10.4
			c0,4.1,1.5,6.7,4.5,7.9c3.3,1.2,10.1,1.8,20.4,1.8c8.2,0,14.2-0.5,18.1-1.4c4.2-1.1,6.3-3.8,6.3-8.4c0-4.4-1.6-7.1-4.8-8.2
			C-341.4,340.4-348,339.9-358.1,339.9z M-337.1,261.5v-1.4c0-5.4-1.6-9.4-4.9-11.9c-3.2-2.5-8.6-3.7-16.2-3.7
			c-7.7,0-13.2,1.2-16.5,3.7c-3.3,2.5-5,6.5-5,11.9v1.4c0,5.9,1.7,10.1,5,12.7c3.3,2.6,8.8,3.8,16.5,3.8c7.7,0,13.1-1.3,16.3-3.8
			C-338.6,271.6-337.1,267.4-337.1,261.5z"/>
		<path class="st2" d="M-196,257.9v43.3c0,12.4-4,21.5-12,27.5c-8,6-20.4,8.9-37.1,8.9c-16.8,0-29.1-2.9-37.1-8.7
			c-8-5.8-12-14.8-12-27.1c0-23.5,15.3-35.3,46-35.3h22.9v-8.6c0-5.1-1.8-8.7-5.4-10.8c-3.6-2-9.7-3.1-18.1-3.1
			c-6.3,0-12.9,0.5-19.7,1.4c-5,0.8-8.3,0.4-10.1-1c-1.7-1.4-2.6-4.6-2.6-9.6v-0.9c0-4.8,0.8-8.2,2.4-10c1.6-1.8,4.9-3.1,9.9-3.9
			c7.1-0.8,13.2-1.1,18.3-1.1c18.6,0,32.3,3.1,41.3,9.3C-200.5,234.4-196,244.3-196,257.9z M-225.4,299.6v-10.9h-23.3
			c-10.7,0-16.1,4.2-16.1,12.5c0.5,4.8,2.1,8,5,9.6c2.9,1.6,7.6,2.3,14.3,2.2c6.8,0.2,11.7-0.7,14.8-2.6
			C-227.7,308.4-225.9,304.9-225.4,299.6z"/>
	</g>
</g>
<g>
	<g>
		<g>
			<path class="st1" d="M1808.1,1149.6c-10.3-18.7-30-30.4-51.4-30.4c-20.2,0-38.8,10.2-49.6,27.3l-128.2,202.5v-152.4
				c0-42.7-34.7-77.4-77.4-77.4c-26.7,0-51.1,13.4-65.3,36l-122.7,193.8v-164.6c0-35.9-29.2-65.2-65.2-65.2s-65.2,29.2-65.2,65.2
				v323.1c0,42.7,34.7,77.4,77.4,77.4c26.7,0,51.1-13.4,65.3-36l122.7-193.8v152.4c0,42.7,34.7,77.4,77.4,77.4
				c26.7,0,51.1-13.4,65.3-36l215.1-339.6C1817.7,1191.2,1818.4,1168.3,1808.1,1149.6z"/>
			<path class="st1" d="M1816.8,1494.5c0-0.3,0-0.6,0-0.8c0-0.8,0.1-1.6,0.1-2.4c0-31.2-25.3-56.6-56.6-56.6s-56.6,25.3-56.6,56.6
				c0,31.2,25.3,56.6,56.6,56.6v37c28.7,0,52.4-53.7,56-86.2C1816.6,1497.3,1816.8,1495.9,1816.8,1494.5z"/>
		</g>
	</g>
</g>
<g>
	<g>
		<g>
			<path class="st0" d="M654.1,1149.6c-10.3-18.7-30-30.4-51.4-30.4c-20.2,0-38.8,10.2-49.6,27.3l-128.2,202.5v-152.4
				c0-42.7-34.7-77.4-77.4-77.4c-26.7,0-51.1,13.4-65.3,36l-122.7,193.8v-164.6c0-35.9-29.2-65.2-65.2-65.2S29,1148.4,29,1184.4
				v323.1c0,42.7,34.7,77.4,77.4,77.4c26.7,0,51.1-13.4,65.3-36l122.7-193.8v152.4c0,42.7,34.7,77.4,77.4,77.4
				c26.7,0,51.1-13.4,65.3-36l215.1-339.6C663.7,1191.2,664.4,1168.3,654.1,1149.6z"/>
			<path class="st0" d="M662.8,1494.5c0-0.3,0-0.6,0-0.8c0-0.8,0.1-1.6,0.1-2.4c0-31.2-25.3-56.6-56.6-56.6s-56.6,25.3-56.6,56.6
				c0,31.2,25.3,56.6,56.6,56.6v37c28.7,0,52.4-53.7,56-86.2C662.6,1497.3,662.8,1495.9,662.8,1494.5z"/>
		</g>
	</g>
</g>
<g>
	<g>
		<g>
			<path class="st2" d="M-513.9,1149.6c-10.3-18.7-30-30.4-51.4-30.4c-20.2,0-38.8,10.2-49.6,27.3l-128.2,202.5v-152.4
				c0-42.7-34.7-77.4-77.4-77.4c-26.7,0-51.1,13.4-65.3,36l-122.7,193.8v-164.6c0-35.9-29.2-65.2-65.2-65.2s-65.2,29.2-65.2,65.2
				v323.1c0,42.7,34.7,77.4,77.4,77.4c26.7,0,51.1-13.4,65.3-36l122.7-193.8v152.4c0,42.7,34.7,77.4,77.4,77.4
				c26.7,0,51.1-13.4,65.3-36l215.1-339.6C-504.3,1191.2-503.6,1168.3-513.9,1149.6z"/>
			<path class="st2" d="M-505.2,1494.5c0-0.3,0-0.6,0-0.8c0-0.8,0.1-1.6,0.1-2.4c0-31.2-25.3-56.6-56.6-56.6s-56.6,25.3-56.6,56.6
				c0,31.2,25.3,56.6,56.6,56.6v37c28.7,0,52.4-53.7,56-86.2C-505.4,1497.3-505.2,1495.9-505.2,1494.5z"/>
		</g>
	</g>
</g>
<g>
	<g>
		<g>
			<path class="st2" d="M-2630.7,141.5c-6.2-11.3-18.2-18.4-31.1-18.4c-12.2,0-23.5,6.2-30,16.5l-77.6,122.5v-92.2
				c0-25.8-21-46.8-46.8-46.8c-16.1,0-30.9,8.1-39.5,21.8l-74.3,117.3v-99.6c0-21.8-17.7-39.5-39.5-39.5s-39.5,17.7-39.5,39.5v195.6
				c0,25.8,21,46.8,46.8,46.8c16.1,0,30.9-8.1,39.5-21.8l74.3-117.3v92.2c0,25.8,21,46.8,46.8,46.8c16.1,0,30.9-8.1,39.5-21.8
				l130.2-205.6C-2624.9,166.7-2624.4,152.8-2630.7,141.5z"/>
			<path class="st2" d="M-2625.4,350.3c0-0.2,0-0.3,0-0.5c0-0.5,0.1-1,0.1-1.5c0-18.9-15.3-34.2-34.2-34.2s-34.2,15.3-34.2,34.2
				s15.3,34.2,34.2,34.2v22.4c17.4,0,31.7-32.5,33.9-52.2C-2625.5,351.9-2625.4,351.1-2625.4,350.3z"/>
		</g>
	</g>
	<g>
		<path class="st1" d="M-2350.9,200.8l-12.2,95.6c-2,14.8-5.6,25.3-10.9,31.5c-5.3,6.2-14.2,9.3-26.7,9.3c-12.2,0-20.8-3.1-25.6-9.3
			c-4.7-6-7.9-16.5-9.7-31.5l-9.1-74.5c-0.5-3.6-0.9-5.9-1.4-6.8c-0.5-0.9-1.4-1.4-2.9-1.4s-2.5,0.5-2.9,1.4
			c-0.5,0.9-0.9,3.2-1.4,6.8l-9.1,74.5c-1.8,14.9-5.1,25.4-9.7,31.5c-4.8,6.2-13.4,9.3-25.6,9.3c-12.5,0-21.4-3.1-26.7-9.3
			c-5.3-6.2-8.9-16.7-10.9-31.5l-12.2-95.6c-0.6-5.1-0.2-8.6,1.4-10.4c1.5-1.8,4.9-2.7,10.2-2.7h4.5c5.1,0,8.7,0.9,10.6,2.6
			c2,1.7,3.3,5.2,4.1,10.5l11.3,95.6c0.8,5.6,1.6,9.2,2.6,11c1,1.7,2.7,2.6,5.1,2.6c2.4,0,4.2-0.9,5.3-2.7c1.1-1.8,2.1-5.4,2.8-10.9
			l10.4-77.2c1.7-12.1,4.5-20.3,8.6-24.7c4.4-4.5,11.5-6.8,21.5-6.8c10.1,0,17.2,2.3,21.3,6.8c4.4,4.4,7.3,12.6,8.8,24.7l10.4,77.2
			c0.8,5.4,1.7,9.1,2.8,10.9c1.1,1.8,2.9,2.7,5.3,2.7c2.4,0,4.1-0.9,5.1-2.6c1-1.7,1.8-5.4,2.6-11l11.3-95.6
			c0.8-5.3,2.1-8.8,4.1-10.5c2-1.7,5.5-2.6,10.6-2.6h4.5c5.3,0,8.7,0.9,10.2,2.7C-2350.8,192.2-2350.3,195.7-2350.9,200.8z"/>
		<path class="st1" d="M-2231.6,267.9c0,1.1-0.2,4-0.5,8.8c-0.6,5.1-1.8,8.5-3.7,10.1c-1.9,1.6-5.5,2.4-11,2.4h-57.5v3.4
			c0,5.9,2.3,10.2,7,13c4.7,2.8,12.2,4.2,22.6,4.2c7.7,0,16.8-1.1,27.4-3.2c4.8-1.1,8-0.8,9.6,0.7c1.6,1.5,2.4,4.9,2.4,10.2v2.5
			c0,5-0.8,8.4-2.3,10.2c-1.5,1.8-4.8,3.3-9.7,4.5c-6.9,2-16.2,2.9-27.6,2.9c-20.4,0-35.3-4-44.8-11.9c-9.5-7.9-14.3-20.5-14.3-37.7
			v-18.1c0-34,17.6-50.9,52.8-50.9C-2248.1,219-2231.6,235.3-2231.6,267.9z M-2304.3,261.8v3.4h44.6v-3.4c0-11.5-7.5-17.2-22.4-17.2
			C-2296.9,244.5-2304.3,250.3-2304.3,261.8z"/>
		<path class="st1" d="M-2211.7,300.7V189.1c0-5.1,0.8-8.5,2.5-10.2c1.7-1.7,5.1-2.5,10.2-2.5h4.1c5.1,0,8.5,0.8,10.2,2.5
			c1.7,1.7,2.5,5.1,2.5,10.2v105.1c0,5.7,0.8,9.7,2.3,11.9c1.5,2.2,4.1,3.3,7.7,3.3h1.1c3.2,0,5.2,0.6,6.2,1.9
			c1,1.3,1.5,4.1,1.5,8.5v4.3c0,4.5-0.5,7.6-1.6,9.3c-1.1,1.7-3.1,2.8-6.1,3.4c-2.7,0.3-5,0.5-6.8,0.5c-10.7,0-19-3.1-24.9-9.3
			C-2208.7,321.7-2211.7,312.6-2211.7,300.7z"/>
		<path class="st1" d="M-2120.4,200.2c-3.5,3.5-7.6,5.2-12.5,5.2c-4.8,0-9-1.7-12.5-5.2c-3.5-3.5-5.2-7.6-5.2-12.5
			c0-4.8,1.7-9,5.2-12.5c3.5-3.5,7.6-5.2,12.5-5.2c4.8,0,9,1.7,12.5,5.2c3.5,3.5,5.2,7.6,5.2,12.5
			C-2115.2,192.5-2116.9,196.7-2120.4,200.2z M-2147.6,322.2v-87.9c0-5.1,0.8-8.5,2.5-10.2c1.7-1.7,5.1-2.5,10.2-2.5h4.1
			c5.1,0,8.5,0.8,10.2,2.5c1.7,1.7,2.5,5.1,2.5,10.2v87.9c0,5.1-0.8,8.5-2.5,10.2c-1.7,1.7-5.1,2.5-10.2,2.5h-4.1
			c-5.1,0-8.5-0.8-10.2-2.5C-2146.8,330.7-2147.6,327.3-2147.6,322.2z"/>
		<path class="st1" d="M-2064,264.7v57.5c0,5.1-0.8,8.5-2.5,10.2c-1.7,1.7-5.1,2.5-10.2,2.5h-4.3c-5.1,0-8.5-0.8-10.2-2.5
			c-1.7-1.7-2.5-5.1-2.5-10.2v-57.5c0-14.9,4.3-26.3,13-34.1c8.7-7.8,21.5-11.7,38.6-11.7c17.5,0,30.4,3.7,38.7,11.2
			c8.3,7.5,12.5,19,12.5,34.5v57.5c0,5.1-0.8,8.5-2.5,10.2c-1.7,1.7-5.1,2.5-10.2,2.5h-4.3c-5.1,0-8.5-0.8-10.2-2.5
			c-1.7-1.7-2.5-5.1-2.5-10.2v-57.5c0-6.8-1.5-11.5-4.5-14c-3-2.6-8.7-3.8-17-3.8c-8.3,0-14,1.3-17.2,4
			C-2062.4,253.4-2064,258.1-2064,264.7z"/>
		<path class="st1" d="M-1868.4,260.2v1.4c0,28.1-16.9,42.1-50.7,42.1c-8.9,0-14.8,0.4-17.5,1.1c-2.8,0.8-4.2,2.3-4.2,4.8
			c0,2.1,1.4,3.5,4.2,4.2c2.8,0.7,8.6,1,17.5,1c20.7,0,34.9,2.5,42.6,7.5c7.7,5,11.5,13.9,11.5,26.7c0,13-3.9,22.1-11.5,27.4
			c-8,5.3-22.2,7.9-42.6,7.9c-20.7,0-35-2.4-43-7.2c-7.7-4.8-11.5-12.5-11.5-22.9c0-9.8,3.8-17,11.3-21.5c-5.3-3.6-7.9-9.2-7.9-16.8
			c0-10.1,5.8-17.1,17.4-21.1c-11.6-6.6-17.4-17.7-17.4-33.3v-1.4c0-13,4.5-23.1,13.5-30.3c9-7.2,21.5-10.9,37.7-10.9
			c7.4,0,14,1,19.9,2.9l13.1-9.5c3.6-2.7,6.6-4,9.1-4c2.4,0.1,5.2,1.7,8.4,4.9l0.7,0.7c3.3,3.3,5,6,5.1,7.9c0.1,2-1.4,4.7-4.4,8.2
			l-8.2,9.1C-1870.7,244.7-1868.4,251.7-1868.4,260.2z M-1919.1,339.9c-6.9,0-13.2-0.2-18.8-0.7c-4.1,1.8-6.1,5.3-6.1,10.4
			c0,4.1,1.5,6.7,4.5,7.9c3.3,1.2,10.1,1.8,20.4,1.8c8.2,0,14.2-0.5,18.1-1.4c4.2-1.1,6.3-3.8,6.3-8.4c0-4.4-1.6-7.1-4.8-8.2
			C-1902.4,340.4-1909,339.9-1919.1,339.9z M-1898.1,261.5v-1.4c0-5.4-1.6-9.4-4.9-11.9c-3.2-2.5-8.6-3.7-16.2-3.7
			c-7.7,0-13.2,1.2-16.5,3.7c-3.3,2.5-5,6.5-5,11.9v1.4c0,5.9,1.7,10.1,5,12.7c3.3,2.6,8.8,3.8,16.5,3.8c7.7,0,13.1-1.3,16.3-3.8
			C-1899.6,271.6-1898.1,267.4-1898.1,261.5z"/>
		<path class="st1" d="M-1757,257.9v43.3c0,12.4-4,21.5-12,27.5c-8,6-20.4,8.9-37.1,8.9c-16.8,0-29.1-2.9-37.1-8.7
			c-8-5.8-12-14.8-12-27.1c0-23.5,15.3-35.3,46-35.3h22.9v-8.6c0-5.1-1.8-8.7-5.4-10.8c-3.6-2-9.7-3.1-18.1-3.1
			c-6.3,0-12.9,0.5-19.7,1.4c-5,0.8-8.3,0.4-10.1-1c-1.7-1.4-2.6-4.6-2.6-9.6v-0.9c0-4.8,0.8-8.2,2.4-10c1.6-1.8,4.9-3.1,9.9-3.9
			c7.1-0.8,13.2-1.1,18.3-1.1c18.6,0,32.3,3.1,41.3,9.3C-1761.5,234.4-1757,244.3-1757,257.9z M-1786.4,299.6v-10.9h-23.3
			c-10.7,0-16.1,4.2-16.1,12.5c0.5,4.8,2.1,8,5,9.6s7.6,2.3,14.3,2.2c6.8,0.2,11.7-0.7,14.8-2.6
			C-1788.7,308.4-1786.9,304.9-1786.4,299.6z"/>
	</g>
</g>
</svg>
