<?xml version="1.0" encoding="utf-8"?>
<!-- Generator: Adobe Illustrator 26.1.0, SVG Export Plug-In . SVG Version: 6.00 Build 0)  -->
<svg version="1.1" id="Layer_1" xmlns="http://www.w3.org/2000/svg" xmlns:xlink="http://www.w3.org/1999/xlink" x="0px" y="0px"
	 viewBox="0 0 1500 1500" style="enable-background:new 0 0 1500 1500;" xml:space="preserve">
<style type="text/css">
	.st0{fill:#FF6D15;}
	.st1{fill:#FF6412;}
	.st2{fill:#FF8249;}
	.st3{fill:#2C2C2C;}
	.st4{fill:#FFD053;}
	.st5{fill:#FFC448;}
	.st6{fill:#FFD77A;}
	.st7{fill:#47C4E9;}
	.st8{fill:#00BBE9;}
	.st9{fill:#71523F;}
	.st10{fill:#FF6669;}
	.st11{fill:#FF4141;}
	.st12{fill:#FF4343;}
	.st13{fill:#FF4242;}
	.st14{fill:#FF5C5C;}
	.st15{fill:#654735;}
	.st16{fill:#AF6E51;}
	.st17{opacity:0.33;fill:#823329;}
	.st18{fill:#EFCAB9;}
	.st19{fill:#FF2223;}
	.st20{fill:#FFFFFF;}
	.st21{fill:#F0F1F1;}
	.st22{fill:#3F3E40;}
	.st23{fill:#EFBE52;}
	.st24{fill:#FFC545;}
	.st25{fill:#FFC85A;}
	.st26{fill:#FFC543;}
	.st27{fill:#FF3A03;}
	.st28{fill:#FBB700;}
	.st29{fill:#FFDFAB;}
	.st30{fill:none;stroke:#B26E24;stroke-width:6.0566;stroke-linecap:round;stroke-linejoin:round;stroke-miterlimit:10;}
	.st31{fill:#ADAB9C;}
	.st32{opacity:0.4;fill:url(#SVGID_1_);}
	.st33{opacity:0.8;fill:#7B7B7B;}
	.st34{opacity:0.4;fill:#7B7B7B;}
	.st35{opacity:0.6;fill:#D1D0C6;}
	.st36{opacity:0.6;fill:#7B7B7B;}
	.st37{opacity:0.7;fill:#7B7B7B;}
	.st38{opacity:0.3;fill:#7B7B7B;}
	.st39{fill:#D1D0C6;}
	.st40{fill:#E24E58;}
	.st41{fill:#FF5F65;}
	.st42{fill:#684829;}
	.st43{fill:#3EC64B;}
	.st44{fill:#FFCC5A;stroke:#B26E24;stroke-width:6.0566;stroke-linecap:round;stroke-linejoin:round;stroke-miterlimit:10;}
</style>
<g>
	<g>
		<g>
			
				<ellipse transform="matrix(0.7071 -0.7071 0.7071 0.7071 -4615.7705 -3221.1025)" class="st0" cx="-6196.1" cy="3961.2" rx="512.9" ry="512.9"/>
		</g>
		<g>
			<path class="st1" d="M-5927.8,3523.4c51.1,79.7,80.7,174.5,80.7,276.3c0,283.3-229.6,512.9-512.9,512.9
				c-98.4,0-190.3-27.7-268.3-75.7c91.2,142.3,250.7,236.6,432.2,236.6c283.3,0,512.9-229.6,512.9-512.9
				C-5683.2,3775.7-5781,3613.7-5927.8,3523.4z"/>
		</g>
		<g>
			<path class="st2" d="M-6639.3,4015.3c0-263,213.2-476.2,476.2-476.2c153.7,0,290.4,72.9,377.5,185.9
				c-82.2-142.8-236.4-238.9-412.9-238.9c-263,0-476.2,213.2-476.2,476.2c0,109.3,36.8,209.9,98.7,290.3
				C-6616.3,4182.8-6639.3,4101.7-6639.3,4015.3z"/>
		</g>
	</g>
	<g>
		<g>
			<g>
				<ellipse class="st3" cx="-6385.1" cy="3865.7" rx="37.8" ry="63.7"/>
			</g>
			<g>
				<path class="st3" d="M-5969.3,3865.7c0,35.2-16.9,63.7-37.8,63.7c-20.9,0-37.8-28.5-37.8-63.7s16.9-63.7,37.8-63.7
					C-5986.3,3802-5969.3,3830.5-5969.3,3865.7z"/>
			</g>
		</g>
	</g>
	<g>
		<path class="st3" d="M-6295.7,3794.3L-6295.7,3794.3c-9.5,9.5-24.9,9.5-34.4,0l-80.4-80.4c-9.5-9.5-9.5-24.9,0-34.4l0,0
			c9.5-9.5,24.9-9.5,34.4,0l80.4,80.4C-6286.2,3769.4-6286.2,3784.8-6295.7,3794.3z"/>
		<path class="st3" d="M-6096.5,3794.3L-6096.5,3794.3c-9.5-9.5-9.5-24.9,0-34.4l80.4-80.4c9.5-9.5,24.9-9.5,34.4,0l0,0
			c9.5,9.5,9.5,24.9,0,34.4l-80.4,80.4C-6071.6,3803.8-6087,3803.8-6096.5,3794.3z"/>
	</g>
	<rect x="-6603.2" y="4047.6" class="st3" width="814.1" height="284.9"/>
	
		<text transform="matrix(1 0 0 1 -6544.7183 4252.2148)" class="st20" style="font-family:'Montserrat-Bold'; font-size:214.4064px;">&amp;$!#%</text>
</g>
<g>
	<g>
		<g>
			<g>
				<circle class="st4" cx="696.6" cy="696.8" r="512"/>
			</g>
			<g>
				<path class="st5" d="M577,198.4c92.3,20.2,180.2,66.2,252,138.1c199.9,199.9,199.9,524.1,0,724.1
					c-69.4,69.4-153.9,114.7-242.9,135.9c164.8,36.1,344-9.9,472.1-138.1c199.9-199.9,199.9-524.1,0-724.1
					C927.7,203.9,744.3,158.6,577,198.4z"/>
			</g>
			<g>
				<path class="st6" d="M422,1047.8c-185.6-185.6-185.6-486.6,0-672.3C530.5,267.1,678.4,222,819.7,240.4
					c-158.8-42.7-335.4-1.8-460.1,122.9c-185.6,185.6-185.6,486.6,0,672.3c77.1,77.1,174.2,122.2,274.6,135.2
					C556.5,1149.8,483,1108.9,422,1047.8z"/>
			</g>
		</g>
		<g>
			<g>
				<path class="st3" d="M507.2,897.9c-4.6,4.6-11.1,7.1-18,6.2c-11.9-1.5-20.3-12.3-18.9-24.2l11.5-92.9l-85.7,22.2
					c-11.6,3-23.4-4-26.5-15.6c-3-11.6,4-23.4,15.6-26.5L501.9,737c7-1.8,14.4,0,19.8,4.7c5.4,4.7,8.1,11.9,7.2,19l-15.5,124.6
					C512.8,890.3,510.5,894.7,507.2,897.9z"/>
			</g>
			<g>
				<path class="st3" d="M897.8,507.4c-3.3,3.3-7.7,5.6-12.7,6.2L760.5,529c-7.1,0.9-14.2-1.8-19-7.2c-4.7-5.4-6.5-12.8-4.7-19.8
					l30.2-116.6c3-11.6,14.8-18.6,26.5-15.6c11.6,3,18.6,14.9,15.6,26.5L786.9,482l92.9-11.5c11.9-1.5,22.7,7,24.2,18.9
					C904.8,496.3,902.3,502.8,897.8,507.4z"/>
			</g>
		</g>
	</g>
	<g>
		<g>
			<path class="st7" d="M914.9,457.5c133.9,187.5,234.6,194,234.6,194c72.5,17.1,145.1-27.7,162.2-100.2
				c17.1-72.5-27.7-145.1-100.2-162.2C1211.5,389.1,1118.6,349.8,914.9,457.5z"/>
			<path class="st8" d="M1245.2,638.6c32.4-17.7,57.4-48.5,66.5-87.3c17.1-72.5-27.7-145.1-100.2-162.2c0,0-39.1-16.5-122,1.3
				C1253.4,456.7,1259.1,570.9,1245.2,638.6z"/>
		</g>
		<g>
			<path class="st7" d="M451.1,916.7c-102.9,206.2-61.4,298.2-61.4,298.2c18.8,72,92.5,115.2,164.6,96.3
				c72-18.8,115.2-92.5,96.3-164.6C650.6,1146.6,641.7,1046.1,451.1,916.7z"/>
			<path class="st8" d="M446,1293.3c30.8,20.3,69.8,27.9,108.3,17.9c72-18.8,115.2-92.5,96.3-164.6c0,0-3.8-42.2-58.3-107.2
				C610.5,1215.3,512.4,1273.8,446,1293.3z"/>
		</g>
	</g>
	<g>
		<path class="st9" d="M537.2,952.2c115.9,92.4,285.2,85,392.5-22.3C1037,822.6,1044.4,653.3,952,537.4L537.2,952.2z"/>
		<path class="st10" d="M729.4,1016.1c72.7-2.1,144.8-30.8,200.3-86.3c53.1-53.1,81.7-121.4,85.9-190.9l-6.4-2.6
			C802,807.8,730.4,1013.3,729.4,1016.1z"/>
	</g>
</g>
<g>
	<g>
		<g>
			<g>
				
					<ellipse transform="matrix(0.7071 -0.7071 0.7071 0.7071 -3447.3591 -3705.0742)" class="st4" cx="-6196.1" cy="2308.8" rx="512.9" ry="512.9"/>
			</g>
			<g>
				<path class="st5" d="M-5928.7,1870.5c51.2,79.6,81.1,174.4,81.3,276.1c0.6,283.3-228.5,513.4-511.8,514
					c-98.4,0.2-190.3-27.3-268.5-75.2c91.5,142.1,251.2,236.1,432.7,235.7c283.3-0.6,512.4-230.7,511.8-514
					C-5683.6,2122.2-5781.8,1960.4-5928.7,1870.5z"/>
			</g>
			<g>
				<path class="st6" d="M-6639.2,2363.9c-0.6-263,212.2-476.7,475.2-477.2c153.7-0.3,290.6,72.2,377.9,185.1
					c-82.5-142.6-236.9-238.3-413.4-238c-263,0.6-475.7,214.2-475.2,477.2c0.2,109.3,37.3,209.8,99.3,290.1
					C-6615.8,2531.3-6639,2450.3-6639.2,2363.9z"/>
			</g>
		</g>
	</g>
	<g>
		<ellipse class="st9" cx="-6196.1" cy="2431.1" rx="92.6" ry="157"/>
		<path class="st10" d="M-6117.9,2515.2c-67.6-37.1-122.6-16.1-154.4,5c16.7,41,44.6,67.9,76.2,67.9
			C-6163.2,2588.1-6134.4,2559-6117.9,2515.2z"/>
	</g>
	<g>
		<g>
			<path class="st7" d="M-6354.7,2206.8l-135,86l3.3,438.9c40.1,27.6,84.4,49.6,131.7,65V2206.8z"/>
			<path class="st7" d="M-6037.3,2206.8l135,86l-3.3,438.9c-40.1,27.6-84.4,49.6-131.7,65V2206.8z"/>
		</g>
		<g>
			<g>
				<path class="st3" d="M-6472.8,2308c-6.5,0-12.9-2.9-17.2-8.4c-7.4-9.5-5.7-23.1,3.8-30.5l74-57.6l-76.5-45
					c-10.4-6.1-13.8-19.4-7.7-29.8c6.1-10.4,19.4-13.8,29.8-7.7l104,61.2c6.2,3.7,10.2,10.1,10.7,17.3c0.5,7.2-2.7,14.1-8.3,18.6
					l-99.2,77.3C-6463.4,2306.5-6468.1,2308-6472.8,2308z"/>
			</g>
			<g>
				<path class="st3" d="M-5919.4,2308c-4.7,0-9.4-1.5-13.3-4.6l-99.2-77.3c-5.7-4.4-8.8-11.4-8.3-18.6c0.5-7.2,4.5-13.7,10.7-17.3
					l104-61.2c10.3-6.1,23.7-2.6,29.8,7.7c6.1,10.3,2.6,23.7-7.7,29.8l-76.5,45l74,57.6c9.5,7.4,11.2,21,3.8,30.5
					C-5906.6,2305.1-5913,2308-5919.4,2308z"/>
			</g>
		</g>
	</g>
</g>
<g>
	<g>
		<path class="st11" d="M-6435.6-4641.6c-0.8-9.2-6.2-17.2-14.5-21.3c-84.1-41.7-143.2-117.6-164.8-148.3
			c-6.3-9-17.4-13.1-28.1-10.4c-10.7,2.7-18.5,11.5-19.8,22.5c-21.8,184,19.4,257.8,38.1,281c5.2,6.4,12.8,9.8,20.5,9.8
			c5.5,0,11-1.7,15.8-5.2l142.2-104.6C-6438.8-4623.6-6434.8-4632.4-6435.6-4641.6z"/>
		<path class="st11" d="M-5880.9-4641.6c0.8-9.2,6.2-17.2,14.5-21.3c84.1-41.7,143.2-117.6,164.7-148.3c6.3-9,17.4-13.1,28.1-10.4
			c10.7,2.7,18.5,11.5,19.8,22.5c21.8,184-19.4,257.8-38.1,281c-5.2,6.4-12.8,9.8-20.5,9.8c-5.5,0-11-1.7-15.8-5.2l-142.2-104.6
			C-5877.7-4623.6-5881.7-4632.4-5880.9-4641.6z"/>
	</g>
	<g>
		<g>
			<ellipse class="st12" cx="-6158.3" cy="-4309.2" rx="512.9" ry="511.4"/>
		</g>
		<g>
			<path class="st13" d="M-5889.9-4745.6c51.1,79.5,80.7,174,80.7,275.5c0,282.4-229.6,511.4-512.9,511.4
				c-98.4,0-190.3-27.6-268.3-75.5c91.2,141.9,250.7,235.9,432.2,235.9c283.3,0,512.9-229,512.9-511.4
				C-5645.4-4494.1-5743.2-4655.7-5889.9-4745.6z"/>
		</g>
		<g>
			<path class="st14" d="M-6601.4-4255.2c0-262.2,213.2-474.8,476.2-474.8c153.7,0,290.4,72.6,377.5,185.4
				c-82.2-142.3-236.4-238.2-412.9-238.2c-263,0-476.2,212.6-476.2,474.8c0,108.9,36.8,209.3,98.7,289.4
				C-6578.4-4088.2-6601.4-4169.1-6601.4-4255.2z"/>
		</g>
	</g>
	<path class="st15" d="M-6368.5-4233.8c-13.2-12.8-34.4,1.4-27.5,18.4c37.9,94.4,130.5,161.1,238.7,161.1
		c106.4,0,197.7-64.5,236.8-156.4c7.1-16.8-14.2-31.3-27.3-18.6C-6023-4156.7-6182.3-4053.5-6368.5-4233.8z"/>
	<g>
		<g>
			<g>
				<ellipse class="st3" cx="-6347.2" cy="-4372.7" rx="37.8" ry="63.5"/>
			</g>
			<g>
				<path class="st3" d="M-5931.5-4372.7c0,35.1-16.9,63.5-37.8,63.5s-37.8-28.4-37.8-63.5c0-35.1,16.9-63.5,37.8-63.5
					S-5931.5-4407.8-5931.5-4372.7z"/>
			</g>
		</g>
	</g>
	<g>
		<polygon class="st3" points="-6240.7,-4468.9 -6275.1,-4434.6 -6389.8,-4549 -6355.4,-4583.3 		"/>
		<polygon class="st3" points="-6041.4,-4434.6 -6075.8,-4468.9 -5961.1,-4583.3 -5926.7,-4549 		"/>
	</g>
</g>
<g>
	<g>
		<path class="st16" d="M-6116.2-6308.6h-70.7c-4.8,0-9.5,0.2-14.3,0.5c33.8,3.9,60,30.9,60,63.7l0,0c0,35.5-30.7,64.3-68.5,64.3
			h-99.1c-61,0-110.5,46.4-110.5,103.7c0,57.3,49.5,103.7,110.5,103.7h18.8c29.9,17.6,65.2,27.8,103,27.8h70.7
			c107.1,0,193.9-81.4,193.9-181.9v0C-5922.4-6227.2-6009.2-6308.6-6116.2-6308.6z"/>
	</g>
	<g>
		<path class="st16" d="M-5930.2-5706.6h-465.5c-89.8,0-162.5-72.8-162.5-162.5v0c0-89.8,72.8-162.5,162.5-162.5h465.5
			c89.8,0,162.5,72.8,162.5,162.5v0C-5767.7-5779.4-5840.4-5706.6-5930.2-5706.6z"/>
	</g>
	<g>
		<path class="st16" d="M-5833.9-5412.6h-656.8c-100.4,0-181.8-81.4-181.8-181.8l0,0c0-100.4,81.4-181.8,181.8-181.8h656.8
			c100.4,0,181.8,81.4,181.8,181.8l0,0C-5652.1-5493.9-5733.5-5412.6-5833.9-5412.6z"/>
	</g>
	<rect x="-6448.1" y="-5806.3" class="st16" width="584.9" height="63.3"/>
	<rect x="-6355.8" y="-6071.2" class="st16" width="348.6" height="52"/>
	<g>
		<path class="st17" d="M-5836-5524.5h-652.6c-80.5,0-148.6-52.7-172-125.4c-5.6,17.4-8.7,35.9-8.7,55.2
			c0,99.8,80.9,180.6,180.6,180.6h652.6c99.8,0,180.6-80.9,180.6-180.6c0-19.3-3.1-37.8-8.7-55.2
			C-5687.4-5577.2-5755.5-5524.5-5836-5524.5z"/>
		<path class="st17" d="M-6077.7-6244.3L-6077.7-6244.3c0-32.8-26.2-59.8-60-63.7c4.7-0.3,9.5-0.5,14.3-0.5h-63.5
			c-4.8,0-9.5,0.2-14.3,0.5c33.8,3.9,60,30.9,60,63.7v0c0,35.5-30.7,64.3-68.5,64.3h63.5C-6108.3-6180-6077.7-6208.8-6077.7-6244.3z
			"/>
		<path class="st17" d="M-6344.9-6031.6c-6.9-13.6-10.9-28.7-10.9-44.7c0-57.3,49.5-103.7,110.5-103.7h-63.5
			c-61,0-110.5,46.4-110.5,103.7c0,16.3,4.1,31.6,11.3,45.4c4.1-0.3,8.2-0.6,12.3-0.6H-6344.9z"/>
	</g>
	<g>
		<g>
			<g>
				<path class="st3" d="M-6249.1-5898.4c0,20.9-10.1,37.9-22.5,37.9c-12.4,0-22.5-17-22.5-37.9c0-20.9,10.1-37.9,22.5-37.9
					C-6259.2-5936.3-6249.1-5919.3-6249.1-5898.4z"/>
			</g>
			<g>
				<path class="st3" d="M-6024.2-5898.4c0,20.9-10.1,37.9-22.5,37.9s-22.5-17-22.5-37.9c0-20.9,10.1-37.9,22.5-37.9
					S-6024.2-5919.3-6024.2-5898.4z"/>
			</g>
		</g>
	</g>
	<path class="st18" d="M-6364.2-5795.4c11.6,103,99,183,205.1,183c106.1,0,193.5-80.1,205.1-183H-6364.2z"/>
	<path class="st10" d="M-6300.8-5668.8c37,34.9,86.8,56.4,141.7,56.4c52.5,0,100.4-19.6,136.8-51.9l-1.9-4.4
		C-6162-5735.9-6298.9-5669.7-6300.8-5668.8z"/>
</g>
<g>
	<g>
		<g>
			
				<ellipse transform="matrix(0.7071 -0.7071 0.7071 0.7071 2191.7908 -286.5491)" class="st4" cx="750" cy="-2789" rx="508.8" ry="508.8"/>
		</g>
		<g>
			<path class="st5" d="M1016.2-3223.3c50.7,79.1,80.1,173.2,80.1,274.1c0,281-227.8,508.8-508.8,508.8
				c-97.6,0-188.8-27.5-266.2-75.1c90.4,141.2,248.7,234.7,428.8,234.7c281,0,508.8-227.8,508.8-508.8
				C1258.8-2973,1161.8-3133.8,1016.2-3223.3z"/>
		</g>
		<g>
			<path class="st6" d="M310.3-2735.3c0-260.9,211.5-472.4,472.4-472.4c152.5,0,288.1,72.3,374.5,184.4
				c-81.6-141.6-234.5-237-409.6-237c-260.9,0-472.4,211.5-472.4,472.4c0,108.4,36.5,208.3,97.9,288
				C333.2-2569.2,310.3-2649.6,310.3-2735.3z"/>
		</g>
	</g>
	<g>
		<path class="st9" d="M533.7-2684.9c12.3,108.6,104.4,193,216.3,193c111.9,0,204-84.4,216.3-193H533.7z"/>
		<path class="st10" d="M600.6-2551.3c39,36.8,91.5,59.4,149.4,59.4c55.4,0,105.9-20.7,144.3-54.7l-2-4.7
			C747.1-2622.1,602.6-2552.3,600.6-2551.3z"/>
	</g>
	<g>
		<path id="XMLID_555_" class="st19" d="M679.8-2937c0-0.3,0-0.5,0-0.7c0-47-34-90-85.1-90c-40.6,0-64.1,29.2-72.2,56.5l0,0
			c-8-27.3-31.6-56.5-72.2-56.5c-51.1,0-85.1,43-85.1,90c0,0.3,0,0.5,0,0.7c-0.3,10.2,0,114.2,157.2,199v0c0,0,0,0,0,0c0,0,0,0,0,0
			c0,0,0,0,0,0c0,0,0,0,0,0v0C679.9-2822.7,680.1-2926.7,679.8-2937z"/>
		<path id="XMLID_554_" class="st19" d="M1134.7-2937c0-0.3,0-0.5,0-0.7c0-47-34-90-85.1-90c-40.6,0-64.1,29.2-72.2,56.5l0,0
			c-8-27.3-31.6-56.5-72.2-56.5c-51.1,0-85.1,43-85.1,90c0,0.3,0,0.5,0,0.7c-0.3,10.2,0,114.2,157.2,199v0c0,0,0,0,0,0c0,0,0,0,0,0
			c0,0,0,0,0,0c0,0,0,0,0,0v0C1134.7-2822.7,1134.9-2926.7,1134.7-2937z"/>
	</g>
</g>
<g>
	<g>
		<g>
			<g>
				<g>
					
						<ellipse transform="matrix(0.7071 -0.7071 0.7071 0.7071 58.8083 -5125.0273)" class="st4" cx="-6157.1" cy="-2633.5" rx="514.1" ry="514.1"/>
				</g>
				<g>
					<path class="st5" d="M-5888.1-3072.3c51.2,79.9,80.9,175,80.9,276.9c0,283.9-230.2,514.1-514.1,514.1
						c-98.6,0-190.7-27.8-269-75.9c91.4,142.6,251.3,237.2,433.2,237.2c283.9,0,514.1-230.2,514.1-514.1
						C-5642.9-2819.4-5741-2981.8-5888.1-3072.3z"/>
				</g>
				<g>
					<path class="st6" d="M-6601.3-2579.3c0-263.6,213.7-477.3,477.3-477.3c154.1,0,291.1,73,378.4,186.3
						c-82.4-143.1-236.9-239.4-413.9-239.4c-263.6,0-477.3,213.7-477.3,477.3c0,109.5,36.9,210.4,99,291
						C-6578.2-2411.4-6601.3-2492.6-6601.3-2579.3z"/>
				</g>
			</g>
		</g>
		<path class="st15" d="M-5962.7-2568.1c5.4-0.6,8.5,6,8.4,11c-0.2,22.8-6.3,46.2-18.1,69.4c-11.2,21.3-27.2,41.1-46.3,57.3
			c-37.9,31.7-88.3,50-138.4,50.2c-50.9,1-101.8-17.4-139.3-49.9c-39-33.4-62.8-80.8-63.5-126.8c-0.1-5.3,3.5-12,9.3-11
			c4.8,0.9,8.8,7.4,12.3,10.4c5.5,4.6,11.2,8.9,17,13c11.6,8.2,23.9,15.6,36.4,22.3c46.3,24.7,98.8,38,151.4,33.5
			c33.5-2.9,66-13,95.9-28.3c17.9-9.2,34.9-20.2,50.9-32.4c6.1-4.6,16-17.1,23.5-18.5C-5963-2568-5962.8-2568.1-5962.7-2568.1z"/>
		<g>
			<g>
				<g>
					<g>
						<path class="st3" d="M-6314.6-2725.5c0,35.3-17,63.8-37.9,63.8c-20.9,0-37.9-28.6-37.9-63.8c0-35.3,17-63.9,37.9-63.9
							C-6331.6-2789.4-6314.6-2760.8-6314.6-2725.5z"/>
					</g>
				</g>
			</g>
			<path class="st3" d="M-5892.4-2704.3c-14.6-36.4-49.3-59.9-88.4-59.9c-38.3,0-72.8,22.8-87.7,58.1c-2.9,6.8-0.6,14.4,5.4,18.6
				c6.1,4.2,14,3.5,19.3-1.6c28.5-27.7,73.6-49.9,126.5,1.5c3,2.9,6.8,4.4,10.7,4.4c3,0,5.9-0.9,8.5-2.6
				C-5892-2689.9-5889.7-2697.5-5892.4-2704.3z"/>
		</g>
	</g>
	<g>
		<path class="st20" d="M-5745.6-3105.6c-37.8,183.6-181.7,226.8-181.7,226.8s143.9,43.2,181.7,226.8
			c37.8-183.6,181.7-226.8,181.7-226.8S-5707.8-2922-5745.6-3105.6z"/>
		<path class="st21" d="M-5745.6-3105.6c-37.8,183.6-181.7,226.8-181.7,226.8S-5734.2-2850.6-5745.6-3105.6z"/>
	</g>
</g>
<g>
	<g>
		<g>
			<g>
				<g>
					
						<ellipse transform="matrix(0.7071 -0.7071 0.7071 0.7071 -3369.4939 -2492.6772)" class="st4" cx="-4693.7" cy="2821" rx="520.1" ry="520.1"/>
				</g>
				<g>
					<path class="st5" d="M-4421.6,2377.1c51.8,80.9,81.8,177,81.8,280.1c0,287.2-232.9,520.1-520.1,520.1
						c-99.8,0-192.9-28.1-272.1-76.8c92.4,144.3,254.2,239.9,438.3,239.9c287.2,0,520.1-232.9,520.1-520.1
						C-4173.6,2632.9-4272.8,2468.6-4421.6,2377.1z"/>
				</g>
				<g>
					<path class="st6" d="M-5143.1,2875.9c0-266.7,216.2-482.9,482.9-482.9c155.9,0,294.5,73.9,382.8,188.5
						c-83.4-144.8-239.7-242.2-418.7-242.2c-266.7,0-482.9,216.2-482.9,482.9c0,110.8,37.3,212.9,100.1,294.4
						C-5119.7,3045.7-5143.1,2963.5-5143.1,2875.9z"/>
				</g>
			</g>
			<g>
				<g>
					<g>
						<path class="st3" d="M-4847,2694.8c0,35.7-17.2,64.6-38.3,64.6c-21.2,0-38.3-28.9-38.3-64.6c0-35.7,17.2-64.6,38.3-64.6
							C-4864.1,2630.2-4847,2659.1-4847,2694.8z"/>
					</g>
					<g>
						<path class="st3" d="M-4463.7,2694.8c0,35.7-17.2,64.6-38.3,64.6c-21.2,0-38.3-28.9-38.3-64.6c0-35.7,17.2-64.6,38.3-64.6
							C-4480.9,2630.2-4463.7,2659.1-4463.7,2694.8z"/>
					</g>
				</g>
			</g>
		</g>
		<g>
			<path class="st22" d="M-4550.3,2488.5c5.6,1.6,11,3.2,16.4,4.6c11.7,3.3,22.7,6.4,33.4,10.1c15.9,5.4,30.3,11.5,43.8,18.6
				c14.3,7.5,27.2,15.9,39.6,25.7c13.5,10.5,26.1,22.8,37.7,34.5c0.7,0.7,1.7,0.9,2.5,0.5c0.9-0.4,1.4-1.2,1.3-2.2
				c-0.9-17.8-7.9-36.1-20.3-53.1c-11.4-15.4-26.6-28.3-44-37.4c-16.4-8.6-34.7-13.9-53.2-15.3c-0.7-0.1-1.4-0.1-2.1-0.1
				c-20.7-1.1-39.3,2.2-55.4,9.8c-0.8,0.4-1.4,1.3-1.3,2.2C-4551.8,2487.5-4551.2,2488.3-4550.3,2488.5z"/>
			<path class="st22" d="M-4837,2488.5c-5.6,1.6-11,3.2-16.4,4.6c-11.7,3.3-22.7,6.4-33.4,10.1c-15.9,5.4-30.3,11.5-43.8,18.6
				c-14.3,7.5-27.2,15.9-39.6,25.7c-13.5,10.5-26.1,22.8-37.7,34.5c-0.7,0.7-1.7,0.9-2.5,0.5c-0.9-0.4-1.4-1.2-1.3-2.2
				c0.9-17.8,7.9-36.1,20.3-53.1c11.4-15.4,26.6-28.3,44-37.4c16.4-8.6,34.7-13.9,53.2-15.3c0.7-0.1,1.4-0.1,2.1-0.1
				c20.7-1.1,39.3,2.2,55.4,9.8c0.8,0.4,1.4,1.3,1.3,2.2C-4835.5,2487.5-4836.1,2488.3-4837,2488.5z"/>
		</g>
		<g>
			<g>
				<path class="st9" d="M-4502.1,3051.3c-11.1-114.9-92.9-204-192-203.8c-99.1,0.2-180.6,89.7-191.2,204.6L-4502.1,3051.3z"/>
			</g>
			<path class="st10" d="M-4885.3,3052.1c0,0,161.3-161.9,383.2-0.8L-4885.3,3052.1z"/>
		</g>
	</g>
	<path class="st23" d="M-4254.9,2416.3c0,0-34-25.5-68.1,17c-34,42.6-51.1,76.6-93.6,42.6c-42.6-34,17-153.2,119.2-161.7
		c102.1-8.5,93.6,8.5,127.7,59.6L-4254.9,2416.3z"/>
	<path class="st24" d="M-4161.3,2578.1c0,0-76.6,0-93.6-119.2c-17-119.2,119.2-76.6,119.2-76.6s42.6,8.5,51.1,42.6
		C-4076.2,2458.9-4084.7,2586.6-4161.3,2578.1z"/>
	<path class="st4" d="M-4050.6,2527c0,0,0,93.6-68.1,85.1s-34-76.6-42.6-110.7c-8.5-34,25.5-93.6,93.6-85.1
		c68.1,8.5,127.7,17,85.1,204.3s-153.2,170.2-195.8,144.7l-59.2-191c0,0,59.2-21.8,67.7-13.3S-4067.7,2595.1-4050.6,2527z"/>
	<path class="st25" d="M-4289,2501.4c0,0,34-25.5,59.6-17c25.5,8.5,59.6,42.6,8.5,102.1h-8.5L-4289,2501.4z"/>
</g>
<g>
	<g>
		<g>
			<g>
				<g>
					<circle class="st4" cx="-3811" cy="-6001.4" r="512"/>
				</g>
				<g>
					<path class="st5" d="M-3312.6-6121c-20.2,92.3-66.2,180.2-138.1,252c-199.9,199.9-524.1,199.9-724.1,0
						c-69.4-69.4-114.7-153.9-135.9-242.9c-36.1,164.8,9.9,344,138.1,472.1c199.9,199.9,524.1,199.9,724.1,0
						C-3318-5770.3-3272.7-5953.7-3312.6-6121z"/>
				</g>
				<g>
					<path class="st6" d="M-4162-6276.1c185.6-185.6,486.6-185.6,672.3,0c108.5,108.5,153.6,256.4,135.2,397.7
						c42.7-158.8,1.8-335.4-122.9-460.1c-185.6-185.6-486.6-185.6-672.3,0c-77.1,77.1-122.2,174.2-135.2,274.6
						C-4264-6141.6-4223-6215-4162-6276.1z"/>
				</g>
			</g>
			<g>
				<g>
					<path class="st3" d="M-4012.1-6190.9c-4.6-4.6-7.1-11.1-6.2-18c1.5-11.9,12.3-20.3,24.2-18.9l92.9,11.5l-22.2-85.7
						c-3-11.6,4-23.4,15.6-26.5c11.6-3,23.4,4,26.5,15.6l30.2,116.6c1.8,7,0,14.4-4.7,19.8c-4.7,5.4-11.9,8.1-19,7.2l-124.6-15.5
						C-4004.4-6185.3-4008.8-6187.6-4012.1-6190.9z"/>
				</g>
				<g>
					<path class="st3" d="M-3621.5-5800.3c-3.3-3.3-5.6-7.7-6.2-12.7l-15.5-124.6c-0.9-7.1,1.8-14.2,7.2-19
						c5.4-4.7,12.8-6.5,19.8-4.7l116.6,30.2c11.6,3,18.6,14.8,15.6,26.5c-3,11.6-14.9,18.6-26.5,15.6l-85.7-22.2l11.5,92.9
						c1.5,11.9-7,22.7-18.9,24.2C-3610.4-5793.2-3617-5795.7-3621.5-5800.3z"/>
				</g>
			</g>
		</g>
		<g>
			<g>
				<path class="st7" d="M-3571.7-5783.2c-187.5,133.9-194,234.6-194,234.6c-17.1,72.5,27.7,145.1,100.2,162.2
					c72.5,17.1,145.1-27.7,162.2-100.2C-3503.2-5486.5-3464-5579.5-3571.7-5783.2z"/>
				<path class="st8" d="M-3752.8-5452.9c17.7,32.4,48.5,57.4,87.3,66.5c72.5,17.1,145.1-27.7,162.2-100.2c0,0,16.5-39.1-1.3-122
					C-3570.8-5444.7-3685-5438.9-3752.8-5452.9z"/>
			</g>
			<g>
				<path class="st7" d="M-4030.8-6246.9c-206.2-102.9-298.2-61.4-298.2-61.4c-72,18.8-115.2,92.5-96.3,164.6
					c18.8,72,92.5,115.2,164.6,96.3C-4260.8-6047.4-4160.3-6056.3-4030.8-6246.9z"/>
				<path class="st8" d="M-4407.4-6252.1c-20.3,30.8-27.9,69.8-17.9,108.3c18.8,72,92.5,115.2,164.6,96.3c0,0,42.2-3.8,107.2-58.3
					C-4329.4-6087.5-4388-6185.7-4407.4-6252.1z"/>
			</g>
		</g>
		<g>
			<path class="st9" d="M-4066.3-6160.8c-92.4,115.9-85,285.2,22.3,392.5c107.3,107.3,276.6,114.7,392.5,22.3L-4066.3-6160.8z"/>
			<path class="st10" d="M-4130.3-5968.6c2.1,72.7,30.8,144.8,86.3,200.3c53.1,53.1,121.4,81.7,190.9,85.9l2.6-6.4
				C-3922-5896.1-4127.5-5967.6-4130.3-5968.6z"/>
		</g>
	</g>
	<g>
		<path class="st4" d="M-4687.2-5852.5c0,0-42.3-30.2-66.5-36.2s-90.6-54.4-24.2-96.7c0,0-84.6-36.2,12.1-114.8
			c0,0-78.5,42.3-139,36.2s-132.9-96.7-30.2-169.2s422.9-36.2,459.2,108.7s-12.1,265.8-126.9,284
			C-4602.6-5840.4-4650.9-5828.3-4687.2-5852.5z"/>
		<path class="st26" d="M-3477-6210.8c0,0,60.4,48.3,102.7,90.6s120.8,84.6,157.1,60.4s84.6-66.5,24.2-163.1
			c-60.4-96.7-108.7-120.8-84.6-259.8s-84.6-139-126.9-72.5c0,0-42.3-90.6-102.7-18.1c0,0-126.9,12.1-66.5,145
			c0,0,27.2,57.4,63.4,75.5c0,0-60.4,12.1-66.5,42.3S-3600.9-6201.8-3477-6210.8z"/>
	</g>
	<path class="st5" d="M-4959.6-6186.2c0,0-32.6,65.1,24.4,97.7c57,32.6,89.6,8.1,89.6,8.1S-4967.7-6064.1-4959.6-6186.2z"/>
	<path class="st5" d="M-4721.1-6113.6c0,0,6.1-73,103.4-66.9C-4617.7-6180.5-4690.7-6168.3-4721.1-6113.6z"/>
	<path class="st5" d="M-4781.9-5998c0,0-24.3-12.2-18.3-36.5c6.1-24.3,42.6-48.7,42.6-48.7S-4806.3-6034.5-4781.9-5998z"/>
	<path class="st5" d="M-4779.4-5911.2c0,0-33-25.9-8.6-56.3C-4788-5967.6-4825.5-5940.1-4779.4-5911.2"/>
	<path class="st5" d="M-4607.9-6039.7c0,0-8.8,45.2,81.5,58.1C-4526.4-5981.6-4592.6-6001-4607.9-6039.7z"/>
	<path class="st5" d="M-4649-5846.1c0,0,103.3,6.5,129.1-90.3C-4520-5936.4-4552.2-5871.9-4649-5846.1"/>
</g>
<path class="st27" d="M-3746.8-4537.9c186.6-215.7-15.7-381.7-15.7-381.7c130.2,204.3-224.3,107.9-310.7,260.9
	c-100.4,177.8-73.5,426.5-167.4,450.5c-93.8,24-82.3-108.6-82.3-108.6c-222.5,439.6,82.3,633.8,82.3,633.8h0
	c80.1,61.7,190,99.7,311.3,99.7c172.1,0,321.3-76.6,394.9-188.6c315.3-390-24.6-876.1-24.6-876.1
	C-3477.5-4301.2-3933.4-4322.1-3746.8-4537.9z"/>
<g>
	<path class="st28" d="M-3831.3-3929.9c-212-37-203.5-390.2-203.5-390.2c-7.6,70.9-24.3,165.3-36.6,236.1
		c-8,45.8-32.4,128-86.4,141.9c-52.9,13.7-86.9-37.2-98.3-81.4c-1.6-6.3-2.8-12.7-3.8-19c-14.3,35.2-22.1,73.1-22.1,112.6
		c0,182.7,166.4,330.8,371.6,330.8c205.3,0,371.6-148.1,371.6-330.8c0-40.6-8.2-79.4-23.3-115.4
		C-3562-4045.2-3629.8-3894.7-3831.3-3929.9z"/>
</g>
<g>
	<g>
		<g>
			<path class="st29" d="M-3702.9-3872c-41.8,49-103.5,85.1-167.2,78.6c-54.9-5.6-88.4-40.9-113.9-83.4c-8.7,40.9-25,81.2-62.1,95.6
				c-32.2,12.5-60.3-0.4-81.6-22.5c6.7,101.5,101.3,182,217,182c120.1,0,217.4-86.7,217.4-193.6
				C-3693.2-3835-3696.7-3854-3702.9-3872z"/>
		</g>
	</g>
</g>
<g>
	<g>
		<g>
			<g>
				
					<ellipse transform="matrix(0.7071 -0.7071 0.7071 0.7071 524.5704 -3462.6643)" class="st4" cx="-3917.5" cy="-2364.5" rx="512.9" ry="512.9"/>
			</g>
			<g>
				<path class="st5" d="M-3649.2-2802.3c51.1,79.7,80.7,174.5,80.7,276.3c0,283.3-229.6,512.9-512.9,512.9
					c-98.4,0-190.3-27.7-268.3-75.7c91.2,142.3,250.7,236.6,432.2,236.6c283.3,0,512.9-229.6,512.9-512.9
					C-3404.6-2550-3502.5-2712.1-3649.2-2802.3z"/>
			</g>
			<g>
				<path class="st6" d="M-4360.7-2310.4c0-263,213.2-476.2,476.2-476.2c153.7,0,290.4,72.9,377.5,185.9
					c-82.2-142.8-236.4-238.9-412.9-238.9c-263,0-476.2,213.2-476.2,476.2c0,109.3,36.8,209.9,98.7,290.3
					C-4337.7-2143-4360.7-2224-4360.7-2310.4z"/>
			</g>
		</g>
		<g>
			<g>
				<g>
					<path class="st3" d="M-4068.7-2489c0,35.2-16.9,63.7-37.8,63.7c-20.9,0-37.8-28.5-37.8-63.7c0-35.2,16.9-63.7,37.8-63.7
						C-4085.6-2552.7-4068.7-2524.2-4068.7-2489z"/>
				</g>
				<g>
					<path class="st3" d="M-3690.8-2489c0,35.2-16.9,63.7-37.8,63.7c-20.9,0-37.8-28.5-37.8-63.7c0-35.2,16.9-63.7,37.8-63.7
						C-3707.7-2552.7-3690.8-2524.2-3690.8-2489z"/>
				</g>
			</g>
		</g>
		<path class="st9" d="M-4262.2-2316c19.5,173.1,166.3,307.6,344.6,307.6c178.3,0,325.1-134.5,344.6-307.6H-4262.2z"/>
		<path class="st10" d="M-4155.6-2103.2c62.1,58.7,145.9,94.7,238.1,94.7c88.2,0,168.7-33,229.9-87.2l-3.2-7.5
			C-3922.2-2216-4152.4-2104.7-4155.6-2103.2z"/>
	</g>
	<g>
		<path class="st4" d="M-4717.9-2039.8C-4717.9-2039.8-4717.9-2039.8-4717.9-2039.8c29.6,27.5,120.5,45.1,212.6,1.4
			c92.1-43.7,82.5-85.2,82.5-85.2s93.3,0,70.8-104.6c-2.8-12.8-6.6-26.8-11.4-40.7c-16.6-47.9-45-93.3-80.6-75.2
			c0,0-53.2-98.6-35-167.8c21.4-81.5-1.4-119.4-26.8-131c-46.7-21.4-154.1,110.9-92.2,194.9c0,0-89.9-15.4-158.6,31.1
			c-68.8,46.5-7,141.7-7,141.7s-38.7,109.7,33.2,133.6C-4730.4-2141.7-4747.4-2067.3-4717.9-2039.8z"/>
		<path class="st5" d="M-4717.8-2039.8c29.6,27.5,120.5,45.1,212.5,1.4c92.1-43.7,82.5-85.2,82.5-85.2s93.3,0,70.8-104.6
			c-2.8-12.8-6.6-26.8-11.4-40.7c0,0-31.3-46-54.5-39.6c-23.2,6.4,42.6,122.2-9.2,106.7c0,0,2.2,125.3-132.3,163.5
			C-4657.3-2010.6-4716-2038.9-4717.8-2039.8z"/>
		<path class="st30" d="M-4598-2448c0,0,86.4,13.5,85.1,83.9s-250.7,88.8-250.7,88.8"/>
		<path class="st30" d="M-4566.6-2311.7c0,0,72.2,1.1,74,58.5c1.8,57.5-237.9,111.5-237.9,111.5"/>
		<path class="st30" d="M-4552.5-2199.2c0,0,69.4-4.8,74,48.8c4.6,53.6-146.5,85.9-146.5,85.9"/>
		<line class="st30" x1="-4577.9" y1="-2077.4" x2="-4604.7" y2="-2046.3"/>
		<path class="st30" d="M-4422.8-2123.6c0,0,16.3-36.3-4.3-78.2"/>
	</g>
</g>
<g>
	<g>
		<polygon class="st31" points="-4437.1,27.6 -4394.2,-438.9 -3923.8,-835.5 -3789.5,-812.1 -3555.8,-611.1 -3404.6,-184.3 
			-3415.5,-9.9 -3517.7,118.6 -3889.1,202.8 -4032.7,202.8 -4243.9,147.8 		"/>
		<linearGradient id="SVGID_1_" gradientUnits="userSpaceOnUse" x1="-3872.6257" y1="-441.0977" x2="-3826.6597" y2="-912.2506">
			<stop  offset="0" style="stop-color:#D1D0C6"/>
			<stop  offset="1" style="stop-color:#D1D0C6;stop-opacity:0"/>
		</linearGradient>
		<polygon class="st32" points="-3923.8,-835.5 -4153.2,-642.1 -3596.3,-400.3 -3555.8,-611.1 -3789.5,-812.1 		"/>
		<g>
			<polygon class="st33" points="-4437.1,27.6 -4243.9,147.8 -4240.1,-45.2 			"/>
			<polygon class="st34" points="-4394.2,-438.9 -4437.1,27.6 -4240.1,-45.2 -4187.2,-166.5 			"/>
			<polygon class="st35" points="-3517.7,-88.8 -3596.3,-400.3 -3625.9,-246.5 -3520.4,-95.9 			"/>
			<polygon class="st36" points="-4187.2,-166.5 -4240.1,-45.2 -4243.9,147.8 -4032.7,202.8 -3905.8,15.9 -3842.1,-126.7 			"/>
			<polygon class="st33" points="-4032.7,202.8 -3889.1,202.8 -3905.8,15.9 			"/>
			<polygon class="st37" points="-3517.7,118.6 -3415.5,-9.9 -3404.6,-184.3 -3517.7,-88.8 			"/>
			<polygon class="st38" points="-3596.3,-400.3 -3517.7,-88.8 -3404.6,-184.3 -3555.8,-611.1 			"/>
			<polygon class="st34" points="-3517.7,-88.8 -3520.4,-95.9 -3625.9,-246.5 -3842.1,-126.7 -3905.8,15.9 -3889.1,202.8 
				-3517.7,118.6 			"/>
		</g>
		<polygon class="st39" points="-3555.8,-611.1 -3789.5,-812.1 -3923.8,-835.5 -3794.6,-760.6 		"/>
	</g>
	<g>
		<g>
			<path class="st3" d="M-4151.9-285c-5.4,0-10.7-2.4-14.3-7c-6.1-7.9-4.7-19.3,3.2-25.4l61.6-48l-63.7-37.5
				c-8.6-5.1-11.5-16.2-6.4-24.8c5.1-8.6,16.2-11.5,24.8-6.4l86.7,51c5.2,3,8.5,8.4,8.9,14.4c0.4,6-2.2,11.8-6.9,15.5l-82.7,64.4
				C-4144.1-286.3-4148-285-4151.9-285z"/>
		</g>
		<g>
			<path class="st3" d="M-3690.9-285c-3.9,0-7.8-1.2-11.1-3.8l-82.7-64.4c-4.7-3.7-7.3-9.5-6.9-15.5c0.4-6,3.7-11.4,8.9-14.4
				l86.7-51c8.6-5.1,19.7-2.2,24.8,6.4c5.1,8.6,2.2,19.7-6.4,24.8l-63.7,37.5l61.6,48c7.9,6.1,9.3,17.5,3.2,25.4
				C-3680.2-287.4-3685.5-285-3690.9-285z"/>
		</g>
	</g>
	<g>
		<g>
			<path class="st20" d="M-4134.9-226.4c12.1,82.7,103.1,147.1,213.5,147.1c110.5,0,201.4-64.3,213.5-147.1H-4134.9z"/>
		</g>
		<g>
			<path class="st10" d="M-4048.8-226.4v166.7c0,70.1,57.4,127.4,127.4,127.4c70.1,0,127.4-57.4,127.4-127.4v-166.7H-4048.8z"/>
			<path class="st40" d="M-3921.4-36.5L-3921.4-36.5c-6.3,0-11.4-5.1-11.4-11.4v-178.5h22.8v178.5
				C-3910-41.6-3915.1-36.5-3921.4-36.5z"/>
			<path class="st41" d="M-3921.4,67.7c69.2,0,126-56,127.4-124.9c-81.3,79.1-167.8,89.2-218.2,86.6
				C-3989,53-3956.8,67.7-3921.4,67.7z"/>
		</g>
	</g>
</g>
<g>
	<path class="st42" d="M-2183.5-5369.9c0,0,167.3-61.6,237.8-273c70.4-211.3,140.9-299.4,255.4-317c0,0-70.6,57.2-169.6,198.1
		c0,0,94.7-61.6,130-70.4l8.8,44c0,0-184.9,29.7-215.7,226.2c0,0,171.7-199.8,462.3-164.5l35.2,44c0,0-290.6-26.4-378.7,79.3
		c0,0,96.9,79.3,140.9,79.3l-8.8,35.2c0,0-105.7-35.2-149.7-79.3c0,0-264.2,211.3-281.8,255.4L-2183.5-5369.9z"/>
	<path class="st43" d="M-1479-5924.7c0,0,140.9-52.8,88.1-132.1c-19.8-29.7-48.3-48.3-76.2-59.9c-47.8-19.9-101.3-20.8-151.1-6.6
		c-73.3,20.9-175.5,71.6-72.2,181c0,0-105.7,17.6-88.1,114.5c0,0,8.8,123.3,264.2,88.1c0,0-8.8,44,0,61.6c0,0-61.6-17.6-88.1,61.6
		c0,0-149.7,35.2-96.9,140.9c52.8,105.7,290.6,88.1,334.6-17.6c0,0,123.3-17.6,114.5-123.3c0,0,176.1,0,176.1-96.9
		c0-96.9-123.3-114.5-123.3-114.5s-48.4-115.3-259.8-64.2C-1457-5892-1457-5920.3-1479-5924.7z"/>
	<path class="st43" d="M-1278.2-6005c-12.8,0.4-25.3,6.4-32.7,16.8c-7.5,10.6-8.2,23.4,25.7,28.2c61.6,8.8,96.9-8.8,96.9-8.8
		S-1203.9-6007.3-1278.2-6005z"/>
	<path class="st43" d="M-1077.1-5919.1c-9.3,0.3-18.2,4.6-23.6,12.2c-5.4,7.6-6,16.9,18.5,20.4c44.5,6.4,69.9-6.4,69.9-6.4
		S-1023.4-5920.8-1077.1-5919.1z"/>
	<path class="st43" d="M-978.8-5688c-12.8,0.4-25.3,6.4-32.7,16.8c-7.5,10.6-8.2,23.4,25.7,28.2c61.6,8.8,96.9-8.8,96.9-8.8
		S-904.5-5690.3-978.8-5688z"/>
	<path class="st20" d="M-1302.9-6055.7c0,0,168.2-59.8,328.5-9.8c5.5,1.7,10.3,5.5,12.7,10.8c4.9,10.8,0.7,27.5-72.9,27.5
		c-108.5,0-102.8-34.3-17.1-34.3c0,0-117-8.6-117,25.7c0,34.3,279.7,45.7,279.7-5.7S-1180.1-6138.5-1302.9-6055.7z"/>
	<path class="st20" d="M-2183.5-6002.9c0,0,164.6-58.5,321.5-9.6c5.4,1.7,10.1,5.4,12.5,10.6c4.8,10.5,0.7,26.9-71.4,26.9
		c-106.2,0-100.6-33.5-16.8-33.5c0,0-114.5-8.4-114.5,25.1c0,33.5,273.8,44.7,273.8-5.6S-2063.3-6083.9-2183.5-6002.9z"/>
	<path class="st20" d="M-2165.9-5863.5c0,0,121.7,42.7,237.6,7c4-1.2,7.5-4,9.2-7.7c3.5-7.7,0.5-19.6-52.8-19.6
		c-78.5,0-74.3,24.5-12.4,24.5c0,0-84.7,6.1-84.7-18.3s202.4-32.6,202.4,4.1C-1866.5-5837-2077.1-5804.3-2165.9-5863.5z"/>
</g>
<g>
	<g>
		<g>
			<g>
				<g>
					
						<ellipse transform="matrix(0.7071 -0.7071 0.7071 0.7071 2309.5125 -2243.1033)" class="st4" cx="-1552.9" cy="-3909.4" rx="508.6" ry="508.2"/>
				</g>
				<g>
					<path class="st5" d="M-1286.9-4343.3c52.4,81.8,82,179.7,79.9,284.6c-5.7,274.9-233.5,497.7-508.4,497.7
						c-97.5,0-188.6-27.5-265.9-75.1c93.8,146.5,260.7,241.7,449.3,234.2c264.4-10.5,478.6-226.4,487.3-490.8
						C-1038.5-4083.2-1136.9-4251.1-1286.9-4343.3z"/>
				</g>
				<g>
					<path class="st6" d="M-1991.8-3876.7c10.6-243.3,208.8-440.9,452.1-450.7c160.3-6.4,303.7,67.1,393.7,183.9
						c-80.7-140.2-231.4-235-404.3-236.8c-253.3-2.6-466.3,199.1-476.7,452.2c-4.7,115.9,32.4,223,97.5,307.5
						C-1972.7-3695.4-1995.8-3783.2-1991.8-3876.7z"/>
				</g>
			</g>
			<g>
				<g>
					<g>
						<ellipse class="st3" cx="-1740.2" cy="-4004" rx="37.5" ry="63.1"/>
					</g>
					<g>
						<path class="st3" d="M-1328.1-4004c0,34.9-16.8,63.1-37.5,63.1s-37.5-28.3-37.5-63.1c0-34.9,16.8-63.1,37.5-63.1
							S-1328.1-4038.9-1328.1-4004z"/>
					</g>
				</g>
			</g>
			<g>
				<path class="st3" d="M-1651.7-4074.8L-1651.7-4074.8c-9.4,9.4-24.7,9.4-34.1,0l-79.7-79.7c-9.4-9.4-9.4-24.7,0-34.1l0,0
					c9.4-9.4,24.7-9.4,34.1,0l79.7,79.7C-1642.3-4099.5-1642.3-4084.2-1651.7-4074.8z"/>
				<path class="st3" d="M-1454.1-4074.8L-1454.1-4074.8c-9.4-9.4-9.4-24.7,0-34.1l79.7-79.7c9.4-9.4,24.7-9.4,34.1,0l0,0
					c9.4,9.4,9.4,24.7,0,34.1l-79.7,79.7C-1429.5-4065.4-1444.7-4065.4-1454.1-4074.8z"/>
			</g>
		</g>
		<g>
			<g>
				<path class="st9" d="M-1365.6-3676.7c-10.9-112.3-90.8-199.4-187.7-199.2c-96.9,0.2-176.5,87.7-186.9,200L-1365.6-3676.7z"/>
			</g>
			<path class="st10" d="M-1740.2-3675.9c0,0,157.7-158.2,374.6-0.8L-1740.2-3675.9z"/>
		</g>
	</g>
	<path class="st44" d="M-1357.6-3557.5c96.2-189,57.2-288.4,27.5-298.3c-31.8-10.6-91.7,21.2-116.5,88.2
		c-24.7,67-74.1,194.1-98.8,194.1c-24.7,0-42.3-60-42.3-60s-95.3-257.6-176.4-201.1c-58.7,40.8-4.8,181.4,29.5,256h0
		c0,0-89.5,82.8-78.9,174.5c10.6,91.7,102.3,218.8,240,204.7c137.6-14.1,257.6-49.4,264.7-211.7
		C-1305.7-3486.1-1330.3-3530.9-1357.6-3557.5z"/>
</g>
</svg>
